G04*
G04 #@! TF.GenerationSoftware,Altium Limited,Altium Designer,21.8.1 (53)*
G04*
G04 Layer_Color=16711935*
%FSLAX25Y25*%
%MOIN*%
G70*
G04*
G04 #@! TF.SameCoordinates,1F6DC5BD-204C-4425-B3C4-0D97729D07D1*
G04*
G04*
G04 #@! TF.FilePolarity,Negative*
G04*
G01*
G75*
%ADD29C,0.25800*%
%ADD30R,0.11800X0.06800*%
%ADD31O,0.11800X0.06800*%
%ADD32R,0.06800X0.11800*%
%ADD33O,0.06800X0.11800*%
%ADD34C,0.03200*%
%ADD47C,0.03162*%
D29*
X98000Y38000D02*
D03*
X28000Y238000D02*
D03*
X178000D02*
D03*
D30*
X8000Y218000D02*
D03*
X198000D02*
D03*
D31*
X8000Y208000D02*
D03*
Y198000D02*
D03*
Y188000D02*
D03*
Y178000D02*
D03*
Y168000D02*
D03*
Y158000D02*
D03*
Y148000D02*
D03*
Y138000D02*
D03*
Y128000D02*
D03*
Y118000D02*
D03*
Y108000D02*
D03*
Y98000D02*
D03*
Y88000D02*
D03*
Y78000D02*
D03*
Y68000D02*
D03*
Y58000D02*
D03*
Y48000D02*
D03*
Y38000D02*
D03*
Y28000D02*
D03*
X198000Y208000D02*
D03*
Y198000D02*
D03*
Y188000D02*
D03*
Y178000D02*
D03*
Y168000D02*
D03*
Y158000D02*
D03*
Y148000D02*
D03*
Y138000D02*
D03*
Y128000D02*
D03*
Y118000D02*
D03*
Y108000D02*
D03*
Y98000D02*
D03*
Y88000D02*
D03*
Y78000D02*
D03*
Y68000D02*
D03*
Y58000D02*
D03*
Y48000D02*
D03*
Y38000D02*
D03*
Y28000D02*
D03*
D32*
X8000Y8000D02*
D03*
D33*
X18000D02*
D03*
X28000D02*
D03*
X38000D02*
D03*
X48000D02*
D03*
X58000D02*
D03*
X68000D02*
D03*
X78000D02*
D03*
X88000D02*
D03*
X98000D02*
D03*
X108000D02*
D03*
X118000D02*
D03*
X128000D02*
D03*
X138000D02*
D03*
X148000D02*
D03*
X158000D02*
D03*
X168000D02*
D03*
X178000D02*
D03*
X188000D02*
D03*
X198000D02*
D03*
D34*
X155000Y130500D02*
D03*
X151000Y129000D02*
D03*
X147500Y127500D02*
D03*
X134500Y137750D02*
D03*
Y133530D02*
D03*
Y129500D02*
D03*
D47*
X99288Y157567D02*
D03*
Y153236D02*
D03*
X94957Y157567D02*
D03*
X94957Y153236D02*
D03*
M02*
