G04*
G04 #@! TF.GenerationSoftware,Altium Limited,Altium Designer,21.8.1 (53)*
G04*
G04 Layer_Color=32896*
%FSLAX25Y25*%
%MOIN*%
G70*
G04*
G04 #@! TF.SameCoordinates,1F6DC5BD-204C-4425-B3C4-0D97729D07D1*
G04*
G04*
G04 #@! TF.FilePolarity,Positive*
G04*
G01*
G75*
%ADD48C,0.00700*%
G36*
X146952Y210865D02*
X148247D01*
Y210541D01*
X148894D01*
Y210218D01*
X149218D01*
Y209894D01*
X149541D01*
Y209571D01*
X149865D01*
Y209247D01*
Y208923D01*
X150189D01*
Y208600D01*
X150512D01*
Y208276D01*
Y207952D01*
Y207629D01*
X150836D01*
Y207305D01*
Y206982D01*
Y206658D01*
Y206334D01*
X151159D01*
Y206011D01*
Y205687D01*
Y205364D01*
Y205040D01*
Y204716D01*
X151483D01*
Y204393D01*
Y204069D01*
Y203746D01*
Y203422D01*
Y203098D01*
Y202775D01*
Y202451D01*
Y202128D01*
Y201804D01*
Y201480D01*
Y201157D01*
X151159D01*
Y200833D01*
Y200510D01*
Y200186D01*
Y199862D01*
Y199539D01*
Y199215D01*
Y198891D01*
X150836D01*
Y198568D01*
Y198244D01*
Y197921D01*
Y197597D01*
Y197273D01*
Y196950D01*
Y196626D01*
X150512D01*
Y196303D01*
Y195979D01*
Y195655D01*
Y195332D01*
X150189D01*
Y195008D01*
Y194685D01*
Y194361D01*
Y194037D01*
X149865D01*
Y193714D01*
Y193390D01*
Y193067D01*
Y192743D01*
X149541D01*
Y192419D01*
Y192096D01*
Y191772D01*
X149218D01*
Y191448D01*
Y191125D01*
Y190801D01*
X148894D01*
Y190478D01*
Y190154D01*
Y189830D01*
Y189507D01*
X148571D01*
Y189183D01*
Y188859D01*
Y188536D01*
X148247D01*
Y188212D01*
Y187889D01*
X147923D01*
Y187565D01*
Y187241D01*
Y186918D01*
X147600D01*
Y186594D01*
Y186271D01*
X147276D01*
Y185947D01*
Y185624D01*
Y185300D01*
X146952D01*
Y184976D01*
Y184653D01*
X146629D01*
Y184329D01*
Y184005D01*
Y183682D01*
X146305D01*
Y183358D01*
Y183035D01*
X145982D01*
Y182711D01*
Y182387D01*
Y182064D01*
X145658D01*
Y181740D01*
Y181416D01*
X145334D01*
Y181093D01*
Y180769D01*
Y180446D01*
X145011D01*
Y180122D01*
Y179798D01*
X144687D01*
Y179475D01*
Y179151D01*
X144364D01*
Y178828D01*
Y178504D01*
X144040D01*
Y178180D01*
Y177857D01*
Y177533D01*
X143716D01*
Y177210D01*
Y176886D01*
X143393D01*
Y176562D01*
Y176239D01*
Y175915D01*
X143069D01*
Y175592D01*
Y175268D01*
X142746D01*
Y174944D01*
Y174621D01*
X142422D01*
Y174297D01*
Y173974D01*
Y173650D01*
X142098D01*
Y173326D01*
Y173003D01*
X141775D01*
Y172679D01*
Y172355D01*
X141451D01*
Y172032D01*
Y171708D01*
Y171385D01*
X141128D01*
Y171061D01*
Y170737D01*
X140804D01*
Y170414D01*
Y170090D01*
Y169767D01*
X140480D01*
Y169443D01*
Y169119D01*
X140157D01*
Y168796D01*
Y168472D01*
Y168149D01*
X139833D01*
Y167825D01*
Y167501D01*
Y167178D01*
X139509D01*
Y166854D01*
Y166531D01*
X139186D01*
Y166207D01*
Y165883D01*
Y165560D01*
X138862D01*
Y165236D01*
Y164912D01*
Y164589D01*
X138539D01*
Y164265D01*
Y163942D01*
Y163618D01*
X138215D01*
Y163294D01*
Y162971D01*
Y162647D01*
X137891D01*
Y162324D01*
Y162000D01*
Y161676D01*
Y161353D01*
X137568D01*
Y161029D01*
Y160705D01*
Y160382D01*
X137244D01*
Y160058D01*
Y159735D01*
Y159411D01*
Y159088D01*
X136921D01*
Y158764D01*
Y158440D01*
Y158117D01*
Y157793D01*
X136597D01*
Y157469D01*
Y157146D01*
Y156822D01*
Y156499D01*
Y156175D01*
X136273D01*
Y155851D01*
Y155528D01*
Y155204D01*
Y154881D01*
Y154557D01*
Y154233D01*
X135950D01*
Y153910D01*
Y153586D01*
Y153262D01*
Y152939D01*
Y152615D01*
Y152292D01*
Y151968D01*
Y151645D01*
Y151321D01*
Y150997D01*
Y150674D01*
Y150350D01*
Y150026D01*
Y149703D01*
Y149379D01*
Y149056D01*
Y148732D01*
Y148408D01*
Y148085D01*
Y147761D01*
Y147438D01*
Y147114D01*
Y146790D01*
Y146467D01*
Y146143D01*
Y145819D01*
Y145496D01*
Y145172D01*
Y144849D01*
Y144525D01*
Y144202D01*
Y143878D01*
Y143554D01*
X136273D01*
Y143231D01*
Y142907D01*
Y142583D01*
Y142260D01*
Y141936D01*
X136597D01*
Y141613D01*
Y141289D01*
Y140965D01*
Y140642D01*
X136921D01*
Y140318D01*
Y139995D01*
Y139671D01*
Y139347D01*
X137244D01*
Y139024D01*
Y138700D01*
Y138376D01*
X137568D01*
Y138053D01*
Y137729D01*
Y137406D01*
X137891D01*
Y137082D01*
Y136758D01*
Y136435D01*
X138215D01*
Y136111D01*
Y135788D01*
X138539D01*
Y135464D01*
Y135140D01*
X138862D01*
Y134817D01*
Y134493D01*
Y134170D01*
X139186D01*
Y133846D01*
Y133522D01*
X139509D01*
Y133199D01*
Y132875D01*
X139833D01*
Y132552D01*
X140157D01*
Y132228D01*
Y131904D01*
X140480D01*
Y131581D01*
Y131257D01*
X140804D01*
Y130933D01*
Y130610D01*
X141128D01*
Y130286D01*
X141451D01*
Y129963D01*
Y129639D01*
X141775D01*
Y129315D01*
X142098D01*
Y128992D01*
Y128668D01*
X142422D01*
Y128345D01*
X142746D01*
Y128021D01*
Y127697D01*
X143069D01*
Y127374D01*
X143393D01*
Y127050D01*
Y126727D01*
X143716D01*
Y126403D01*
Y126079D01*
X144040D01*
Y125756D01*
X144364D01*
Y125432D01*
Y125109D01*
X144687D01*
Y124785D01*
Y124461D01*
X145011D01*
Y124138D01*
Y123814D01*
X145334D01*
Y123491D01*
Y123167D01*
X145658D01*
Y122843D01*
Y122520D01*
X145982D01*
Y122196D01*
Y121872D01*
X146305D01*
Y121549D01*
Y121225D01*
Y120902D01*
X146629D01*
Y120578D01*
Y120254D01*
X146952D01*
Y119931D01*
Y119607D01*
Y119283D01*
X147276D01*
Y118960D01*
Y118636D01*
Y118313D01*
X147600D01*
Y117989D01*
Y117666D01*
Y117342D01*
Y117018D01*
X147923D01*
Y116695D01*
Y116371D01*
Y116048D01*
X148247D01*
Y115724D01*
Y115400D01*
Y115077D01*
Y114753D01*
Y114429D01*
X148571D01*
Y114106D01*
Y113782D01*
Y113459D01*
Y113135D01*
Y112811D01*
X148894D01*
Y112488D01*
Y112164D01*
Y111840D01*
Y111517D01*
Y111193D01*
Y110870D01*
Y110546D01*
Y110222D01*
Y109899D01*
X149218D01*
Y109575D01*
Y109252D01*
Y108928D01*
Y108604D01*
Y108281D01*
Y107957D01*
Y107634D01*
Y107310D01*
Y106986D01*
Y106663D01*
Y106339D01*
Y106016D01*
X148894D01*
Y105692D01*
Y105368D01*
Y105045D01*
Y104721D01*
X149541D01*
Y104397D01*
X149865D01*
Y104074D01*
Y103750D01*
Y103427D01*
Y103103D01*
Y102779D01*
X149541D01*
Y102456D01*
X149218D01*
Y102132D01*
X146952D01*
Y101809D01*
Y101485D01*
X147276D01*
Y101161D01*
Y100838D01*
Y100514D01*
Y100191D01*
X146952D01*
Y99867D01*
X146629D01*
Y99543D01*
X144687D01*
Y99867D01*
X144364D01*
Y100191D01*
Y100514D01*
X143716D01*
Y100191D01*
Y99867D01*
Y99543D01*
Y99220D01*
X143393D01*
Y98896D01*
X143069D01*
Y98573D01*
X141451D01*
Y98896D01*
X140804D01*
Y99220D01*
Y99543D01*
Y99867D01*
Y100191D01*
Y100514D01*
X140480D01*
Y100191D01*
X140157D01*
Y99867D01*
X139833D01*
Y99543D01*
X138862D01*
Y99220D01*
X138215D01*
Y99543D01*
X137568D01*
Y99867D01*
X137244D01*
Y100191D01*
Y100514D01*
Y100838D01*
Y101161D01*
Y101485D01*
X137568D01*
Y101809D01*
Y102132D01*
X136597D01*
Y101809D01*
X135303D01*
Y102132D01*
X134979D01*
Y102456D01*
X134655D01*
Y102779D01*
Y103103D01*
X134332D01*
Y103427D01*
Y103750D01*
X134655D01*
Y104074D01*
Y104397D01*
X134979D01*
Y104721D01*
X135626D01*
Y105045D01*
Y105368D01*
Y105692D01*
X135303D01*
Y106016D01*
Y106339D01*
Y106663D01*
Y106986D01*
Y107310D01*
Y107634D01*
Y107957D01*
Y108281D01*
Y108604D01*
Y108928D01*
Y109252D01*
Y109575D01*
Y109899D01*
Y110222D01*
Y110546D01*
X134979D01*
Y110870D01*
Y111193D01*
Y111517D01*
Y111840D01*
Y112164D01*
Y112488D01*
Y112811D01*
Y113135D01*
X134655D01*
Y113459D01*
Y113782D01*
Y114106D01*
Y114429D01*
Y114753D01*
Y115077D01*
X134332D01*
Y115400D01*
Y115724D01*
Y116048D01*
Y116371D01*
X134008D01*
Y116695D01*
Y117018D01*
Y117342D01*
Y117666D01*
X133685D01*
Y117989D01*
Y118313D01*
Y118636D01*
Y118960D01*
X133361D01*
Y119283D01*
Y119607D01*
Y119931D01*
X133037D01*
Y120254D01*
X132390D01*
Y119931D01*
X132714D01*
Y119607D01*
X132390D01*
Y119283D01*
Y118960D01*
Y118636D01*
Y118313D01*
Y117989D01*
Y117666D01*
Y117342D01*
Y117018D01*
X132067D01*
Y116695D01*
Y116371D01*
Y116048D01*
Y115724D01*
Y115400D01*
X131743D01*
Y115077D01*
Y114753D01*
Y114429D01*
Y114106D01*
X131419D01*
Y113782D01*
Y113459D01*
Y113135D01*
Y112811D01*
X131096D01*
Y112488D01*
Y112164D01*
Y111840D01*
Y111517D01*
Y111193D01*
X130772D01*
Y110870D01*
Y110546D01*
Y110222D01*
Y109899D01*
X130448D01*
Y109575D01*
Y109252D01*
Y108928D01*
Y108604D01*
X130125D01*
Y108281D01*
Y107957D01*
Y107634D01*
Y107310D01*
X129801D01*
Y106986D01*
Y106663D01*
Y106339D01*
Y106016D01*
Y105692D01*
X129478D01*
Y105368D01*
Y105045D01*
Y104721D01*
Y104397D01*
Y104074D01*
Y103750D01*
X129154D01*
Y103427D01*
Y103103D01*
Y102779D01*
Y102456D01*
Y102132D01*
Y101809D01*
Y101485D01*
Y101161D01*
Y100838D01*
Y100514D01*
X128830D01*
Y100191D01*
Y99867D01*
Y99543D01*
Y99220D01*
Y98896D01*
Y98573D01*
Y98249D01*
X109414D01*
Y98573D01*
Y98896D01*
Y99220D01*
X109090D01*
Y99543D01*
Y99867D01*
Y100191D01*
Y100514D01*
Y100838D01*
Y101161D01*
Y101485D01*
Y101809D01*
Y102132D01*
Y102456D01*
Y102779D01*
Y103103D01*
Y103427D01*
Y103750D01*
Y104074D01*
Y104397D01*
X108767D01*
Y104721D01*
Y105045D01*
Y105368D01*
Y105692D01*
Y106016D01*
Y106339D01*
Y106663D01*
Y106986D01*
Y107310D01*
Y107634D01*
Y107957D01*
Y108281D01*
Y108604D01*
X108443D01*
Y108928D01*
Y109252D01*
Y109575D01*
Y109899D01*
Y110222D01*
Y110546D01*
Y110870D01*
Y111193D01*
Y111517D01*
Y111840D01*
Y112164D01*
Y112488D01*
Y112811D01*
Y113135D01*
Y113459D01*
Y113782D01*
Y114106D01*
X107796D01*
Y113782D01*
Y113459D01*
X107472D01*
Y113135D01*
Y112811D01*
X107796D01*
Y112488D01*
X107472D01*
Y112164D01*
Y111840D01*
Y111517D01*
Y111193D01*
Y110870D01*
Y110546D01*
Y110222D01*
Y109899D01*
Y109575D01*
Y109252D01*
Y108928D01*
Y108604D01*
Y108281D01*
X107149D01*
Y107957D01*
Y107634D01*
Y107310D01*
Y106986D01*
Y106663D01*
Y106339D01*
Y106016D01*
Y105692D01*
Y105368D01*
Y105045D01*
Y104721D01*
Y104397D01*
X106825D01*
Y104074D01*
Y103750D01*
Y103427D01*
Y103103D01*
Y102779D01*
Y102456D01*
Y102132D01*
Y101809D01*
Y101485D01*
Y101161D01*
Y100838D01*
Y100514D01*
Y100191D01*
Y99867D01*
Y99543D01*
Y99220D01*
X106501D01*
Y98896D01*
Y98573D01*
Y98249D01*
X87085D01*
Y98573D01*
Y98896D01*
Y99220D01*
Y99543D01*
Y99867D01*
Y100191D01*
Y100514D01*
Y100838D01*
X86761D01*
Y101161D01*
Y101485D01*
Y101809D01*
Y102132D01*
Y102456D01*
Y102779D01*
Y103103D01*
Y103427D01*
Y103750D01*
Y104074D01*
X86438D01*
Y104397D01*
Y104721D01*
Y105045D01*
Y105368D01*
Y105692D01*
Y106016D01*
X86114D01*
Y106339D01*
Y106663D01*
Y106986D01*
Y107310D01*
X85790D01*
Y107634D01*
Y107957D01*
Y108281D01*
Y108604D01*
X85467D01*
Y108928D01*
Y109252D01*
Y109575D01*
Y109899D01*
X85143D01*
Y110222D01*
Y110546D01*
Y110870D01*
Y111193D01*
Y111517D01*
X84820D01*
Y111840D01*
Y112164D01*
Y112488D01*
Y112811D01*
X84496D01*
Y113135D01*
Y113459D01*
Y113782D01*
Y114106D01*
X84172D01*
Y114429D01*
Y114753D01*
Y115077D01*
Y115400D01*
X83849D01*
Y115724D01*
Y116048D01*
Y116371D01*
Y116695D01*
Y117018D01*
X83525D01*
Y117342D01*
Y117666D01*
Y117989D01*
Y118313D01*
Y118636D01*
Y118960D01*
Y119283D01*
Y119607D01*
Y119931D01*
Y120254D01*
X82878D01*
Y119931D01*
X82554D01*
Y119607D01*
Y119283D01*
Y118960D01*
X82231D01*
Y118636D01*
Y118313D01*
Y117989D01*
Y117666D01*
X81907D01*
Y117342D01*
Y117018D01*
Y116695D01*
Y116371D01*
X81583D01*
Y116048D01*
Y115724D01*
Y115400D01*
Y115077D01*
X81260D01*
Y114753D01*
Y114429D01*
Y114106D01*
Y113782D01*
Y113459D01*
Y113135D01*
X80936D01*
Y112811D01*
Y112488D01*
Y112164D01*
Y111840D01*
Y111517D01*
Y111193D01*
Y110870D01*
Y110546D01*
Y110222D01*
Y109899D01*
X80613D01*
Y109575D01*
Y109252D01*
Y108928D01*
Y108604D01*
Y108281D01*
Y107957D01*
Y107634D01*
Y107310D01*
Y106986D01*
Y106663D01*
Y106339D01*
Y106016D01*
Y105692D01*
Y105368D01*
X80289D01*
Y105045D01*
Y104721D01*
X80936D01*
Y104397D01*
X81260D01*
Y104074D01*
Y103750D01*
X81583D01*
Y103427D01*
Y103103D01*
X81260D01*
Y102779D01*
Y102456D01*
X80936D01*
Y102132D01*
X80613D01*
Y101809D01*
X79318D01*
Y102132D01*
X78347D01*
Y101809D01*
Y101485D01*
X78671D01*
Y101161D01*
Y100838D01*
Y100514D01*
Y100191D01*
Y99867D01*
X78347D01*
Y99543D01*
X77700D01*
Y99220D01*
X77053D01*
Y99543D01*
X76082D01*
Y99867D01*
Y100191D01*
X75758D01*
Y100514D01*
X75111D01*
Y100191D01*
Y99867D01*
Y99543D01*
Y99220D01*
Y98896D01*
X74464D01*
Y98573D01*
X73817D01*
Y98249D01*
X73493D01*
Y98573D01*
X72846D01*
Y98896D01*
X72522D01*
Y99220D01*
X72199D01*
Y99543D01*
Y99867D01*
Y100191D01*
Y100514D01*
X71875D01*
Y100191D01*
X71552D01*
Y99867D01*
X71228D01*
Y99543D01*
X69286D01*
Y99867D01*
X68963D01*
Y100191D01*
X68639D01*
Y100514D01*
Y100838D01*
Y101161D01*
Y101485D01*
X68963D01*
Y101809D01*
Y102132D01*
Y102456D01*
X68639D01*
Y102132D01*
X66697D01*
Y102456D01*
X66374D01*
Y102779D01*
Y103103D01*
X66050D01*
Y103427D01*
Y103750D01*
Y104074D01*
X66374D01*
Y104397D01*
Y104721D01*
X67021D01*
Y105045D01*
Y105368D01*
Y105692D01*
Y106016D01*
X66697D01*
Y106339D01*
Y106663D01*
Y106986D01*
Y107310D01*
Y107634D01*
Y107957D01*
Y108281D01*
Y108604D01*
Y108928D01*
Y109252D01*
X67021D01*
Y109575D01*
Y109899D01*
Y110222D01*
Y110546D01*
Y110870D01*
Y111193D01*
Y111517D01*
Y111840D01*
Y112164D01*
X67345D01*
Y112488D01*
X67021D01*
Y112811D01*
X67345D01*
Y113135D01*
Y113459D01*
Y113782D01*
Y114106D01*
Y114429D01*
X67668D01*
Y114753D01*
Y115077D01*
Y115400D01*
Y115724D01*
X67992D01*
Y116048D01*
Y116371D01*
Y116695D01*
Y117018D01*
X68316D01*
Y117342D01*
Y117666D01*
Y117989D01*
X68639D01*
Y118313D01*
Y118636D01*
Y118960D01*
X68963D01*
Y119283D01*
Y119607D01*
Y119931D01*
X69286D01*
Y120254D01*
Y120578D01*
Y120902D01*
X69610D01*
Y121225D01*
Y121549D01*
X69933D01*
Y121872D01*
Y122196D01*
Y122520D01*
X70257D01*
Y122843D01*
Y123167D01*
X70581D01*
Y123491D01*
Y123814D01*
X70904D01*
Y124138D01*
Y124461D01*
X71228D01*
Y124785D01*
Y125109D01*
X71552D01*
Y125432D01*
Y125756D01*
X71875D01*
Y126079D01*
X72199D01*
Y126403D01*
Y126727D01*
X72522D01*
Y127050D01*
Y127374D01*
X72846D01*
Y127697D01*
X73170D01*
Y128021D01*
Y128345D01*
X73493D01*
Y128668D01*
X73817D01*
Y128992D01*
Y129315D01*
X74140D01*
Y129639D01*
X74464D01*
Y129963D01*
Y130286D01*
X74788D01*
Y130610D01*
X75111D01*
Y130933D01*
Y131257D01*
X75435D01*
Y131581D01*
Y131904D01*
X75758D01*
Y132228D01*
X76082D01*
Y132552D01*
Y132875D01*
X76406D01*
Y133199D01*
Y133522D01*
X76729D01*
Y133846D01*
Y134170D01*
X77053D01*
Y134493D01*
Y134817D01*
X77377D01*
Y135140D01*
Y135464D01*
Y135788D01*
X77700D01*
Y136111D01*
Y136435D01*
X78024D01*
Y136758D01*
Y137082D01*
Y137406D01*
X78347D01*
Y137729D01*
Y138053D01*
Y138376D01*
X78671D01*
Y138700D01*
Y139024D01*
Y139347D01*
X78995D01*
Y139671D01*
Y139995D01*
Y140318D01*
X79318D01*
Y140642D01*
Y140965D01*
Y141289D01*
Y141613D01*
Y141936D01*
X79642D01*
Y142260D01*
Y142583D01*
Y142907D01*
Y143231D01*
X79965D01*
Y143554D01*
Y143878D01*
Y144202D01*
Y144525D01*
Y144849D01*
Y145172D01*
Y145496D01*
Y145819D01*
Y146143D01*
Y146467D01*
Y146790D01*
Y147114D01*
Y147438D01*
X80289D01*
Y147761D01*
Y148085D01*
Y148408D01*
Y148732D01*
Y149056D01*
Y149379D01*
Y149703D01*
Y150026D01*
X79965D01*
Y150350D01*
Y150674D01*
Y150997D01*
Y151321D01*
Y151645D01*
Y151968D01*
Y152292D01*
Y152615D01*
Y152939D01*
Y153262D01*
Y153586D01*
Y153910D01*
Y154233D01*
X79642D01*
Y154557D01*
Y154881D01*
Y155204D01*
Y155528D01*
Y155851D01*
Y156175D01*
X79318D01*
Y156499D01*
Y156822D01*
Y157146D01*
Y157469D01*
Y157793D01*
X78995D01*
Y158117D01*
Y158440D01*
Y158764D01*
Y159088D01*
X78671D01*
Y159411D01*
Y159735D01*
Y160058D01*
Y160382D01*
X78347D01*
Y160705D01*
Y161029D01*
Y161353D01*
Y161676D01*
X78024D01*
Y162000D01*
Y162324D01*
Y162647D01*
X77700D01*
Y162971D01*
Y163294D01*
Y163618D01*
X77377D01*
Y163942D01*
Y164265D01*
Y164589D01*
X77053D01*
Y164912D01*
Y165236D01*
Y165560D01*
X76729D01*
Y165883D01*
Y166207D01*
Y166531D01*
X76406D01*
Y166854D01*
Y167178D01*
Y167501D01*
X76082D01*
Y167825D01*
Y168149D01*
X75758D01*
Y168472D01*
Y168796D01*
Y169119D01*
X75435D01*
Y169443D01*
Y169767D01*
Y170090D01*
X75111D01*
Y170414D01*
Y170737D01*
X74788D01*
Y171061D01*
Y171385D01*
X74464D01*
Y171708D01*
Y172032D01*
Y172355D01*
X74140D01*
Y172679D01*
Y173003D01*
X73817D01*
Y173326D01*
Y173650D01*
Y173974D01*
X73493D01*
Y174297D01*
Y174621D01*
X73170D01*
Y174944D01*
Y175268D01*
X72846D01*
Y175592D01*
Y175915D01*
Y176239D01*
X72522D01*
Y176562D01*
Y176886D01*
X72199D01*
Y177210D01*
Y177533D01*
X71875D01*
Y177857D01*
Y178180D01*
Y178504D01*
X71552D01*
Y178828D01*
Y179151D01*
X71228D01*
Y179475D01*
Y179798D01*
X70904D01*
Y180122D01*
Y180446D01*
Y180769D01*
X70581D01*
Y181093D01*
Y181416D01*
X70257D01*
Y181740D01*
Y182064D01*
X69933D01*
Y182387D01*
Y182711D01*
Y183035D01*
X69610D01*
Y183358D01*
Y183682D01*
X69286D01*
Y184005D01*
Y184329D01*
Y184653D01*
X68963D01*
Y184976D01*
Y185300D01*
X68639D01*
Y185624D01*
Y185947D01*
Y186271D01*
X68316D01*
Y186594D01*
Y186918D01*
Y187241D01*
X67992D01*
Y187565D01*
Y187889D01*
X67668D01*
Y188212D01*
Y188536D01*
Y188859D01*
X67345D01*
Y189183D01*
Y189507D01*
Y189830D01*
X67021D01*
Y190154D01*
Y190478D01*
Y190801D01*
X66697D01*
Y191125D01*
Y191448D01*
Y191772D01*
X66374D01*
Y192096D01*
Y192419D01*
Y192743D01*
Y193067D01*
X66050D01*
Y193390D01*
Y193714D01*
Y194037D01*
X65727D01*
Y194361D01*
Y194685D01*
Y195008D01*
Y195332D01*
X65403D01*
Y195655D01*
Y195979D01*
Y196303D01*
Y196626D01*
Y196950D01*
X65079D01*
Y197273D01*
Y197597D01*
Y197921D01*
Y198244D01*
Y198568D01*
Y198891D01*
Y199215D01*
X64756D01*
Y199539D01*
Y199862D01*
Y200186D01*
Y200510D01*
Y200833D01*
Y201157D01*
Y201480D01*
X64432D01*
Y201804D01*
Y202128D01*
Y202451D01*
Y202775D01*
Y203098D01*
Y203422D01*
Y203746D01*
Y204069D01*
Y204393D01*
X64756D01*
Y204716D01*
Y205040D01*
Y205364D01*
Y205687D01*
Y206011D01*
Y206334D01*
X65079D01*
Y206658D01*
Y206982D01*
Y207305D01*
Y207629D01*
X65403D01*
Y207952D01*
Y208276D01*
Y208600D01*
X65727D01*
Y208923D01*
X66050D01*
Y209247D01*
Y209571D01*
X66374D01*
Y209894D01*
X66697D01*
Y210218D01*
X67345D01*
Y210541D01*
X67992D01*
Y210865D01*
X68963D01*
Y211189D01*
X70581D01*
Y210865D01*
X71875D01*
Y210541D01*
X73170D01*
Y210218D01*
X73817D01*
Y209894D01*
X74788D01*
Y209571D01*
X75435D01*
Y209247D01*
X76082D01*
Y208923D01*
X76729D01*
Y208600D01*
X77053D01*
Y208276D01*
X77700D01*
Y207952D01*
X78347D01*
Y207629D01*
X78671D01*
Y207305D01*
X79318D01*
Y206982D01*
X79642D01*
Y206658D01*
X80289D01*
Y206334D01*
X80613D01*
Y206011D01*
X80936D01*
Y205687D01*
X81583D01*
Y205364D01*
X81907D01*
Y205040D01*
X82231D01*
Y204716D01*
X82878D01*
Y204393D01*
X83201D01*
Y204069D01*
X83525D01*
Y203746D01*
X84172D01*
Y203422D01*
X84496D01*
Y203098D01*
X84820D01*
Y202775D01*
X85143D01*
Y202451D01*
X85467D01*
Y202128D01*
X86114D01*
Y201804D01*
X86438D01*
Y201480D01*
X86761D01*
Y201157D01*
X87085D01*
Y200833D01*
X87408D01*
Y200510D01*
X87732D01*
Y200186D01*
X88379D01*
Y199862D01*
X88703D01*
Y199539D01*
X89026D01*
Y199215D01*
X89350D01*
Y198891D01*
X89674D01*
Y198568D01*
X89997D01*
Y198244D01*
X90321D01*
Y197921D01*
X90645D01*
Y197597D01*
X90968D01*
Y197273D01*
X91292D01*
Y196950D01*
X91615D01*
Y196626D01*
X92263D01*
Y196303D01*
X92586D01*
Y195979D01*
X92910D01*
Y195655D01*
X93233D01*
Y195332D01*
X93557D01*
Y195008D01*
X93881D01*
Y194685D01*
X94204D01*
Y194361D01*
X94528D01*
Y194037D01*
X94851D01*
Y193714D01*
X95175D01*
Y193390D01*
X95499D01*
Y193067D01*
X95822D01*
Y192743D01*
X96146D01*
Y192419D01*
X96469D01*
Y192096D01*
X96793D01*
Y191772D01*
X97117D01*
Y191448D01*
X97440D01*
Y191125D01*
X97764D01*
Y190801D01*
Y190478D01*
X98088D01*
Y190154D01*
X98411D01*
Y189830D01*
X98735D01*
Y189507D01*
X99058D01*
Y189183D01*
X99382D01*
Y188859D01*
X99706D01*
Y188536D01*
X100029D01*
Y188212D01*
X100353D01*
Y187889D01*
X100676D01*
Y187565D01*
X101000D01*
Y187241D01*
X101324D01*
Y186918D01*
X101647D01*
Y186594D01*
X101971D01*
Y186271D01*
Y185947D01*
X102294D01*
Y185624D01*
X102618D01*
Y185300D01*
X102942D01*
Y184976D01*
X103265D01*
Y184653D01*
X103589D01*
Y184329D01*
X103912D01*
Y184005D01*
X104236D01*
Y183682D01*
X104560D01*
Y183358D01*
Y183035D01*
X104883D01*
Y182711D01*
X105207D01*
Y182387D01*
X105531D01*
Y182064D01*
X105854D01*
Y181740D01*
X106178D01*
Y181416D01*
X106501D01*
Y181093D01*
X106825D01*
Y180769D01*
Y180446D01*
X107149D01*
Y180122D01*
X107472D01*
Y179798D01*
X107796D01*
Y179475D01*
X108119D01*
Y179798D01*
X108443D01*
Y180122D01*
X108767D01*
Y180446D01*
X109090D01*
Y180769D01*
X109414D01*
Y181093D01*
Y181416D01*
X109737D01*
Y181740D01*
X110061D01*
Y182064D01*
X110385D01*
Y182387D01*
X110708D01*
Y182711D01*
X111032D01*
Y183035D01*
X111355D01*
Y183358D01*
X111679D01*
Y183682D01*
X112003D01*
Y184005D01*
Y184329D01*
X112326D01*
Y184653D01*
X112650D01*
Y184976D01*
X112973D01*
Y185300D01*
X113297D01*
Y185624D01*
X113621D01*
Y185947D01*
X113944D01*
Y186271D01*
X114268D01*
Y186594D01*
Y186918D01*
X114915D01*
Y187241D01*
Y187565D01*
X115239D01*
Y187889D01*
X115562D01*
Y188212D01*
X115886D01*
Y188536D01*
X116210D01*
Y188859D01*
X116533D01*
Y189183D01*
X116857D01*
Y189507D01*
X117181D01*
Y189830D01*
X117504D01*
Y190154D01*
X117828D01*
Y190478D01*
X118151D01*
Y190801D01*
X118475D01*
Y191125D01*
X118798D01*
Y191448D01*
Y191772D01*
X119122D01*
Y192096D01*
X119446D01*
Y192419D01*
X119769D01*
Y192743D01*
X120093D01*
Y193067D01*
X120417D01*
Y193390D01*
X120740D01*
Y193714D01*
X121064D01*
Y194037D01*
X121387D01*
Y194361D01*
X121711D01*
Y194685D01*
X122035D01*
Y195008D01*
X122358D01*
Y195332D01*
X122682D01*
Y195655D01*
X123005D01*
Y195979D01*
X123653D01*
Y196303D01*
X123976D01*
Y196626D01*
X124300D01*
Y196950D01*
X124624D01*
Y197273D01*
X124947D01*
Y197597D01*
X125271D01*
Y197921D01*
X125594D01*
Y198244D01*
X125918D01*
Y198568D01*
X126242D01*
Y198891D01*
X126565D01*
Y199215D01*
X126889D01*
Y199539D01*
X127212D01*
Y199862D01*
X127860D01*
Y200186D01*
X128183D01*
Y200510D01*
X128507D01*
Y200833D01*
X128830D01*
Y201157D01*
X129154D01*
Y201480D01*
X129478D01*
Y201804D01*
X129801D01*
Y202128D01*
X130448D01*
Y202451D01*
X130772D01*
Y202775D01*
X131096D01*
Y203098D01*
X131419D01*
Y203422D01*
X131743D01*
Y203746D01*
X132390D01*
Y204069D01*
X132714D01*
Y204393D01*
X133037D01*
Y204716D01*
X133685D01*
Y205040D01*
X134008D01*
Y205364D01*
X134332D01*
Y205687D01*
X134979D01*
Y206011D01*
X135303D01*
Y206334D01*
X135626D01*
Y206658D01*
X136273D01*
Y206982D01*
X136597D01*
Y207305D01*
X137244D01*
Y207629D01*
X137568D01*
Y207952D01*
X138215D01*
Y208276D01*
X138862D01*
Y208600D01*
X139509D01*
Y208923D01*
X139833D01*
Y209247D01*
X140480D01*
Y209571D01*
X141128D01*
Y209894D01*
X142098D01*
Y210218D01*
X142746D01*
Y210541D01*
X144040D01*
Y210865D01*
X145334D01*
Y211189D01*
X146952D01*
Y210865D01*
D02*
G37*
G36*
X180930Y42166D02*
X181416Y42120D01*
X181855Y42004D01*
X182295Y41888D01*
X182688Y41749D01*
X183082Y41587D01*
X183429Y41425D01*
X183730Y41240D01*
X184031Y41055D01*
X184285Y40893D01*
X184493Y40731D01*
X184679Y40592D01*
X184841Y40477D01*
X184933Y40384D01*
X185003Y40315D01*
X185026Y40292D01*
X185350Y39921D01*
X185650Y39551D01*
X185905Y39181D01*
X186113Y38787D01*
X186298Y38394D01*
X186437Y38024D01*
X186576Y37653D01*
X186669Y37306D01*
X186738Y36983D01*
X186807Y36682D01*
X186831Y36404D01*
X186877Y36173D01*
Y35987D01*
X186900Y35849D01*
Y35756D01*
Y35733D01*
X186877Y35247D01*
X186807Y34784D01*
X186715Y34321D01*
X186599Y33905D01*
X186460Y33488D01*
X186298Y33118D01*
X186136Y32771D01*
X185951Y32447D01*
X185789Y32169D01*
X185627Y31915D01*
X185465Y31707D01*
X185327Y31521D01*
X185188Y31359D01*
X185095Y31267D01*
X185049Y31198D01*
X185026Y31174D01*
X184655Y30850D01*
X184285Y30550D01*
X183892Y30295D01*
X183498Y30087D01*
X183128Y29902D01*
X182735Y29763D01*
X182365Y29624D01*
X182018Y29531D01*
X181693Y29462D01*
X181393Y29393D01*
X181115Y29369D01*
X180884Y29323D01*
X180699D01*
X180560Y29300D01*
X180212D01*
X180004Y29323D01*
X179796D01*
Y31267D01*
X180027Y31244D01*
X180236Y31221D01*
X180444D01*
X180791Y31244D01*
X181115Y31267D01*
X181439Y31336D01*
X181740Y31429D01*
X182272Y31637D01*
X182735Y31892D01*
X182943Y32007D01*
X183128Y32123D01*
X183267Y32239D01*
X183406Y32331D01*
X183498Y32424D01*
X183568Y32493D01*
X183614Y32517D01*
X183637Y32540D01*
X183869Y32794D01*
X184077Y33072D01*
X184239Y33326D01*
X184401Y33604D01*
X184517Y33882D01*
X184632Y34136D01*
X184794Y34645D01*
X184887Y35085D01*
X184910Y35270D01*
X184933Y35432D01*
X184956Y35548D01*
Y35640D01*
Y35710D01*
Y35733D01*
X184933Y36080D01*
X184910Y36404D01*
X184841Y36728D01*
X184748Y37029D01*
X184540Y37561D01*
X184285Y38024D01*
X184169Y38232D01*
X184054Y38417D01*
X183938Y38556D01*
X183845Y38695D01*
X183753Y38787D01*
X183684Y38857D01*
X183660Y38903D01*
X183637Y38926D01*
X183383Y39158D01*
X183128Y39366D01*
X182851Y39551D01*
X182573Y39713D01*
X182318Y39829D01*
X182041Y39944D01*
X181555Y40106D01*
X181115Y40199D01*
X180907Y40222D01*
X180768Y40245D01*
X180629Y40268D01*
X180212D01*
X180004Y40245D01*
X179842Y40222D01*
X179796D01*
Y42166D01*
X180004Y42189D01*
X180444D01*
X180930Y42166D01*
D02*
G37*
G36*
X169962D02*
X170448Y42120D01*
X170887Y42004D01*
X171327Y41888D01*
X171720Y41749D01*
X172114Y41587D01*
X172461Y41425D01*
X172761Y41240D01*
X173062Y41055D01*
X173317Y40893D01*
X173525Y40731D01*
X173710Y40592D01*
X173872Y40477D01*
X173965Y40384D01*
X174034Y40315D01*
X174057Y40292D01*
X174381Y39921D01*
X174682Y39551D01*
X174937Y39181D01*
X175145Y38787D01*
X175330Y38394D01*
X175469Y38024D01*
X175608Y37653D01*
X175700Y37306D01*
X175770Y36983D01*
X175839Y36682D01*
X175862Y36404D01*
X175909Y36173D01*
Y35987D01*
X175932Y35849D01*
Y35756D01*
Y35733D01*
X175909Y35247D01*
X175839Y34784D01*
X175747Y34321D01*
X175631Y33905D01*
X175492Y33488D01*
X175330Y33118D01*
X175168Y32771D01*
X174983Y32447D01*
X174821Y32169D01*
X174659Y31915D01*
X174497Y31707D01*
X174358Y31521D01*
X174219Y31359D01*
X174127Y31267D01*
X174080Y31198D01*
X174057Y31174D01*
X173687Y30850D01*
X173317Y30550D01*
X172923Y30295D01*
X172530Y30087D01*
X172160Y29902D01*
X171766Y29763D01*
X171396Y29624D01*
X171049Y29531D01*
X170725Y29462D01*
X170424Y29393D01*
X170147Y29369D01*
X169915Y29323D01*
X169730D01*
X169591Y29300D01*
X169244D01*
X169036Y29323D01*
X168828D01*
X168851Y31267D01*
X169059Y31244D01*
X169267Y31221D01*
X169476D01*
X169776Y31244D01*
X170054Y31267D01*
X170586Y31383D01*
X171072Y31545D01*
X171489Y31730D01*
X171836Y31892D01*
X171975Y31984D01*
X172090Y32054D01*
X172206Y32123D01*
X172275Y32169D01*
X172299Y32216D01*
X172322D01*
X172738Y32609D01*
X173085Y33049D01*
X173363Y33465D01*
X173571Y33882D01*
X173710Y34229D01*
X173780Y34391D01*
X173826Y34530D01*
X173849Y34622D01*
X173872Y34715D01*
X173895Y34761D01*
Y34784D01*
X170124D01*
Y36705D01*
X173895D01*
X173733Y37260D01*
X173502Y37769D01*
X173247Y38209D01*
X172993Y38579D01*
X172738Y38880D01*
X172530Y39088D01*
X172368Y39227D01*
X172345Y39273D01*
X172322D01*
X172090Y39459D01*
X171836Y39597D01*
X171350Y39852D01*
X170864Y40037D01*
X170424Y40153D01*
X170054Y40222D01*
X169892Y40245D01*
X169753D01*
X169638Y40268D01*
X169244D01*
X169036Y40245D01*
X168874Y40222D01*
X168828D01*
Y42166D01*
X169082Y42189D01*
X169476D01*
X169962Y42166D01*
D02*
G37*
G36*
X150968Y44862D02*
X151685Y44769D01*
X152356Y44630D01*
X153004Y44445D01*
X153606Y44237D01*
X154161Y43982D01*
X154693Y43728D01*
X155156Y43473D01*
X155596Y43195D01*
X155966Y42941D01*
X156290Y42709D01*
X156568Y42478D01*
X156799Y42293D01*
X156938Y42154D01*
X157054Y42062D01*
X157077Y42038D01*
X157563Y41483D01*
X158002Y40928D01*
X158396Y40349D01*
X158697Y39771D01*
X158974Y39192D01*
X159206Y38614D01*
X159391Y38081D01*
X159553Y37549D01*
X159669Y37063D01*
X159761Y36601D01*
X159807Y36207D01*
X159854Y35860D01*
X159877Y35582D01*
X159900Y35374D01*
Y35235D01*
Y35212D01*
Y35189D01*
X159877Y34449D01*
X159784Y33754D01*
X159645Y33060D01*
X159460Y32435D01*
X159252Y31834D01*
X158997Y31255D01*
X158743Y30746D01*
X158489Y30260D01*
X158234Y29844D01*
X157979Y29450D01*
X157725Y29126D01*
X157517Y28849D01*
X157332Y28640D01*
X157193Y28478D01*
X157100Y28363D01*
X157077Y28339D01*
X156545Y27854D01*
X155966Y27414D01*
X155388Y27021D01*
X154809Y26720D01*
X154231Y26442D01*
X153675Y26211D01*
X153120Y26026D01*
X152588Y25864D01*
X152102Y25748D01*
X151639Y25655D01*
X151246Y25609D01*
X150899Y25563D01*
X150621Y25540D01*
X150413Y25517D01*
X150227D01*
X149487Y25540D01*
X148793Y25632D01*
X148122Y25771D01*
X147474Y25956D01*
X146872Y26164D01*
X146317Y26419D01*
X145785Y26673D01*
X145322Y26928D01*
X144882Y27182D01*
X144512Y27437D01*
X144188Y27692D01*
X143910Y27900D01*
X143679Y28085D01*
X143540Y28224D01*
X143424Y28316D01*
X143401Y28339D01*
X142892Y28895D01*
X142452Y29450D01*
X142082Y30029D01*
X141758Y30607D01*
X141481Y31186D01*
X141249Y31764D01*
X141064Y32320D01*
X140902Y32829D01*
X140786Y33315D01*
X140694Y33777D01*
X140647Y34171D01*
X140601Y34518D01*
X140578Y34796D01*
X140555Y35004D01*
Y35143D01*
Y35189D01*
X140578Y35930D01*
X140671Y36624D01*
X140810Y37318D01*
X140995Y37943D01*
X141203Y38544D01*
X141457Y39123D01*
X141712Y39632D01*
X141966Y40118D01*
X142244Y40558D01*
X142499Y40928D01*
X142730Y41252D01*
X142962Y41529D01*
X143147Y41761D01*
X143286Y41900D01*
X143378Y42015D01*
X143401Y42038D01*
X143933Y42548D01*
X144512Y42987D01*
X145067Y43357D01*
X145669Y43681D01*
X146224Y43959D01*
X146803Y44190D01*
X147358Y44376D01*
X147867Y44537D01*
X148353Y44653D01*
X148816Y44746D01*
X149209Y44792D01*
X149556Y44838D01*
X149834Y44862D01*
X150042Y44885D01*
X150227D01*
X150968Y44862D01*
D02*
G37*
G36*
X135900Y43010D02*
X131989Y38938D01*
X131874Y37827D01*
X131619Y35166D01*
X131434Y33245D01*
X135622Y28918D01*
X135345Y28640D01*
X131388Y32690D01*
X131156Y30214D01*
X131041D01*
Y29265D01*
X130161D01*
Y30214D01*
X127431D01*
X127338Y30029D01*
X127199Y29844D01*
X127014Y29635D01*
X126760Y29450D01*
X126459Y29358D01*
X126181Y29335D01*
X125903D01*
X125695Y29404D01*
X125441Y29496D01*
X125233Y29635D01*
X125071Y29797D01*
X124908Y30029D01*
X124793Y30283D01*
X124723Y30515D01*
X124700Y30723D01*
X124723Y30954D01*
X124770Y31139D01*
X124839Y31325D01*
X124932Y31510D01*
X125047Y31672D01*
X125209Y31834D01*
X125394Y31949D01*
X125556Y32019D01*
X125533Y32227D01*
X122062Y28640D01*
X121785Y28941D01*
X125487Y32782D01*
X125186Y36138D01*
X124978Y38567D01*
X123867D01*
Y40118D01*
X124168D01*
X121345Y43010D01*
X121646Y43288D01*
X124284Y40558D01*
Y40766D01*
X124237Y40812D01*
X124168Y40858D01*
X124099Y40928D01*
X124029Y40997D01*
X123983Y41113D01*
X123960Y41205D01*
X123937Y41321D01*
X123960Y41460D01*
X124006Y41552D01*
X124099Y41715D01*
X124214Y41807D01*
X124376Y41876D01*
X124538Y41900D01*
X124700Y41876D01*
X124839Y41830D01*
X124955Y41761D01*
X125001Y41691D01*
X125117Y41784D01*
X125279Y41900D01*
X125487Y41992D01*
X125788Y42108D01*
X126112Y42200D01*
X126436Y42270D01*
X126783Y42339D01*
X127060Y42362D01*
Y42709D01*
X129282D01*
Y42409D01*
X129467D01*
X129745Y42386D01*
X130046Y42339D01*
X130346Y42293D01*
Y42478D01*
X131295D01*
Y42038D01*
X131411Y41969D01*
X131573Y41900D01*
X131735Y41807D01*
X131874Y41715D01*
X132012Y41599D01*
X132105Y41506D01*
X132151Y41437D01*
X132198Y41344D01*
X132175Y41182D01*
X132730D01*
Y40465D01*
X132128D01*
X132036Y39562D01*
X135622Y43288D01*
X135900Y43010D01*
D02*
G37*
G36*
X135067Y25447D02*
Y25401D01*
Y25308D01*
Y25216D01*
Y25123D01*
Y25030D01*
Y24984D01*
Y24961D01*
Y24591D01*
Y24244D01*
Y24082D01*
Y23966D01*
Y23897D01*
Y23874D01*
Y23457D01*
Y23272D01*
Y23110D01*
Y22971D01*
Y22878D01*
Y22809D01*
Y22786D01*
Y22624D01*
Y22508D01*
Y22416D01*
Y22369D01*
Y22300D01*
X122409D01*
Y22323D01*
Y22369D01*
Y22555D01*
Y22716D01*
Y22763D01*
Y22786D01*
Y23156D01*
Y23503D01*
Y23665D01*
Y23781D01*
Y23850D01*
Y23874D01*
Y24290D01*
Y24475D01*
Y24637D01*
Y24776D01*
Y24869D01*
Y24938D01*
Y24961D01*
Y25123D01*
Y25262D01*
Y25354D01*
Y25401D01*
Y25447D01*
Y25470D01*
X135067D01*
Y25447D01*
D02*
G37*
%LPC*%
G36*
X125594Y183682D02*
X124300D01*
Y183358D01*
X122035D01*
Y183035D01*
X121064D01*
Y182711D01*
X120093D01*
Y182387D01*
X119446D01*
Y182064D01*
X118798D01*
Y181740D01*
X118151D01*
Y181416D01*
X117828D01*
Y181093D01*
X117181D01*
Y180769D01*
X116857D01*
Y180446D01*
X116533D01*
Y180122D01*
X115886D01*
Y179798D01*
X115562D01*
Y179475D01*
Y179151D01*
X115239D01*
Y178828D01*
X114915D01*
Y178504D01*
X114592D01*
Y178180D01*
X114268D01*
Y177857D01*
Y177533D01*
X113944D01*
Y177210D01*
X113621D01*
Y176886D01*
Y176562D01*
X113297D01*
Y176239D01*
Y175915D01*
X112973D01*
Y175592D01*
Y175268D01*
Y174944D01*
X112650D01*
Y174621D01*
Y174297D01*
X112326D01*
Y173974D01*
Y173650D01*
Y173326D01*
Y173003D01*
Y172679D01*
X112003D01*
Y172355D01*
Y172032D01*
Y171708D01*
Y171385D01*
Y171061D01*
Y170737D01*
Y170414D01*
Y170090D01*
Y169767D01*
Y169443D01*
Y169119D01*
Y168796D01*
Y168472D01*
Y168149D01*
Y167825D01*
X112326D01*
Y167501D01*
Y167178D01*
Y166854D01*
Y166531D01*
X112650D01*
Y166207D01*
Y165883D01*
Y165560D01*
X112973D01*
Y165236D01*
Y164912D01*
X113297D01*
Y164589D01*
Y164265D01*
X113621D01*
Y163942D01*
Y163618D01*
X113944D01*
Y163294D01*
Y162971D01*
X114268D01*
Y162647D01*
X114592D01*
Y162324D01*
X114915D01*
Y162000D01*
X115239D01*
Y161676D01*
Y161353D01*
X115562D01*
Y161029D01*
X115886D01*
Y160705D01*
X116210D01*
Y160382D01*
X116857D01*
Y160058D01*
X117181D01*
Y159735D01*
X117504D01*
Y159411D01*
X118151D01*
Y159088D01*
X118475D01*
Y158764D01*
X119122D01*
Y158440D01*
X119769D01*
Y158117D01*
X120740D01*
Y157793D01*
X121711D01*
Y157469D01*
X123329D01*
Y157146D01*
X126889D01*
Y157469D01*
X128507D01*
Y157793D01*
X129478D01*
Y158117D01*
X130125D01*
Y158440D01*
X131096D01*
Y158764D01*
X131419D01*
Y159088D01*
X132067D01*
Y159411D01*
X132714D01*
Y159735D01*
X133037D01*
Y160058D01*
X133361D01*
Y160382D01*
X133685D01*
Y160705D01*
X134008D01*
Y161029D01*
X134332D01*
Y161353D01*
X134655D01*
Y161676D01*
X134979D01*
Y162000D01*
X135303D01*
Y162324D01*
X135626D01*
Y162647D01*
X135950D01*
Y162971D01*
Y163294D01*
X136273D01*
Y163618D01*
X136597D01*
Y163942D01*
Y164265D01*
X136921D01*
Y164589D01*
Y164912D01*
X137244D01*
Y165236D01*
Y165560D01*
Y165883D01*
X137568D01*
Y166207D01*
Y166531D01*
Y166854D01*
X137891D01*
Y167178D01*
Y167501D01*
Y167825D01*
Y168149D01*
Y168472D01*
X138215D01*
Y168796D01*
Y169119D01*
Y169443D01*
Y169767D01*
Y170090D01*
Y170414D01*
Y170737D01*
Y171061D01*
Y171385D01*
Y171708D01*
Y172032D01*
Y172355D01*
X137891D01*
Y172679D01*
Y173003D01*
Y173326D01*
Y173650D01*
Y173974D01*
X137568D01*
Y174297D01*
Y174621D01*
Y174944D01*
X137244D01*
Y175268D01*
Y175592D01*
X136921D01*
Y175915D01*
Y176239D01*
X136597D01*
Y176562D01*
Y176886D01*
X136273D01*
Y177210D01*
Y177533D01*
X135950D01*
Y177857D01*
X135626D01*
Y178180D01*
Y178504D01*
X135303D01*
Y178828D01*
X134979D01*
Y179151D01*
X134655D01*
Y179475D01*
X134332D01*
Y179798D01*
X134008D01*
Y180122D01*
X133685D01*
Y180446D01*
X133361D01*
Y180769D01*
X133037D01*
Y181093D01*
X132390D01*
Y181416D01*
X132067D01*
Y181740D01*
X131419D01*
Y182064D01*
X130772D01*
Y182387D01*
X130125D01*
Y182711D01*
X129154D01*
Y183035D01*
X128183D01*
Y183358D01*
X125594D01*
Y183682D01*
D02*
G37*
G36*
X91615D02*
X90321D01*
Y183358D01*
X87732D01*
Y183035D01*
X86761D01*
Y182711D01*
X85790D01*
Y182387D01*
X85143D01*
Y182064D01*
X84496D01*
Y181740D01*
X83849D01*
Y181416D01*
X83525D01*
Y181093D01*
X82878D01*
Y180769D01*
X82554D01*
Y180446D01*
X82231D01*
Y180122D01*
X81907D01*
Y179798D01*
X81583D01*
Y179475D01*
X81260D01*
Y179151D01*
X80936D01*
Y178828D01*
X80613D01*
Y178504D01*
X80289D01*
Y178180D01*
Y177857D01*
X79965D01*
Y177533D01*
X79642D01*
Y177210D01*
Y176886D01*
X79318D01*
Y176562D01*
Y176239D01*
X78995D01*
Y175915D01*
Y175592D01*
X78671D01*
Y175268D01*
Y174944D01*
X78347D01*
Y174621D01*
Y174297D01*
Y173974D01*
X78024D01*
Y173650D01*
Y173326D01*
Y173003D01*
Y172679D01*
Y172355D01*
Y172032D01*
X77700D01*
Y171708D01*
Y171385D01*
Y171061D01*
Y170737D01*
Y170414D01*
Y170090D01*
Y169767D01*
Y169443D01*
Y169119D01*
Y168796D01*
X78024D01*
Y168472D01*
Y168149D01*
Y167825D01*
Y167501D01*
Y167178D01*
Y166854D01*
X78347D01*
Y166531D01*
Y166207D01*
Y165883D01*
X78671D01*
Y165560D01*
Y165236D01*
X78995D01*
Y164912D01*
Y164589D01*
Y164265D01*
X79318D01*
Y163942D01*
X79642D01*
Y163618D01*
Y163294D01*
X79965D01*
Y162971D01*
Y162647D01*
X80289D01*
Y162324D01*
X80613D01*
Y162000D01*
X80936D01*
Y161676D01*
X81260D01*
Y161353D01*
X81583D01*
Y161029D01*
X81907D01*
Y160705D01*
X82231D01*
Y160382D01*
X82554D01*
Y160058D01*
X82878D01*
Y159735D01*
X83201D01*
Y159411D01*
X83849D01*
Y159088D01*
X84496D01*
Y158764D01*
X84820D01*
Y158440D01*
X85790D01*
Y158117D01*
X86438D01*
Y157793D01*
X87408D01*
Y157469D01*
X89026D01*
Y157146D01*
X92586D01*
Y157469D01*
X94204D01*
Y157793D01*
X95175D01*
Y158117D01*
X96146D01*
Y158440D01*
X96793D01*
Y158764D01*
X97440D01*
Y159088D01*
X98088D01*
Y159411D01*
X98411D01*
Y159735D01*
X98735D01*
Y160058D01*
X99382D01*
Y160382D01*
X99706D01*
Y160705D01*
X100029D01*
Y161029D01*
X100353D01*
Y161353D01*
X100676D01*
Y161676D01*
X101000D01*
Y162000D01*
Y162324D01*
X101324D01*
Y162647D01*
X101647D01*
Y162971D01*
X101971D01*
Y163294D01*
Y163618D01*
X102294D01*
Y163942D01*
Y164265D01*
X102618D01*
Y164589D01*
Y164912D01*
X102942D01*
Y165236D01*
Y165560D01*
X103265D01*
Y165883D01*
Y166207D01*
Y166531D01*
X103589D01*
Y166854D01*
Y167178D01*
Y167501D01*
Y167825D01*
X103912D01*
Y168149D01*
Y168472D01*
Y168796D01*
Y169119D01*
Y169443D01*
Y169767D01*
Y170090D01*
Y170414D01*
Y170737D01*
Y171061D01*
Y171385D01*
Y171708D01*
Y172032D01*
Y172355D01*
Y172679D01*
Y173003D01*
X103589D01*
Y173326D01*
Y173650D01*
Y173974D01*
Y174297D01*
X103265D01*
Y174621D01*
Y174944D01*
Y175268D01*
X102942D01*
Y175592D01*
Y175915D01*
X102618D01*
Y176239D01*
Y176562D01*
X102294D01*
Y176886D01*
Y177210D01*
X101971D01*
Y177533D01*
X101647D01*
Y177857D01*
Y178180D01*
X101324D01*
Y178504D01*
X101000D01*
Y178828D01*
X100676D01*
Y179151D01*
Y179475D01*
X100353D01*
Y179798D01*
X100029D01*
Y180122D01*
X99382D01*
Y180446D01*
X99058D01*
Y180769D01*
X98735D01*
Y181093D01*
X98411D01*
Y181416D01*
X97764D01*
Y181740D01*
X97117D01*
Y182064D01*
X96793D01*
Y182387D01*
X95822D01*
Y182711D01*
X95175D01*
Y183035D01*
X93881D01*
Y183358D01*
X91615D01*
Y183682D01*
D02*
G37*
G36*
X110708Y150674D02*
X110061D01*
Y150350D01*
Y150026D01*
Y149703D01*
Y149379D01*
Y149056D01*
Y148732D01*
Y148408D01*
X110385D01*
Y148085D01*
X107796D01*
Y148408D01*
Y148732D01*
Y149056D01*
Y149379D01*
Y149703D01*
Y150026D01*
Y150350D01*
Y150674D01*
X105207D01*
Y150350D01*
X103265D01*
Y150026D01*
X101647D01*
Y149703D01*
X100353D01*
Y149379D01*
X99058D01*
Y149056D01*
X98088D01*
Y148732D01*
X97440D01*
Y148408D01*
X96793D01*
Y148085D01*
Y147761D01*
X97117D01*
Y147438D01*
X97440D01*
Y147114D01*
Y146790D01*
X97764D01*
Y146467D01*
Y146143D01*
X98088D01*
Y145819D01*
Y145496D01*
X97440D01*
Y145172D01*
X96793D01*
Y144849D01*
X95822D01*
Y145172D01*
Y145496D01*
X95499D01*
Y145819D01*
Y146143D01*
X95175D01*
Y146467D01*
Y146790D01*
X94851D01*
Y147114D01*
X94204D01*
Y146790D01*
X93881D01*
Y146467D01*
X93233D01*
Y146143D01*
X92910D01*
Y145819D01*
X92586D01*
Y145496D01*
X92263D01*
Y145172D01*
X91939D01*
Y144849D01*
X91615D01*
Y144525D01*
X91292D01*
Y144202D01*
X90968D01*
Y143878D01*
Y143554D01*
X90645D01*
Y143231D01*
Y142907D01*
X90321D01*
Y142583D01*
Y142260D01*
X89997D01*
Y141936D01*
Y141613D01*
Y141289D01*
X89674D01*
Y140965D01*
Y140642D01*
Y140318D01*
Y139995D01*
Y139671D01*
X89350D01*
Y139347D01*
Y139024D01*
Y138700D01*
Y138376D01*
Y138053D01*
X89674D01*
Y137729D01*
Y137406D01*
Y137082D01*
X90968D01*
Y137406D01*
X91939D01*
Y137729D01*
X92263D01*
Y137406D01*
Y137082D01*
X92586D01*
Y136758D01*
Y136435D01*
Y136111D01*
X92910D01*
Y135788D01*
Y135464D01*
X92263D01*
Y135140D01*
X91292D01*
Y134817D01*
X90321D01*
Y134493D01*
Y134170D01*
Y133846D01*
X90645D01*
Y133522D01*
Y133199D01*
X90968D01*
Y132875D01*
Y132552D01*
X91292D01*
Y132228D01*
Y131904D01*
X91615D01*
Y131581D01*
X91939D01*
Y131257D01*
X92263D01*
Y130933D01*
X92586D01*
Y130610D01*
X92910D01*
Y130286D01*
X93233D01*
Y129963D01*
X93557D01*
Y129639D01*
X94204D01*
Y129315D01*
X94851D01*
Y128992D01*
X95499D01*
Y128668D01*
X96469D01*
Y128345D01*
X98411D01*
Y128021D01*
X101000D01*
Y128345D01*
X101971D01*
Y128668D01*
Y128992D01*
Y129315D01*
X101647D01*
Y129639D01*
Y129963D01*
Y130286D01*
X102618D01*
Y130610D01*
X103912D01*
Y130286D01*
Y129963D01*
Y129639D01*
X104236D01*
Y129315D01*
Y128992D01*
Y128668D01*
X111355D01*
Y128345D01*
X111679D01*
Y128668D01*
Y128992D01*
Y129315D01*
Y129639D01*
X112003D01*
Y129963D01*
Y130286D01*
Y130610D01*
X113297D01*
Y130286D01*
X114268D01*
Y129963D01*
Y129639D01*
Y129315D01*
X113944D01*
Y128992D01*
Y128668D01*
Y128345D01*
Y128021D01*
X114268D01*
Y128345D01*
X114915D01*
Y128021D01*
X117504D01*
Y128345D01*
X119446D01*
Y128668D01*
X120417D01*
Y128992D01*
X121387D01*
Y129315D01*
X121711D01*
Y129639D01*
X122358D01*
Y129963D01*
X122682D01*
Y130286D01*
X123005D01*
Y130610D01*
X123329D01*
Y130933D01*
X123653D01*
Y131257D01*
X123976D01*
Y131581D01*
X124300D01*
Y131904D01*
X124624D01*
Y132228D01*
Y132552D01*
X124947D01*
Y132875D01*
Y133199D01*
X125271D01*
Y133522D01*
Y133846D01*
X125594D01*
Y134170D01*
Y134493D01*
Y134817D01*
X124624D01*
Y135140D01*
X123653D01*
Y135464D01*
X123005D01*
Y135788D01*
X123329D01*
Y136111D01*
Y136435D01*
Y136758D01*
Y137082D01*
X123653D01*
Y137406D01*
Y137729D01*
X123976D01*
Y137406D01*
X125271D01*
Y137082D01*
X126242D01*
Y137406D01*
Y137729D01*
X126565D01*
Y138053D01*
Y138376D01*
Y138700D01*
Y139024D01*
Y139347D01*
Y139671D01*
Y139995D01*
X126242D01*
Y140318D01*
Y140642D01*
Y140965D01*
Y141289D01*
Y141613D01*
X125918D01*
Y141936D01*
Y142260D01*
Y142583D01*
X125594D01*
Y142907D01*
X125271D01*
Y143231D01*
Y143554D01*
X124947D01*
Y143878D01*
Y144202D01*
X124624D01*
Y144525D01*
X124300D01*
Y144849D01*
X123976D01*
Y145172D01*
X123653D01*
Y145496D01*
X123329D01*
Y145819D01*
X123005D01*
Y146143D01*
X122682D01*
Y146467D01*
X122035D01*
Y146790D01*
X121711D01*
Y147114D01*
X121064D01*
Y146790D01*
X120740D01*
Y146467D01*
Y146143D01*
X120417D01*
Y145819D01*
Y145496D01*
X120093D01*
Y145172D01*
Y144849D01*
X119122D01*
Y145172D01*
X118475D01*
Y145496D01*
X117828D01*
Y145819D01*
X118151D01*
Y146143D01*
Y146467D01*
X118475D01*
Y146790D01*
Y147114D01*
X118798D01*
Y147438D01*
Y147761D01*
X119122D01*
Y148085D01*
Y148408D01*
X118475D01*
Y148732D01*
X117828D01*
Y149056D01*
X116857D01*
Y149379D01*
X115562D01*
Y149703D01*
X114268D01*
Y150026D01*
X112973D01*
Y150350D01*
X110708D01*
Y150674D01*
D02*
G37*
%LPD*%
G36*
X130125Y169767D02*
X130772D01*
Y169443D01*
X131419D01*
Y169119D01*
X132067D01*
Y168796D01*
X132390D01*
Y168472D01*
Y168149D01*
X132714D01*
Y167825D01*
X133037D01*
Y167501D01*
Y167178D01*
X133361D01*
Y166854D01*
Y166531D01*
Y166207D01*
Y165883D01*
X133685D01*
Y165560D01*
Y165236D01*
Y164912D01*
Y164589D01*
Y164265D01*
X133361D01*
Y163942D01*
Y163618D01*
Y163294D01*
X133037D01*
Y162971D01*
Y162647D01*
X132714D01*
Y162324D01*
Y162000D01*
X132390D01*
Y161676D01*
X132067D01*
Y161353D01*
X131743D01*
Y161029D01*
X131096D01*
Y160705D01*
X130448D01*
Y160382D01*
X126889D01*
Y160705D01*
X126242D01*
Y161029D01*
X125594D01*
Y161353D01*
X125271D01*
Y161676D01*
X124947D01*
Y162000D01*
X124624D01*
Y162324D01*
Y162647D01*
X124300D01*
Y162971D01*
Y163294D01*
X123976D01*
Y163618D01*
Y163942D01*
Y164265D01*
X123653D01*
Y164589D01*
Y164912D01*
Y165236D01*
Y165560D01*
Y165883D01*
Y166207D01*
X123976D01*
Y166531D01*
Y166854D01*
Y167178D01*
X124300D01*
Y167501D01*
Y167825D01*
X124624D01*
Y168149D01*
Y168472D01*
X124947D01*
Y168796D01*
X125271D01*
Y169119D01*
X125918D01*
Y169443D01*
X126242D01*
Y169767D01*
X127212D01*
Y170090D01*
X130125D01*
Y169767D01*
D02*
G37*
G36*
X88703D02*
X89674D01*
Y169443D01*
X89997D01*
Y169119D01*
X90645D01*
Y168796D01*
X90968D01*
Y168472D01*
Y168149D01*
X91292D01*
Y167825D01*
X91615D01*
Y167501D01*
Y167178D01*
X91939D01*
Y166854D01*
Y166531D01*
Y166207D01*
X92263D01*
Y165883D01*
Y165560D01*
Y165236D01*
Y164912D01*
Y164589D01*
Y164265D01*
Y163942D01*
X91939D01*
Y163618D01*
Y163294D01*
Y162971D01*
X91615D01*
Y162647D01*
Y162324D01*
X91292D01*
Y162000D01*
X90968D01*
Y161676D01*
X90645D01*
Y161353D01*
X90321D01*
Y161029D01*
X89674D01*
Y160705D01*
X89026D01*
Y160382D01*
X85467D01*
Y160705D01*
X84820D01*
Y161029D01*
X84172D01*
Y161353D01*
X83849D01*
Y161676D01*
X83525D01*
Y162000D01*
X83201D01*
Y162324D01*
Y162647D01*
X82878D01*
Y162971D01*
Y163294D01*
X82554D01*
Y163618D01*
Y163942D01*
Y164265D01*
X82231D01*
Y164589D01*
Y164912D01*
Y165236D01*
Y165560D01*
Y165883D01*
X82554D01*
Y166207D01*
Y166531D01*
Y166854D01*
Y167178D01*
X82878D01*
Y167501D01*
Y167825D01*
X83201D01*
Y168149D01*
X83525D01*
Y168472D01*
Y168796D01*
X84172D01*
Y169119D01*
X84496D01*
Y169443D01*
X85143D01*
Y169767D01*
X85790D01*
Y170090D01*
X88703D01*
Y169767D01*
D02*
G37*
%LPC*%
G36*
X150390Y43913D02*
X150227D01*
X149556Y43890D01*
X148932Y43797D01*
X148307Y43681D01*
X147751Y43519D01*
X147196Y43311D01*
X146687Y43103D01*
X146224Y42871D01*
X145785Y42640D01*
X145414Y42386D01*
X145067Y42154D01*
X144766Y41946D01*
X144535Y41738D01*
X144327Y41576D01*
X144188Y41460D01*
X144095Y41367D01*
X144072Y41344D01*
X143633Y40858D01*
X143239Y40349D01*
X142892Y39840D01*
X142591Y39308D01*
X142360Y38799D01*
X142152Y38290D01*
X141990Y37781D01*
X141851Y37318D01*
X141735Y36878D01*
X141666Y36462D01*
X141596Y36115D01*
X141573Y35791D01*
X141550Y35536D01*
X141527Y35351D01*
Y35235D01*
Y35189D01*
X141550Y34518D01*
X141642Y33893D01*
X141758Y33292D01*
X141920Y32713D01*
X142105Y32158D01*
X142337Y31649D01*
X142568Y31186D01*
X142799Y30769D01*
X143031Y30376D01*
X143262Y30029D01*
X143471Y29728D01*
X143679Y29496D01*
X143740Y29418D01*
X146409Y32088D01*
X146271Y32181D01*
X146155Y32273D01*
X146062Y32343D01*
X146039Y32366D01*
X145785Y32644D01*
X145599Y32967D01*
X145461Y33268D01*
X145368Y33569D01*
X145322Y33824D01*
X145275Y34032D01*
Y34171D01*
Y34194D01*
Y34217D01*
X145299Y34564D01*
X145345Y34888D01*
X145438Y35143D01*
X145507Y35374D01*
X145599Y35559D01*
X145692Y35675D01*
X145738Y35767D01*
X145762Y35791D01*
X145947Y35976D01*
X146155Y36115D01*
X146340Y36230D01*
X146525Y36300D01*
X146687Y36346D01*
X146803Y36369D01*
X146918D01*
X147196Y36323D01*
X147451Y36230D01*
X147682Y36091D01*
X147867Y35930D01*
X148052Y35767D01*
X148168Y35629D01*
X148261Y35536D01*
X148284Y35490D01*
Y38614D01*
X148492D01*
X149788Y38081D01*
X149718Y37920D01*
X149580Y37966D01*
X149487Y37989D01*
X149394D01*
X149256Y37966D01*
X149232Y37943D01*
X149209D01*
X149163Y37873D01*
X149117Y37804D01*
X149094Y37734D01*
Y37711D01*
Y37619D01*
X149071Y37503D01*
Y37202D01*
Y37040D01*
Y36924D01*
Y36832D01*
Y36809D01*
Y34726D01*
X150204Y35883D01*
X150158Y36115D01*
X150112Y36323D01*
Y36415D01*
Y36462D01*
Y36508D01*
Y36531D01*
X150135Y36739D01*
X150158Y36924D01*
X150227Y37110D01*
X150274Y37248D01*
X150343Y37364D01*
X150413Y37457D01*
X150436Y37503D01*
X150459Y37526D01*
X150598Y37688D01*
X150737Y37804D01*
X150875Y37920D01*
X151014Y37989D01*
X151130Y38058D01*
X151199Y38105D01*
X151269Y38128D01*
X151292D01*
X151500Y38197D01*
X151708Y38243D01*
X151940Y38267D01*
X152148Y38290D01*
X152333Y38313D01*
X152634D01*
X156036Y41691D01*
X156383Y41344D01*
X156637Y41090D01*
X156522Y41229D01*
X156429Y41321D01*
X156406Y41344D01*
X155920Y41807D01*
X155411Y42200D01*
X154879Y42524D01*
X154346Y42825D01*
X153837Y43080D01*
X153328Y43288D01*
X152819Y43450D01*
X152356Y43589D01*
X151917Y43705D01*
X151500Y43774D01*
X151153Y43843D01*
X150829Y43867D01*
X150575Y43890D01*
X150390Y43913D01*
D02*
G37*
G36*
X156637Y41090D02*
X156698Y41012D01*
X156707Y41020D01*
X156637Y41090D01*
D02*
G37*
G36*
X152217Y37896D02*
X152079Y37850D01*
X151963Y37804D01*
X151870Y37758D01*
X151847Y37734D01*
X151639Y37572D01*
X151500Y37410D01*
X151384Y37272D01*
X151361Y37225D01*
Y37202D01*
X151292Y37086D01*
X151269Y36994D01*
X151246Y36948D01*
Y36924D01*
X152217Y37896D01*
D02*
G37*
G36*
X153166Y37457D02*
X151384Y35675D01*
X151431Y35582D01*
X151500Y35513D01*
X151523Y35490D01*
X151547Y35467D01*
X151685Y35328D01*
X151824Y35235D01*
X151963Y35166D01*
X152102Y35120D01*
X152217Y35096D01*
X152310Y35073D01*
X152495D01*
X152611Y35096D01*
X152727D01*
X152865Y35120D01*
X153004Y35143D01*
X153120Y35166D01*
X153166D01*
Y37457D01*
D02*
G37*
G36*
X147335Y35675D02*
X147289D01*
X147127Y35652D01*
X146965Y35605D01*
X146687Y35467D01*
X146595Y35374D01*
X146525Y35305D01*
X146479Y35258D01*
X146456Y35235D01*
X146340Y35050D01*
X146247Y34842D01*
X146178Y34634D01*
X146132Y34425D01*
X146109Y34240D01*
X146085Y34101D01*
Y34009D01*
Y33963D01*
X146109Y33639D01*
X146132Y33361D01*
X146201Y33130D01*
X146271Y32944D01*
X146340Y32782D01*
X146386Y32690D01*
X146432Y32620D01*
X146456Y32597D01*
X146525Y32482D01*
X146595Y32412D01*
X146664Y32366D01*
X146687Y32343D01*
X148284Y33939D01*
Y35189D01*
X148075Y35374D01*
X147937Y35490D01*
X147821Y35536D01*
X147798Y35559D01*
X147613Y35629D01*
X147451Y35652D01*
X147335Y35675D01*
D02*
G37*
G36*
X156698Y41012D02*
X153999Y38313D01*
X154994D01*
Y38128D01*
X154740D01*
X154508Y38105D01*
X154346Y38035D01*
X154231Y37943D01*
X154208Y37920D01*
X154161Y37850D01*
X154115Y37758D01*
X154092Y37503D01*
X154069Y37387D01*
Y37272D01*
Y37202D01*
Y37179D01*
Y33037D01*
Y32852D01*
X154092Y32690D01*
Y32574D01*
X154115Y32482D01*
X154138Y32412D01*
Y32366D01*
X154161Y32343D01*
X154231Y32250D01*
X154323Y32204D01*
X154508Y32111D01*
X154670Y32088D01*
X154994D01*
Y31903D01*
X152241D01*
Y32088D01*
X152495D01*
X152727Y32111D01*
X152889Y32181D01*
X152981Y32250D01*
X153027Y32273D01*
X153074Y32343D01*
X153097Y32458D01*
X153143Y32713D01*
X153166Y32829D01*
Y32944D01*
Y33014D01*
Y33037D01*
Y34888D01*
X152935Y34842D01*
X152750Y34819D01*
X152634Y34796D01*
X152588D01*
X152380Y34773D01*
X152079D01*
X151801Y34796D01*
X151547Y34819D01*
X151338Y34888D01*
X151153Y34958D01*
X150991Y35004D01*
X150899Y35073D01*
X150829Y35096D01*
X150806Y35120D01*
X149071Y33361D01*
Y32320D01*
X148770Y32135D01*
X148515Y32019D01*
X148399Y31973D01*
X148330Y31926D01*
X148284Y31903D01*
X148261D01*
X147983Y31834D01*
X147751Y31787D01*
X147636Y31764D01*
X147474D01*
X144424Y28715D01*
X144072Y29034D01*
X144419Y28710D01*
X144424Y28715D01*
X144558Y28594D01*
X145067Y28201D01*
X145576Y27854D01*
X146109Y27553D01*
X146618Y27321D01*
X147127Y27113D01*
X147636Y26951D01*
X148099Y26812D01*
X148538Y26697D01*
X148955Y26627D01*
X149302Y26558D01*
X149626Y26535D01*
X149880Y26511D01*
X150066Y26488D01*
X150227D01*
X150899Y26511D01*
X151523Y26604D01*
X152148Y26720D01*
X152703Y26882D01*
X153259Y27090D01*
X153768Y27298D01*
X154231Y27530D01*
X154670Y27761D01*
X155064Y27992D01*
X155411Y28224D01*
X155689Y28455D01*
X155943Y28640D01*
X156151Y28802D01*
X156290Y28918D01*
X156383Y29011D01*
X156406Y29034D01*
X156845Y29520D01*
X157239Y30029D01*
X157586Y30538D01*
X157887Y31070D01*
X158118Y31579D01*
X158326Y32111D01*
X158489Y32597D01*
X158627Y33060D01*
X158743Y33500D01*
X158812Y33916D01*
X158882Y34263D01*
X158905Y34587D01*
X158928Y34842D01*
X158951Y35027D01*
Y35143D01*
Y35189D01*
X158928Y35860D01*
X158836Y36485D01*
X158720Y37110D01*
X158558Y37665D01*
X158350Y38220D01*
X158141Y38729D01*
X157910Y39192D01*
X157679Y39632D01*
X157447Y40002D01*
X157216Y40349D01*
X156984Y40650D01*
X156799Y40881D01*
X156698Y41012D01*
D02*
G37*
G36*
X143740Y29418D02*
X143725Y29404D01*
X143899Y29219D01*
X143956Y29149D01*
X144049Y29057D01*
X144072Y29034D01*
X143899Y29219D01*
X143841Y29288D01*
X143740Y29418D01*
D02*
G37*
G36*
X128865Y42316D02*
X127454D01*
Y42085D01*
X128865D01*
Y42316D01*
D02*
G37*
G36*
X129282Y41992D02*
Y41691D01*
X127060D01*
Y41946D01*
X126598Y41876D01*
X126181Y41784D01*
X125834Y41691D01*
X125556Y41552D01*
X125348Y41437D01*
X125186Y41275D01*
Y41182D01*
X130346D01*
Y41853D01*
X130022Y41923D01*
X129675Y41969D01*
X129282Y41992D01*
D02*
G37*
G36*
X130902Y42085D02*
X130740D01*
Y41552D01*
X130902D01*
Y42085D01*
D02*
G37*
G36*
X131295Y41576D02*
Y41182D01*
X131781D01*
Y41252D01*
X131665Y41367D01*
X131527Y41460D01*
X131295Y41576D01*
D02*
G37*
G36*
X124584Y41506D02*
X124561D01*
X124446Y41483D01*
X124376Y41414D01*
X124353Y41321D01*
Y41298D01*
X124376Y41182D01*
X124446Y41136D01*
X124538Y41113D01*
X124561D01*
X124677Y41136D01*
X124723Y41205D01*
X124747Y41275D01*
Y41298D01*
X124723Y41414D01*
X124654Y41483D01*
X124584Y41506D01*
D02*
G37*
G36*
X125047Y39724D02*
X124284D01*
Y38961D01*
X125047D01*
Y39724D01*
D02*
G37*
G36*
X128935Y37989D02*
X126852D01*
Y37850D01*
X128935D01*
Y37989D01*
D02*
G37*
G36*
X131712Y40465D02*
X125233D01*
X125279Y40118D01*
X125441D01*
Y39377D01*
X126413Y38382D01*
X129328D01*
Y37457D01*
X127315D01*
X128657Y36068D01*
X131596Y39123D01*
X131712Y40465D01*
D02*
G37*
G36*
X131527Y38475D02*
X128935Y35791D01*
X131064Y33592D01*
X131527Y38475D01*
D02*
G37*
G36*
X125441Y38799D02*
Y38567D01*
X125394D01*
X125857Y33176D01*
X128379Y35791D01*
X126760Y37457D01*
X126413D01*
Y37804D01*
X125441Y38799D01*
D02*
G37*
G36*
X128657Y35490D02*
X125903Y32644D01*
X125950Y32135D01*
X126135Y32158D01*
X126343Y32135D01*
X126598Y32065D01*
X126852Y31949D01*
X127037Y31811D01*
X127199Y31649D01*
X127361Y31417D01*
X127477Y31139D01*
X127547Y30839D01*
X127523Y30630D01*
X130786D01*
X131017Y33060D01*
X128657Y35490D01*
D02*
G37*
G36*
X126251Y31440D02*
X126135D01*
X125903Y31417D01*
X125742Y31325D01*
X125603Y31232D01*
X125533Y31093D01*
X125487Y30977D01*
X125441Y30862D01*
Y30769D01*
Y30746D01*
X125464Y30515D01*
X125556Y30353D01*
X125649Y30214D01*
X125788Y30145D01*
X125903Y30098D01*
X126019Y30075D01*
X126112Y30052D01*
X126135D01*
X126366Y30075D01*
X126528Y30168D01*
X126667Y30283D01*
X126737Y30399D01*
X126783Y30538D01*
X126806Y30630D01*
X126829Y30723D01*
Y30746D01*
X126806Y30977D01*
X126713Y31139D01*
X126598Y31278D01*
X126482Y31348D01*
X126343Y31394D01*
X126251Y31440D01*
D02*
G37*
G36*
X130647Y30214D02*
X130555D01*
Y29658D01*
X130647D01*
Y30214D01*
D02*
G37*
%LPD*%
G36*
X126297Y31186D02*
X126413Y31139D01*
X126482Y31070D01*
X126528Y30977D01*
X126598Y30816D01*
Y30769D01*
Y30746D01*
X126575Y30584D01*
X126528Y30468D01*
X126459Y30399D01*
X126366Y30353D01*
X126204Y30283D01*
X126135D01*
X125973Y30306D01*
X125857Y30353D01*
X125788Y30422D01*
X125718Y30515D01*
X125672Y30677D01*
Y30723D01*
Y30746D01*
X125695Y30908D01*
X125742Y31024D01*
X125811Y31093D01*
X125903Y31163D01*
X126066Y31209D01*
X126135D01*
X126297Y31186D01*
D02*
G37*
%LPC*%
G36*
X126158Y30816D02*
X126089D01*
X126066Y30792D01*
Y30769D01*
Y30746D01*
Y30700D01*
X126089Y30677D01*
X126135D01*
X126181Y30700D01*
X126204Y30723D01*
Y30746D01*
X126181Y30792D01*
X126158Y30816D01*
D02*
G37*
%LPD*%
D48*
X173127Y69278D02*
Y64779D01*
Y69278D02*
X170128Y64779D01*
Y69278D02*
Y64779D01*
X168886Y66492D02*
X166315D01*
Y66921D01*
X166529Y67349D01*
X166743Y67564D01*
X167172Y67778D01*
X167814D01*
X168243Y67564D01*
X168671Y67135D01*
X168886Y66492D01*
Y66064D01*
X168671Y65421D01*
X168243Y64993D01*
X167814Y64779D01*
X167172D01*
X166743Y64993D01*
X166315Y65421D01*
X165350Y67778D02*
X164494Y64779D01*
X163637Y67778D02*
X164494Y64779D01*
X163637Y67778D02*
X162780Y64779D01*
X161923Y67778D02*
X162780Y64779D01*
X157445D02*
X159159Y69278D01*
X160873Y64779D01*
X160230Y66278D02*
X158088D01*
X153610Y69278D02*
X156395D01*
Y64779D01*
X153610D01*
X156395Y67135D02*
X154681D01*
X147826Y69278D02*
Y64779D01*
X149325Y69278D02*
X146326D01*
X145790Y66492D02*
X143220D01*
Y66921D01*
X143434Y67349D01*
X143648Y67564D01*
X144077Y67778D01*
X144719D01*
X145148Y67564D01*
X145576Y67135D01*
X145790Y66492D01*
Y66064D01*
X145576Y65421D01*
X145148Y64993D01*
X144719Y64779D01*
X144077D01*
X143648Y64993D01*
X143220Y65421D01*
X139685Y67135D02*
X140113Y67564D01*
X140542Y67778D01*
X141184D01*
X141613Y67564D01*
X142041Y67135D01*
X142255Y66492D01*
Y66064D01*
X142041Y65421D01*
X141613Y64993D01*
X141184Y64779D01*
X140542D01*
X140113Y64993D01*
X139685Y65421D01*
X138721Y69278D02*
Y64779D01*
Y66921D02*
X138078Y67564D01*
X137649Y67778D01*
X137007D01*
X136578Y67564D01*
X136364Y66921D01*
Y64779D01*
X135186Y67778D02*
Y64779D01*
Y66921D02*
X134543Y67564D01*
X134114Y67778D01*
X133472D01*
X133043Y67564D01*
X132829Y66921D01*
Y64779D01*
X130579Y67778D02*
X131008Y67564D01*
X131436Y67135D01*
X131651Y66492D01*
Y66064D01*
X131436Y65421D01*
X131008Y64993D01*
X130579Y64779D01*
X129937D01*
X129508Y64993D01*
X129080Y65421D01*
X128866Y66064D01*
Y66492D01*
X129080Y67135D01*
X129508Y67564D01*
X129937Y67778D01*
X130579D01*
X127880Y69278D02*
Y64779D01*
X125866Y67778D02*
X126295Y67564D01*
X126723Y67135D01*
X126937Y66492D01*
Y66064D01*
X126723Y65421D01*
X126295Y64993D01*
X125866Y64779D01*
X125223D01*
X124795Y64993D01*
X124366Y65421D01*
X124152Y66064D01*
Y66492D01*
X124366Y67135D01*
X124795Y67564D01*
X125223Y67778D01*
X125866D01*
X120596D02*
Y64350D01*
X120810Y63707D01*
X121024Y63493D01*
X121453Y63279D01*
X122096D01*
X122524Y63493D01*
X120596Y67135D02*
X121024Y67564D01*
X121453Y67778D01*
X122096D01*
X122524Y67564D01*
X122952Y67135D01*
X123167Y66492D01*
Y66064D01*
X122952Y65421D01*
X122524Y64993D01*
X122096Y64779D01*
X121453D01*
X121024Y64993D01*
X120596Y65421D01*
X119182Y67778D02*
X117896Y64779D01*
X116611Y67778D02*
X117896Y64779D01*
X118325Y63922D01*
X118753Y63493D01*
X119182Y63279D01*
X119396D01*
X112326Y69278D02*
Y64779D01*
X111383Y67778D02*
Y64779D01*
Y66921D02*
X110741Y67564D01*
X110312Y67778D01*
X109670D01*
X109241Y67564D01*
X109027Y66921D01*
Y64779D01*
X105278Y67135D02*
X105706Y67564D01*
X106135Y67778D01*
X106777D01*
X107206Y67564D01*
X107634Y67135D01*
X107849Y66492D01*
Y66064D01*
X107634Y65421D01*
X107206Y64993D01*
X106777Y64779D01*
X106135D01*
X105706Y64993D01*
X105278Y65421D01*
X104099Y65207D02*
X104314Y64993D01*
X104099Y64779D01*
X103885Y64993D01*
X104099Y65207D01*
X184300Y60699D02*
Y56200D01*
Y60699D02*
X181301Y56200D01*
Y60699D02*
Y56200D01*
X176630D02*
X178344Y60699D01*
X180058Y56200D01*
X179415Y57700D02*
X177273D01*
X172795Y60699D02*
X175580D01*
Y56200D01*
X172795D01*
X175580Y58557D02*
X173866D01*
X172046Y58128D02*
X168189D01*
X163647Y59628D02*
X163862Y60056D01*
X164290Y60485D01*
X164718Y60699D01*
X165575D01*
X166004Y60485D01*
X166432Y60056D01*
X166647Y59628D01*
X166861Y58985D01*
Y57914D01*
X166647Y57271D01*
X166432Y56843D01*
X166004Y56414D01*
X165575Y56200D01*
X164718D01*
X164290Y56414D01*
X163862Y56843D01*
X163647Y57271D01*
X162383Y60699D02*
X161312Y56200D01*
X160241Y60699D02*
X161312Y56200D01*
X160241Y60699D02*
X159170Y56200D01*
X158098Y60699D02*
X159170Y56200D01*
X156770Y60699D02*
X154414D01*
X155699Y58985D01*
X155056D01*
X154628Y58771D01*
X154414Y58557D01*
X154199Y57914D01*
Y57485D01*
X154414Y56843D01*
X154842Y56414D01*
X155485Y56200D01*
X156128D01*
X156770Y56414D01*
X156984Y56629D01*
X157199Y57057D01*
X151907Y60699D02*
X152550Y60485D01*
X152978Y59842D01*
X153192Y58771D01*
Y58128D01*
X152978Y57057D01*
X152550Y56414D01*
X151907Y56200D01*
X151479D01*
X150836Y56414D01*
X150407Y57057D01*
X150193Y58128D01*
Y58771D01*
X150407Y59842D01*
X150836Y60485D01*
X151479Y60699D01*
X151907D01*
X148115D02*
X148758Y60485D01*
X148972Y60056D01*
Y59628D01*
X148758Y59199D01*
X148329Y58985D01*
X147472Y58771D01*
X146829Y58557D01*
X146401Y58128D01*
X146187Y57700D01*
Y57057D01*
X146401Y56629D01*
X146615Y56414D01*
X147258Y56200D01*
X148115D01*
X148758Y56414D01*
X148972Y56629D01*
X149186Y57057D01*
Y57700D01*
X148972Y58128D01*
X148543Y58557D01*
X147901Y58771D01*
X147044Y58985D01*
X146615Y59199D01*
X146401Y59628D01*
Y60056D01*
X146615Y60485D01*
X147258Y60699D01*
X148115D01*
X143680D02*
Y56200D01*
X145180Y60699D02*
X142181D01*
X141645Y58128D02*
X137789D01*
X136460Y60699D02*
Y56200D01*
X133889D01*
X133397Y58342D02*
X131468D01*
X130826Y58557D01*
X130612Y58771D01*
X130397Y59199D01*
Y59842D01*
X130612Y60271D01*
X130826Y60485D01*
X131468Y60699D01*
X133397D01*
Y56200D01*
X126177Y59628D02*
X126391Y60056D01*
X126820Y60485D01*
X127248Y60699D01*
X128105D01*
X128533Y60485D01*
X128962Y60056D01*
X129176Y59628D01*
X129390Y58985D01*
Y57914D01*
X129176Y57271D01*
X128962Y56843D01*
X128533Y56414D01*
X128105Y56200D01*
X127248D01*
X126820Y56414D01*
X126391Y56843D01*
X126177Y57271D01*
X122342Y60699D02*
X124484D01*
X124698Y58771D01*
X124484Y58985D01*
X123842Y59199D01*
X123199D01*
X122556Y58985D01*
X122128Y58557D01*
X121913Y57914D01*
Y57485D01*
X122128Y56843D01*
X122556Y56414D01*
X123199Y56200D01*
X123842D01*
X124484Y56414D01*
X124698Y56629D01*
X124913Y57057D01*
X118336Y60699D02*
X120478D01*
X120692Y58771D01*
X120478Y58985D01*
X119835Y59199D01*
X119193D01*
X118550Y58985D01*
X118121Y58557D01*
X117907Y57914D01*
Y57485D01*
X118121Y56843D01*
X118550Y56414D01*
X119193Y56200D01*
X119835D01*
X120478Y56414D01*
X120692Y56629D01*
X120906Y57057D01*
X113901Y60056D02*
X114329Y60485D01*
X114972Y60699D01*
X115829D01*
X116472Y60485D01*
X116900Y60056D01*
Y59628D01*
X116686Y59199D01*
X116472Y58985D01*
X116043Y58771D01*
X114758Y58342D01*
X114329Y58128D01*
X114115Y57914D01*
X113901Y57485D01*
Y56843D01*
X114329Y56414D01*
X114972Y56200D01*
X115829D01*
X116472Y56414D01*
X116900Y56843D01*
X110323Y60056D02*
X110537Y60485D01*
X111180Y60699D01*
X111609D01*
X112251Y60485D01*
X112680Y59842D01*
X112894Y58771D01*
Y57700D01*
X112680Y56843D01*
X112251Y56414D01*
X111609Y56200D01*
X111394D01*
X110751Y56414D01*
X110323Y56843D01*
X110109Y57485D01*
Y57700D01*
X110323Y58342D01*
X110751Y58771D01*
X111394Y58985D01*
X111609D01*
X112251Y58771D01*
X112680Y58342D01*
X112894Y57700D01*
X109123Y60699D02*
X106124Y56200D01*
Y60699D02*
X109123Y56200D01*
X105117Y58128D02*
X101261D01*
X98647Y60699D02*
X99290Y60485D01*
X99718Y59842D01*
X99932Y58771D01*
Y58128D01*
X99718Y57057D01*
X99290Y56414D01*
X98647Y56200D01*
X98219D01*
X97576Y56414D01*
X97147Y57057D01*
X96933Y58128D01*
Y58771D01*
X97147Y59842D01*
X97576Y60485D01*
X98219Y60699D01*
X98647D01*
X93784D02*
X95926Y57700D01*
X92712D01*
X93784Y60699D02*
Y56200D01*
M02*
