G04*
G04 #@! TF.GenerationSoftware,Altium Limited,Altium Designer,24.10.1 (45)*
G04*
G04 Layer_Physical_Order=2*
G04 Layer_Color=32768*
%FSLAX25Y25*%
%MOIN*%
G70*
G04*
G04 #@! TF.SameCoordinates,57127293-4D53-4A89-B12F-A76F8EE51558*
G04*
G04*
G04 #@! TF.FilePolarity,Negative*
G04*
G01*
G75*
%ADD10C,0.01500*%
%ADD84C,0.04000*%
%ADD85C,0.03500*%
%ADD87C,0.04000*%
%ADD88C,0.06016*%
%ADD89C,0.08496*%
G04:AMPARAMS|DCode=90|XSize=124.961mil|YSize=124.961mil|CornerRadius=0mil|HoleSize=0mil|Usage=FLASHONLY|Rotation=0.000|XOffset=0mil|YOffset=0mil|HoleType=Round|Shape=Relief|Width=10mil|Gap=10mil|Entries=4|*
%AMTHD90*
7,0,0,0.12496,0.10496,0.01000,45*
%
%ADD90THD90*%
%ADD91C,0.05500*%
G04:AMPARAMS|DCode=92|XSize=95mil|YSize=95mil|CornerRadius=0mil|HoleSize=0mil|Usage=FLASHONLY|Rotation=0.000|XOffset=0mil|YOffset=0mil|HoleType=Round|Shape=Relief|Width=10mil|Gap=10mil|Entries=4|*
%AMTHD92*
7,0,0,0.09500,0.07500,0.01000,45*
%
%ADD92THD92*%
G04:AMPARAMS|DCode=93|XSize=100.157mil|YSize=100.157mil|CornerRadius=0mil|HoleSize=0mil|Usage=FLASHONLY|Rotation=0.000|XOffset=0mil|YOffset=0mil|HoleType=Round|Shape=Relief|Width=10mil|Gap=10mil|Entries=4|*
%AMTHD93*
7,0,0,0.10016,0.08016,0.01000,45*
%
%ADD93THD93*%
%ADD94C,0.15386*%
%ADD95C,0.07950*%
G04:AMPARAMS|DCode=96|XSize=119.5mil|YSize=119.5mil|CornerRadius=0mil|HoleSize=0mil|Usage=FLASHONLY|Rotation=0.000|XOffset=0mil|YOffset=0mil|HoleType=Round|Shape=Relief|Width=10mil|Gap=10mil|Entries=4|*
%AMTHD96*
7,0,0,0.11950,0.09950,0.01000,45*
%
%ADD96THD96*%
G04:AMPARAMS|DCode=97|XSize=122.992mil|YSize=122.992mil|CornerRadius=0mil|HoleSize=0mil|Usage=FLASHONLY|Rotation=0.000|XOffset=0mil|YOffset=0mil|HoleType=Round|Shape=Relief|Width=10mil|Gap=10mil|Entries=4|*
%AMTHD97*
7,0,0,0.12299,0.10299,0.01000,45*
%
%ADD97THD97*%
%ADD98C,0.08299*%
%ADD99C,0.07800*%
G04:AMPARAMS|DCode=100|XSize=118mil|YSize=118mil|CornerRadius=0mil|HoleSize=0mil|Usage=FLASHONLY|Rotation=0.000|XOffset=0mil|YOffset=0mil|HoleType=Round|Shape=Relief|Width=10mil|Gap=10mil|Entries=4|*
%AMTHD100*
7,0,0,0.11800,0.09800,0.01000,45*
%
%ADD100THD100*%
G04:AMPARAMS|DCode=101|XSize=80mil|YSize=80mil|CornerRadius=0mil|HoleSize=0mil|Usage=FLASHONLY|Rotation=0.000|XOffset=0mil|YOffset=0mil|HoleType=Round|Shape=Relief|Width=10mil|Gap=10mil|Entries=4|*
%AMTHD101*
7,0,0,0.08000,0.06000,0.01000,45*
%
%ADD101THD101*%
%ADD102C,0.04800*%
%ADD103C,0.03181*%
G04:AMPARAMS|DCode=104|XSize=72mil|YSize=72mil|CornerRadius=0mil|HoleSize=0mil|Usage=FLASHONLY|Rotation=0.000|XOffset=0mil|YOffset=0mil|HoleType=Round|Shape=Relief|Width=10mil|Gap=10mil|Entries=4|*
%AMTHD104*
7,0,0,0.07200,0.05200,0.01000,45*
%
%ADD104THD104*%
G36*
X440000Y310000D02*
X330000D01*
Y440000D01*
X440000D01*
Y310000D01*
D02*
G37*
D10*
X100000Y115000D02*
G03*
X105000Y110000I5000J0D01*
G01*
X695000D02*
G03*
X700000Y115000I0J5000D01*
G01*
Y495000D02*
G03*
X695000Y500000I-5000J0D01*
G01*
X105000D02*
G03*
X100000Y495000I0J-5000D01*
G01*
X330000Y310000D02*
X440000D01*
X330000D02*
Y440000D01*
X440000D01*
Y310000D02*
Y440000D01*
X105000Y110000D02*
X695000D01*
X700000Y115000D02*
Y495000D01*
X105000Y500000D02*
X695000D01*
X100000Y115000D02*
Y495000D01*
D84*
X634842Y176181D02*
D03*
X660433Y197835D02*
D03*
Y176181D02*
D03*
X650000Y280512D02*
D03*
X659842Y334646D02*
D03*
Y339173D02*
D03*
X649606Y333661D02*
D03*
X650000Y339173D02*
D03*
X184551Y294000D02*
D03*
X524803Y235827D02*
D03*
X167717Y153150D02*
D03*
X178740Y360236D02*
D03*
X177953Y335039D02*
D03*
X171653Y281102D02*
D03*
X203150Y443701D02*
D03*
X152362Y374410D02*
D03*
X151969Y383465D02*
D03*
X133858Y185039D02*
D03*
X196063Y183858D02*
D03*
X193701Y179528D02*
D03*
X526772Y208661D02*
D03*
X650394Y395669D02*
D03*
Y401575D02*
D03*
X586614Y350000D02*
D03*
X159843Y163779D02*
D03*
Y170079D02*
D03*
X183071Y219291D02*
D03*
X590748Y415158D02*
D03*
X585433Y415354D02*
D03*
X268500Y192500D02*
D03*
X244000Y182500D02*
D03*
X184283Y348000D02*
D03*
X184386Y321000D02*
D03*
X175984Y307480D02*
D03*
X637795Y179134D02*
D03*
X650000Y287402D02*
D03*
X624900Y215400D02*
D03*
X608100Y152400D02*
D03*
Y146700D02*
D03*
X585400Y291200D02*
D03*
X585500Y297600D02*
D03*
X627100Y335100D02*
D03*
X631800D02*
D03*
X586221Y237795D02*
D03*
X551700Y226300D02*
D03*
X557200D02*
D03*
X586024Y247047D02*
D03*
X538400Y195500D02*
D03*
X543200D02*
D03*
X554200Y197000D02*
D03*
X558800D02*
D03*
X650100Y241500D02*
D03*
Y246400D02*
D03*
X491900Y219400D02*
D03*
X496800D02*
D03*
X247500Y220000D02*
D03*
Y225000D02*
D03*
D85*
X201575Y289370D02*
D03*
X580315Y316535D02*
D03*
X579921Y360236D02*
D03*
X222835Y342913D02*
D03*
X223228Y357480D02*
D03*
X207300Y300900D02*
D03*
X565354Y196063D02*
D03*
X501700Y334700D02*
D03*
Y345000D02*
D03*
X565993Y291400D02*
D03*
X574803Y241339D02*
D03*
X527600Y261600D02*
D03*
X521000Y355000D02*
D03*
X375100Y231200D02*
D03*
X403200Y157800D02*
D03*
X272500Y250000D02*
D03*
X229000Y153000D02*
D03*
D87*
X440000Y310000D02*
Y440000D01*
X330000Y310000D02*
X440000D01*
X330000D02*
Y440000D01*
X440000D01*
X695493Y500000D02*
X696458Y499808D01*
X104508Y500000D02*
X695493D01*
X103542Y499808D02*
X104508Y500000D01*
X102632Y499431D02*
X103542Y499808D01*
X101813Y498884D02*
X102632Y499431D01*
X101116Y498187D02*
X101813Y498884D01*
X100569Y497368D02*
X101116Y498187D01*
X100192Y496458D02*
X100569Y497368D01*
X100000Y495493D02*
X100192Y496458D01*
X100000Y495000D02*
Y495493D01*
Y114507D02*
Y115000D01*
Y114507D02*
X100192Y113542D01*
X100569Y112632D01*
X101116Y111813D01*
X101813Y111116D01*
X102632Y110569D01*
X103542Y110192D01*
X104508Y110000D01*
X695493D01*
X696458Y110192D01*
X697368Y110569D01*
X698187Y111116D01*
X698884Y111813D01*
X699431Y112632D01*
X699808Y113542D01*
X700000Y114507D01*
Y115000D01*
Y495000D02*
Y495493D01*
X699808Y496458D02*
X700000Y495493D01*
X699431Y497368D02*
X699808Y496458D01*
X698884Y498187D02*
X699431Y497368D01*
X698187Y498884D02*
X698884Y498187D01*
X697368Y499431D02*
X698187Y498884D01*
X696458Y499808D02*
X697368Y499431D01*
X700000Y115000D02*
Y495000D01*
X100000Y115000D02*
Y495000D01*
D88*
X173500Y404000D02*
D03*
Y414000D02*
D03*
Y424000D02*
D03*
X163500Y404000D02*
D03*
Y414000D02*
D03*
Y424000D02*
D03*
Y394000D02*
D03*
X173500D02*
D03*
X551000Y385000D02*
D03*
X561000D02*
D03*
X571000D02*
D03*
X130000Y360000D02*
D03*
Y350000D02*
D03*
Y340000D02*
D03*
Y330000D02*
D03*
Y320000D02*
D03*
Y310000D02*
D03*
Y300000D02*
D03*
Y290000D02*
D03*
Y280000D02*
D03*
X140000Y340000D02*
D03*
Y330000D02*
D03*
Y320000D02*
D03*
Y310000D02*
D03*
Y300000D02*
D03*
Y290000D02*
D03*
Y280000D02*
D03*
Y270000D02*
D03*
X455000Y157500D02*
D03*
Y147500D02*
D03*
X425000D02*
D03*
X435000D02*
D03*
X445000D02*
D03*
X425000Y157500D02*
D03*
X435000D02*
D03*
X445000D02*
D03*
X465000Y147500D02*
D03*
Y157500D02*
D03*
X302500Y147500D02*
D03*
X272500D02*
D03*
X282500D02*
D03*
X292500D02*
D03*
X272500Y157500D02*
D03*
X312500Y147500D02*
D03*
X332500D02*
D03*
X322500D02*
D03*
X342500D02*
D03*
X362500D02*
D03*
X352500D02*
D03*
X530000Y157500D02*
D03*
Y147500D02*
D03*
X500000D02*
D03*
X510000D02*
D03*
X520000D02*
D03*
X500000Y157500D02*
D03*
X510000D02*
D03*
X520000D02*
D03*
X565000D02*
D03*
Y147500D02*
D03*
X575000D02*
D03*
X585000D02*
D03*
X575000Y157500D02*
D03*
X585000D02*
D03*
X183000Y280000D02*
D03*
X193000D02*
D03*
X203000D02*
D03*
X568000Y441000D02*
D03*
Y451000D02*
D03*
D89*
X610000Y467500D02*
D03*
D90*
X600000Y457500D02*
D03*
X620000D02*
D03*
Y477500D02*
D03*
X600000D02*
D03*
D91*
X290000Y270000D02*
D03*
Y280000D02*
D03*
Y290000D02*
D03*
Y300000D02*
D03*
Y330000D02*
D03*
Y340000D02*
D03*
Y350000D02*
D03*
Y360000D02*
D03*
Y370000D02*
D03*
Y380000D02*
D03*
Y390000D02*
D03*
Y400000D02*
D03*
Y420000D02*
D03*
Y440000D02*
D03*
Y460000D02*
D03*
X480000Y250000D02*
D03*
X470000D02*
D03*
X460000D02*
D03*
X450000D02*
D03*
X440000D02*
D03*
X430000D02*
D03*
X420000D02*
D03*
X410000D02*
D03*
X400000D02*
D03*
X390000D02*
D03*
X360000D02*
D03*
X350000D02*
D03*
X340000D02*
D03*
X330000D02*
D03*
X320000D02*
D03*
X310000D02*
D03*
X300000D02*
D03*
X480000Y270000D02*
D03*
Y280000D02*
D03*
Y290000D02*
D03*
Y320000D02*
D03*
Y330000D02*
D03*
Y340000D02*
D03*
Y350000D02*
D03*
Y360000D02*
D03*
Y390000D02*
D03*
Y410000D02*
D03*
Y420000D02*
D03*
Y440000D02*
D03*
Y450000D02*
D03*
X260000Y270000D02*
D03*
Y280000D02*
D03*
Y290000D02*
D03*
Y300000D02*
D03*
Y330000D02*
D03*
Y340000D02*
D03*
Y350000D02*
D03*
Y360000D02*
D03*
Y370000D02*
D03*
Y380000D02*
D03*
Y390000D02*
D03*
Y400000D02*
D03*
Y420000D02*
D03*
Y440000D02*
D03*
Y460000D02*
D03*
X480000Y220000D02*
D03*
X470000D02*
D03*
X460000D02*
D03*
X450000D02*
D03*
X440000D02*
D03*
X430000D02*
D03*
X420000D02*
D03*
X410000D02*
D03*
X400000D02*
D03*
X390000D02*
D03*
X360000D02*
D03*
X350000D02*
D03*
X340000D02*
D03*
X330000D02*
D03*
X320000D02*
D03*
X310000D02*
D03*
X300000D02*
D03*
X510000Y270000D02*
D03*
Y280000D02*
D03*
Y290000D02*
D03*
Y320000D02*
D03*
Y330000D02*
D03*
Y340000D02*
D03*
Y350000D02*
D03*
Y360000D02*
D03*
Y390000D02*
D03*
Y410000D02*
D03*
Y420000D02*
D03*
Y440000D02*
D03*
Y450000D02*
D03*
D92*
X290000Y310000D02*
D03*
Y320000D02*
D03*
Y410000D02*
D03*
Y430000D02*
D03*
Y450000D02*
D03*
X380000Y250000D02*
D03*
X370000D02*
D03*
X290000D02*
D03*
X480000Y300000D02*
D03*
Y310000D02*
D03*
Y370000D02*
D03*
Y380000D02*
D03*
Y400000D02*
D03*
Y430000D02*
D03*
Y460000D02*
D03*
X260000Y310000D02*
D03*
Y320000D02*
D03*
Y410000D02*
D03*
Y430000D02*
D03*
Y450000D02*
D03*
X380000Y220000D02*
D03*
X370000D02*
D03*
X290000D02*
D03*
X510000Y300000D02*
D03*
Y310000D02*
D03*
Y370000D02*
D03*
Y380000D02*
D03*
Y400000D02*
D03*
Y430000D02*
D03*
Y460000D02*
D03*
D93*
X140000Y360000D02*
D03*
Y350000D02*
D03*
X130000Y270000D02*
D03*
X302500Y157500D02*
D03*
X282500D02*
D03*
X292500D02*
D03*
X312500D02*
D03*
X332500D02*
D03*
X322500D02*
D03*
X342500D02*
D03*
X362500D02*
D03*
X352500D02*
D03*
X568000Y461000D02*
D03*
D94*
X130000Y470000D02*
D03*
Y140000D02*
D03*
X460000Y480000D02*
D03*
X310000D02*
D03*
X670000Y470000D02*
D03*
Y140000D02*
D03*
X380000Y280000D02*
D03*
D95*
X141811Y218504D02*
D03*
X130000Y200000D02*
D03*
D96*
X118189Y218504D02*
D03*
D97*
X555000Y478000D02*
D03*
X130000Y439000D02*
D03*
X394000Y132000D02*
D03*
D98*
X188500Y383000D02*
D03*
X642000Y468000D02*
D03*
D99*
X197500Y470000D02*
D03*
X178287D02*
D03*
D100*
X187894D02*
D03*
D101*
X633900Y253900D02*
D03*
X609130Y414930D02*
D03*
Y429730D02*
D03*
X620400Y422500D02*
D03*
X633858Y308071D02*
D03*
X559055Y291339D02*
D03*
X218000Y270000D02*
D03*
X223000Y265000D02*
D03*
X222441Y277165D02*
D03*
X609055Y239370D02*
D03*
X620079Y247638D02*
D03*
X218000Y182500D02*
D03*
X545276Y405512D02*
D03*
X536221D02*
D03*
X527559D02*
D03*
X521260Y410630D02*
D03*
X260000Y162441D02*
D03*
X182283Y181496D02*
D03*
X191732Y189764D02*
D03*
X175197Y181496D02*
D03*
X176378Y442913D02*
D03*
X198425Y430315D02*
D03*
X155512Y277953D02*
D03*
X161811Y270472D02*
D03*
X161417Y284646D02*
D03*
X160630Y307480D02*
D03*
X161811Y334646D02*
D03*
X161024Y359842D02*
D03*
X184646Y138189D02*
D03*
X500000Y203937D02*
D03*
X499606Y255906D02*
D03*
X500787Y232677D02*
D03*
X604331Y350000D02*
D03*
X620079Y362992D02*
D03*
Y307874D02*
D03*
X609055Y298819D02*
D03*
Y180709D02*
D03*
X627559Y185433D02*
D03*
X221654Y220472D02*
D03*
X169260Y348000D02*
D03*
X169551Y321000D02*
D03*
X605200Y233600D02*
D03*
X169291Y294094D02*
D03*
X205500Y232600D02*
D03*
X377000Y145100D02*
D03*
X584665Y196043D02*
D03*
X386500Y145300D02*
D03*
X396700Y145100D02*
D03*
X635039Y190945D02*
D03*
X627559Y308268D02*
D03*
Y247638D02*
D03*
X620079Y185039D02*
D03*
X611600Y360000D02*
D03*
X604500Y354700D02*
D03*
X607500Y288500D02*
D03*
X630709Y363386D02*
D03*
X633858Y368504D02*
D03*
X564567Y174409D02*
D03*
X559842Y179921D02*
D03*
X225000Y227500D02*
D03*
D102*
X245000Y256000D02*
D03*
Y263000D02*
D03*
D103*
X130000Y478661D02*
D03*
X123875Y476124D02*
D03*
X121339Y470000D02*
D03*
X123875Y463875D02*
D03*
X130000Y461339D02*
D03*
X136125Y463875D02*
D03*
X138661Y470000D02*
D03*
X136125Y476124D02*
D03*
X130000Y148661D02*
D03*
X123875Y146124D02*
D03*
X121339Y140000D02*
D03*
X123875Y133876D02*
D03*
X130000Y131339D02*
D03*
X136125Y133876D02*
D03*
X138661Y140000D02*
D03*
X136125Y146124D02*
D03*
X460000Y488661D02*
D03*
X453875Y486125D02*
D03*
X451339Y480000D02*
D03*
X453875Y473876D02*
D03*
X460000Y471339D02*
D03*
X466124Y473876D02*
D03*
X468661Y480000D02*
D03*
X466124Y486125D02*
D03*
X310000Y488661D02*
D03*
X303875Y486125D02*
D03*
X301339Y480000D02*
D03*
X303875Y473876D02*
D03*
X310000Y471339D02*
D03*
X316125Y473876D02*
D03*
X318661Y480000D02*
D03*
X316125Y486125D02*
D03*
X670000Y478661D02*
D03*
X663875Y476124D02*
D03*
X661339Y470000D02*
D03*
X663875Y463875D02*
D03*
X670000Y461339D02*
D03*
X676124Y463875D02*
D03*
X678661Y470000D02*
D03*
X676124Y476124D02*
D03*
X670000Y148661D02*
D03*
X663875Y146124D02*
D03*
X661339Y140000D02*
D03*
X663875Y133876D02*
D03*
X670000Y131339D02*
D03*
X676124Y133876D02*
D03*
X678661Y140000D02*
D03*
X676124Y146124D02*
D03*
X380000Y288661D02*
D03*
X373875Y286124D02*
D03*
X371339Y280000D02*
D03*
X373875Y273875D02*
D03*
X380000Y271339D02*
D03*
X386124Y273875D02*
D03*
X388661Y280000D02*
D03*
X386124Y286124D02*
D03*
D104*
X120000Y120000D02*
D03*
Y160000D02*
D03*
X130000Y180000D02*
D03*
Y220000D02*
D03*
X120000Y240000D02*
D03*
Y400000D02*
D03*
X130000Y420000D02*
D03*
X140000Y120000D02*
D03*
X150000Y140000D02*
D03*
X140000Y160000D02*
D03*
X150000Y180000D02*
D03*
X140000Y240000D02*
D03*
Y400000D02*
D03*
X150000Y420000D02*
D03*
Y460000D02*
D03*
X160000Y120000D02*
D03*
X170000Y140000D02*
D03*
Y460000D02*
D03*
X160000Y480000D02*
D03*
X180000Y120000D02*
D03*
X190000Y460000D02*
D03*
X200000Y120000D02*
D03*
X210000Y140000D02*
D03*
Y460000D02*
D03*
X220000Y120000D02*
D03*
X230000Y140000D02*
D03*
X220000Y160000D02*
D03*
X230000Y380000D02*
D03*
Y420000D02*
D03*
Y460000D02*
D03*
X220000Y480000D02*
D03*
X240000Y120000D02*
D03*
X250000Y140000D02*
D03*
X240000Y160000D02*
D03*
X250000Y380000D02*
D03*
X240000Y400000D02*
D03*
X250000Y460000D02*
D03*
X240000Y480000D02*
D03*
X260000Y120000D02*
D03*
Y240000D02*
D03*
X270000Y260000D02*
D03*
X260000Y480000D02*
D03*
X280000Y120000D02*
D03*
Y240000D02*
D03*
Y480000D02*
D03*
X300000Y120000D02*
D03*
X310000Y260000D02*
D03*
X300000Y280000D02*
D03*
X310000Y300000D02*
D03*
Y340000D02*
D03*
X300000Y360000D02*
D03*
X310000Y380000D02*
D03*
X300000Y400000D02*
D03*
X310000Y420000D02*
D03*
X300000Y440000D02*
D03*
X310000Y460000D02*
D03*
X320000Y120000D02*
D03*
X330000Y260000D02*
D03*
X320000Y280000D02*
D03*
X330000Y300000D02*
D03*
X320000Y320000D02*
D03*
Y360000D02*
D03*
Y400000D02*
D03*
Y440000D02*
D03*
X330000Y460000D02*
D03*
X340000Y120000D02*
D03*
X350000Y260000D02*
D03*
X340000Y280000D02*
D03*
X350000Y300000D02*
D03*
Y460000D02*
D03*
X340000Y480000D02*
D03*
X360000Y120000D02*
D03*
Y280000D02*
D03*
X370000Y300000D02*
D03*
Y460000D02*
D03*
X360000Y480000D02*
D03*
X390000Y260000D02*
D03*
Y300000D02*
D03*
Y460000D02*
D03*
X380000Y480000D02*
D03*
X410000Y140000D02*
D03*
Y260000D02*
D03*
X400000Y280000D02*
D03*
X410000Y300000D02*
D03*
Y460000D02*
D03*
X400000Y480000D02*
D03*
X430000Y260000D02*
D03*
X420000Y280000D02*
D03*
X430000Y300000D02*
D03*
Y460000D02*
D03*
X420000Y480000D02*
D03*
X450000Y260000D02*
D03*
X440000Y280000D02*
D03*
X450000Y300000D02*
D03*
Y340000D02*
D03*
Y380000D02*
D03*
Y420000D02*
D03*
Y460000D02*
D03*
X440000Y480000D02*
D03*
X470000Y260000D02*
D03*
X460000Y280000D02*
D03*
Y320000D02*
D03*
X470000Y340000D02*
D03*
X460000Y360000D02*
D03*
X480000Y160000D02*
D03*
X490000Y260000D02*
D03*
X590000Y140000D02*
D03*
X620000Y120000D02*
D03*
X630000Y140000D02*
D03*
X640000Y120000D02*
D03*
X650000Y140000D02*
D03*
X660000Y120000D02*
D03*
X680000D02*
D03*
X690000Y140000D02*
D03*
X680000Y160000D02*
D03*
M02*
