G04*
G04 #@! TF.GenerationSoftware,Altium Limited,Altium Designer,21.8.1 (53)*
G04*
G04 Layer_Physical_Order=2*
G04 Layer_Color=16711680*
%FSLAX25Y25*%
%MOIN*%
G70*
G04*
G04 #@! TF.SameCoordinates,8FA63536-6A95-4487-AB72-3BC32280AE34*
G04*
G04*
G04 #@! TF.FilePolarity,Positive*
G04*
G01*
G75*
%ADD19C,0.00800*%
%ADD20C,0.01200*%
%ADD21C,0.02500*%
%ADD22C,0.25000*%
%ADD23R,0.11000X0.06000*%
%ADD24O,0.11000X0.06000*%
%ADD25R,0.06000X0.11000*%
%ADD26O,0.06000X0.11000*%
%ADD27C,0.02400*%
%ADD28C,0.02362*%
G36*
X406657Y476000D02*
X404700D01*
Y472000D01*
Y468000D01*
X406657D01*
Y465631D01*
X401700D01*
X400760Y465507D01*
X399885Y465145D01*
X399132Y464568D01*
X398555Y463815D01*
X398193Y462940D01*
X398069Y462000D01*
X398193Y461060D01*
X398555Y460184D01*
X399132Y459433D01*
X399885Y458855D01*
X400760Y458493D01*
X401700Y458369D01*
X406657D01*
Y455631D01*
X401700D01*
X400760Y455507D01*
X399885Y455145D01*
X399132Y454568D01*
X398555Y453816D01*
X398193Y452940D01*
X398069Y452000D01*
X398193Y451060D01*
X398555Y450184D01*
X399132Y449433D01*
X399885Y448855D01*
X400760Y448493D01*
X401700Y448369D01*
X406657D01*
Y446034D01*
X404700D01*
Y442000D01*
Y437965D01*
X406657D01*
Y435631D01*
X401700D01*
X400760Y435507D01*
X399885Y435145D01*
X399132Y434568D01*
X398555Y433815D01*
X398193Y432940D01*
X398069Y432000D01*
X398193Y431060D01*
X398555Y430185D01*
X399132Y429432D01*
X399885Y428855D01*
X400760Y428493D01*
X401700Y428369D01*
X406657D01*
Y425631D01*
X401700D01*
X400760Y425507D01*
X399885Y425145D01*
X399132Y424568D01*
X398555Y423815D01*
X398193Y422940D01*
X398069Y422000D01*
X398193Y421060D01*
X398555Y420185D01*
X399132Y419432D01*
X399885Y418855D01*
X400760Y418493D01*
X401700Y418369D01*
X406657D01*
Y416035D01*
X404700D01*
Y412000D01*
Y407966D01*
X406657D01*
Y405631D01*
X401700D01*
X400760Y405507D01*
X399885Y405145D01*
X399132Y404568D01*
X398555Y403816D01*
X398193Y402940D01*
X398069Y402000D01*
X398193Y401060D01*
X398555Y400184D01*
X399132Y399432D01*
X399885Y398855D01*
X400760Y398493D01*
X401700Y398369D01*
X406657D01*
Y396035D01*
X404700D01*
Y392000D01*
Y387965D01*
X406657D01*
Y386034D01*
X404700D01*
Y382000D01*
Y377965D01*
X406657D01*
Y375631D01*
X401700D01*
X400760Y375507D01*
X399885Y375145D01*
X399132Y374568D01*
X398555Y373815D01*
X398193Y372940D01*
X398069Y372000D01*
X398193Y371060D01*
X398555Y370184D01*
X399132Y369432D01*
X399885Y368855D01*
X400760Y368493D01*
X401700Y368369D01*
X406657D01*
Y365631D01*
X401700D01*
X400760Y365507D01*
X399885Y365145D01*
X399132Y364568D01*
X398555Y363815D01*
X398193Y362940D01*
X398069Y362000D01*
X398193Y361060D01*
X398555Y360185D01*
X399132Y359433D01*
X399885Y358855D01*
X400760Y358493D01*
X401700Y358369D01*
X406657D01*
Y355631D01*
X401700D01*
X400760Y355507D01*
X399885Y355145D01*
X399132Y354568D01*
X398555Y353816D01*
X398193Y352940D01*
X398069Y352000D01*
X398193Y351060D01*
X398555Y350184D01*
X399132Y349432D01*
X399885Y348855D01*
X400760Y348493D01*
X401700Y348369D01*
X406657D01*
Y345631D01*
X401700D01*
X400760Y345507D01*
X399885Y345145D01*
X399132Y344568D01*
X398555Y343815D01*
X398193Y342940D01*
X398069Y342000D01*
X398193Y341060D01*
X398555Y340184D01*
X399132Y339433D01*
X399885Y338855D01*
X400760Y338493D01*
X401700Y338369D01*
X406657D01*
Y335631D01*
X401700D01*
X400760Y335507D01*
X399885Y335145D01*
X399132Y334568D01*
X398555Y333816D01*
X398193Y332940D01*
X398069Y332000D01*
X398193Y331060D01*
X398555Y330185D01*
X399132Y329433D01*
X399885Y328855D01*
X400760Y328493D01*
X401700Y328369D01*
X406657D01*
Y326034D01*
X404700D01*
Y322000D01*
Y317966D01*
X406657D01*
Y316035D01*
X404700D01*
Y312000D01*
Y307965D01*
X406657D01*
Y305631D01*
X401700D01*
X400760Y305507D01*
X399885Y305145D01*
X399132Y304568D01*
X398555Y303816D01*
X398193Y302940D01*
X398069Y302000D01*
X398193Y301060D01*
X398555Y300184D01*
X399132Y299432D01*
X399885Y298855D01*
X400760Y298493D01*
X401700Y298369D01*
X406657D01*
Y295631D01*
X401700D01*
X400760Y295507D01*
X399885Y295145D01*
X399132Y294568D01*
X398555Y293815D01*
X398193Y292940D01*
X398069Y292000D01*
X398193Y291060D01*
X398555Y290184D01*
X399132Y289433D01*
X399885Y288855D01*
X400760Y288493D01*
X401700Y288369D01*
X406657D01*
Y285631D01*
X401700D01*
X400760Y285507D01*
X399885Y285145D01*
X399132Y284568D01*
X398555Y283816D01*
X398193Y282940D01*
X398069Y282000D01*
X398193Y281060D01*
X398555Y280185D01*
X399132Y279433D01*
X399885Y278855D01*
X400760Y278493D01*
X401700Y278369D01*
X406657D01*
Y267718D01*
X406209Y267496D01*
X406015Y267645D01*
X405140Y268007D01*
X404200Y268131D01*
X403260Y268007D01*
X402385Y267645D01*
X401632Y267068D01*
X401055Y266316D01*
X400693Y265440D01*
X400569Y264500D01*
Y259500D01*
X400580Y259419D01*
X400250Y259043D01*
X398150D01*
X397820Y259419D01*
X397831Y259500D01*
Y264500D01*
X397707Y265440D01*
X397345Y266316D01*
X396767Y267068D01*
X396016Y267645D01*
X395140Y268007D01*
X394200Y268131D01*
X393260Y268007D01*
X392385Y267645D01*
X391633Y267068D01*
X391055Y266316D01*
X390693Y265440D01*
X390569Y264500D01*
Y259500D01*
X390580Y259419D01*
X390250Y259043D01*
X388150D01*
X387820Y259419D01*
X387831Y259500D01*
Y264500D01*
X387707Y265440D01*
X387345Y266316D01*
X386768Y267068D01*
X386016Y267645D01*
X385140Y268007D01*
X384200Y268131D01*
X383260Y268007D01*
X382384Y267645D01*
X381632Y267068D01*
X381055Y266316D01*
X380693Y265440D01*
X380569Y264500D01*
Y259500D01*
X380580Y259419D01*
X380250Y259043D01*
X378150D01*
X377820Y259419D01*
X377831Y259500D01*
Y264500D01*
X377707Y265440D01*
X377345Y266316D01*
X376767Y267068D01*
X376015Y267645D01*
X375140Y268007D01*
X374200Y268131D01*
X373260Y268007D01*
X372385Y267645D01*
X371633Y267068D01*
X371055Y266316D01*
X370693Y265440D01*
X370569Y264500D01*
Y259500D01*
X370580Y259419D01*
X370250Y259043D01*
X368150D01*
X367820Y259419D01*
X367831Y259500D01*
Y264500D01*
X367707Y265440D01*
X367345Y266316D01*
X366768Y267068D01*
X366016Y267645D01*
X365140Y268007D01*
X364200Y268131D01*
X363260Y268007D01*
X362385Y267645D01*
X361632Y267068D01*
X361055Y266316D01*
X360693Y265440D01*
X360569Y264500D01*
Y259500D01*
X360580Y259419D01*
X360250Y259043D01*
X358150D01*
X357820Y259419D01*
X357831Y259500D01*
Y264500D01*
X357707Y265440D01*
X357345Y266316D01*
X356768Y267068D01*
X356015Y267645D01*
X355140Y268007D01*
X354200Y268131D01*
X353260Y268007D01*
X352384Y267645D01*
X351632Y267068D01*
X351055Y266316D01*
X350693Y265440D01*
X350569Y264500D01*
Y259500D01*
X350580Y259419D01*
X350250Y259043D01*
X348150D01*
X347820Y259419D01*
X347831Y259500D01*
Y264500D01*
X347707Y265440D01*
X347345Y266316D01*
X346767Y267068D01*
X346016Y267645D01*
X345140Y268007D01*
X344200Y268131D01*
X343260Y268007D01*
X342385Y267645D01*
X341633Y267068D01*
X341055Y266316D01*
X340693Y265440D01*
X340569Y264500D01*
Y259500D01*
X340580Y259419D01*
X340250Y259043D01*
X338150D01*
X337820Y259419D01*
X337831Y259500D01*
Y264500D01*
X337707Y265440D01*
X337345Y266316D01*
X336768Y267068D01*
X336016Y267645D01*
X335140Y268007D01*
X334200Y268131D01*
X333260Y268007D01*
X332384Y267645D01*
X331632Y267068D01*
X331055Y266316D01*
X330693Y265440D01*
X330569Y264500D01*
Y259500D01*
X330580Y259419D01*
X330250Y259043D01*
X328150D01*
X327820Y259419D01*
X327831Y259500D01*
Y264500D01*
X327707Y265440D01*
X327345Y266316D01*
X326767Y267068D01*
X326015Y267645D01*
X325140Y268007D01*
X324200Y268131D01*
X323260Y268007D01*
X322385Y267645D01*
X321633Y267068D01*
X321055Y266316D01*
X320693Y265440D01*
X320569Y264500D01*
Y259500D01*
X320580Y259419D01*
X320250Y259043D01*
X318150D01*
X317820Y259419D01*
X317831Y259500D01*
Y264500D01*
X317707Y265440D01*
X317345Y266316D01*
X316768Y267068D01*
X316016Y267645D01*
X315140Y268007D01*
X314200Y268131D01*
X313260Y268007D01*
X312385Y267645D01*
X311632Y267068D01*
X311055Y266316D01*
X310693Y265440D01*
X310569Y264500D01*
Y259500D01*
X310580Y259419D01*
X310250Y259043D01*
X308554D01*
X308224Y259419D01*
X308235Y259500D01*
Y261500D01*
X304200D01*
X300166D01*
Y259500D01*
X300176Y259419D01*
X299847Y259043D01*
X298553D01*
X298224Y259419D01*
X298235Y259500D01*
Y261500D01*
X294200D01*
X290165D01*
Y259500D01*
X290176Y259419D01*
X289846Y259043D01*
X288150D01*
X287820Y259419D01*
X287831Y259500D01*
Y264500D01*
X287707Y265440D01*
X287345Y266316D01*
X286768Y267068D01*
X286016Y267645D01*
X285140Y268007D01*
X284200Y268131D01*
X283260Y268007D01*
X282384Y267645D01*
X281632Y267068D01*
X281055Y266316D01*
X280693Y265440D01*
X280569Y264500D01*
Y259500D01*
X280580Y259419D01*
X280250Y259043D01*
X278150D01*
X277820Y259419D01*
X277831Y259500D01*
Y264500D01*
X277707Y265440D01*
X277345Y266316D01*
X276767Y267068D01*
X276015Y267645D01*
X275923Y267683D01*
Y281000D01*
X275830Y281468D01*
X275565Y281865D01*
X274565Y282865D01*
X274168Y283130D01*
X273700Y283224D01*
X220090D01*
X219845Y283816D01*
X219268Y284568D01*
X218515Y285145D01*
X217640Y285507D01*
X216700Y285631D01*
X211700D01*
X211619Y285620D01*
X211243Y285950D01*
Y288050D01*
X211619Y288380D01*
X211700Y288369D01*
X216700D01*
X217640Y288493D01*
X218515Y288855D01*
X219268Y289433D01*
X219845Y290184D01*
X220207Y291060D01*
X220331Y292000D01*
X220207Y292940D01*
X219845Y293815D01*
X219268Y294568D01*
X218515Y295145D01*
X217640Y295507D01*
X216700Y295631D01*
X211700D01*
X211619Y295620D01*
X211243Y295950D01*
Y298050D01*
X211619Y298380D01*
X211700Y298369D01*
X216700D01*
X217640Y298493D01*
X218515Y298855D01*
X219268Y299432D01*
X219845Y300184D01*
X220207Y301060D01*
X220331Y302000D01*
X220207Y302940D01*
X219845Y303816D01*
X219268Y304568D01*
X218515Y305145D01*
X217640Y305507D01*
X216700Y305631D01*
X211700D01*
X211619Y305620D01*
X211243Y305950D01*
Y308050D01*
X211619Y308380D01*
X211700Y308369D01*
X216700D01*
X217640Y308493D01*
X218515Y308855D01*
X219268Y309433D01*
X219845Y310185D01*
X220207Y311060D01*
X220331Y312000D01*
X220207Y312940D01*
X219845Y313815D01*
X219268Y314568D01*
X218515Y315145D01*
X217640Y315507D01*
X216700Y315631D01*
X211700D01*
X211619Y315620D01*
X211243Y315950D01*
Y317647D01*
X211619Y317976D01*
X211700Y317966D01*
X213700D01*
Y322000D01*
Y326034D01*
X211700D01*
X211619Y326024D01*
X211243Y326354D01*
Y327646D01*
X211619Y327976D01*
X211700Y327965D01*
X213700D01*
Y332000D01*
Y336034D01*
X211700D01*
X211619Y336024D01*
X211243Y336353D01*
Y338050D01*
X211619Y338380D01*
X211700Y338369D01*
X216700D01*
X217640Y338493D01*
X218515Y338855D01*
X219268Y339433D01*
X219845Y340184D01*
X220207Y341060D01*
X220331Y342000D01*
X220207Y342940D01*
X219845Y343815D01*
X219268Y344568D01*
X218515Y345145D01*
X217640Y345507D01*
X216700Y345631D01*
X211700D01*
X211619Y345620D01*
X211243Y345950D01*
Y348050D01*
X211619Y348380D01*
X211700Y348369D01*
X216700D01*
X217640Y348493D01*
X218515Y348855D01*
X219268Y349432D01*
X219845Y350184D01*
X220207Y351060D01*
X220331Y352000D01*
X220207Y352940D01*
X219845Y353816D01*
X219268Y354568D01*
X218515Y355145D01*
X217640Y355507D01*
X216700Y355631D01*
X211700D01*
X211619Y355620D01*
X211243Y355950D01*
Y358050D01*
X211619Y358380D01*
X211700Y358369D01*
X216700D01*
X217640Y358493D01*
X218515Y358855D01*
X219268Y359433D01*
X219845Y360185D01*
X220207Y361060D01*
X220331Y362000D01*
X220207Y362940D01*
X219845Y363815D01*
X219268Y364568D01*
X218515Y365145D01*
X217640Y365507D01*
X216700Y365631D01*
X211700D01*
X211619Y365620D01*
X211243Y365950D01*
Y368050D01*
X211619Y368380D01*
X211700Y368369D01*
X216700D01*
X217640Y368493D01*
X218515Y368855D01*
X219268Y369432D01*
X219845Y370184D01*
X220207Y371060D01*
X220331Y372000D01*
X220207Y372940D01*
X219845Y373815D01*
X219268Y374568D01*
X218515Y375145D01*
X217640Y375507D01*
X216700Y375631D01*
X211700D01*
X211619Y375620D01*
X211243Y375950D01*
Y378050D01*
X211619Y378380D01*
X211700Y378369D01*
X216700D01*
X217640Y378493D01*
X218515Y378855D01*
X219268Y379433D01*
X219845Y380185D01*
X220207Y381060D01*
X220331Y382000D01*
X220207Y382940D01*
X219845Y383816D01*
X219268Y384568D01*
X218515Y385145D01*
X217640Y385507D01*
X216700Y385631D01*
X211700D01*
X211619Y385620D01*
X211243Y385950D01*
Y388050D01*
X211619Y388380D01*
X211700Y388369D01*
X216700D01*
X217640Y388493D01*
X218515Y388855D01*
X219268Y389433D01*
X219845Y390184D01*
X220207Y391060D01*
X220331Y392000D01*
X220207Y392940D01*
X219845Y393815D01*
X219268Y394568D01*
X218515Y395145D01*
X217640Y395507D01*
X216700Y395631D01*
X211700D01*
X211619Y395620D01*
X211243Y395950D01*
Y398050D01*
X211619Y398380D01*
X211700Y398369D01*
X216700D01*
X217640Y398493D01*
X218515Y398855D01*
X219268Y399432D01*
X219845Y400184D01*
X220207Y401060D01*
X220331Y402000D01*
X220207Y402940D01*
X219845Y403816D01*
X219268Y404568D01*
X218515Y405145D01*
X217640Y405507D01*
X216700Y405631D01*
X211700D01*
X211619Y405620D01*
X211243Y405950D01*
Y408050D01*
X211619Y408380D01*
X211700Y408369D01*
X216700D01*
X217640Y408493D01*
X218515Y408855D01*
X219268Y409433D01*
X219845Y410184D01*
X220207Y411060D01*
X220331Y412000D01*
X220207Y412940D01*
X219845Y413815D01*
X219268Y414568D01*
X218515Y415145D01*
X217640Y415507D01*
X216700Y415631D01*
X211700D01*
X211619Y415620D01*
X211243Y415950D01*
Y417647D01*
X211619Y417976D01*
X211700Y417966D01*
X213700D01*
Y422000D01*
Y426034D01*
X211700D01*
X211619Y426024D01*
X211243Y426354D01*
Y428050D01*
X211619Y428380D01*
X211700Y428369D01*
X216700D01*
X217640Y428493D01*
X218515Y428855D01*
X219268Y429432D01*
X219845Y430185D01*
X220207Y431060D01*
X220331Y432000D01*
X220207Y432940D01*
X219845Y433815D01*
X219268Y434568D01*
X218515Y435145D01*
X217640Y435507D01*
X216700Y435631D01*
X211700D01*
X211619Y435620D01*
X211243Y435950D01*
Y437646D01*
X211619Y437976D01*
X211700Y437965D01*
X213700D01*
Y442000D01*
Y446034D01*
X211700D01*
X211619Y446024D01*
X211243Y446353D01*
Y448050D01*
X211619Y448380D01*
X211700Y448369D01*
X216700D01*
X217640Y448493D01*
X218515Y448855D01*
X219268Y449433D01*
X219845Y450184D01*
X220207Y451060D01*
X220331Y452000D01*
X220207Y452940D01*
X219845Y453816D01*
X219268Y454568D01*
X218515Y455145D01*
X217640Y455507D01*
X216700Y455631D01*
X211700D01*
X211619Y455620D01*
X211243Y455950D01*
Y457647D01*
X211619Y457976D01*
X211700Y457966D01*
X213700D01*
Y462000D01*
Y466035D01*
X211700D01*
X211619Y466024D01*
X211243Y466354D01*
Y468400D01*
X220300D01*
Y475600D01*
X211243D01*
Y502957D01*
X226088D01*
X226273Y502457D01*
X224908Y501292D01*
X223569Y499724D01*
X222492Y497966D01*
X221703Y496061D01*
X221221Y494056D01*
X221059Y492000D01*
X221221Y489944D01*
X221703Y487939D01*
X222492Y486034D01*
X223569Y484276D01*
X224908Y482708D01*
X226476Y481369D01*
X228234Y480292D01*
X230139Y479503D01*
X232144Y479021D01*
X234200Y478860D01*
X236256Y479021D01*
X238261Y479503D01*
X240166Y480292D01*
X241924Y481369D01*
X243492Y482708D01*
X244831Y484276D01*
X245908Y486034D01*
X246697Y487939D01*
X247179Y489944D01*
X247340Y492000D01*
X247179Y494056D01*
X246697Y496061D01*
X245908Y497966D01*
X244831Y499724D01*
X243492Y501292D01*
X242127Y502457D01*
X242312Y502957D01*
X376088D01*
X376273Y502457D01*
X374908Y501292D01*
X373569Y499724D01*
X372492Y497966D01*
X371703Y496061D01*
X371221Y494056D01*
X371059Y492000D01*
X371221Y489944D01*
X371703Y487939D01*
X372492Y486034D01*
X373569Y484276D01*
X374908Y482708D01*
X376476Y481369D01*
X378234Y480292D01*
X380139Y479503D01*
X382144Y479021D01*
X384200Y478860D01*
X386256Y479021D01*
X388261Y479503D01*
X390166Y480292D01*
X391924Y481369D01*
X393492Y482708D01*
X394831Y484276D01*
X395908Y486034D01*
X396697Y487939D01*
X397179Y489944D01*
X397340Y492000D01*
X397179Y494056D01*
X396697Y496061D01*
X395908Y497966D01*
X394831Y499724D01*
X393492Y501292D01*
X392127Y502457D01*
X392312Y502957D01*
X406657D01*
Y476000D01*
D02*
G37*
G36*
X200657D02*
X198700D01*
Y472000D01*
Y468000D01*
X200657D01*
Y465631D01*
X195700D01*
X194760Y465507D01*
X193885Y465145D01*
X193132Y464568D01*
X192555Y463815D01*
X192193Y462940D01*
X192069Y462000D01*
X192193Y461060D01*
X192555Y460184D01*
X193132Y459433D01*
X193885Y458855D01*
X194760Y458493D01*
X195700Y458369D01*
X200657D01*
Y455631D01*
X195700D01*
X194760Y455507D01*
X193885Y455145D01*
X193132Y454568D01*
X192555Y453816D01*
X192193Y452940D01*
X192069Y452000D01*
X192193Y451060D01*
X192555Y450184D01*
X193132Y449433D01*
X193885Y448855D01*
X194760Y448493D01*
X195700Y448369D01*
X200657D01*
Y446034D01*
X198700D01*
Y442000D01*
Y437965D01*
X200657D01*
Y435631D01*
X195700D01*
X194760Y435507D01*
X193885Y435145D01*
X193132Y434568D01*
X192555Y433815D01*
X192193Y432940D01*
X192069Y432000D01*
X192193Y431060D01*
X192555Y430185D01*
X193132Y429432D01*
X193885Y428855D01*
X194760Y428493D01*
X195700Y428369D01*
X200657D01*
Y425631D01*
X195700D01*
X194760Y425507D01*
X193885Y425145D01*
X193132Y424568D01*
X192555Y423815D01*
X192193Y422940D01*
X192069Y422000D01*
X192193Y421060D01*
X192555Y420185D01*
X193132Y419432D01*
X193885Y418855D01*
X194760Y418493D01*
X195700Y418369D01*
X200657D01*
Y416035D01*
X198700D01*
Y412000D01*
Y407966D01*
X200657D01*
Y405631D01*
X195700D01*
X194760Y405507D01*
X193885Y405145D01*
X193132Y404568D01*
X192555Y403816D01*
X192193Y402940D01*
X192069Y402000D01*
X192193Y401060D01*
X192555Y400184D01*
X193132Y399432D01*
X193885Y398855D01*
X194760Y398493D01*
X195700Y398369D01*
X200657D01*
Y396035D01*
X198700D01*
Y392000D01*
Y387965D01*
X200657D01*
Y386034D01*
X198700D01*
Y382000D01*
Y377965D01*
X200657D01*
Y375631D01*
X195700D01*
X194760Y375507D01*
X193885Y375145D01*
X193132Y374568D01*
X192555Y373815D01*
X192193Y372940D01*
X192069Y372000D01*
X192193Y371060D01*
X192555Y370184D01*
X193132Y369432D01*
X193885Y368855D01*
X194760Y368493D01*
X195700Y368369D01*
X200657D01*
Y365631D01*
X195700D01*
X194760Y365507D01*
X193885Y365145D01*
X193132Y364568D01*
X192555Y363815D01*
X192193Y362940D01*
X192069Y362000D01*
X192193Y361060D01*
X192555Y360185D01*
X193132Y359433D01*
X193885Y358855D01*
X194760Y358493D01*
X195700Y358369D01*
X200657D01*
Y355631D01*
X195700D01*
X194760Y355507D01*
X193885Y355145D01*
X193132Y354568D01*
X192555Y353816D01*
X192193Y352940D01*
X192069Y352000D01*
X192193Y351060D01*
X192555Y350184D01*
X193132Y349432D01*
X193885Y348855D01*
X194760Y348493D01*
X195700Y348369D01*
X200657D01*
Y345631D01*
X195700D01*
X194760Y345507D01*
X193885Y345145D01*
X193132Y344568D01*
X192555Y343815D01*
X192193Y342940D01*
X192069Y342000D01*
X192193Y341060D01*
X192555Y340184D01*
X193132Y339433D01*
X193885Y338855D01*
X194760Y338493D01*
X195700Y338369D01*
X200657D01*
Y335631D01*
X195700D01*
X194760Y335507D01*
X193885Y335145D01*
X193132Y334568D01*
X192555Y333816D01*
X192193Y332940D01*
X192069Y332000D01*
X192193Y331060D01*
X192555Y330185D01*
X193132Y329433D01*
X193885Y328855D01*
X194760Y328493D01*
X195700Y328369D01*
X200657D01*
Y326034D01*
X198700D01*
Y322000D01*
Y317966D01*
X200657D01*
Y316035D01*
X198700D01*
Y312000D01*
Y307965D01*
X200657D01*
Y305631D01*
X195700D01*
X194760Y305507D01*
X193885Y305145D01*
X193132Y304568D01*
X192555Y303816D01*
X192193Y302940D01*
X192069Y302000D01*
X192193Y301060D01*
X192555Y300184D01*
X193132Y299432D01*
X193885Y298855D01*
X194760Y298493D01*
X195700Y298369D01*
X200657D01*
Y295631D01*
X195700D01*
X194760Y295507D01*
X193885Y295145D01*
X193132Y294568D01*
X192555Y293815D01*
X192193Y292940D01*
X192069Y292000D01*
X192193Y291060D01*
X192555Y290184D01*
X193132Y289433D01*
X193885Y288855D01*
X194760Y288493D01*
X195700Y288369D01*
X200657D01*
Y285631D01*
X195700D01*
X194760Y285507D01*
X193885Y285145D01*
X193132Y284568D01*
X192555Y283816D01*
X192193Y282940D01*
X192069Y282000D01*
X192193Y281060D01*
X192555Y280185D01*
X193132Y279433D01*
X193885Y278855D01*
X194760Y278493D01*
X195700Y278369D01*
X200657D01*
Y267718D01*
X200208Y267496D01*
X200015Y267645D01*
X199140Y268007D01*
X198200Y268131D01*
X197260Y268007D01*
X196385Y267645D01*
X195632Y267068D01*
X195055Y266316D01*
X194693Y265440D01*
X194569Y264500D01*
Y259500D01*
X194580Y259419D01*
X194250Y259043D01*
X192150D01*
X191820Y259419D01*
X191831Y259500D01*
Y264500D01*
X191707Y265440D01*
X191345Y266316D01*
X190768Y267068D01*
X190015Y267645D01*
X189140Y268007D01*
X188200Y268131D01*
X187260Y268007D01*
X186384Y267645D01*
X185632Y267068D01*
X185055Y266316D01*
X184693Y265440D01*
X184569Y264500D01*
Y259500D01*
X184580Y259419D01*
X184250Y259043D01*
X182150D01*
X181820Y259419D01*
X181831Y259500D01*
Y264500D01*
X181707Y265440D01*
X181345Y266316D01*
X180768Y267068D01*
X180016Y267645D01*
X179140Y268007D01*
X178200Y268131D01*
X177260Y268007D01*
X176384Y267645D01*
X175632Y267068D01*
X175055Y266316D01*
X174693Y265440D01*
X174569Y264500D01*
Y259500D01*
X174580Y259419D01*
X174250Y259043D01*
X172150D01*
X171820Y259419D01*
X171831Y259500D01*
Y264500D01*
X171707Y265440D01*
X171345Y266316D01*
X170768Y267068D01*
X170016Y267645D01*
X169140Y268007D01*
X168200Y268131D01*
X167260Y268007D01*
X166384Y267645D01*
X165632Y267068D01*
X165055Y266316D01*
X164693Y265440D01*
X164569Y264500D01*
Y259500D01*
X164580Y259419D01*
X164250Y259043D01*
X162150D01*
X161820Y259419D01*
X161831Y259500D01*
Y264500D01*
X161707Y265440D01*
X161345Y266316D01*
X160768Y267068D01*
X160015Y267645D01*
X159140Y268007D01*
X158200Y268131D01*
X157260Y268007D01*
X156385Y267645D01*
X155632Y267068D01*
X155055Y266316D01*
X154693Y265440D01*
X154569Y264500D01*
Y259500D01*
X154580Y259419D01*
X154250Y259043D01*
X152150D01*
X151820Y259419D01*
X151831Y259500D01*
Y264500D01*
X151707Y265440D01*
X151345Y266316D01*
X150768Y267068D01*
X150015Y267645D01*
X149140Y268007D01*
X148200Y268131D01*
X147260Y268007D01*
X146385Y267645D01*
X145632Y267068D01*
X145055Y266316D01*
X144693Y265440D01*
X144569Y264500D01*
Y259500D01*
X144580Y259419D01*
X144250Y259043D01*
X142150D01*
X141820Y259419D01*
X141831Y259500D01*
Y264500D01*
X141707Y265440D01*
X141345Y266316D01*
X140768Y267068D01*
X140015Y267645D01*
X139140Y268007D01*
X138200Y268131D01*
X137260Y268007D01*
X136384Y267645D01*
X135632Y267068D01*
X135055Y266316D01*
X134693Y265440D01*
X134569Y264500D01*
Y259500D01*
X134580Y259419D01*
X134250Y259043D01*
X132150D01*
X131820Y259419D01*
X131831Y259500D01*
Y264500D01*
X131707Y265440D01*
X131345Y266316D01*
X130768Y267068D01*
X130016Y267645D01*
X129140Y268007D01*
X128200Y268131D01*
X127260Y268007D01*
X126384Y267645D01*
X125632Y267068D01*
X125055Y266316D01*
X124693Y265440D01*
X124569Y264500D01*
Y259500D01*
X124580Y259419D01*
X124250Y259043D01*
X122150D01*
X121820Y259419D01*
X121831Y259500D01*
Y264500D01*
X121707Y265440D01*
X121345Y266316D01*
X120768Y267068D01*
X120016Y267645D01*
X119140Y268007D01*
X118200Y268131D01*
X117260Y268007D01*
X116384Y267645D01*
X115632Y267068D01*
X115055Y266316D01*
X114693Y265440D01*
X114569Y264500D01*
Y259500D01*
X114580Y259419D01*
X114250Y259043D01*
X112150D01*
X111820Y259419D01*
X111831Y259500D01*
Y264500D01*
X111707Y265440D01*
X111345Y266316D01*
X110768Y267068D01*
X110015Y267645D01*
X109140Y268007D01*
X108200Y268131D01*
X107260Y268007D01*
X106385Y267645D01*
X105632Y267068D01*
X105055Y266316D01*
X104693Y265440D01*
X104569Y264500D01*
Y259500D01*
X104580Y259419D01*
X104250Y259043D01*
X102553D01*
X102224Y259419D01*
X102234Y259500D01*
Y261500D01*
X98200D01*
X94165D01*
Y259500D01*
X94176Y259419D01*
X93846Y259043D01*
X92554D01*
X92224Y259419D01*
X92234Y259500D01*
Y261500D01*
X88200D01*
X84166D01*
Y259500D01*
X84176Y259419D01*
X83846Y259043D01*
X82150D01*
X81820Y259419D01*
X81831Y259500D01*
Y264500D01*
X81707Y265440D01*
X81345Y266316D01*
X80768Y267068D01*
X80015Y267645D01*
X79140Y268007D01*
X78200Y268131D01*
X77260Y268007D01*
X76385Y267645D01*
X75632Y267068D01*
X75055Y266316D01*
X74693Y265440D01*
X74569Y264500D01*
Y259500D01*
X74580Y259419D01*
X74250Y259043D01*
X72150D01*
X71820Y259419D01*
X71831Y259500D01*
Y264500D01*
X71707Y265440D01*
X71345Y266316D01*
X70768Y267068D01*
X70016Y267645D01*
X69924Y267683D01*
Y281000D01*
X69830Y281468D01*
X69565Y281865D01*
X68565Y282865D01*
X68168Y283130D01*
X67700Y283224D01*
X14090D01*
X13845Y283816D01*
X13268Y284568D01*
X12516Y285145D01*
X11640Y285507D01*
X10700Y285631D01*
X5700D01*
X5619Y285620D01*
X5243Y285950D01*
Y288050D01*
X5619Y288380D01*
X5700Y288369D01*
X10700D01*
X11640Y288493D01*
X12516Y288855D01*
X13268Y289433D01*
X13845Y290184D01*
X14207Y291060D01*
X14331Y292000D01*
X14207Y292940D01*
X13845Y293815D01*
X13268Y294568D01*
X12516Y295145D01*
X11640Y295507D01*
X10700Y295631D01*
X5700D01*
X5619Y295620D01*
X5243Y295950D01*
Y298050D01*
X5619Y298380D01*
X5700Y298369D01*
X10700D01*
X11640Y298493D01*
X12516Y298855D01*
X13268Y299432D01*
X13845Y300184D01*
X14207Y301060D01*
X14331Y302000D01*
X14207Y302940D01*
X13845Y303816D01*
X13268Y304568D01*
X12516Y305145D01*
X11640Y305507D01*
X10700Y305631D01*
X5700D01*
X5619Y305620D01*
X5243Y305950D01*
Y308050D01*
X5619Y308380D01*
X5700Y308369D01*
X10700D01*
X11640Y308493D01*
X12516Y308855D01*
X13268Y309433D01*
X13845Y310185D01*
X14207Y311060D01*
X14331Y312000D01*
X14207Y312940D01*
X13845Y313815D01*
X13268Y314568D01*
X12516Y315145D01*
X11640Y315507D01*
X10700Y315631D01*
X5700D01*
X5619Y315620D01*
X5243Y315950D01*
Y317647D01*
X5619Y317976D01*
X5700Y317966D01*
X7700D01*
Y322000D01*
Y326034D01*
X5700D01*
X5619Y326024D01*
X5243Y326354D01*
Y327646D01*
X5619Y327976D01*
X5700Y327965D01*
X7700D01*
Y332000D01*
Y336034D01*
X5700D01*
X5619Y336024D01*
X5243Y336353D01*
Y338050D01*
X5619Y338380D01*
X5700Y338369D01*
X10700D01*
X11640Y338493D01*
X12516Y338855D01*
X13268Y339433D01*
X13845Y340184D01*
X14207Y341060D01*
X14331Y342000D01*
X14207Y342940D01*
X13845Y343815D01*
X13268Y344568D01*
X12516Y345145D01*
X11640Y345507D01*
X10700Y345631D01*
X5700D01*
X5619Y345620D01*
X5243Y345950D01*
Y348050D01*
X5619Y348380D01*
X5700Y348369D01*
X10700D01*
X11640Y348493D01*
X12516Y348855D01*
X13268Y349432D01*
X13845Y350184D01*
X14207Y351060D01*
X14331Y352000D01*
X14207Y352940D01*
X13845Y353816D01*
X13268Y354568D01*
X12516Y355145D01*
X11640Y355507D01*
X10700Y355631D01*
X5700D01*
X5619Y355620D01*
X5243Y355950D01*
Y358050D01*
X5619Y358380D01*
X5700Y358369D01*
X10700D01*
X11640Y358493D01*
X12516Y358855D01*
X13268Y359433D01*
X13845Y360185D01*
X14207Y361060D01*
X14331Y362000D01*
X14207Y362940D01*
X13845Y363815D01*
X13268Y364568D01*
X12516Y365145D01*
X11640Y365507D01*
X10700Y365631D01*
X5700D01*
X5619Y365620D01*
X5243Y365950D01*
Y368050D01*
X5619Y368380D01*
X5700Y368369D01*
X10700D01*
X11640Y368493D01*
X12516Y368855D01*
X13268Y369432D01*
X13845Y370184D01*
X14207Y371060D01*
X14331Y372000D01*
X14207Y372940D01*
X13845Y373815D01*
X13268Y374568D01*
X12516Y375145D01*
X11640Y375507D01*
X10700Y375631D01*
X5700D01*
X5619Y375620D01*
X5243Y375950D01*
Y378050D01*
X5619Y378380D01*
X5700Y378369D01*
X10700D01*
X11640Y378493D01*
X12516Y378855D01*
X13268Y379433D01*
X13845Y380185D01*
X14207Y381060D01*
X14331Y382000D01*
X14207Y382940D01*
X13845Y383816D01*
X13268Y384568D01*
X12516Y385145D01*
X11640Y385507D01*
X10700Y385631D01*
X5700D01*
X5619Y385620D01*
X5243Y385950D01*
Y388050D01*
X5619Y388380D01*
X5700Y388369D01*
X10700D01*
X11640Y388493D01*
X12516Y388855D01*
X13268Y389433D01*
X13845Y390184D01*
X14207Y391060D01*
X14331Y392000D01*
X14207Y392940D01*
X13845Y393815D01*
X13268Y394568D01*
X12516Y395145D01*
X11640Y395507D01*
X10700Y395631D01*
X5700D01*
X5619Y395620D01*
X5243Y395950D01*
Y398050D01*
X5619Y398380D01*
X5700Y398369D01*
X10700D01*
X11640Y398493D01*
X12516Y398855D01*
X13268Y399432D01*
X13845Y400184D01*
X14207Y401060D01*
X14331Y402000D01*
X14207Y402940D01*
X13845Y403816D01*
X13268Y404568D01*
X12516Y405145D01*
X11640Y405507D01*
X10700Y405631D01*
X5700D01*
X5619Y405620D01*
X5243Y405950D01*
Y408050D01*
X5619Y408380D01*
X5700Y408369D01*
X10700D01*
X11640Y408493D01*
X12516Y408855D01*
X13268Y409433D01*
X13845Y410184D01*
X14207Y411060D01*
X14331Y412000D01*
X14207Y412940D01*
X13845Y413815D01*
X13268Y414568D01*
X12516Y415145D01*
X11640Y415507D01*
X10700Y415631D01*
X5700D01*
X5619Y415620D01*
X5243Y415950D01*
Y417647D01*
X5619Y417976D01*
X5700Y417966D01*
X7700D01*
Y422000D01*
Y426034D01*
X5700D01*
X5619Y426024D01*
X5243Y426354D01*
Y428050D01*
X5619Y428380D01*
X5700Y428369D01*
X10700D01*
X11640Y428493D01*
X12516Y428855D01*
X13268Y429432D01*
X13845Y430185D01*
X14207Y431060D01*
X14331Y432000D01*
X14207Y432940D01*
X13845Y433815D01*
X13268Y434568D01*
X12516Y435145D01*
X11640Y435507D01*
X10700Y435631D01*
X5700D01*
X5619Y435620D01*
X5243Y435950D01*
Y437646D01*
X5619Y437976D01*
X5700Y437965D01*
X7700D01*
Y442000D01*
Y446034D01*
X5700D01*
X5619Y446024D01*
X5243Y446353D01*
Y448050D01*
X5619Y448380D01*
X5700Y448369D01*
X10700D01*
X11640Y448493D01*
X12516Y448855D01*
X13268Y449433D01*
X13845Y450184D01*
X14207Y451060D01*
X14331Y452000D01*
X14207Y452940D01*
X13845Y453816D01*
X13268Y454568D01*
X12516Y455145D01*
X11640Y455507D01*
X10700Y455631D01*
X5700D01*
X5619Y455620D01*
X5243Y455950D01*
Y457647D01*
X5619Y457976D01*
X5700Y457966D01*
X7700D01*
Y462000D01*
Y466035D01*
X5700D01*
X5619Y466024D01*
X5243Y466354D01*
Y468400D01*
X14300D01*
Y475600D01*
X5243D01*
Y502957D01*
X20088D01*
X20272Y502457D01*
X18908Y501292D01*
X17569Y499724D01*
X16492Y497966D01*
X15703Y496061D01*
X15221Y494056D01*
X15059Y492000D01*
X15221Y489944D01*
X15703Y487939D01*
X16492Y486034D01*
X17569Y484276D01*
X18908Y482708D01*
X20476Y481369D01*
X22234Y480292D01*
X24139Y479503D01*
X26144Y479021D01*
X28200Y478860D01*
X30256Y479021D01*
X32261Y479503D01*
X34166Y480292D01*
X35924Y481369D01*
X37492Y482708D01*
X38831Y484276D01*
X39908Y486034D01*
X40697Y487939D01*
X41179Y489944D01*
X41341Y492000D01*
X41179Y494056D01*
X40697Y496061D01*
X39908Y497966D01*
X38831Y499724D01*
X37492Y501292D01*
X36127Y502457D01*
X36312Y502957D01*
X170088D01*
X170273Y502457D01*
X168908Y501292D01*
X167569Y499724D01*
X166492Y497966D01*
X165703Y496061D01*
X165221Y494056D01*
X165059Y492000D01*
X165221Y489944D01*
X165703Y487939D01*
X166492Y486034D01*
X167569Y484276D01*
X168908Y482708D01*
X170476Y481369D01*
X172234Y480292D01*
X174139Y479503D01*
X176144Y479021D01*
X178200Y478860D01*
X180256Y479021D01*
X182261Y479503D01*
X184166Y480292D01*
X185924Y481369D01*
X187492Y482708D01*
X188831Y484276D01*
X189908Y486034D01*
X190697Y487939D01*
X191179Y489944D01*
X191340Y492000D01*
X191179Y494056D01*
X190697Y496061D01*
X189908Y497966D01*
X188831Y499724D01*
X187492Y501292D01*
X186127Y502457D01*
X186312Y502957D01*
X200657D01*
Y476000D01*
D02*
G37*
G36*
X273477Y280493D02*
Y268036D01*
X273260Y268007D01*
X272385Y267645D01*
X271633Y267068D01*
X271055Y266316D01*
X270693Y265440D01*
X270569Y264500D01*
Y259500D01*
X270580Y259419D01*
X270250Y259043D01*
X268150D01*
X267820Y259419D01*
X267831Y259500D01*
Y264500D01*
X267707Y265440D01*
X267345Y266316D01*
X266768Y267068D01*
X266016Y267645D01*
X265140Y268007D01*
X264200Y268131D01*
X263260Y268007D01*
X262385Y267645D01*
X261632Y267068D01*
X261055Y266316D01*
X260693Y265440D01*
X260569Y264500D01*
Y259500D01*
X260580Y259419D01*
X260250Y259043D01*
X258150D01*
X257820Y259419D01*
X257831Y259500D01*
Y264500D01*
X257707Y265440D01*
X257345Y266316D01*
X256768Y267068D01*
X256015Y267645D01*
X255140Y268007D01*
X254200Y268131D01*
X253260Y268007D01*
X252384Y267645D01*
X251632Y267068D01*
X251055Y266316D01*
X250693Y265440D01*
X250569Y264500D01*
Y259500D01*
X250580Y259419D01*
X250250Y259043D01*
X248150D01*
X247820Y259419D01*
X247831Y259500D01*
Y264500D01*
X247707Y265440D01*
X247345Y266316D01*
X246767Y267068D01*
X246016Y267645D01*
X245140Y268007D01*
X244200Y268131D01*
X243260Y268007D01*
X242385Y267645D01*
X241633Y267068D01*
X241055Y266316D01*
X240693Y265440D01*
X240569Y264500D01*
Y259500D01*
X240580Y259419D01*
X240250Y259043D01*
X238150D01*
X237820Y259419D01*
X237831Y259500D01*
Y264500D01*
X237707Y265440D01*
X237345Y266316D01*
X236768Y267068D01*
X236016Y267645D01*
X235140Y268007D01*
X234200Y268131D01*
X233260Y268007D01*
X232384Y267645D01*
X231632Y267068D01*
X231055Y266316D01*
X230693Y265440D01*
X230569Y264500D01*
Y259500D01*
X230580Y259419D01*
X230250Y259043D01*
X228150D01*
X227820Y259419D01*
X227831Y259500D01*
Y264500D01*
X227707Y265440D01*
X227345Y266316D01*
X226767Y267068D01*
X226015Y267645D01*
X225140Y268007D01*
X224200Y268131D01*
X223260Y268007D01*
X222385Y267645D01*
X221633Y267068D01*
X221055Y266316D01*
X220693Y265440D01*
X220569Y264500D01*
Y259500D01*
X220580Y259419D01*
X220250Y259043D01*
X218200D01*
Y261500D01*
X214200D01*
Y262000D01*
X213700D01*
Y268500D01*
X211243D01*
Y278050D01*
X211619Y278380D01*
X211700Y278369D01*
X216700D01*
X217640Y278493D01*
X218515Y278855D01*
X219268Y279433D01*
X219845Y280185D01*
X220090Y280777D01*
X273193D01*
X273477Y280493D01*
D02*
G37*
G36*
X67476D02*
Y268036D01*
X67260Y268007D01*
X66385Y267645D01*
X65632Y267068D01*
X65055Y266316D01*
X64693Y265440D01*
X64569Y264500D01*
Y259500D01*
X64580Y259419D01*
X64250Y259043D01*
X62150D01*
X61820Y259419D01*
X61831Y259500D01*
Y264500D01*
X61707Y265440D01*
X61345Y266316D01*
X60768Y267068D01*
X60015Y267645D01*
X59140Y268007D01*
X58200Y268131D01*
X57260Y268007D01*
X56384Y267645D01*
X55632Y267068D01*
X55055Y266316D01*
X54693Y265440D01*
X54569Y264500D01*
Y259500D01*
X54580Y259419D01*
X54250Y259043D01*
X52150D01*
X51820Y259419D01*
X51831Y259500D01*
Y264500D01*
X51707Y265440D01*
X51345Y266316D01*
X50767Y267068D01*
X50015Y267645D01*
X49140Y268007D01*
X48200Y268131D01*
X47260Y268007D01*
X46385Y267645D01*
X45632Y267068D01*
X45055Y266316D01*
X44693Y265440D01*
X44569Y264500D01*
Y259500D01*
X44580Y259419D01*
X44250Y259043D01*
X42150D01*
X41820Y259419D01*
X41831Y259500D01*
Y264500D01*
X41707Y265440D01*
X41345Y266316D01*
X40767Y267068D01*
X40016Y267645D01*
X39140Y268007D01*
X38200Y268131D01*
X37260Y268007D01*
X36384Y267645D01*
X35633Y267068D01*
X35055Y266316D01*
X34693Y265440D01*
X34569Y264500D01*
Y259500D01*
X34580Y259419D01*
X34250Y259043D01*
X32150D01*
X31820Y259419D01*
X31831Y259500D01*
Y264500D01*
X31707Y265440D01*
X31345Y266316D01*
X30768Y267068D01*
X30016Y267645D01*
X29140Y268007D01*
X28200Y268131D01*
X27260Y268007D01*
X26384Y267645D01*
X25633Y267068D01*
X25055Y266316D01*
X24693Y265440D01*
X24569Y264500D01*
Y259500D01*
X24580Y259419D01*
X24250Y259043D01*
X22150D01*
X21820Y259419D01*
X21831Y259500D01*
Y264500D01*
X21707Y265440D01*
X21345Y266316D01*
X20767Y267068D01*
X20016Y267645D01*
X19140Y268007D01*
X18200Y268131D01*
X17260Y268007D01*
X16385Y267645D01*
X15632Y267068D01*
X15055Y266316D01*
X14693Y265440D01*
X14569Y264500D01*
Y259500D01*
X14580Y259419D01*
X14250Y259043D01*
X12200D01*
Y261500D01*
X8200D01*
Y262000D01*
X7700D01*
Y268500D01*
X5243D01*
Y278050D01*
X5619Y278380D01*
X5700Y278369D01*
X10700D01*
X11640Y278493D01*
X12516Y278855D01*
X13268Y279433D01*
X13845Y280185D01*
X14090Y280777D01*
X67193D01*
X67476Y280493D01*
D02*
G37*
G36*
X406657Y222000D02*
X404700D01*
Y218000D01*
Y214000D01*
X406657D01*
Y211631D01*
X401700D01*
X400760Y211507D01*
X399885Y211145D01*
X399132Y210568D01*
X398555Y209816D01*
X398193Y208940D01*
X398069Y208000D01*
X398193Y207060D01*
X398555Y206185D01*
X399132Y205433D01*
X399885Y204855D01*
X400760Y204493D01*
X401700Y204369D01*
X406657D01*
Y201631D01*
X401700D01*
X400760Y201507D01*
X399885Y201145D01*
X399132Y200568D01*
X398555Y199815D01*
X398193Y198940D01*
X398069Y198000D01*
X398193Y197060D01*
X398555Y196185D01*
X399132Y195432D01*
X399885Y194855D01*
X400760Y194493D01*
X401700Y194369D01*
X406657D01*
Y192034D01*
X404700D01*
Y188000D01*
Y183966D01*
X406657D01*
Y181631D01*
X401700D01*
X400760Y181507D01*
X399885Y181145D01*
X399132Y180568D01*
X398555Y179815D01*
X398193Y178940D01*
X398069Y178000D01*
X398193Y177060D01*
X398555Y176184D01*
X399132Y175433D01*
X399885Y174855D01*
X400760Y174493D01*
X401700Y174369D01*
X406657D01*
Y171631D01*
X401700D01*
X400760Y171507D01*
X399885Y171145D01*
X399132Y170568D01*
X398555Y169816D01*
X398193Y168940D01*
X398069Y168000D01*
X398193Y167060D01*
X398555Y166184D01*
X399132Y165433D01*
X399885Y164855D01*
X400760Y164493D01*
X401700Y164369D01*
X406657D01*
Y162034D01*
X404700D01*
Y158000D01*
Y153965D01*
X406657D01*
Y151631D01*
X401700D01*
X400760Y151507D01*
X399885Y151145D01*
X399132Y150568D01*
X398555Y149815D01*
X398193Y148940D01*
X398069Y148000D01*
X398193Y147060D01*
X398555Y146185D01*
X399132Y145432D01*
X399885Y144855D01*
X400760Y144493D01*
X401700Y144369D01*
X406657D01*
Y142034D01*
X404700D01*
Y138000D01*
Y133966D01*
X406657D01*
Y132035D01*
X404700D01*
Y128000D01*
Y123966D01*
X406657D01*
Y121631D01*
X401700D01*
X400760Y121507D01*
X399885Y121145D01*
X399132Y120568D01*
X398555Y119816D01*
X398193Y118940D01*
X398069Y118000D01*
X398193Y117060D01*
X398555Y116184D01*
X399132Y115433D01*
X399885Y114855D01*
X400760Y114493D01*
X401700Y114369D01*
X406657D01*
Y111631D01*
X401700D01*
X400760Y111507D01*
X399885Y111145D01*
X399132Y110568D01*
X398555Y109816D01*
X398193Y108940D01*
X398069Y108000D01*
X398193Y107060D01*
X398555Y106184D01*
X399132Y105432D01*
X399885Y104855D01*
X400760Y104493D01*
X401700Y104369D01*
X406657D01*
Y101631D01*
X401700D01*
X400760Y101507D01*
X399885Y101145D01*
X399132Y100568D01*
X398555Y99815D01*
X398193Y98940D01*
X398069Y98000D01*
X398193Y97060D01*
X398555Y96184D01*
X399132Y95433D01*
X399885Y94855D01*
X400760Y94493D01*
X401700Y94369D01*
X406657D01*
Y91631D01*
X401700D01*
X400760Y91507D01*
X399885Y91145D01*
X399132Y90568D01*
X398555Y89815D01*
X398193Y88940D01*
X398069Y88000D01*
X398193Y87060D01*
X398555Y86185D01*
X399132Y85432D01*
X399885Y84855D01*
X400760Y84493D01*
X401700Y84369D01*
X406657D01*
Y81631D01*
X401700D01*
X400760Y81507D01*
X399885Y81145D01*
X399132Y80568D01*
X398555Y79816D01*
X398193Y78940D01*
X398069Y78000D01*
X398193Y77060D01*
X398555Y76184D01*
X399132Y75432D01*
X399885Y74855D01*
X400760Y74493D01*
X401700Y74369D01*
X406657D01*
Y72035D01*
X404700D01*
Y68000D01*
Y63965D01*
X406657D01*
Y62034D01*
X404700D01*
Y58000D01*
Y53966D01*
X406657D01*
Y51631D01*
X401700D01*
X400760Y51507D01*
X399885Y51145D01*
X399132Y50568D01*
X398555Y49815D01*
X398193Y48940D01*
X398069Y48000D01*
X398193Y47060D01*
X398555Y46185D01*
X399132Y45432D01*
X399885Y44855D01*
X400760Y44493D01*
X401700Y44369D01*
X406657D01*
Y41631D01*
X401700D01*
X400760Y41507D01*
X399885Y41145D01*
X399132Y40568D01*
X398555Y39816D01*
X398193Y38940D01*
X398069Y38000D01*
X398193Y37060D01*
X398555Y36184D01*
X399132Y35432D01*
X399885Y34855D01*
X400760Y34493D01*
X401700Y34369D01*
X406657D01*
Y31631D01*
X401700D01*
X400760Y31507D01*
X399885Y31145D01*
X399132Y30568D01*
X398555Y29816D01*
X398193Y28940D01*
X398069Y28000D01*
X398193Y27060D01*
X398555Y26184D01*
X399132Y25433D01*
X399885Y24855D01*
X400760Y24493D01*
X401700Y24369D01*
X406657D01*
Y13718D01*
X406209Y13497D01*
X406015Y13645D01*
X405140Y14007D01*
X404200Y14131D01*
X403260Y14007D01*
X402385Y13645D01*
X401632Y13068D01*
X401055Y12315D01*
X400693Y11440D01*
X400569Y10500D01*
Y5500D01*
X400580Y5419D01*
X400250Y5043D01*
X398150D01*
X397820Y5419D01*
X397831Y5500D01*
Y10500D01*
X397707Y11440D01*
X397345Y12315D01*
X396767Y13068D01*
X396016Y13645D01*
X395140Y14007D01*
X394200Y14131D01*
X393260Y14007D01*
X392385Y13645D01*
X391633Y13068D01*
X391055Y12315D01*
X390693Y11440D01*
X390569Y10500D01*
Y5500D01*
X390580Y5419D01*
X390250Y5043D01*
X388150D01*
X387820Y5419D01*
X387831Y5500D01*
Y10500D01*
X387707Y11440D01*
X387345Y12315D01*
X386768Y13068D01*
X386016Y13645D01*
X385140Y14007D01*
X384200Y14131D01*
X383260Y14007D01*
X382384Y13645D01*
X381632Y13068D01*
X381055Y12315D01*
X380693Y11440D01*
X380569Y10500D01*
Y5500D01*
X380580Y5419D01*
X380250Y5043D01*
X378150D01*
X377820Y5419D01*
X377831Y5500D01*
Y10500D01*
X377707Y11440D01*
X377345Y12315D01*
X376767Y13068D01*
X376015Y13645D01*
X375140Y14007D01*
X374200Y14131D01*
X373260Y14007D01*
X372385Y13645D01*
X371633Y13068D01*
X371055Y12315D01*
X370693Y11440D01*
X370569Y10500D01*
Y5500D01*
X370580Y5419D01*
X370250Y5043D01*
X368150D01*
X367820Y5419D01*
X367831Y5500D01*
Y10500D01*
X367707Y11440D01*
X367345Y12315D01*
X366768Y13068D01*
X366016Y13645D01*
X365140Y14007D01*
X364200Y14131D01*
X363260Y14007D01*
X362385Y13645D01*
X361632Y13068D01*
X361055Y12315D01*
X360693Y11440D01*
X360569Y10500D01*
Y5500D01*
X360580Y5419D01*
X360250Y5043D01*
X358150D01*
X357820Y5419D01*
X357831Y5500D01*
Y10500D01*
X357707Y11440D01*
X357345Y12315D01*
X356768Y13068D01*
X356015Y13645D01*
X355140Y14007D01*
X354200Y14131D01*
X353260Y14007D01*
X352384Y13645D01*
X351632Y13068D01*
X351055Y12315D01*
X350693Y11440D01*
X350569Y10500D01*
Y5500D01*
X350580Y5419D01*
X350250Y5043D01*
X348150D01*
X347820Y5419D01*
X347831Y5500D01*
Y10500D01*
X347707Y11440D01*
X347345Y12315D01*
X346767Y13068D01*
X346016Y13645D01*
X345140Y14007D01*
X344200Y14131D01*
X343260Y14007D01*
X342385Y13645D01*
X341633Y13068D01*
X341055Y12315D01*
X340693Y11440D01*
X340569Y10500D01*
Y5500D01*
X340580Y5419D01*
X340250Y5043D01*
X338150D01*
X337820Y5419D01*
X337831Y5500D01*
Y10500D01*
X337707Y11440D01*
X337345Y12315D01*
X336768Y13068D01*
X336016Y13645D01*
X335140Y14007D01*
X334200Y14131D01*
X333260Y14007D01*
X332384Y13645D01*
X331632Y13068D01*
X331055Y12315D01*
X330693Y11440D01*
X330569Y10500D01*
Y5500D01*
X330580Y5419D01*
X330250Y5043D01*
X328150D01*
X327820Y5419D01*
X327831Y5500D01*
Y10500D01*
X327707Y11440D01*
X327345Y12315D01*
X326767Y13068D01*
X326015Y13645D01*
X325140Y14007D01*
X324200Y14131D01*
X323260Y14007D01*
X322385Y13645D01*
X321633Y13068D01*
X321055Y12315D01*
X320693Y11440D01*
X320569Y10500D01*
Y5500D01*
X320580Y5419D01*
X320250Y5043D01*
X318150D01*
X317820Y5419D01*
X317831Y5500D01*
Y10500D01*
X317707Y11440D01*
X317345Y12315D01*
X316768Y13068D01*
X316016Y13645D01*
X315140Y14007D01*
X314200Y14131D01*
X313260Y14007D01*
X312385Y13645D01*
X311632Y13068D01*
X311055Y12315D01*
X310693Y11440D01*
X310569Y10500D01*
Y5500D01*
X310580Y5419D01*
X310250Y5043D01*
X308554D01*
X308224Y5419D01*
X308235Y5500D01*
Y7500D01*
X304200D01*
X300166D01*
Y5500D01*
X300176Y5419D01*
X299847Y5043D01*
X298553D01*
X298224Y5419D01*
X298235Y5500D01*
Y7500D01*
X294200D01*
X290165D01*
Y5500D01*
X290176Y5419D01*
X289846Y5043D01*
X288150D01*
X287820Y5419D01*
X287831Y5500D01*
Y10500D01*
X287707Y11440D01*
X287345Y12315D01*
X286768Y13068D01*
X286016Y13645D01*
X285140Y14007D01*
X284200Y14131D01*
X283260Y14007D01*
X282384Y13645D01*
X281632Y13068D01*
X281055Y12315D01*
X280693Y11440D01*
X280569Y10500D01*
Y5500D01*
X280580Y5419D01*
X280250Y5043D01*
X278150D01*
X277820Y5419D01*
X277831Y5500D01*
Y10500D01*
X277707Y11440D01*
X277345Y12315D01*
X276767Y13068D01*
X276015Y13645D01*
X275923Y13683D01*
Y27000D01*
X275830Y27468D01*
X275565Y27865D01*
X274565Y28865D01*
X274168Y29130D01*
X273700Y29223D01*
X220090D01*
X219845Y29816D01*
X219268Y30568D01*
X218515Y31145D01*
X217640Y31507D01*
X216700Y31631D01*
X211700D01*
X211619Y31620D01*
X211243Y31950D01*
Y34050D01*
X211619Y34380D01*
X211700Y34369D01*
X216700D01*
X217640Y34493D01*
X218515Y34855D01*
X219268Y35432D01*
X219845Y36184D01*
X220207Y37060D01*
X220331Y38000D01*
X220207Y38940D01*
X219845Y39816D01*
X219268Y40568D01*
X218515Y41145D01*
X217640Y41507D01*
X216700Y41631D01*
X211700D01*
X211619Y41620D01*
X211243Y41950D01*
Y44050D01*
X211619Y44380D01*
X211700Y44369D01*
X216700D01*
X217640Y44493D01*
X218515Y44855D01*
X219268Y45432D01*
X219845Y46185D01*
X220207Y47060D01*
X220331Y48000D01*
X220207Y48940D01*
X219845Y49815D01*
X219268Y50568D01*
X218515Y51145D01*
X217640Y51507D01*
X216700Y51631D01*
X211700D01*
X211619Y51620D01*
X211243Y51950D01*
Y54050D01*
X211619Y54380D01*
X211700Y54369D01*
X216700D01*
X217640Y54493D01*
X218515Y54855D01*
X219268Y55432D01*
X219845Y56185D01*
X220207Y57060D01*
X220331Y58000D01*
X220207Y58940D01*
X219845Y59816D01*
X219268Y60568D01*
X218515Y61145D01*
X217640Y61507D01*
X216700Y61631D01*
X211700D01*
X211619Y61620D01*
X211243Y61950D01*
Y63647D01*
X211619Y63976D01*
X211700Y63965D01*
X213700D01*
Y68000D01*
Y72035D01*
X211700D01*
X211619Y72024D01*
X211243Y72354D01*
Y73646D01*
X211619Y73976D01*
X211700Y73966D01*
X213700D01*
Y78000D01*
Y82034D01*
X211700D01*
X211619Y82024D01*
X211243Y82354D01*
Y84050D01*
X211619Y84380D01*
X211700Y84369D01*
X216700D01*
X217640Y84493D01*
X218515Y84855D01*
X219268Y85432D01*
X219845Y86185D01*
X220207Y87060D01*
X220331Y88000D01*
X220207Y88940D01*
X219845Y89815D01*
X219268Y90568D01*
X218515Y91145D01*
X217640Y91507D01*
X216700Y91631D01*
X211700D01*
X211619Y91620D01*
X211243Y91950D01*
Y94050D01*
X211619Y94380D01*
X211700Y94369D01*
X216700D01*
X217640Y94493D01*
X218515Y94855D01*
X219268Y95433D01*
X219845Y96184D01*
X220207Y97060D01*
X220331Y98000D01*
X220207Y98940D01*
X219845Y99815D01*
X219268Y100568D01*
X218515Y101145D01*
X217640Y101507D01*
X216700Y101631D01*
X211700D01*
X211619Y101620D01*
X211243Y101950D01*
Y104050D01*
X211619Y104380D01*
X211700Y104369D01*
X216700D01*
X217640Y104493D01*
X218515Y104855D01*
X219268Y105432D01*
X219845Y106184D01*
X220207Y107060D01*
X220331Y108000D01*
X220207Y108940D01*
X219845Y109816D01*
X219268Y110568D01*
X218515Y111145D01*
X217640Y111507D01*
X216700Y111631D01*
X211700D01*
X211619Y111620D01*
X211243Y111950D01*
Y114050D01*
X211619Y114380D01*
X211700Y114369D01*
X216700D01*
X217640Y114493D01*
X218515Y114855D01*
X219268Y115433D01*
X219845Y116184D01*
X220207Y117060D01*
X220331Y118000D01*
X220207Y118940D01*
X219845Y119816D01*
X219268Y120568D01*
X218515Y121145D01*
X217640Y121507D01*
X216700Y121631D01*
X211700D01*
X211619Y121620D01*
X211243Y121950D01*
Y124050D01*
X211619Y124380D01*
X211700Y124369D01*
X216700D01*
X217640Y124493D01*
X218515Y124855D01*
X219268Y125433D01*
X219845Y126184D01*
X220207Y127060D01*
X220331Y128000D01*
X220207Y128940D01*
X219845Y129815D01*
X219268Y130568D01*
X218515Y131145D01*
X217640Y131507D01*
X216700Y131631D01*
X211700D01*
X211619Y131620D01*
X211243Y131950D01*
Y134050D01*
X211619Y134380D01*
X211700Y134369D01*
X216700D01*
X217640Y134493D01*
X218515Y134855D01*
X219268Y135433D01*
X219845Y136185D01*
X220207Y137060D01*
X220331Y138000D01*
X220207Y138940D01*
X219845Y139815D01*
X219268Y140568D01*
X218515Y141145D01*
X217640Y141507D01*
X216700Y141631D01*
X211700D01*
X211619Y141620D01*
X211243Y141950D01*
Y144050D01*
X211619Y144380D01*
X211700Y144369D01*
X216700D01*
X217640Y144493D01*
X218515Y144855D01*
X219268Y145432D01*
X219845Y146185D01*
X220207Y147060D01*
X220331Y148000D01*
X220207Y148940D01*
X219845Y149815D01*
X219268Y150568D01*
X218515Y151145D01*
X217640Y151507D01*
X216700Y151631D01*
X211700D01*
X211619Y151620D01*
X211243Y151950D01*
Y154050D01*
X211619Y154380D01*
X211700Y154369D01*
X216700D01*
X217640Y154493D01*
X218515Y154855D01*
X219268Y155432D01*
X219845Y156184D01*
X220207Y157060D01*
X220331Y158000D01*
X220207Y158940D01*
X219845Y159816D01*
X219268Y160568D01*
X218515Y161145D01*
X217640Y161507D01*
X216700Y161631D01*
X211700D01*
X211619Y161620D01*
X211243Y161950D01*
Y163646D01*
X211619Y163976D01*
X211700Y163965D01*
X213700D01*
Y168000D01*
Y172035D01*
X211700D01*
X211619Y172024D01*
X211243Y172353D01*
Y174050D01*
X211619Y174380D01*
X211700Y174369D01*
X216700D01*
X217640Y174493D01*
X218515Y174855D01*
X219268Y175433D01*
X219845Y176184D01*
X220207Y177060D01*
X220331Y178000D01*
X220207Y178940D01*
X219845Y179815D01*
X219268Y180568D01*
X218515Y181145D01*
X217640Y181507D01*
X216700Y181631D01*
X211700D01*
X211619Y181620D01*
X211243Y181950D01*
Y183647D01*
X211619Y183976D01*
X211700Y183966D01*
X213700D01*
Y188000D01*
Y192034D01*
X211700D01*
X211619Y192024D01*
X211243Y192353D01*
Y194050D01*
X211619Y194380D01*
X211700Y194369D01*
X216700D01*
X217640Y194493D01*
X218515Y194855D01*
X219268Y195432D01*
X219845Y196185D01*
X220207Y197060D01*
X220331Y198000D01*
X220207Y198940D01*
X219845Y199815D01*
X219268Y200568D01*
X218515Y201145D01*
X217640Y201507D01*
X216700Y201631D01*
X211700D01*
X211619Y201620D01*
X211243Y201950D01*
Y203646D01*
X211619Y203976D01*
X211700Y203965D01*
X213700D01*
Y208000D01*
Y212035D01*
X211700D01*
X211619Y212024D01*
X211243Y212353D01*
Y214400D01*
X220300D01*
Y221600D01*
X211243D01*
Y248957D01*
X226088D01*
X226273Y248457D01*
X224908Y247292D01*
X223569Y245724D01*
X222492Y243966D01*
X221703Y242061D01*
X221221Y240056D01*
X221059Y238000D01*
X221221Y235944D01*
X221703Y233939D01*
X222492Y232034D01*
X223569Y230276D01*
X224908Y228708D01*
X226476Y227369D01*
X228234Y226292D01*
X230139Y225503D01*
X232144Y225021D01*
X234200Y224859D01*
X236256Y225021D01*
X238261Y225503D01*
X240166Y226292D01*
X241924Y227369D01*
X243492Y228708D01*
X244831Y230276D01*
X245908Y232034D01*
X246697Y233939D01*
X247179Y235944D01*
X247340Y238000D01*
X247179Y240056D01*
X246697Y242061D01*
X245908Y243966D01*
X244831Y245724D01*
X243492Y247292D01*
X242127Y248457D01*
X242312Y248957D01*
X376088D01*
X376273Y248457D01*
X374908Y247292D01*
X373569Y245724D01*
X372492Y243966D01*
X371703Y242061D01*
X371221Y240056D01*
X371059Y238000D01*
X371221Y235944D01*
X371703Y233939D01*
X372492Y232034D01*
X373569Y230276D01*
X374908Y228708D01*
X376476Y227369D01*
X378234Y226292D01*
X380139Y225503D01*
X382144Y225021D01*
X384200Y224859D01*
X386256Y225021D01*
X388261Y225503D01*
X390166Y226292D01*
X391924Y227369D01*
X393492Y228708D01*
X394831Y230276D01*
X395908Y232034D01*
X396697Y233939D01*
X397179Y235944D01*
X397340Y238000D01*
X397179Y240056D01*
X396697Y242061D01*
X395908Y243966D01*
X394831Y245724D01*
X393492Y247292D01*
X392127Y248457D01*
X392312Y248957D01*
X406657D01*
Y222000D01*
D02*
G37*
G36*
X200657D02*
X198700D01*
Y218000D01*
Y214000D01*
X200657D01*
Y211631D01*
X195700D01*
X194760Y211507D01*
X193885Y211145D01*
X193132Y210568D01*
X192555Y209816D01*
X192193Y208940D01*
X192069Y208000D01*
X192193Y207060D01*
X192555Y206185D01*
X193132Y205433D01*
X193885Y204855D01*
X194760Y204493D01*
X195700Y204369D01*
X200657D01*
Y201631D01*
X195700D01*
X194760Y201507D01*
X193885Y201145D01*
X193132Y200568D01*
X192555Y199815D01*
X192193Y198940D01*
X192069Y198000D01*
X192193Y197060D01*
X192555Y196185D01*
X193132Y195432D01*
X193885Y194855D01*
X194760Y194493D01*
X195700Y194369D01*
X200657D01*
Y192034D01*
X198700D01*
Y188000D01*
Y183966D01*
X200657D01*
Y181631D01*
X195700D01*
X194760Y181507D01*
X193885Y181145D01*
X193132Y180568D01*
X192555Y179815D01*
X192193Y178940D01*
X192069Y178000D01*
X192193Y177060D01*
X192555Y176184D01*
X193132Y175433D01*
X193885Y174855D01*
X194760Y174493D01*
X195700Y174369D01*
X200657D01*
Y171631D01*
X195700D01*
X194760Y171507D01*
X193885Y171145D01*
X193132Y170568D01*
X192555Y169816D01*
X192193Y168940D01*
X192069Y168000D01*
X192193Y167060D01*
X192555Y166184D01*
X193132Y165433D01*
X193885Y164855D01*
X194760Y164493D01*
X195700Y164369D01*
X200657D01*
Y162034D01*
X198700D01*
Y158000D01*
Y153965D01*
X200657D01*
Y151631D01*
X195700D01*
X194760Y151507D01*
X193885Y151145D01*
X193132Y150568D01*
X192555Y149815D01*
X192193Y148940D01*
X192069Y148000D01*
X192193Y147060D01*
X192555Y146185D01*
X193132Y145432D01*
X193885Y144855D01*
X194760Y144493D01*
X195700Y144369D01*
X200657D01*
Y142034D01*
X198700D01*
Y138000D01*
Y133966D01*
X200657D01*
Y132035D01*
X198700D01*
Y128000D01*
Y123966D01*
X200657D01*
Y121631D01*
X195700D01*
X194760Y121507D01*
X193885Y121145D01*
X193132Y120568D01*
X192555Y119816D01*
X192193Y118940D01*
X192069Y118000D01*
X192193Y117060D01*
X192555Y116184D01*
X193132Y115433D01*
X193885Y114855D01*
X194760Y114493D01*
X195700Y114369D01*
X200657D01*
Y111631D01*
X195700D01*
X194760Y111507D01*
X193885Y111145D01*
X193132Y110568D01*
X192555Y109816D01*
X192193Y108940D01*
X192069Y108000D01*
X192193Y107060D01*
X192555Y106184D01*
X193132Y105432D01*
X193885Y104855D01*
X194760Y104493D01*
X195700Y104369D01*
X200657D01*
Y101631D01*
X195700D01*
X194760Y101507D01*
X193885Y101145D01*
X193132Y100568D01*
X192555Y99815D01*
X192193Y98940D01*
X192069Y98000D01*
X192193Y97060D01*
X192555Y96184D01*
X193132Y95433D01*
X193885Y94855D01*
X194760Y94493D01*
X195700Y94369D01*
X200657D01*
Y91631D01*
X195700D01*
X194760Y91507D01*
X193885Y91145D01*
X193132Y90568D01*
X192555Y89815D01*
X192193Y88940D01*
X192069Y88000D01*
X192193Y87060D01*
X192555Y86185D01*
X193132Y85432D01*
X193885Y84855D01*
X194760Y84493D01*
X195700Y84369D01*
X200657D01*
Y81631D01*
X195700D01*
X194760Y81507D01*
X193885Y81145D01*
X193132Y80568D01*
X192555Y79816D01*
X192193Y78940D01*
X192069Y78000D01*
X192193Y77060D01*
X192555Y76184D01*
X193132Y75432D01*
X193885Y74855D01*
X194760Y74493D01*
X195700Y74369D01*
X200657D01*
Y72035D01*
X198700D01*
Y68000D01*
Y63965D01*
X200657D01*
Y62034D01*
X198700D01*
Y58000D01*
Y53966D01*
X200657D01*
Y51631D01*
X195700D01*
X194760Y51507D01*
X193885Y51145D01*
X193132Y50568D01*
X192555Y49815D01*
X192193Y48940D01*
X192069Y48000D01*
X192193Y47060D01*
X192555Y46185D01*
X193132Y45432D01*
X193885Y44855D01*
X194760Y44493D01*
X195700Y44369D01*
X200657D01*
Y41631D01*
X195700D01*
X194760Y41507D01*
X193885Y41145D01*
X193132Y40568D01*
X192555Y39816D01*
X192193Y38940D01*
X192069Y38000D01*
X192193Y37060D01*
X192555Y36184D01*
X193132Y35432D01*
X193885Y34855D01*
X194760Y34493D01*
X195700Y34369D01*
X200657D01*
Y31631D01*
X195700D01*
X194760Y31507D01*
X193885Y31145D01*
X193132Y30568D01*
X192555Y29816D01*
X192193Y28940D01*
X192069Y28000D01*
X192193Y27060D01*
X192555Y26184D01*
X193132Y25433D01*
X193885Y24855D01*
X194760Y24493D01*
X195700Y24369D01*
X200657D01*
Y13718D01*
X200208Y13497D01*
X200015Y13645D01*
X199140Y14007D01*
X198200Y14131D01*
X197260Y14007D01*
X196385Y13645D01*
X195632Y13068D01*
X195055Y12315D01*
X194693Y11440D01*
X194569Y10500D01*
Y5500D01*
X194580Y5419D01*
X194250Y5043D01*
X192150D01*
X191820Y5419D01*
X191831Y5500D01*
Y10500D01*
X191707Y11440D01*
X191345Y12315D01*
X190768Y13068D01*
X190015Y13645D01*
X189140Y14007D01*
X188200Y14131D01*
X187260Y14007D01*
X186384Y13645D01*
X185632Y13068D01*
X185055Y12315D01*
X184693Y11440D01*
X184569Y10500D01*
Y5500D01*
X184580Y5419D01*
X184250Y5043D01*
X182150D01*
X181820Y5419D01*
X181831Y5500D01*
Y10500D01*
X181707Y11440D01*
X181345Y12315D01*
X180768Y13068D01*
X180016Y13645D01*
X179140Y14007D01*
X178200Y14131D01*
X177260Y14007D01*
X176384Y13645D01*
X175632Y13068D01*
X175055Y12315D01*
X174693Y11440D01*
X174569Y10500D01*
Y5500D01*
X174580Y5419D01*
X174250Y5043D01*
X172150D01*
X171820Y5419D01*
X171831Y5500D01*
Y10500D01*
X171707Y11440D01*
X171345Y12315D01*
X170768Y13068D01*
X170016Y13645D01*
X169140Y14007D01*
X168200Y14131D01*
X167260Y14007D01*
X166384Y13645D01*
X165632Y13068D01*
X165055Y12315D01*
X164693Y11440D01*
X164569Y10500D01*
Y5500D01*
X164580Y5419D01*
X164250Y5043D01*
X162150D01*
X161820Y5419D01*
X161831Y5500D01*
Y10500D01*
X161707Y11440D01*
X161345Y12315D01*
X160768Y13068D01*
X160015Y13645D01*
X159140Y14007D01*
X158200Y14131D01*
X157260Y14007D01*
X156385Y13645D01*
X155632Y13068D01*
X155055Y12315D01*
X154693Y11440D01*
X154569Y10500D01*
Y5500D01*
X154580Y5419D01*
X154250Y5043D01*
X152150D01*
X151820Y5419D01*
X151831Y5500D01*
Y10500D01*
X151707Y11440D01*
X151345Y12315D01*
X150768Y13068D01*
X150015Y13645D01*
X149140Y14007D01*
X148200Y14131D01*
X147260Y14007D01*
X146385Y13645D01*
X145632Y13068D01*
X145055Y12315D01*
X144693Y11440D01*
X144569Y10500D01*
Y5500D01*
X144580Y5419D01*
X144250Y5043D01*
X142150D01*
X141820Y5419D01*
X141831Y5500D01*
Y10500D01*
X141707Y11440D01*
X141345Y12315D01*
X140768Y13068D01*
X140015Y13645D01*
X139140Y14007D01*
X138200Y14131D01*
X137260Y14007D01*
X136384Y13645D01*
X135632Y13068D01*
X135055Y12315D01*
X134693Y11440D01*
X134569Y10500D01*
Y5500D01*
X134580Y5419D01*
X134250Y5043D01*
X132150D01*
X131820Y5419D01*
X131831Y5500D01*
Y10500D01*
X131707Y11440D01*
X131345Y12315D01*
X130768Y13068D01*
X130016Y13645D01*
X129140Y14007D01*
X128200Y14131D01*
X127260Y14007D01*
X126384Y13645D01*
X125632Y13068D01*
X125055Y12315D01*
X124693Y11440D01*
X124569Y10500D01*
Y5500D01*
X124580Y5419D01*
X124250Y5043D01*
X122150D01*
X121820Y5419D01*
X121831Y5500D01*
Y10500D01*
X121707Y11440D01*
X121345Y12315D01*
X120768Y13068D01*
X120016Y13645D01*
X119140Y14007D01*
X118200Y14131D01*
X117260Y14007D01*
X116384Y13645D01*
X115632Y13068D01*
X115055Y12315D01*
X114693Y11440D01*
X114569Y10500D01*
Y5500D01*
X114580Y5419D01*
X114250Y5043D01*
X112150D01*
X111820Y5419D01*
X111831Y5500D01*
Y10500D01*
X111707Y11440D01*
X111345Y12315D01*
X110768Y13068D01*
X110015Y13645D01*
X109140Y14007D01*
X108200Y14131D01*
X107260Y14007D01*
X106385Y13645D01*
X105632Y13068D01*
X105055Y12315D01*
X104693Y11440D01*
X104569Y10500D01*
Y5500D01*
X104580Y5419D01*
X104250Y5043D01*
X102553D01*
X102224Y5419D01*
X102234Y5500D01*
Y7500D01*
X98200D01*
X94165D01*
Y5500D01*
X94176Y5419D01*
X93846Y5043D01*
X92554D01*
X92224Y5419D01*
X92234Y5500D01*
Y7500D01*
X88200D01*
X84166D01*
Y5500D01*
X84176Y5419D01*
X83846Y5043D01*
X82150D01*
X81820Y5419D01*
X81831Y5500D01*
Y10500D01*
X81707Y11440D01*
X81345Y12315D01*
X80768Y13068D01*
X80015Y13645D01*
X79140Y14007D01*
X78200Y14131D01*
X77260Y14007D01*
X76385Y13645D01*
X75632Y13068D01*
X75055Y12315D01*
X74693Y11440D01*
X74569Y10500D01*
Y5500D01*
X74580Y5419D01*
X74250Y5043D01*
X72150D01*
X71820Y5419D01*
X71831Y5500D01*
Y10500D01*
X71707Y11440D01*
X71345Y12315D01*
X70768Y13068D01*
X70016Y13645D01*
X69924Y13683D01*
Y27000D01*
X69830Y27468D01*
X69565Y27865D01*
X68565Y28865D01*
X68168Y29130D01*
X67700Y29223D01*
X14090D01*
X13845Y29816D01*
X13268Y30568D01*
X12516Y31145D01*
X11640Y31507D01*
X10700Y31631D01*
X5700D01*
X5619Y31620D01*
X5243Y31950D01*
Y34050D01*
X5619Y34380D01*
X5700Y34369D01*
X10700D01*
X11640Y34493D01*
X12516Y34855D01*
X13268Y35432D01*
X13845Y36184D01*
X14207Y37060D01*
X14331Y38000D01*
X14207Y38940D01*
X13845Y39816D01*
X13268Y40568D01*
X12516Y41145D01*
X11640Y41507D01*
X10700Y41631D01*
X5700D01*
X5619Y41620D01*
X5243Y41950D01*
Y44050D01*
X5619Y44380D01*
X5700Y44369D01*
X10700D01*
X11640Y44493D01*
X12516Y44855D01*
X13268Y45432D01*
X13845Y46185D01*
X14207Y47060D01*
X14331Y48000D01*
X14207Y48940D01*
X13845Y49815D01*
X13268Y50568D01*
X12516Y51145D01*
X11640Y51507D01*
X10700Y51631D01*
X5700D01*
X5619Y51620D01*
X5243Y51950D01*
Y54050D01*
X5619Y54380D01*
X5700Y54369D01*
X10700D01*
X11640Y54493D01*
X12516Y54855D01*
X13268Y55432D01*
X13845Y56185D01*
X14207Y57060D01*
X14331Y58000D01*
X14207Y58940D01*
X13845Y59816D01*
X13268Y60568D01*
X12516Y61145D01*
X11640Y61507D01*
X10700Y61631D01*
X5700D01*
X5619Y61620D01*
X5243Y61950D01*
Y63647D01*
X5619Y63976D01*
X5700Y63965D01*
X7700D01*
Y68000D01*
Y72035D01*
X5700D01*
X5619Y72024D01*
X5243Y72354D01*
Y73646D01*
X5619Y73976D01*
X5700Y73966D01*
X7700D01*
Y78000D01*
Y82034D01*
X5700D01*
X5619Y82024D01*
X5243Y82354D01*
Y84050D01*
X5619Y84380D01*
X5700Y84369D01*
X10700D01*
X11640Y84493D01*
X12516Y84855D01*
X13268Y85432D01*
X13845Y86185D01*
X14207Y87060D01*
X14331Y88000D01*
X14207Y88940D01*
X13845Y89815D01*
X13268Y90568D01*
X12516Y91145D01*
X11640Y91507D01*
X10700Y91631D01*
X5700D01*
X5619Y91620D01*
X5243Y91950D01*
Y94050D01*
X5619Y94380D01*
X5700Y94369D01*
X10700D01*
X11640Y94493D01*
X12516Y94855D01*
X13268Y95433D01*
X13845Y96184D01*
X14207Y97060D01*
X14331Y98000D01*
X14207Y98940D01*
X13845Y99815D01*
X13268Y100568D01*
X12516Y101145D01*
X11640Y101507D01*
X10700Y101631D01*
X5700D01*
X5619Y101620D01*
X5243Y101950D01*
Y104050D01*
X5619Y104380D01*
X5700Y104369D01*
X10700D01*
X11640Y104493D01*
X12516Y104855D01*
X13268Y105432D01*
X13845Y106184D01*
X14207Y107060D01*
X14331Y108000D01*
X14207Y108940D01*
X13845Y109816D01*
X13268Y110568D01*
X12516Y111145D01*
X11640Y111507D01*
X10700Y111631D01*
X5700D01*
X5619Y111620D01*
X5243Y111950D01*
Y114050D01*
X5619Y114380D01*
X5700Y114369D01*
X10700D01*
X11640Y114493D01*
X12516Y114855D01*
X13268Y115433D01*
X13845Y116184D01*
X14207Y117060D01*
X14331Y118000D01*
X14207Y118940D01*
X13845Y119816D01*
X13268Y120568D01*
X12516Y121145D01*
X11640Y121507D01*
X10700Y121631D01*
X5700D01*
X5619Y121620D01*
X5243Y121950D01*
Y124050D01*
X5619Y124380D01*
X5700Y124369D01*
X10700D01*
X11640Y124493D01*
X12516Y124855D01*
X13268Y125433D01*
X13845Y126184D01*
X14207Y127060D01*
X14331Y128000D01*
X14207Y128940D01*
X13845Y129815D01*
X13268Y130568D01*
X12516Y131145D01*
X11640Y131507D01*
X10700Y131631D01*
X5700D01*
X5619Y131620D01*
X5243Y131950D01*
Y134050D01*
X5619Y134380D01*
X5700Y134369D01*
X10700D01*
X11640Y134493D01*
X12516Y134855D01*
X13268Y135433D01*
X13845Y136185D01*
X14207Y137060D01*
X14331Y138000D01*
X14207Y138940D01*
X13845Y139815D01*
X13268Y140568D01*
X12516Y141145D01*
X11640Y141507D01*
X10700Y141631D01*
X5700D01*
X5619Y141620D01*
X5243Y141950D01*
Y144050D01*
X5619Y144380D01*
X5700Y144369D01*
X10700D01*
X11640Y144493D01*
X12516Y144855D01*
X13268Y145432D01*
X13845Y146185D01*
X14207Y147060D01*
X14331Y148000D01*
X14207Y148940D01*
X13845Y149815D01*
X13268Y150568D01*
X12516Y151145D01*
X11640Y151507D01*
X10700Y151631D01*
X5700D01*
X5619Y151620D01*
X5243Y151950D01*
Y154050D01*
X5619Y154380D01*
X5700Y154369D01*
X10700D01*
X11640Y154493D01*
X12516Y154855D01*
X13268Y155432D01*
X13845Y156184D01*
X14207Y157060D01*
X14331Y158000D01*
X14207Y158940D01*
X13845Y159816D01*
X13268Y160568D01*
X12516Y161145D01*
X11640Y161507D01*
X10700Y161631D01*
X5700D01*
X5619Y161620D01*
X5243Y161950D01*
Y163646D01*
X5619Y163976D01*
X5700Y163965D01*
X7700D01*
Y168000D01*
Y172035D01*
X5700D01*
X5619Y172024D01*
X5243Y172353D01*
Y174050D01*
X5619Y174380D01*
X5700Y174369D01*
X10700D01*
X11640Y174493D01*
X12516Y174855D01*
X13268Y175433D01*
X13845Y176184D01*
X14207Y177060D01*
X14331Y178000D01*
X14207Y178940D01*
X13845Y179815D01*
X13268Y180568D01*
X12516Y181145D01*
X11640Y181507D01*
X10700Y181631D01*
X5700D01*
X5619Y181620D01*
X5243Y181950D01*
Y183647D01*
X5619Y183976D01*
X5700Y183966D01*
X7700D01*
Y188000D01*
Y192034D01*
X5700D01*
X5619Y192024D01*
X5243Y192353D01*
Y194050D01*
X5619Y194380D01*
X5700Y194369D01*
X10700D01*
X11640Y194493D01*
X12516Y194855D01*
X13268Y195432D01*
X13845Y196185D01*
X14207Y197060D01*
X14331Y198000D01*
X14207Y198940D01*
X13845Y199815D01*
X13268Y200568D01*
X12516Y201145D01*
X11640Y201507D01*
X10700Y201631D01*
X5700D01*
X5619Y201620D01*
X5243Y201950D01*
Y203646D01*
X5619Y203976D01*
X5700Y203965D01*
X7700D01*
Y208000D01*
Y212035D01*
X5700D01*
X5619Y212024D01*
X5243Y212353D01*
Y214400D01*
X14300D01*
Y221600D01*
X5243D01*
Y248957D01*
X20088D01*
X20272Y248457D01*
X18908Y247292D01*
X17569Y245724D01*
X16492Y243966D01*
X15703Y242061D01*
X15221Y240056D01*
X15059Y238000D01*
X15221Y235944D01*
X15703Y233939D01*
X16492Y232034D01*
X17569Y230276D01*
X18908Y228708D01*
X20476Y227369D01*
X22234Y226292D01*
X24139Y225503D01*
X26144Y225021D01*
X28200Y224859D01*
X30256Y225021D01*
X32261Y225503D01*
X34166Y226292D01*
X35924Y227369D01*
X37492Y228708D01*
X38831Y230276D01*
X39908Y232034D01*
X40697Y233939D01*
X41179Y235944D01*
X41341Y238000D01*
X41179Y240056D01*
X40697Y242061D01*
X39908Y243966D01*
X38831Y245724D01*
X37492Y247292D01*
X36127Y248457D01*
X36312Y248957D01*
X170088D01*
X170273Y248457D01*
X168908Y247292D01*
X167569Y245724D01*
X166492Y243966D01*
X165703Y242061D01*
X165221Y240056D01*
X165059Y238000D01*
X165221Y235944D01*
X165703Y233939D01*
X166492Y232034D01*
X167569Y230276D01*
X168908Y228708D01*
X170476Y227369D01*
X172234Y226292D01*
X174139Y225503D01*
X176144Y225021D01*
X178200Y224859D01*
X180256Y225021D01*
X182261Y225503D01*
X184166Y226292D01*
X185924Y227369D01*
X187492Y228708D01*
X188831Y230276D01*
X189908Y232034D01*
X190697Y233939D01*
X191179Y235944D01*
X191340Y238000D01*
X191179Y240056D01*
X190697Y242061D01*
X189908Y243966D01*
X188831Y245724D01*
X187492Y247292D01*
X186127Y248457D01*
X186312Y248957D01*
X200657D01*
Y222000D01*
D02*
G37*
G36*
X273477Y26493D02*
Y14036D01*
X273260Y14007D01*
X272385Y13645D01*
X271633Y13068D01*
X271055Y12315D01*
X270693Y11440D01*
X270569Y10500D01*
Y5500D01*
X270580Y5419D01*
X270250Y5043D01*
X268150D01*
X267820Y5419D01*
X267831Y5500D01*
Y10500D01*
X267707Y11440D01*
X267345Y12315D01*
X266768Y13068D01*
X266016Y13645D01*
X265140Y14007D01*
X264200Y14131D01*
X263260Y14007D01*
X262385Y13645D01*
X261632Y13068D01*
X261055Y12315D01*
X260693Y11440D01*
X260569Y10500D01*
Y5500D01*
X260580Y5419D01*
X260250Y5043D01*
X258150D01*
X257820Y5419D01*
X257831Y5500D01*
Y10500D01*
X257707Y11440D01*
X257345Y12315D01*
X256768Y13068D01*
X256015Y13645D01*
X255140Y14007D01*
X254200Y14131D01*
X253260Y14007D01*
X252384Y13645D01*
X251632Y13068D01*
X251055Y12315D01*
X250693Y11440D01*
X250569Y10500D01*
Y5500D01*
X250580Y5419D01*
X250250Y5043D01*
X248150D01*
X247820Y5419D01*
X247831Y5500D01*
Y10500D01*
X247707Y11440D01*
X247345Y12315D01*
X246767Y13068D01*
X246016Y13645D01*
X245140Y14007D01*
X244200Y14131D01*
X243260Y14007D01*
X242385Y13645D01*
X241633Y13068D01*
X241055Y12315D01*
X240693Y11440D01*
X240569Y10500D01*
Y5500D01*
X240580Y5419D01*
X240250Y5043D01*
X238150D01*
X237820Y5419D01*
X237831Y5500D01*
Y10500D01*
X237707Y11440D01*
X237345Y12315D01*
X236768Y13068D01*
X236016Y13645D01*
X235140Y14007D01*
X234200Y14131D01*
X233260Y14007D01*
X232384Y13645D01*
X231632Y13068D01*
X231055Y12315D01*
X230693Y11440D01*
X230569Y10500D01*
Y5500D01*
X230580Y5419D01*
X230250Y5043D01*
X228150D01*
X227820Y5419D01*
X227831Y5500D01*
Y10500D01*
X227707Y11440D01*
X227345Y12315D01*
X226767Y13068D01*
X226015Y13645D01*
X225140Y14007D01*
X224200Y14131D01*
X223260Y14007D01*
X222385Y13645D01*
X221633Y13068D01*
X221055Y12315D01*
X220693Y11440D01*
X220569Y10500D01*
Y5500D01*
X220580Y5419D01*
X220250Y5043D01*
X218200D01*
Y7500D01*
X214200D01*
Y8000D01*
X213700D01*
Y14500D01*
X211243D01*
Y24050D01*
X211619Y24380D01*
X211700Y24369D01*
X216700D01*
X217640Y24493D01*
X218515Y24855D01*
X219268Y25433D01*
X219845Y26184D01*
X220090Y26776D01*
X273193D01*
X273477Y26493D01*
D02*
G37*
G36*
X67476D02*
Y14036D01*
X67260Y14007D01*
X66385Y13645D01*
X65632Y13068D01*
X65055Y12315D01*
X64693Y11440D01*
X64569Y10500D01*
Y5500D01*
X64580Y5419D01*
X64250Y5043D01*
X62150D01*
X61820Y5419D01*
X61831Y5500D01*
Y10500D01*
X61707Y11440D01*
X61345Y12315D01*
X60768Y13068D01*
X60015Y13645D01*
X59140Y14007D01*
X58200Y14131D01*
X57260Y14007D01*
X56384Y13645D01*
X55632Y13068D01*
X55055Y12315D01*
X54693Y11440D01*
X54569Y10500D01*
Y5500D01*
X54580Y5419D01*
X54250Y5043D01*
X52150D01*
X51820Y5419D01*
X51831Y5500D01*
Y10500D01*
X51707Y11440D01*
X51345Y12315D01*
X50767Y13068D01*
X50015Y13645D01*
X49140Y14007D01*
X48200Y14131D01*
X47260Y14007D01*
X46385Y13645D01*
X45632Y13068D01*
X45055Y12315D01*
X44693Y11440D01*
X44569Y10500D01*
Y5500D01*
X44580Y5419D01*
X44250Y5043D01*
X42150D01*
X41820Y5419D01*
X41831Y5500D01*
Y10500D01*
X41707Y11440D01*
X41345Y12315D01*
X40767Y13068D01*
X40016Y13645D01*
X39140Y14007D01*
X38200Y14131D01*
X37260Y14007D01*
X36384Y13645D01*
X35633Y13068D01*
X35055Y12315D01*
X34693Y11440D01*
X34569Y10500D01*
Y5500D01*
X34580Y5419D01*
X34250Y5043D01*
X32150D01*
X31820Y5419D01*
X31831Y5500D01*
Y10500D01*
X31707Y11440D01*
X31345Y12315D01*
X30768Y13068D01*
X30016Y13645D01*
X29140Y14007D01*
X28200Y14131D01*
X27260Y14007D01*
X26384Y13645D01*
X25633Y13068D01*
X25055Y12315D01*
X24693Y11440D01*
X24569Y10500D01*
Y5500D01*
X24580Y5419D01*
X24250Y5043D01*
X22150D01*
X21820Y5419D01*
X21831Y5500D01*
Y10500D01*
X21707Y11440D01*
X21345Y12315D01*
X20767Y13068D01*
X20016Y13645D01*
X19140Y14007D01*
X18200Y14131D01*
X17260Y14007D01*
X16385Y13645D01*
X15632Y13068D01*
X15055Y12315D01*
X14693Y11440D01*
X14569Y10500D01*
Y5500D01*
X14580Y5419D01*
X14250Y5043D01*
X12200D01*
Y7500D01*
X8200D01*
Y8000D01*
X7700D01*
Y14500D01*
X5243D01*
Y24050D01*
X5619Y24380D01*
X5700Y24369D01*
X10700D01*
X11640Y24493D01*
X12516Y24855D01*
X13268Y25433D01*
X13845Y26184D01*
X14090Y26776D01*
X67193D01*
X67476Y26493D01*
D02*
G37*
%LPC*%
G36*
X403700Y476000D02*
X397700D01*
Y472500D01*
X403700D01*
Y476000D01*
D02*
G37*
G36*
Y471500D02*
X397700D01*
Y468000D01*
X403700D01*
Y471500D01*
D02*
G37*
G36*
X216700Y466035D02*
X214700D01*
Y462500D01*
X220669D01*
X220597Y463044D01*
X220194Y464017D01*
X219553Y464853D01*
X218717Y465494D01*
X217744Y465897D01*
X216700Y466035D01*
D02*
G37*
G36*
X220669Y461500D02*
X214700D01*
Y457966D01*
X216700D01*
X217744Y458103D01*
X218717Y458506D01*
X219553Y459147D01*
X220194Y459983D01*
X220597Y460956D01*
X220669Y461500D01*
D02*
G37*
G36*
X403700Y446034D02*
X401700D01*
X400656Y445897D01*
X399683Y445494D01*
X398847Y444853D01*
X398206Y444017D01*
X397803Y443044D01*
X397731Y442500D01*
X403700D01*
Y446034D01*
D02*
G37*
G36*
X216700D02*
X214700D01*
Y442500D01*
X220669D01*
X220597Y443044D01*
X220194Y444017D01*
X219553Y444853D01*
X218717Y445494D01*
X217744Y445897D01*
X216700Y446034D01*
D02*
G37*
G36*
X315200Y448335D02*
X314498Y448196D01*
X313902Y447798D01*
X313504Y447202D01*
X313365Y446500D01*
X313504Y445798D01*
X313902Y445202D01*
X314498Y444804D01*
X315200Y444665D01*
X315528Y444730D01*
X318704Y441555D01*
X319034Y441334D01*
X319424Y441256D01*
X341866D01*
X341902Y441202D01*
X342498Y440804D01*
X343200Y440665D01*
X343902Y440804D01*
X344498Y441202D01*
X344896Y441798D01*
X345035Y442500D01*
X344896Y443202D01*
X344498Y443798D01*
X343902Y444196D01*
X343200Y444335D01*
X342498Y444196D01*
X341902Y443798D01*
X341566Y443295D01*
X319847D01*
X316970Y446172D01*
X317035Y446500D01*
X316896Y447202D01*
X316498Y447798D01*
X315902Y448196D01*
X315200Y448335D01*
D02*
G37*
G36*
X403700Y441500D02*
X397731D01*
X397803Y440956D01*
X398206Y439983D01*
X398847Y439147D01*
X399683Y438506D01*
X400656Y438103D01*
X401700Y437965D01*
X403700D01*
Y441500D01*
D02*
G37*
G36*
X220669D02*
X214700D01*
Y437965D01*
X216700D01*
X217744Y438103D01*
X218717Y438506D01*
X219553Y439147D01*
X220194Y439983D01*
X220597Y440956D01*
X220669Y441500D01*
D02*
G37*
G36*
X216700Y426034D02*
X214700D01*
Y422500D01*
X220669D01*
X220597Y423044D01*
X220194Y424017D01*
X219553Y424853D01*
X218717Y425494D01*
X217744Y425897D01*
X216700Y426034D01*
D02*
G37*
G36*
X220669Y421500D02*
X214700D01*
Y417966D01*
X216700D01*
X217744Y418103D01*
X218717Y418506D01*
X219553Y419147D01*
X220194Y419983D01*
X220597Y420956D01*
X220669Y421500D01*
D02*
G37*
G36*
X403700Y416035D02*
X401700D01*
X400656Y415897D01*
X399683Y415494D01*
X398847Y414853D01*
X398206Y414017D01*
X397803Y413044D01*
X397731Y412500D01*
X403700D01*
Y416035D01*
D02*
G37*
G36*
Y411500D02*
X397731D01*
X397803Y410956D01*
X398206Y409983D01*
X398847Y409147D01*
X399683Y408506D01*
X400656Y408103D01*
X401700Y407966D01*
X403700D01*
Y411500D01*
D02*
G37*
G36*
X248200Y393585D02*
X247498Y393446D01*
X246902Y393048D01*
X246716Y392770D01*
X242184D01*
X241998Y393048D01*
X241402Y393446D01*
X240700Y393585D01*
X239998Y393446D01*
X239402Y393048D01*
X239004Y392452D01*
X238865Y391750D01*
X239004Y391048D01*
X239402Y390452D01*
X239998Y390054D01*
X240700Y389915D01*
X241402Y390054D01*
X241998Y390452D01*
X242184Y390730D01*
X246716D01*
X246902Y390452D01*
X247498Y390054D01*
X248200Y389915D01*
X248902Y390054D01*
X249498Y390452D01*
X249896Y391048D01*
X250035Y391750D01*
X249896Y392452D01*
X249498Y393048D01*
X248902Y393446D01*
X248200Y393585D01*
D02*
G37*
G36*
X403700Y396035D02*
X401700D01*
X400656Y395897D01*
X399683Y395494D01*
X398847Y394853D01*
X398206Y394017D01*
X397803Y393044D01*
X397731Y392500D01*
X403700D01*
Y396035D01*
D02*
G37*
G36*
Y391500D02*
X397731D01*
X397803Y390956D01*
X398206Y389983D01*
X398847Y389147D01*
X399683Y388506D01*
X400656Y388103D01*
X401700Y387965D01*
X403700D01*
Y391500D01*
D02*
G37*
G36*
X248200Y383835D02*
X247498Y383696D01*
X246902Y383298D01*
X246716Y383020D01*
X242684D01*
X242498Y383298D01*
X241902Y383696D01*
X241200Y383835D01*
X240498Y383696D01*
X239902Y383298D01*
X239504Y382702D01*
X239365Y382000D01*
X239504Y381298D01*
X239902Y380702D01*
X240498Y380304D01*
X241200Y380165D01*
X241902Y380304D01*
X242498Y380702D01*
X242684Y380980D01*
X246716D01*
X246902Y380702D01*
X247498Y380304D01*
X248200Y380165D01*
X248902Y380304D01*
X249498Y380702D01*
X249896Y381298D01*
X250035Y382000D01*
X249896Y382702D01*
X249498Y383298D01*
X248902Y383696D01*
X248200Y383835D01*
D02*
G37*
G36*
X340700Y393585D02*
X339998Y393446D01*
X339402Y393048D01*
X339004Y392452D01*
X338865Y391750D01*
X339004Y391048D01*
X339402Y390452D01*
X339998Y390054D01*
X340700Y389915D01*
X341402Y390054D01*
X341998Y390452D01*
X342184Y390730D01*
X353528D01*
X359430Y384828D01*
X359365Y384500D01*
X359504Y383798D01*
X359902Y383202D01*
X360498Y382804D01*
X361200Y382665D01*
X361902Y382804D01*
X362498Y383202D01*
X362896Y383798D01*
X363035Y384500D01*
X362896Y385202D01*
X362498Y385798D01*
X361902Y386196D01*
X361200Y386335D01*
X360872Y386270D01*
X354671Y392471D01*
X354340Y392692D01*
X353950Y392770D01*
X342184D01*
X341998Y393048D01*
X341402Y393446D01*
X340700Y393585D01*
D02*
G37*
G36*
X403700Y386034D02*
X401700D01*
X400656Y385897D01*
X399683Y385494D01*
X398847Y384853D01*
X398206Y384017D01*
X397803Y383044D01*
X397731Y382500D01*
X403700D01*
Y386034D01*
D02*
G37*
G36*
X340700Y389365D02*
X339998Y389226D01*
X339402Y388828D01*
X339004Y388232D01*
X338865Y387530D01*
X339004Y386828D01*
X339402Y386232D01*
X339998Y385834D01*
X340322Y385770D01*
Y385260D01*
X339998Y385196D01*
X339402Y384798D01*
X339004Y384202D01*
X338865Y383500D01*
X339004Y382798D01*
X339402Y382202D01*
X339998Y381804D01*
X340700Y381665D01*
X341402Y381804D01*
X341998Y382202D01*
X342184Y382480D01*
X351278D01*
X351930Y381828D01*
X351865Y381500D01*
X352004Y380798D01*
X352402Y380202D01*
X352998Y379804D01*
X353700Y379665D01*
X354402Y379804D01*
X354998Y380202D01*
X355396Y380798D01*
X355516Y381405D01*
X355619Y381484D01*
X355788Y381564D01*
X356020Y381623D01*
X356498Y381304D01*
X357200Y381165D01*
X357902Y381304D01*
X358498Y381702D01*
X358896Y382298D01*
X359035Y383000D01*
X358896Y383702D01*
X358498Y384298D01*
X357902Y384696D01*
X357200Y384835D01*
X356872Y384770D01*
X353391Y388251D01*
X353060Y388472D01*
X352670Y388549D01*
X342184D01*
X341998Y388828D01*
X341402Y389226D01*
X340700Y389365D01*
D02*
G37*
G36*
X403700Y381500D02*
X397731D01*
X397803Y380956D01*
X398206Y379983D01*
X398847Y379147D01*
X399683Y378506D01*
X400656Y378103D01*
X401700Y377965D01*
X403700D01*
Y381500D01*
D02*
G37*
G36*
X337700Y363386D02*
X336978Y363243D01*
X336366Y362834D01*
X335957Y362222D01*
X335814Y361500D01*
X335957Y360778D01*
X336366Y360166D01*
X336866Y359666D01*
X337478Y359257D01*
X338200Y359114D01*
X361200D01*
X361922Y359257D01*
X362534Y359666D01*
X362943Y360278D01*
X363086Y361000D01*
X362943Y361722D01*
X362534Y362334D01*
X361922Y362743D01*
X361200Y362886D01*
X338955D01*
X338422Y363243D01*
X337700Y363386D01*
D02*
G37*
G36*
X308200Y349335D02*
X307498Y349196D01*
X306902Y348798D01*
X306716Y348520D01*
X301656D01*
X301470Y348798D01*
X300875Y349196D01*
X300172Y349335D01*
X299470Y349196D01*
X298875Y348798D01*
X298477Y348202D01*
X298337Y347500D01*
X298477Y346798D01*
X298875Y346202D01*
X299470Y345804D01*
X300172Y345665D01*
X300875Y345804D01*
X301470Y346202D01*
X301656Y346480D01*
X306716D01*
X306902Y346202D01*
X307498Y345804D01*
X308200Y345665D01*
X308902Y345804D01*
X309498Y346202D01*
X309896Y346798D01*
X310035Y347500D01*
X309896Y348202D01*
X309498Y348798D01*
X308902Y349196D01*
X308200Y349335D01*
D02*
G37*
G36*
Y344835D02*
X307498Y344696D01*
X306902Y344298D01*
X306716Y344020D01*
X298666D01*
X298402Y344196D01*
X297700Y344335D01*
X296998Y344196D01*
X296402Y343798D01*
X296004Y343202D01*
X295865Y342500D01*
X296004Y341798D01*
X296402Y341202D01*
X296998Y340804D01*
X297700Y340665D01*
X298402Y340804D01*
X298998Y341202D01*
X299396Y341798D01*
X299432Y341980D01*
X306716D01*
X306902Y341702D01*
X307498Y341304D01*
X308200Y341165D01*
X308902Y341304D01*
X309498Y341702D01*
X309896Y342298D01*
X310035Y343000D01*
X309896Y343702D01*
X309498Y344298D01*
X308902Y344696D01*
X308200Y344835D01*
D02*
G37*
G36*
X216700Y336034D02*
X214700D01*
Y332500D01*
X220669D01*
X220597Y333044D01*
X220194Y334017D01*
X219553Y334853D01*
X218717Y335494D01*
X217744Y335897D01*
X216700Y336034D01*
D02*
G37*
G36*
X220669Y331500D02*
X214700D01*
Y327965D01*
X216700D01*
X217744Y328103D01*
X218717Y328506D01*
X219553Y329147D01*
X220194Y329983D01*
X220597Y330956D01*
X220669Y331500D01*
D02*
G37*
G36*
X403700Y326034D02*
X401700D01*
X400656Y325897D01*
X399683Y325494D01*
X398847Y324853D01*
X398206Y324017D01*
X397803Y323044D01*
X397731Y322500D01*
X403700D01*
Y326034D01*
D02*
G37*
G36*
X216700D02*
X214700D01*
Y322500D01*
X220669D01*
X220597Y323044D01*
X220194Y324017D01*
X219553Y324853D01*
X218717Y325494D01*
X217744Y325897D01*
X216700Y326034D01*
D02*
G37*
G36*
X403700Y321500D02*
X397731D01*
X397803Y320956D01*
X398206Y319983D01*
X398847Y319147D01*
X399683Y318506D01*
X400656Y318103D01*
X401700Y317966D01*
X403700D01*
Y321500D01*
D02*
G37*
G36*
X220669D02*
X214700D01*
Y317966D01*
X216700D01*
X217744Y318103D01*
X218717Y318506D01*
X219553Y319147D01*
X220194Y319983D01*
X220597Y320956D01*
X220669Y321500D01*
D02*
G37*
G36*
X403700Y316035D02*
X401700D01*
X400656Y315897D01*
X399683Y315494D01*
X398847Y314853D01*
X398206Y314017D01*
X397803Y313044D01*
X397731Y312500D01*
X403700D01*
Y316035D01*
D02*
G37*
G36*
Y311500D02*
X397731D01*
X397803Y310956D01*
X398206Y309983D01*
X398847Y309147D01*
X399683Y308506D01*
X400656Y308103D01*
X401700Y307965D01*
X403700D01*
Y311500D01*
D02*
G37*
G36*
X271775Y316835D02*
X271073Y316696D01*
X270477Y316298D01*
X270079Y315702D01*
X269940Y315000D01*
X270079Y314298D01*
X270477Y313702D01*
X271073Y313304D01*
X271775Y313165D01*
X272103Y313230D01*
X283873Y301460D01*
X284004Y300798D01*
X284402Y300202D01*
X284998Y299804D01*
X285700Y299665D01*
X286402Y299804D01*
X286998Y300202D01*
X287396Y300798D01*
X287535Y301500D01*
X287396Y302202D01*
X286998Y302798D01*
X286402Y303196D01*
X285700Y303335D01*
X285017Y303200D01*
X273545Y314672D01*
X273610Y315000D01*
X273470Y315702D01*
X273073Y316298D01*
X272477Y316696D01*
X271775Y316835D01*
D02*
G37*
G36*
X304200Y305140D02*
X302144Y304979D01*
X300139Y304497D01*
X298234Y303708D01*
X296476Y302631D01*
X294908Y301292D01*
X293569Y299724D01*
X292492Y297966D01*
X291703Y296061D01*
X291221Y294056D01*
X291059Y292000D01*
X291221Y289944D01*
X291703Y287939D01*
X292492Y286034D01*
X293569Y284276D01*
X294908Y282708D01*
X296476Y281369D01*
X298234Y280292D01*
X300139Y279503D01*
X302144Y279021D01*
X304200Y278859D01*
X306256Y279021D01*
X308261Y279503D01*
X310166Y280292D01*
X311924Y281369D01*
X313492Y282708D01*
X314831Y284276D01*
X315908Y286034D01*
X316697Y287939D01*
X317179Y289944D01*
X317340Y292000D01*
X317179Y294056D01*
X316697Y296061D01*
X315908Y297966D01*
X314831Y299724D01*
X313492Y301292D01*
X311924Y302631D01*
X310166Y303708D01*
X308261Y304497D01*
X306256Y304979D01*
X304200Y305140D01*
D02*
G37*
G36*
X304700Y268469D02*
Y262500D01*
X308235D01*
Y264500D01*
X308097Y265544D01*
X307694Y266517D01*
X307053Y267353D01*
X306217Y267994D01*
X305244Y268397D01*
X304700Y268469D01*
D02*
G37*
G36*
X294700D02*
Y262500D01*
X298235D01*
Y264500D01*
X298097Y265544D01*
X297694Y266517D01*
X297053Y267353D01*
X296217Y267994D01*
X295244Y268397D01*
X294700Y268469D01*
D02*
G37*
G36*
X303700D02*
X303156Y268397D01*
X302183Y267994D01*
X301347Y267353D01*
X300706Y266517D01*
X300303Y265544D01*
X300166Y264500D01*
Y262500D01*
X303700D01*
Y268469D01*
D02*
G37*
G36*
X293700D02*
X293156Y268397D01*
X292183Y267994D01*
X291347Y267353D01*
X290706Y266517D01*
X290303Y265544D01*
X290165Y264500D01*
Y262500D01*
X293700D01*
Y268469D01*
D02*
G37*
G36*
X197700Y476000D02*
X191700D01*
Y472500D01*
X197700D01*
Y476000D01*
D02*
G37*
G36*
Y471500D02*
X191700D01*
Y468000D01*
X197700D01*
Y471500D01*
D02*
G37*
G36*
X10700Y466035D02*
X8700D01*
Y462500D01*
X14669D01*
X14597Y463044D01*
X14194Y464017D01*
X13553Y464853D01*
X12717Y465494D01*
X11744Y465897D01*
X10700Y466035D01*
D02*
G37*
G36*
X14669Y461500D02*
X8700D01*
Y457966D01*
X10700D01*
X11744Y458103D01*
X12717Y458506D01*
X13553Y459147D01*
X14194Y459983D01*
X14597Y460956D01*
X14669Y461500D01*
D02*
G37*
G36*
X197700Y446034D02*
X195700D01*
X194656Y445897D01*
X193683Y445494D01*
X192847Y444853D01*
X192206Y444017D01*
X191803Y443044D01*
X191731Y442500D01*
X197700D01*
Y446034D01*
D02*
G37*
G36*
X10700D02*
X8700D01*
Y442500D01*
X14669D01*
X14597Y443044D01*
X14194Y444017D01*
X13553Y444853D01*
X12717Y445494D01*
X11744Y445897D01*
X10700Y446034D01*
D02*
G37*
G36*
X109200Y448335D02*
X108498Y448196D01*
X107902Y447798D01*
X107504Y447202D01*
X107365Y446500D01*
X107504Y445798D01*
X107902Y445202D01*
X108498Y444804D01*
X109200Y444665D01*
X109528Y444730D01*
X112703Y441555D01*
X113034Y441334D01*
X113424Y441256D01*
X135866D01*
X135902Y441202D01*
X136498Y440804D01*
X137200Y440665D01*
X137902Y440804D01*
X138498Y441202D01*
X138896Y441798D01*
X139035Y442500D01*
X138896Y443202D01*
X138498Y443798D01*
X137902Y444196D01*
X137200Y444335D01*
X136498Y444196D01*
X135902Y443798D01*
X135566Y443295D01*
X113847D01*
X110970Y446172D01*
X111035Y446500D01*
X110896Y447202D01*
X110498Y447798D01*
X109902Y448196D01*
X109200Y448335D01*
D02*
G37*
G36*
X197700Y441500D02*
X191731D01*
X191803Y440956D01*
X192206Y439983D01*
X192847Y439147D01*
X193683Y438506D01*
X194656Y438103D01*
X195700Y437965D01*
X197700D01*
Y441500D01*
D02*
G37*
G36*
X14669D02*
X8700D01*
Y437965D01*
X10700D01*
X11744Y438103D01*
X12717Y438506D01*
X13553Y439147D01*
X14194Y439983D01*
X14597Y440956D01*
X14669Y441500D01*
D02*
G37*
G36*
X10700Y426034D02*
X8700D01*
Y422500D01*
X14669D01*
X14597Y423044D01*
X14194Y424017D01*
X13553Y424853D01*
X12717Y425494D01*
X11744Y425897D01*
X10700Y426034D01*
D02*
G37*
G36*
X14669Y421500D02*
X8700D01*
Y417966D01*
X10700D01*
X11744Y418103D01*
X12717Y418506D01*
X13553Y419147D01*
X14194Y419983D01*
X14597Y420956D01*
X14669Y421500D01*
D02*
G37*
G36*
X197700Y416035D02*
X195700D01*
X194656Y415897D01*
X193683Y415494D01*
X192847Y414853D01*
X192206Y414017D01*
X191803Y413044D01*
X191731Y412500D01*
X197700D01*
Y416035D01*
D02*
G37*
G36*
Y411500D02*
X191731D01*
X191803Y410956D01*
X192206Y409983D01*
X192847Y409147D01*
X193683Y408506D01*
X194656Y408103D01*
X195700Y407966D01*
X197700D01*
Y411500D01*
D02*
G37*
G36*
X42200Y393585D02*
X41498Y393446D01*
X40902Y393048D01*
X40716Y392770D01*
X36184D01*
X35998Y393048D01*
X35402Y393446D01*
X34700Y393585D01*
X33998Y393446D01*
X33402Y393048D01*
X33004Y392452D01*
X32865Y391750D01*
X33004Y391048D01*
X33402Y390452D01*
X33998Y390054D01*
X34700Y389915D01*
X35402Y390054D01*
X35998Y390452D01*
X36184Y390730D01*
X40716D01*
X40902Y390452D01*
X41498Y390054D01*
X42200Y389915D01*
X42902Y390054D01*
X43498Y390452D01*
X43896Y391048D01*
X44035Y391750D01*
X43896Y392452D01*
X43498Y393048D01*
X42902Y393446D01*
X42200Y393585D01*
D02*
G37*
G36*
X197700Y396035D02*
X195700D01*
X194656Y395897D01*
X193683Y395494D01*
X192847Y394853D01*
X192206Y394017D01*
X191803Y393044D01*
X191731Y392500D01*
X197700D01*
Y396035D01*
D02*
G37*
G36*
Y391500D02*
X191731D01*
X191803Y390956D01*
X192206Y389983D01*
X192847Y389147D01*
X193683Y388506D01*
X194656Y388103D01*
X195700Y387965D01*
X197700D01*
Y391500D01*
D02*
G37*
G36*
X42200Y383835D02*
X41498Y383696D01*
X40902Y383298D01*
X40716Y383020D01*
X36684D01*
X36498Y383298D01*
X35902Y383696D01*
X35200Y383835D01*
X34498Y383696D01*
X33902Y383298D01*
X33504Y382702D01*
X33365Y382000D01*
X33504Y381298D01*
X33902Y380702D01*
X34498Y380304D01*
X35200Y380165D01*
X35902Y380304D01*
X36498Y380702D01*
X36684Y380980D01*
X40716D01*
X40902Y380702D01*
X41498Y380304D01*
X42200Y380165D01*
X42902Y380304D01*
X43498Y380702D01*
X43896Y381298D01*
X44035Y382000D01*
X43896Y382702D01*
X43498Y383298D01*
X42902Y383696D01*
X42200Y383835D01*
D02*
G37*
G36*
X134700Y393585D02*
X133998Y393446D01*
X133402Y393048D01*
X133004Y392452D01*
X132865Y391750D01*
X133004Y391048D01*
X133402Y390452D01*
X133998Y390054D01*
X134700Y389915D01*
X135402Y390054D01*
X135998Y390452D01*
X136184Y390730D01*
X147528D01*
X153430Y384828D01*
X153365Y384500D01*
X153504Y383798D01*
X153902Y383202D01*
X154498Y382804D01*
X155200Y382665D01*
X155902Y382804D01*
X156498Y383202D01*
X156896Y383798D01*
X157035Y384500D01*
X156896Y385202D01*
X156498Y385798D01*
X155902Y386196D01*
X155200Y386335D01*
X154872Y386270D01*
X148671Y392471D01*
X148340Y392692D01*
X147950Y392770D01*
X136184D01*
X135998Y393048D01*
X135402Y393446D01*
X134700Y393585D01*
D02*
G37*
G36*
X197700Y386034D02*
X195700D01*
X194656Y385897D01*
X193683Y385494D01*
X192847Y384853D01*
X192206Y384017D01*
X191803Y383044D01*
X191731Y382500D01*
X197700D01*
Y386034D01*
D02*
G37*
G36*
X134700Y389365D02*
X133998Y389226D01*
X133402Y388828D01*
X133004Y388232D01*
X132865Y387530D01*
X133004Y386828D01*
X133402Y386232D01*
X133998Y385834D01*
X134322Y385770D01*
Y385260D01*
X133998Y385196D01*
X133402Y384798D01*
X133004Y384202D01*
X132865Y383500D01*
X133004Y382798D01*
X133402Y382202D01*
X133998Y381804D01*
X134700Y381665D01*
X135402Y381804D01*
X135998Y382202D01*
X136184Y382480D01*
X145278D01*
X145930Y381828D01*
X145865Y381500D01*
X146004Y380798D01*
X146402Y380202D01*
X146998Y379804D01*
X147700Y379665D01*
X148402Y379804D01*
X148998Y380202D01*
X149396Y380798D01*
X149516Y381405D01*
X149619Y381484D01*
X149788Y381564D01*
X150021Y381623D01*
X150498Y381304D01*
X151200Y381165D01*
X151902Y381304D01*
X152498Y381702D01*
X152896Y382298D01*
X153035Y383000D01*
X152896Y383702D01*
X152498Y384298D01*
X151902Y384696D01*
X151200Y384835D01*
X150872Y384770D01*
X147391Y388251D01*
X147060Y388472D01*
X146670Y388549D01*
X136184D01*
X135998Y388828D01*
X135402Y389226D01*
X134700Y389365D01*
D02*
G37*
G36*
X197700Y381500D02*
X191731D01*
X191803Y380956D01*
X192206Y379983D01*
X192847Y379147D01*
X193683Y378506D01*
X194656Y378103D01*
X195700Y377965D01*
X197700D01*
Y381500D01*
D02*
G37*
G36*
X131700Y363386D02*
X130978Y363243D01*
X130366Y362834D01*
X129957Y362222D01*
X129814Y361500D01*
X129957Y360778D01*
X130366Y360166D01*
X130866Y359666D01*
X131478Y359257D01*
X132200Y359114D01*
X155200D01*
X155922Y359257D01*
X156534Y359666D01*
X156943Y360278D01*
X157086Y361000D01*
X156943Y361722D01*
X156534Y362334D01*
X155922Y362743D01*
X155200Y362886D01*
X132955D01*
X132422Y363243D01*
X131700Y363386D01*
D02*
G37*
G36*
X102200Y349335D02*
X101498Y349196D01*
X100902Y348798D01*
X100716Y348520D01*
X95656D01*
X95470Y348798D01*
X94875Y349196D01*
X94172Y349335D01*
X93470Y349196D01*
X92875Y348798D01*
X92477Y348202D01*
X92337Y347500D01*
X92477Y346798D01*
X92875Y346202D01*
X93470Y345804D01*
X94172Y345665D01*
X94875Y345804D01*
X95470Y346202D01*
X95656Y346480D01*
X100716D01*
X100902Y346202D01*
X101498Y345804D01*
X102200Y345665D01*
X102902Y345804D01*
X103498Y346202D01*
X103896Y346798D01*
X104035Y347500D01*
X103896Y348202D01*
X103498Y348798D01*
X102902Y349196D01*
X102200Y349335D01*
D02*
G37*
G36*
Y344835D02*
X101498Y344696D01*
X100902Y344298D01*
X100716Y344020D01*
X92666D01*
X92402Y344196D01*
X91700Y344335D01*
X90998Y344196D01*
X90402Y343798D01*
X90004Y343202D01*
X89865Y342500D01*
X90004Y341798D01*
X90402Y341202D01*
X90998Y340804D01*
X91700Y340665D01*
X92402Y340804D01*
X92998Y341202D01*
X93396Y341798D01*
X93432Y341980D01*
X100716D01*
X100902Y341702D01*
X101498Y341304D01*
X102200Y341165D01*
X102902Y341304D01*
X103498Y341702D01*
X103896Y342298D01*
X104035Y343000D01*
X103896Y343702D01*
X103498Y344298D01*
X102902Y344696D01*
X102200Y344835D01*
D02*
G37*
G36*
X10700Y336034D02*
X8700D01*
Y332500D01*
X14669D01*
X14597Y333044D01*
X14194Y334017D01*
X13553Y334853D01*
X12717Y335494D01*
X11744Y335897D01*
X10700Y336034D01*
D02*
G37*
G36*
X14669Y331500D02*
X8700D01*
Y327965D01*
X10700D01*
X11744Y328103D01*
X12717Y328506D01*
X13553Y329147D01*
X14194Y329983D01*
X14597Y330956D01*
X14669Y331500D01*
D02*
G37*
G36*
X197700Y326034D02*
X195700D01*
X194656Y325897D01*
X193683Y325494D01*
X192847Y324853D01*
X192206Y324017D01*
X191803Y323044D01*
X191731Y322500D01*
X197700D01*
Y326034D01*
D02*
G37*
G36*
X10700D02*
X8700D01*
Y322500D01*
X14669D01*
X14597Y323044D01*
X14194Y324017D01*
X13553Y324853D01*
X12717Y325494D01*
X11744Y325897D01*
X10700Y326034D01*
D02*
G37*
G36*
X197700Y321500D02*
X191731D01*
X191803Y320956D01*
X192206Y319983D01*
X192847Y319147D01*
X193683Y318506D01*
X194656Y318103D01*
X195700Y317966D01*
X197700D01*
Y321500D01*
D02*
G37*
G36*
X14669D02*
X8700D01*
Y317966D01*
X10700D01*
X11744Y318103D01*
X12717Y318506D01*
X13553Y319147D01*
X14194Y319983D01*
X14597Y320956D01*
X14669Y321500D01*
D02*
G37*
G36*
X197700Y316035D02*
X195700D01*
X194656Y315897D01*
X193683Y315494D01*
X192847Y314853D01*
X192206Y314017D01*
X191803Y313044D01*
X191731Y312500D01*
X197700D01*
Y316035D01*
D02*
G37*
G36*
Y311500D02*
X191731D01*
X191803Y310956D01*
X192206Y309983D01*
X192847Y309147D01*
X193683Y308506D01*
X194656Y308103D01*
X195700Y307965D01*
X197700D01*
Y311500D01*
D02*
G37*
G36*
X65775Y316835D02*
X65073Y316696D01*
X64477Y316298D01*
X64079Y315702D01*
X63939Y315000D01*
X64079Y314298D01*
X64477Y313702D01*
X65073Y313304D01*
X65775Y313165D01*
X66103Y313230D01*
X77873Y301460D01*
X78004Y300798D01*
X78402Y300202D01*
X78998Y299804D01*
X79700Y299665D01*
X80402Y299804D01*
X80998Y300202D01*
X81396Y300798D01*
X81535Y301500D01*
X81396Y302202D01*
X80998Y302798D01*
X80402Y303196D01*
X79700Y303335D01*
X79017Y303200D01*
X67545Y314672D01*
X67610Y315000D01*
X67470Y315702D01*
X67072Y316298D01*
X66477Y316696D01*
X65775Y316835D01*
D02*
G37*
G36*
X98200Y305140D02*
X96144Y304979D01*
X94139Y304497D01*
X92234Y303708D01*
X90476Y302631D01*
X88908Y301292D01*
X87569Y299724D01*
X86492Y297966D01*
X85703Y296061D01*
X85221Y294056D01*
X85059Y292000D01*
X85221Y289944D01*
X85703Y287939D01*
X86492Y286034D01*
X87569Y284276D01*
X88908Y282708D01*
X90476Y281369D01*
X92234Y280292D01*
X94139Y279503D01*
X96144Y279021D01*
X98200Y278859D01*
X100256Y279021D01*
X102261Y279503D01*
X104166Y280292D01*
X105924Y281369D01*
X107492Y282708D01*
X108831Y284276D01*
X109908Y286034D01*
X110697Y287939D01*
X111179Y289944D01*
X111340Y292000D01*
X111179Y294056D01*
X110697Y296061D01*
X109908Y297966D01*
X108831Y299724D01*
X107492Y301292D01*
X105924Y302631D01*
X104166Y303708D01*
X102261Y304497D01*
X100256Y304979D01*
X98200Y305140D01*
D02*
G37*
G36*
X98700Y268469D02*
Y262500D01*
X102234D01*
Y264500D01*
X102097Y265544D01*
X101694Y266517D01*
X101053Y267353D01*
X100217Y267994D01*
X99244Y268397D01*
X98700Y268469D01*
D02*
G37*
G36*
X88700D02*
Y262500D01*
X92234D01*
Y264500D01*
X92097Y265544D01*
X91694Y266517D01*
X91053Y267353D01*
X90217Y267994D01*
X89244Y268397D01*
X88700Y268469D01*
D02*
G37*
G36*
X97700D02*
X97156Y268397D01*
X96183Y267994D01*
X95347Y267353D01*
X94706Y266517D01*
X94303Y265544D01*
X94165Y264500D01*
Y262500D01*
X97700D01*
Y268469D01*
D02*
G37*
G36*
X87700D02*
X87156Y268397D01*
X86183Y267994D01*
X85347Y267353D01*
X84706Y266517D01*
X84303Y265544D01*
X84166Y264500D01*
Y262500D01*
X87700D01*
Y268469D01*
D02*
G37*
G36*
X218200Y268500D02*
X214700D01*
Y262500D01*
X218200D01*
Y268500D01*
D02*
G37*
G36*
X12200D02*
X8700D01*
Y262500D01*
X12200D01*
Y268500D01*
D02*
G37*
G36*
X403700Y222000D02*
X397700D01*
Y218500D01*
X403700D01*
Y222000D01*
D02*
G37*
G36*
Y217500D02*
X397700D01*
Y214000D01*
X403700D01*
Y217500D01*
D02*
G37*
G36*
X216700Y212035D02*
X214700D01*
Y208500D01*
X220669D01*
X220597Y209044D01*
X220194Y210017D01*
X219553Y210853D01*
X218717Y211494D01*
X217744Y211897D01*
X216700Y212035D01*
D02*
G37*
G36*
X220669Y207500D02*
X214700D01*
Y203965D01*
X216700D01*
X217744Y204103D01*
X218717Y204506D01*
X219553Y205147D01*
X220194Y205983D01*
X220597Y206956D01*
X220669Y207500D01*
D02*
G37*
G36*
X403700Y192034D02*
X401700D01*
X400656Y191897D01*
X399683Y191494D01*
X398847Y190853D01*
X398206Y190017D01*
X397803Y189044D01*
X397731Y188500D01*
X403700D01*
Y192034D01*
D02*
G37*
G36*
X216700D02*
X214700D01*
Y188500D01*
X220669D01*
X220597Y189044D01*
X220194Y190017D01*
X219553Y190853D01*
X218717Y191494D01*
X217744Y191897D01*
X216700Y192034D01*
D02*
G37*
G36*
X315200Y194335D02*
X314498Y194196D01*
X313902Y193798D01*
X313504Y193202D01*
X313365Y192500D01*
X313504Y191798D01*
X313902Y191202D01*
X314498Y190804D01*
X315200Y190665D01*
X315528Y190730D01*
X318704Y187555D01*
X319034Y187334D01*
X319424Y187256D01*
X341866D01*
X341902Y187202D01*
X342498Y186804D01*
X343200Y186665D01*
X343902Y186804D01*
X344498Y187202D01*
X344896Y187798D01*
X345035Y188500D01*
X344896Y189202D01*
X344498Y189798D01*
X343902Y190196D01*
X343200Y190335D01*
X342498Y190196D01*
X341902Y189798D01*
X341566Y189295D01*
X319847D01*
X316970Y192172D01*
X317035Y192500D01*
X316896Y193202D01*
X316498Y193798D01*
X315902Y194196D01*
X315200Y194335D01*
D02*
G37*
G36*
X403700Y187500D02*
X397731D01*
X397803Y186956D01*
X398206Y185983D01*
X398847Y185147D01*
X399683Y184506D01*
X400656Y184103D01*
X401700Y183966D01*
X403700D01*
Y187500D01*
D02*
G37*
G36*
X220669D02*
X214700D01*
Y183966D01*
X216700D01*
X217744Y184103D01*
X218717Y184506D01*
X219553Y185147D01*
X220194Y185983D01*
X220597Y186956D01*
X220669Y187500D01*
D02*
G37*
G36*
X216700Y172035D02*
X214700D01*
Y168500D01*
X220669D01*
X220597Y169044D01*
X220194Y170017D01*
X219553Y170853D01*
X218717Y171494D01*
X217744Y171897D01*
X216700Y172035D01*
D02*
G37*
G36*
X220669Y167500D02*
X214700D01*
Y163965D01*
X216700D01*
X217744Y164103D01*
X218717Y164506D01*
X219553Y165147D01*
X220194Y165983D01*
X220597Y166956D01*
X220669Y167500D01*
D02*
G37*
G36*
X403700Y162034D02*
X401700D01*
X400656Y161897D01*
X399683Y161494D01*
X398847Y160853D01*
X398206Y160017D01*
X397803Y159044D01*
X397731Y158500D01*
X403700D01*
Y162034D01*
D02*
G37*
G36*
Y157500D02*
X397731D01*
X397803Y156956D01*
X398206Y155983D01*
X398847Y155147D01*
X399683Y154506D01*
X400656Y154103D01*
X401700Y153965D01*
X403700D01*
Y157500D01*
D02*
G37*
G36*
X248200Y139585D02*
X247498Y139446D01*
X246902Y139048D01*
X246716Y138770D01*
X242184D01*
X241998Y139048D01*
X241402Y139446D01*
X240700Y139585D01*
X239998Y139446D01*
X239402Y139048D01*
X239004Y138452D01*
X238865Y137750D01*
X239004Y137048D01*
X239402Y136452D01*
X239998Y136054D01*
X240700Y135915D01*
X241402Y136054D01*
X241998Y136452D01*
X242184Y136730D01*
X246716D01*
X246902Y136452D01*
X247498Y136054D01*
X248200Y135915D01*
X248902Y136054D01*
X249498Y136452D01*
X249896Y137048D01*
X250035Y137750D01*
X249896Y138452D01*
X249498Y139048D01*
X248902Y139446D01*
X248200Y139585D01*
D02*
G37*
G36*
X403700Y142034D02*
X401700D01*
X400656Y141897D01*
X399683Y141494D01*
X398847Y140853D01*
X398206Y140017D01*
X397803Y139044D01*
X397731Y138500D01*
X403700D01*
Y142034D01*
D02*
G37*
G36*
Y137500D02*
X397731D01*
X397803Y136956D01*
X398206Y135983D01*
X398847Y135147D01*
X399683Y134506D01*
X400656Y134103D01*
X401700Y133966D01*
X403700D01*
Y137500D01*
D02*
G37*
G36*
X248200Y129835D02*
X247498Y129696D01*
X246902Y129298D01*
X246716Y129020D01*
X242684D01*
X242498Y129298D01*
X241902Y129696D01*
X241200Y129835D01*
X240498Y129696D01*
X239902Y129298D01*
X239504Y128702D01*
X239365Y128000D01*
X239504Y127298D01*
X239902Y126702D01*
X240498Y126304D01*
X241200Y126165D01*
X241902Y126304D01*
X242498Y126702D01*
X242684Y126980D01*
X246716D01*
X246902Y126702D01*
X247498Y126304D01*
X248200Y126165D01*
X248902Y126304D01*
X249498Y126702D01*
X249896Y127298D01*
X250035Y128000D01*
X249896Y128702D01*
X249498Y129298D01*
X248902Y129696D01*
X248200Y129835D01*
D02*
G37*
G36*
X340700Y139585D02*
X339998Y139446D01*
X339402Y139048D01*
X339004Y138452D01*
X338865Y137750D01*
X339004Y137048D01*
X339402Y136452D01*
X339998Y136054D01*
X340700Y135915D01*
X341402Y136054D01*
X341998Y136452D01*
X342184Y136730D01*
X353528D01*
X359430Y130828D01*
X359365Y130500D01*
X359504Y129798D01*
X359902Y129202D01*
X360498Y128804D01*
X361200Y128665D01*
X361902Y128804D01*
X362498Y129202D01*
X362896Y129798D01*
X363035Y130500D01*
X362896Y131202D01*
X362498Y131798D01*
X361902Y132196D01*
X361200Y132335D01*
X360872Y132270D01*
X354671Y138471D01*
X354340Y138692D01*
X353950Y138770D01*
X342184D01*
X341998Y139048D01*
X341402Y139446D01*
X340700Y139585D01*
D02*
G37*
G36*
X403700Y132035D02*
X401700D01*
X400656Y131897D01*
X399683Y131494D01*
X398847Y130853D01*
X398206Y130017D01*
X397803Y129044D01*
X397731Y128500D01*
X403700D01*
Y132035D01*
D02*
G37*
G36*
X340700Y135365D02*
X339998Y135225D01*
X339402Y134828D01*
X339004Y134232D01*
X338865Y133530D01*
X339004Y132828D01*
X339402Y132232D01*
X339998Y131834D01*
X340322Y131770D01*
Y131260D01*
X339998Y131196D01*
X339402Y130798D01*
X339004Y130202D01*
X338865Y129500D01*
X339004Y128798D01*
X339402Y128202D01*
X339998Y127804D01*
X340700Y127665D01*
X341402Y127804D01*
X341998Y128202D01*
X342184Y128480D01*
X351278D01*
X351930Y127828D01*
X351865Y127500D01*
X352004Y126798D01*
X352402Y126202D01*
X352998Y125804D01*
X353700Y125665D01*
X354402Y125804D01*
X354998Y126202D01*
X355396Y126798D01*
X355516Y127405D01*
X355619Y127484D01*
X355788Y127564D01*
X356020Y127623D01*
X356498Y127304D01*
X357200Y127165D01*
X357902Y127304D01*
X358498Y127702D01*
X358896Y128298D01*
X359035Y129000D01*
X358896Y129702D01*
X358498Y130298D01*
X357902Y130696D01*
X357200Y130835D01*
X356872Y130770D01*
X353391Y134251D01*
X353060Y134472D01*
X352670Y134549D01*
X342184D01*
X341998Y134828D01*
X341402Y135225D01*
X340700Y135365D01*
D02*
G37*
G36*
X403700Y127500D02*
X397731D01*
X397803Y126956D01*
X398206Y125983D01*
X398847Y125147D01*
X399683Y124506D01*
X400656Y124103D01*
X401700Y123966D01*
X403700D01*
Y127500D01*
D02*
G37*
G36*
X337700Y109386D02*
X336978Y109243D01*
X336366Y108834D01*
X335957Y108222D01*
X335814Y107500D01*
X335957Y106778D01*
X336366Y106166D01*
X336866Y105666D01*
X337478Y105257D01*
X338200Y105114D01*
X361200D01*
X361922Y105257D01*
X362534Y105666D01*
X362943Y106278D01*
X363086Y107000D01*
X362943Y107722D01*
X362534Y108334D01*
X361922Y108743D01*
X361200Y108886D01*
X338955D01*
X338422Y109243D01*
X337700Y109386D01*
D02*
G37*
G36*
X308200Y95335D02*
X307498Y95196D01*
X306902Y94798D01*
X306716Y94520D01*
X301656D01*
X301470Y94798D01*
X300875Y95196D01*
X300172Y95335D01*
X299470Y95196D01*
X298875Y94798D01*
X298477Y94202D01*
X298337Y93500D01*
X298477Y92798D01*
X298875Y92202D01*
X299470Y91804D01*
X300172Y91665D01*
X300875Y91804D01*
X301470Y92202D01*
X301656Y92480D01*
X306716D01*
X306902Y92202D01*
X307498Y91804D01*
X308200Y91665D01*
X308902Y91804D01*
X309498Y92202D01*
X309896Y92798D01*
X310035Y93500D01*
X309896Y94202D01*
X309498Y94798D01*
X308902Y95196D01*
X308200Y95335D01*
D02*
G37*
G36*
Y90835D02*
X307498Y90696D01*
X306902Y90298D01*
X306716Y90020D01*
X298666D01*
X298402Y90196D01*
X297700Y90335D01*
X296998Y90196D01*
X296402Y89798D01*
X296004Y89202D01*
X295865Y88500D01*
X296004Y87798D01*
X296402Y87202D01*
X296998Y86804D01*
X297700Y86665D01*
X298402Y86804D01*
X298998Y87202D01*
X299396Y87798D01*
X299432Y87980D01*
X306716D01*
X306902Y87702D01*
X307498Y87304D01*
X308200Y87165D01*
X308902Y87304D01*
X309498Y87702D01*
X309896Y88298D01*
X310035Y89000D01*
X309896Y89702D01*
X309498Y90298D01*
X308902Y90696D01*
X308200Y90835D01*
D02*
G37*
G36*
X216700Y82034D02*
X214700D01*
Y78500D01*
X220669D01*
X220597Y79044D01*
X220194Y80017D01*
X219553Y80853D01*
X218717Y81494D01*
X217744Y81897D01*
X216700Y82034D01*
D02*
G37*
G36*
X220669Y77500D02*
X214700D01*
Y73966D01*
X216700D01*
X217744Y74103D01*
X218717Y74506D01*
X219553Y75147D01*
X220194Y75983D01*
X220597Y76956D01*
X220669Y77500D01*
D02*
G37*
G36*
X403700Y72035D02*
X401700D01*
X400656Y71897D01*
X399683Y71494D01*
X398847Y70853D01*
X398206Y70017D01*
X397803Y69044D01*
X397731Y68500D01*
X403700D01*
Y72035D01*
D02*
G37*
G36*
X216700D02*
X214700D01*
Y68500D01*
X220669D01*
X220597Y69044D01*
X220194Y70017D01*
X219553Y70853D01*
X218717Y71494D01*
X217744Y71897D01*
X216700Y72035D01*
D02*
G37*
G36*
X403700Y67500D02*
X397731D01*
X397803Y66956D01*
X398206Y65983D01*
X398847Y65147D01*
X399683Y64506D01*
X400656Y64103D01*
X401700Y63965D01*
X403700D01*
Y67500D01*
D02*
G37*
G36*
X220669D02*
X214700D01*
Y63965D01*
X216700D01*
X217744Y64103D01*
X218717Y64506D01*
X219553Y65147D01*
X220194Y65983D01*
X220597Y66956D01*
X220669Y67500D01*
D02*
G37*
G36*
X403700Y62034D02*
X401700D01*
X400656Y61897D01*
X399683Y61494D01*
X398847Y60853D01*
X398206Y60017D01*
X397803Y59044D01*
X397731Y58500D01*
X403700D01*
Y62034D01*
D02*
G37*
G36*
Y57500D02*
X397731D01*
X397803Y56956D01*
X398206Y55983D01*
X398847Y55147D01*
X399683Y54506D01*
X400656Y54103D01*
X401700Y53966D01*
X403700D01*
Y57500D01*
D02*
G37*
G36*
X271775Y62835D02*
X271073Y62696D01*
X270477Y62298D01*
X270079Y61702D01*
X269940Y61000D01*
X270079Y60298D01*
X270477Y59702D01*
X271073Y59304D01*
X271775Y59165D01*
X272103Y59230D01*
X283873Y47460D01*
X284004Y46798D01*
X284402Y46202D01*
X284998Y45805D01*
X285700Y45665D01*
X286402Y45805D01*
X286998Y46202D01*
X287396Y46798D01*
X287535Y47500D01*
X287396Y48202D01*
X286998Y48798D01*
X286402Y49196D01*
X285700Y49335D01*
X285017Y49200D01*
X273545Y60672D01*
X273610Y61000D01*
X273470Y61702D01*
X273073Y62298D01*
X272477Y62696D01*
X271775Y62835D01*
D02*
G37*
G36*
X304200Y51140D02*
X302144Y50979D01*
X300139Y50497D01*
X298234Y49708D01*
X296476Y48631D01*
X294908Y47292D01*
X293569Y45724D01*
X292492Y43966D01*
X291703Y42061D01*
X291221Y40056D01*
X291059Y38000D01*
X291221Y35944D01*
X291703Y33939D01*
X292492Y32034D01*
X293569Y30276D01*
X294908Y28708D01*
X296476Y27369D01*
X298234Y26292D01*
X300139Y25503D01*
X302144Y25021D01*
X304200Y24859D01*
X306256Y25021D01*
X308261Y25503D01*
X310166Y26292D01*
X311924Y27369D01*
X313492Y28708D01*
X314831Y30276D01*
X315908Y32034D01*
X316697Y33939D01*
X317179Y35944D01*
X317340Y38000D01*
X317179Y40056D01*
X316697Y42061D01*
X315908Y43966D01*
X314831Y45724D01*
X313492Y47292D01*
X311924Y48631D01*
X310166Y49708D01*
X308261Y50497D01*
X306256Y50979D01*
X304200Y51140D01*
D02*
G37*
G36*
X304700Y14469D02*
Y8500D01*
X308235D01*
Y10500D01*
X308097Y11544D01*
X307694Y12517D01*
X307053Y13353D01*
X306217Y13994D01*
X305244Y14397D01*
X304700Y14469D01*
D02*
G37*
G36*
X294700D02*
Y8500D01*
X298235D01*
Y10500D01*
X298097Y11544D01*
X297694Y12517D01*
X297053Y13353D01*
X296217Y13994D01*
X295244Y14397D01*
X294700Y14469D01*
D02*
G37*
G36*
X303700D02*
X303156Y14397D01*
X302183Y13994D01*
X301347Y13353D01*
X300706Y12517D01*
X300303Y11544D01*
X300166Y10500D01*
Y8500D01*
X303700D01*
Y14469D01*
D02*
G37*
G36*
X293700D02*
X293156Y14397D01*
X292183Y13994D01*
X291347Y13353D01*
X290706Y12517D01*
X290303Y11544D01*
X290165Y10500D01*
Y8500D01*
X293700D01*
Y14469D01*
D02*
G37*
G36*
X197700Y222000D02*
X191700D01*
Y218500D01*
X197700D01*
Y222000D01*
D02*
G37*
G36*
Y217500D02*
X191700D01*
Y214000D01*
X197700D01*
Y217500D01*
D02*
G37*
G36*
X10700Y212035D02*
X8700D01*
Y208500D01*
X14669D01*
X14597Y209044D01*
X14194Y210017D01*
X13553Y210853D01*
X12717Y211494D01*
X11744Y211897D01*
X10700Y212035D01*
D02*
G37*
G36*
X14669Y207500D02*
X8700D01*
Y203965D01*
X10700D01*
X11744Y204103D01*
X12717Y204506D01*
X13553Y205147D01*
X14194Y205983D01*
X14597Y206956D01*
X14669Y207500D01*
D02*
G37*
G36*
X197700Y192034D02*
X195700D01*
X194656Y191897D01*
X193683Y191494D01*
X192847Y190853D01*
X192206Y190017D01*
X191803Y189044D01*
X191731Y188500D01*
X197700D01*
Y192034D01*
D02*
G37*
G36*
X10700D02*
X8700D01*
Y188500D01*
X14669D01*
X14597Y189044D01*
X14194Y190017D01*
X13553Y190853D01*
X12717Y191494D01*
X11744Y191897D01*
X10700Y192034D01*
D02*
G37*
G36*
X109200Y194335D02*
X108498Y194196D01*
X107902Y193798D01*
X107504Y193202D01*
X107365Y192500D01*
X107504Y191798D01*
X107902Y191202D01*
X108498Y190804D01*
X109200Y190665D01*
X109528Y190730D01*
X112703Y187555D01*
X113034Y187334D01*
X113424Y187256D01*
X135866D01*
X135902Y187202D01*
X136498Y186804D01*
X137200Y186665D01*
X137902Y186804D01*
X138498Y187202D01*
X138896Y187798D01*
X139035Y188500D01*
X138896Y189202D01*
X138498Y189798D01*
X137902Y190196D01*
X137200Y190335D01*
X136498Y190196D01*
X135902Y189798D01*
X135566Y189295D01*
X113847D01*
X110970Y192172D01*
X111035Y192500D01*
X110896Y193202D01*
X110498Y193798D01*
X109902Y194196D01*
X109200Y194335D01*
D02*
G37*
G36*
X197700Y187500D02*
X191731D01*
X191803Y186956D01*
X192206Y185983D01*
X192847Y185147D01*
X193683Y184506D01*
X194656Y184103D01*
X195700Y183966D01*
X197700D01*
Y187500D01*
D02*
G37*
G36*
X14669D02*
X8700D01*
Y183966D01*
X10700D01*
X11744Y184103D01*
X12717Y184506D01*
X13553Y185147D01*
X14194Y185983D01*
X14597Y186956D01*
X14669Y187500D01*
D02*
G37*
G36*
X10700Y172035D02*
X8700D01*
Y168500D01*
X14669D01*
X14597Y169044D01*
X14194Y170017D01*
X13553Y170853D01*
X12717Y171494D01*
X11744Y171897D01*
X10700Y172035D01*
D02*
G37*
G36*
X14669Y167500D02*
X8700D01*
Y163965D01*
X10700D01*
X11744Y164103D01*
X12717Y164506D01*
X13553Y165147D01*
X14194Y165983D01*
X14597Y166956D01*
X14669Y167500D01*
D02*
G37*
G36*
X197700Y162034D02*
X195700D01*
X194656Y161897D01*
X193683Y161494D01*
X192847Y160853D01*
X192206Y160017D01*
X191803Y159044D01*
X191731Y158500D01*
X197700D01*
Y162034D01*
D02*
G37*
G36*
Y157500D02*
X191731D01*
X191803Y156956D01*
X192206Y155983D01*
X192847Y155147D01*
X193683Y154506D01*
X194656Y154103D01*
X195700Y153965D01*
X197700D01*
Y157500D01*
D02*
G37*
G36*
X42200Y139585D02*
X41498Y139446D01*
X40902Y139048D01*
X40716Y138770D01*
X36184D01*
X35998Y139048D01*
X35402Y139446D01*
X34700Y139585D01*
X33998Y139446D01*
X33402Y139048D01*
X33004Y138452D01*
X32865Y137750D01*
X33004Y137048D01*
X33402Y136452D01*
X33998Y136054D01*
X34700Y135915D01*
X35402Y136054D01*
X35998Y136452D01*
X36184Y136730D01*
X40716D01*
X40902Y136452D01*
X41498Y136054D01*
X42200Y135915D01*
X42902Y136054D01*
X43498Y136452D01*
X43896Y137048D01*
X44035Y137750D01*
X43896Y138452D01*
X43498Y139048D01*
X42902Y139446D01*
X42200Y139585D01*
D02*
G37*
G36*
X197700Y142034D02*
X195700D01*
X194656Y141897D01*
X193683Y141494D01*
X192847Y140853D01*
X192206Y140017D01*
X191803Y139044D01*
X191731Y138500D01*
X197700D01*
Y142034D01*
D02*
G37*
G36*
Y137500D02*
X191731D01*
X191803Y136956D01*
X192206Y135983D01*
X192847Y135147D01*
X193683Y134506D01*
X194656Y134103D01*
X195700Y133966D01*
X197700D01*
Y137500D01*
D02*
G37*
G36*
X42200Y129835D02*
X41498Y129696D01*
X40902Y129298D01*
X40716Y129020D01*
X36684D01*
X36498Y129298D01*
X35902Y129696D01*
X35200Y129835D01*
X34498Y129696D01*
X33902Y129298D01*
X33504Y128702D01*
X33365Y128000D01*
X33504Y127298D01*
X33902Y126702D01*
X34498Y126304D01*
X35200Y126165D01*
X35902Y126304D01*
X36498Y126702D01*
X36684Y126980D01*
X40716D01*
X40902Y126702D01*
X41498Y126304D01*
X42200Y126165D01*
X42902Y126304D01*
X43498Y126702D01*
X43896Y127298D01*
X44035Y128000D01*
X43896Y128702D01*
X43498Y129298D01*
X42902Y129696D01*
X42200Y129835D01*
D02*
G37*
G36*
X134700Y139585D02*
X133998Y139446D01*
X133402Y139048D01*
X133004Y138452D01*
X132865Y137750D01*
X133004Y137048D01*
X133402Y136452D01*
X133998Y136054D01*
X134700Y135915D01*
X135402Y136054D01*
X135998Y136452D01*
X136184Y136730D01*
X147528D01*
X153430Y130828D01*
X153365Y130500D01*
X153504Y129798D01*
X153902Y129202D01*
X154498Y128804D01*
X155200Y128665D01*
X155902Y128804D01*
X156498Y129202D01*
X156896Y129798D01*
X157035Y130500D01*
X156896Y131202D01*
X156498Y131798D01*
X155902Y132196D01*
X155200Y132335D01*
X154872Y132270D01*
X148671Y138471D01*
X148340Y138692D01*
X147950Y138770D01*
X136184D01*
X135998Y139048D01*
X135402Y139446D01*
X134700Y139585D01*
D02*
G37*
G36*
X197700Y132035D02*
X195700D01*
X194656Y131897D01*
X193683Y131494D01*
X192847Y130853D01*
X192206Y130017D01*
X191803Y129044D01*
X191731Y128500D01*
X197700D01*
Y132035D01*
D02*
G37*
G36*
X134700Y135365D02*
X133998Y135225D01*
X133402Y134828D01*
X133004Y134232D01*
X132865Y133530D01*
X133004Y132828D01*
X133402Y132232D01*
X133998Y131834D01*
X134322Y131770D01*
Y131260D01*
X133998Y131196D01*
X133402Y130798D01*
X133004Y130202D01*
X132865Y129500D01*
X133004Y128798D01*
X133402Y128202D01*
X133998Y127804D01*
X134700Y127665D01*
X135402Y127804D01*
X135998Y128202D01*
X136184Y128480D01*
X145278D01*
X145930Y127828D01*
X145865Y127500D01*
X146004Y126798D01*
X146402Y126202D01*
X146998Y125804D01*
X147700Y125665D01*
X148402Y125804D01*
X148998Y126202D01*
X149396Y126798D01*
X149516Y127405D01*
X149619Y127484D01*
X149788Y127564D01*
X150021Y127623D01*
X150498Y127304D01*
X151200Y127165D01*
X151902Y127304D01*
X152498Y127702D01*
X152896Y128298D01*
X153035Y129000D01*
X152896Y129702D01*
X152498Y130298D01*
X151902Y130696D01*
X151200Y130835D01*
X150872Y130770D01*
X147391Y134251D01*
X147060Y134472D01*
X146670Y134549D01*
X136184D01*
X135998Y134828D01*
X135402Y135225D01*
X134700Y135365D01*
D02*
G37*
G36*
X197700Y127500D02*
X191731D01*
X191803Y126956D01*
X192206Y125983D01*
X192847Y125147D01*
X193683Y124506D01*
X194656Y124103D01*
X195700Y123966D01*
X197700D01*
Y127500D01*
D02*
G37*
G36*
X131700Y109386D02*
X130978Y109243D01*
X130366Y108834D01*
X129957Y108222D01*
X129814Y107500D01*
X129957Y106778D01*
X130366Y106166D01*
X130866Y105666D01*
X131478Y105257D01*
X132200Y105114D01*
X155200D01*
X155922Y105257D01*
X156534Y105666D01*
X156943Y106278D01*
X157086Y107000D01*
X156943Y107722D01*
X156534Y108334D01*
X155922Y108743D01*
X155200Y108886D01*
X132955D01*
X132422Y109243D01*
X131700Y109386D01*
D02*
G37*
G36*
X102200Y95335D02*
X101498Y95196D01*
X100902Y94798D01*
X100716Y94520D01*
X95656D01*
X95470Y94798D01*
X94875Y95196D01*
X94172Y95335D01*
X93470Y95196D01*
X92875Y94798D01*
X92477Y94202D01*
X92337Y93500D01*
X92477Y92798D01*
X92875Y92202D01*
X93470Y91804D01*
X94172Y91665D01*
X94875Y91804D01*
X95470Y92202D01*
X95656Y92480D01*
X100716D01*
X100902Y92202D01*
X101498Y91804D01*
X102200Y91665D01*
X102902Y91804D01*
X103498Y92202D01*
X103896Y92798D01*
X104035Y93500D01*
X103896Y94202D01*
X103498Y94798D01*
X102902Y95196D01*
X102200Y95335D01*
D02*
G37*
G36*
Y90835D02*
X101498Y90696D01*
X100902Y90298D01*
X100716Y90020D01*
X92666D01*
X92402Y90196D01*
X91700Y90335D01*
X90998Y90196D01*
X90402Y89798D01*
X90004Y89202D01*
X89865Y88500D01*
X90004Y87798D01*
X90402Y87202D01*
X90998Y86804D01*
X91700Y86665D01*
X92402Y86804D01*
X92998Y87202D01*
X93396Y87798D01*
X93432Y87980D01*
X100716D01*
X100902Y87702D01*
X101498Y87304D01*
X102200Y87165D01*
X102902Y87304D01*
X103498Y87702D01*
X103896Y88298D01*
X104035Y89000D01*
X103896Y89702D01*
X103498Y90298D01*
X102902Y90696D01*
X102200Y90835D01*
D02*
G37*
G36*
X10700Y82034D02*
X8700D01*
Y78500D01*
X14669D01*
X14597Y79044D01*
X14194Y80017D01*
X13553Y80853D01*
X12717Y81494D01*
X11744Y81897D01*
X10700Y82034D01*
D02*
G37*
G36*
X14669Y77500D02*
X8700D01*
Y73966D01*
X10700D01*
X11744Y74103D01*
X12717Y74506D01*
X13553Y75147D01*
X14194Y75983D01*
X14597Y76956D01*
X14669Y77500D01*
D02*
G37*
G36*
X197700Y72035D02*
X195700D01*
X194656Y71897D01*
X193683Y71494D01*
X192847Y70853D01*
X192206Y70017D01*
X191803Y69044D01*
X191731Y68500D01*
X197700D01*
Y72035D01*
D02*
G37*
G36*
X10700D02*
X8700D01*
Y68500D01*
X14669D01*
X14597Y69044D01*
X14194Y70017D01*
X13553Y70853D01*
X12717Y71494D01*
X11744Y71897D01*
X10700Y72035D01*
D02*
G37*
G36*
X197700Y67500D02*
X191731D01*
X191803Y66956D01*
X192206Y65983D01*
X192847Y65147D01*
X193683Y64506D01*
X194656Y64103D01*
X195700Y63965D01*
X197700D01*
Y67500D01*
D02*
G37*
G36*
X14669D02*
X8700D01*
Y63965D01*
X10700D01*
X11744Y64103D01*
X12717Y64506D01*
X13553Y65147D01*
X14194Y65983D01*
X14597Y66956D01*
X14669Y67500D01*
D02*
G37*
G36*
X197700Y62034D02*
X195700D01*
X194656Y61897D01*
X193683Y61494D01*
X192847Y60853D01*
X192206Y60017D01*
X191803Y59044D01*
X191731Y58500D01*
X197700D01*
Y62034D01*
D02*
G37*
G36*
Y57500D02*
X191731D01*
X191803Y56956D01*
X192206Y55983D01*
X192847Y55147D01*
X193683Y54506D01*
X194656Y54103D01*
X195700Y53966D01*
X197700D01*
Y57500D01*
D02*
G37*
G36*
X65775Y62835D02*
X65073Y62696D01*
X64477Y62298D01*
X64079Y61702D01*
X63939Y61000D01*
X64079Y60298D01*
X64477Y59702D01*
X65073Y59304D01*
X65775Y59165D01*
X66103Y59230D01*
X77873Y47460D01*
X78004Y46798D01*
X78402Y46202D01*
X78998Y45805D01*
X79700Y45665D01*
X80402Y45805D01*
X80998Y46202D01*
X81396Y46798D01*
X81535Y47500D01*
X81396Y48202D01*
X80998Y48798D01*
X80402Y49196D01*
X79700Y49335D01*
X79017Y49200D01*
X67545Y60672D01*
X67610Y61000D01*
X67470Y61702D01*
X67072Y62298D01*
X66477Y62696D01*
X65775Y62835D01*
D02*
G37*
G36*
X98200Y51140D02*
X96144Y50979D01*
X94139Y50497D01*
X92234Y49708D01*
X90476Y48631D01*
X88908Y47292D01*
X87569Y45724D01*
X86492Y43966D01*
X85703Y42061D01*
X85221Y40056D01*
X85059Y38000D01*
X85221Y35944D01*
X85703Y33939D01*
X86492Y32034D01*
X87569Y30276D01*
X88908Y28708D01*
X90476Y27369D01*
X92234Y26292D01*
X94139Y25503D01*
X96144Y25021D01*
X98200Y24859D01*
X100256Y25021D01*
X102261Y25503D01*
X104166Y26292D01*
X105924Y27369D01*
X107492Y28708D01*
X108831Y30276D01*
X109908Y32034D01*
X110697Y33939D01*
X111179Y35944D01*
X111340Y38000D01*
X111179Y40056D01*
X110697Y42061D01*
X109908Y43966D01*
X108831Y45724D01*
X107492Y47292D01*
X105924Y48631D01*
X104166Y49708D01*
X102261Y50497D01*
X100256Y50979D01*
X98200Y51140D01*
D02*
G37*
G36*
X98700Y14469D02*
Y8500D01*
X102234D01*
Y10500D01*
X102097Y11544D01*
X101694Y12517D01*
X101053Y13353D01*
X100217Y13994D01*
X99244Y14397D01*
X98700Y14469D01*
D02*
G37*
G36*
X88700D02*
Y8500D01*
X92234D01*
Y10500D01*
X92097Y11544D01*
X91694Y12517D01*
X91053Y13353D01*
X90217Y13994D01*
X89244Y14397D01*
X88700Y14469D01*
D02*
G37*
G36*
X97700D02*
X97156Y14397D01*
X96183Y13994D01*
X95347Y13353D01*
X94706Y12517D01*
X94303Y11544D01*
X94165Y10500D01*
Y8500D01*
X97700D01*
Y14469D01*
D02*
G37*
G36*
X87700D02*
X87156Y14397D01*
X86183Y13994D01*
X85347Y13353D01*
X84706Y12517D01*
X84303Y11544D01*
X84166Y10500D01*
Y8500D01*
X87700D01*
Y14469D01*
D02*
G37*
G36*
X218200Y14500D02*
X214700D01*
Y8500D01*
X218200D01*
Y14500D01*
D02*
G37*
G36*
X12200D02*
X8700D01*
Y8500D01*
X12200D01*
Y14500D01*
D02*
G37*
%LPD*%
D19*
X147950Y137750D02*
X155200Y130500D01*
X134700Y137750D02*
X147950D01*
X146670Y133530D02*
X151200Y129000D01*
X134700Y133530D02*
X146670D01*
X145700Y129500D02*
X147700Y127500D01*
X134700Y129500D02*
X145700D01*
X109200Y192500D02*
X113424Y188276D01*
X136976D01*
X79275Y47500D02*
X79700D01*
X65775Y61000D02*
X79275Y47500D01*
X35200Y128000D02*
X42200D01*
X136976Y188276D02*
X137200Y188500D01*
X91700Y88500D02*
X92133D01*
X92633Y89000D01*
X102200D01*
X94172Y93500D02*
X102200D01*
X34700Y137750D02*
X42200D01*
X353950D02*
X361200Y130500D01*
X340700Y137750D02*
X353950D01*
X352670Y133530D02*
X357200Y129000D01*
X340700Y133530D02*
X352670D01*
X351700Y129500D02*
X353700Y127500D01*
X340700Y129500D02*
X351700D01*
X315200Y192500D02*
X319424Y188276D01*
X342976D01*
X285275Y47500D02*
X285700D01*
X271775Y61000D02*
X285275Y47500D01*
X241200Y128000D02*
X248200D01*
X342976Y188276D02*
X343200Y188500D01*
X297700Y88500D02*
X298133D01*
X298633Y89000D01*
X308200D01*
X300172Y93500D02*
X308200D01*
X240700Y137750D02*
X248200D01*
X147950Y391750D02*
X155200Y384500D01*
X134700Y391750D02*
X147950D01*
X146670Y387530D02*
X151200Y383000D01*
X134700Y387530D02*
X146670D01*
X145700Y383500D02*
X147700Y381500D01*
X134700Y383500D02*
X145700D01*
X109200Y446500D02*
X113424Y442276D01*
X136976D01*
X79275Y301500D02*
X79700D01*
X65775Y315000D02*
X79275Y301500D01*
X35200Y382000D02*
X42200D01*
X136976Y442276D02*
X137200Y442500D01*
X91700Y342500D02*
X92133D01*
X92633Y343000D01*
X102200D01*
X94172Y347500D02*
X102200D01*
X34700Y391750D02*
X42200D01*
X353950D02*
X361200Y384500D01*
X340700Y391750D02*
X353950D01*
X352670Y387530D02*
X357200Y383000D01*
X340700Y387530D02*
X352670D01*
X351700Y383500D02*
X353700Y381500D01*
X340700Y383500D02*
X351700D01*
X315200Y446500D02*
X319424Y442276D01*
X342976D01*
X285275Y301500D02*
X285700D01*
X271775Y315000D02*
X285275Y301500D01*
X241200Y382000D02*
X248200D01*
X342976Y442276D02*
X343200Y442500D01*
X297700Y342500D02*
X298133D01*
X298633Y343000D01*
X308200D01*
X300172Y347500D02*
X308200D01*
X240700Y391750D02*
X248200D01*
D20*
X68700Y8500D02*
Y27000D01*
X68200Y8000D02*
X68700Y8500D01*
X67700Y28000D02*
X68700Y27000D01*
X8200Y28000D02*
X67700D01*
X274700Y8500D02*
Y27000D01*
X274200Y8000D02*
X274700Y8500D01*
X273700Y28000D02*
X274700Y27000D01*
X214200Y28000D02*
X273700D01*
X68700Y262500D02*
Y281000D01*
X68200Y262000D02*
X68700Y262500D01*
X67700Y282000D02*
X68700Y281000D01*
X8200Y282000D02*
X67700D01*
X274700Y262500D02*
Y281000D01*
X274200Y262000D02*
X274700Y262500D01*
X273700Y282000D02*
X274700Y281000D01*
X214200Y282000D02*
X273700D01*
D21*
X132200Y107000D02*
X142200D01*
X155200D01*
X131700Y107500D02*
X132200Y107000D01*
X338200D02*
X348200D01*
X361200D01*
X337700Y107500D02*
X338200Y107000D01*
X132200Y361000D02*
X142200D01*
X155200D01*
X131700Y361500D02*
X132200Y361000D01*
X338200D02*
X348200D01*
X361200D01*
X337700Y361500D02*
X338200Y361000D01*
D22*
X98200Y38000D02*
D03*
X28200Y238000D02*
D03*
X178200D02*
D03*
X304200Y38000D02*
D03*
X234200Y238000D02*
D03*
X384200D02*
D03*
X98200Y292000D02*
D03*
X28200Y492000D02*
D03*
X178200D02*
D03*
X304200Y292000D02*
D03*
X234200Y492000D02*
D03*
X384200D02*
D03*
D23*
X8200Y218000D02*
D03*
X198200D02*
D03*
X214200D02*
D03*
X404200D02*
D03*
X8200Y472000D02*
D03*
X198200D02*
D03*
X214200D02*
D03*
X404200D02*
D03*
D24*
X8200Y208000D02*
D03*
Y198000D02*
D03*
Y188000D02*
D03*
Y178000D02*
D03*
Y168000D02*
D03*
Y158000D02*
D03*
Y148000D02*
D03*
Y138000D02*
D03*
Y128000D02*
D03*
Y118000D02*
D03*
Y108000D02*
D03*
Y98000D02*
D03*
Y88000D02*
D03*
Y78000D02*
D03*
Y68000D02*
D03*
Y58000D02*
D03*
Y48000D02*
D03*
Y38000D02*
D03*
Y28000D02*
D03*
X198200Y208000D02*
D03*
Y198000D02*
D03*
Y188000D02*
D03*
Y178000D02*
D03*
Y168000D02*
D03*
Y158000D02*
D03*
Y148000D02*
D03*
Y138000D02*
D03*
Y128000D02*
D03*
Y118000D02*
D03*
Y108000D02*
D03*
Y98000D02*
D03*
Y88000D02*
D03*
Y78000D02*
D03*
Y68000D02*
D03*
Y58000D02*
D03*
Y48000D02*
D03*
Y38000D02*
D03*
Y28000D02*
D03*
X214200Y208000D02*
D03*
Y198000D02*
D03*
Y188000D02*
D03*
Y178000D02*
D03*
Y168000D02*
D03*
Y158000D02*
D03*
Y148000D02*
D03*
Y138000D02*
D03*
Y128000D02*
D03*
Y118000D02*
D03*
Y108000D02*
D03*
Y98000D02*
D03*
Y88000D02*
D03*
Y78000D02*
D03*
Y68000D02*
D03*
Y58000D02*
D03*
Y48000D02*
D03*
Y38000D02*
D03*
Y28000D02*
D03*
X404200Y208000D02*
D03*
Y198000D02*
D03*
Y188000D02*
D03*
Y178000D02*
D03*
Y168000D02*
D03*
Y158000D02*
D03*
Y148000D02*
D03*
Y138000D02*
D03*
Y128000D02*
D03*
Y118000D02*
D03*
Y108000D02*
D03*
Y98000D02*
D03*
Y88000D02*
D03*
Y78000D02*
D03*
Y68000D02*
D03*
Y58000D02*
D03*
Y48000D02*
D03*
Y38000D02*
D03*
Y28000D02*
D03*
X8200Y462000D02*
D03*
Y452000D02*
D03*
Y442000D02*
D03*
Y432000D02*
D03*
Y422000D02*
D03*
Y412000D02*
D03*
Y402000D02*
D03*
Y392000D02*
D03*
Y382000D02*
D03*
Y372000D02*
D03*
Y362000D02*
D03*
Y352000D02*
D03*
Y342000D02*
D03*
Y332000D02*
D03*
Y322000D02*
D03*
Y312000D02*
D03*
Y302000D02*
D03*
Y292000D02*
D03*
Y282000D02*
D03*
X198200Y462000D02*
D03*
Y452000D02*
D03*
Y442000D02*
D03*
Y432000D02*
D03*
Y422000D02*
D03*
Y412000D02*
D03*
Y402000D02*
D03*
Y392000D02*
D03*
Y382000D02*
D03*
Y372000D02*
D03*
Y362000D02*
D03*
Y352000D02*
D03*
Y342000D02*
D03*
Y332000D02*
D03*
Y322000D02*
D03*
Y312000D02*
D03*
Y302000D02*
D03*
Y292000D02*
D03*
Y282000D02*
D03*
X214200Y462000D02*
D03*
Y452000D02*
D03*
Y442000D02*
D03*
Y432000D02*
D03*
Y422000D02*
D03*
Y412000D02*
D03*
Y402000D02*
D03*
Y392000D02*
D03*
Y382000D02*
D03*
Y372000D02*
D03*
Y362000D02*
D03*
Y352000D02*
D03*
Y342000D02*
D03*
Y332000D02*
D03*
Y322000D02*
D03*
Y312000D02*
D03*
Y302000D02*
D03*
Y292000D02*
D03*
Y282000D02*
D03*
X404200Y462000D02*
D03*
Y452000D02*
D03*
Y442000D02*
D03*
Y432000D02*
D03*
Y422000D02*
D03*
Y412000D02*
D03*
Y402000D02*
D03*
Y392000D02*
D03*
Y382000D02*
D03*
Y372000D02*
D03*
Y362000D02*
D03*
Y352000D02*
D03*
Y342000D02*
D03*
Y332000D02*
D03*
Y322000D02*
D03*
Y312000D02*
D03*
Y302000D02*
D03*
Y292000D02*
D03*
Y282000D02*
D03*
D25*
X8200Y8000D02*
D03*
X214200D02*
D03*
X8200Y262000D02*
D03*
X214200D02*
D03*
D26*
X18200Y8000D02*
D03*
X28200D02*
D03*
X38200D02*
D03*
X48200D02*
D03*
X58200D02*
D03*
X68200D02*
D03*
X78200D02*
D03*
X88200D02*
D03*
X98200D02*
D03*
X108200D02*
D03*
X118200D02*
D03*
X128200D02*
D03*
X138200D02*
D03*
X148200D02*
D03*
X158200D02*
D03*
X168200D02*
D03*
X178200D02*
D03*
X188200D02*
D03*
X198200D02*
D03*
X224200D02*
D03*
X234200D02*
D03*
X244200D02*
D03*
X254200D02*
D03*
X264200D02*
D03*
X274200D02*
D03*
X284200D02*
D03*
X294200D02*
D03*
X304200D02*
D03*
X314200D02*
D03*
X324200D02*
D03*
X334200D02*
D03*
X344200D02*
D03*
X354200D02*
D03*
X364200D02*
D03*
X374200D02*
D03*
X384200D02*
D03*
X394200D02*
D03*
X404200D02*
D03*
X18200Y262000D02*
D03*
X28200D02*
D03*
X38200D02*
D03*
X48200D02*
D03*
X58200D02*
D03*
X68200D02*
D03*
X78200D02*
D03*
X88200D02*
D03*
X98200D02*
D03*
X108200D02*
D03*
X118200D02*
D03*
X128200D02*
D03*
X138200D02*
D03*
X148200D02*
D03*
X158200D02*
D03*
X168200D02*
D03*
X178200D02*
D03*
X188200D02*
D03*
X198200D02*
D03*
X224200D02*
D03*
X234200D02*
D03*
X244200D02*
D03*
X254200D02*
D03*
X264200D02*
D03*
X274200D02*
D03*
X284200D02*
D03*
X294200D02*
D03*
X304200D02*
D03*
X314200D02*
D03*
X324200D02*
D03*
X334200D02*
D03*
X344200D02*
D03*
X354200D02*
D03*
X364200D02*
D03*
X374200D02*
D03*
X384200D02*
D03*
X394200D02*
D03*
X404200D02*
D03*
D27*
X155200Y130500D02*
D03*
X151200Y129000D02*
D03*
X147700Y127500D02*
D03*
X142200Y107000D02*
D03*
X134700Y137750D02*
D03*
Y133530D02*
D03*
Y129500D02*
D03*
X83200Y178500D02*
D03*
X116306Y116000D02*
D03*
X133200Y167213D02*
D03*
X109200Y192500D02*
D03*
X78200Y179839D02*
D03*
X100200Y178850D02*
D03*
X107165Y179032D02*
D03*
X79700Y47500D02*
D03*
X65775Y61000D02*
D03*
X42200Y128000D02*
D03*
X127047Y98000D02*
D03*
X142700Y169575D02*
D03*
X147200Y174500D02*
D03*
X114846Y199000D02*
D03*
X131700Y107500D02*
D03*
X155200Y107000D02*
D03*
X137200Y188500D02*
D03*
X35200Y128000D02*
D03*
X34700Y137750D02*
D03*
X42200D02*
D03*
X94172Y93500D02*
D03*
X91700Y88500D02*
D03*
X102200Y89000D02*
D03*
Y93500D02*
D03*
X56200Y216846D02*
D03*
X46200Y217000D02*
D03*
X74200Y98150D02*
D03*
X90350Y98000D02*
D03*
X121700Y103000D02*
D03*
X109700Y98000D02*
D03*
X116700D02*
D03*
X142956Y155000D02*
D03*
X147200Y159500D02*
D03*
X160200Y199500D02*
D03*
X155200Y195000D02*
D03*
X146200Y194500D02*
D03*
X137200Y195000D02*
D03*
X132200Y199244D02*
D03*
X97322Y211138D02*
D03*
X116700Y210724D02*
D03*
X111495Y215000D02*
D03*
X102700Y215500D02*
D03*
X90350Y200256D02*
D03*
X72200D02*
D03*
X85700Y205000D02*
D03*
X77200D02*
D03*
X53444Y184000D02*
D03*
X46200Y155500D02*
D03*
X46700Y125000D02*
D03*
X361200Y130500D02*
D03*
X357200Y129000D02*
D03*
X353700Y127500D02*
D03*
X348200Y107000D02*
D03*
X340700Y137750D02*
D03*
Y133530D02*
D03*
Y129500D02*
D03*
X289200Y178500D02*
D03*
X322306Y116000D02*
D03*
X339200Y167213D02*
D03*
X315200Y192500D02*
D03*
X284200Y179839D02*
D03*
X306200Y178850D02*
D03*
X313165Y179032D02*
D03*
X285700Y47500D02*
D03*
X271775Y61000D02*
D03*
X248200Y128000D02*
D03*
X333047Y98000D02*
D03*
X348700Y169575D02*
D03*
X353200Y174500D02*
D03*
X320846Y199000D02*
D03*
X337700Y107500D02*
D03*
X361200Y107000D02*
D03*
X343200Y188500D02*
D03*
X241200Y128000D02*
D03*
X240700Y137750D02*
D03*
X248200D02*
D03*
X300172Y93500D02*
D03*
X297700Y88500D02*
D03*
X308200Y89000D02*
D03*
Y93500D02*
D03*
X262200Y216846D02*
D03*
X252200Y217000D02*
D03*
X280200Y98150D02*
D03*
X296350Y98000D02*
D03*
X327700Y103000D02*
D03*
X315700Y98000D02*
D03*
X322700D02*
D03*
X348956Y155000D02*
D03*
X353200Y159500D02*
D03*
X366200Y199500D02*
D03*
X361200Y195000D02*
D03*
X352200Y194500D02*
D03*
X343200Y195000D02*
D03*
X338200Y199244D02*
D03*
X303322Y211138D02*
D03*
X322700Y210724D02*
D03*
X317495Y215000D02*
D03*
X308700Y215500D02*
D03*
X296350Y200256D02*
D03*
X278200D02*
D03*
X291700Y205000D02*
D03*
X283200D02*
D03*
X259444Y184000D02*
D03*
X252200Y155500D02*
D03*
X252700Y125000D02*
D03*
X155200Y384500D02*
D03*
X151200Y383000D02*
D03*
X147700Y381500D02*
D03*
X142200Y361000D02*
D03*
X134700Y391750D02*
D03*
Y387530D02*
D03*
Y383500D02*
D03*
X83200Y432500D02*
D03*
X116306Y370000D02*
D03*
X133200Y421213D02*
D03*
X109200Y446500D02*
D03*
X78200Y433839D02*
D03*
X100200Y432850D02*
D03*
X107165Y433032D02*
D03*
X79700Y301500D02*
D03*
X65775Y315000D02*
D03*
X42200Y382000D02*
D03*
X127047Y352000D02*
D03*
X142700Y423575D02*
D03*
X147200Y428500D02*
D03*
X114846Y453000D02*
D03*
X131700Y361500D02*
D03*
X155200Y361000D02*
D03*
X137200Y442500D02*
D03*
X35200Y382000D02*
D03*
X34700Y391750D02*
D03*
X42200D02*
D03*
X94172Y347500D02*
D03*
X91700Y342500D02*
D03*
X102200Y343000D02*
D03*
Y347500D02*
D03*
X56200Y470847D02*
D03*
X46200Y471000D02*
D03*
X74200Y352150D02*
D03*
X90350Y352000D02*
D03*
X121700Y357000D02*
D03*
X109700Y352000D02*
D03*
X116700D02*
D03*
X142956Y409000D02*
D03*
X147200Y413500D02*
D03*
X160200Y453500D02*
D03*
X155200Y449000D02*
D03*
X146200Y448500D02*
D03*
X137200Y449000D02*
D03*
X132200Y453244D02*
D03*
X97322Y465138D02*
D03*
X116700Y464724D02*
D03*
X111495Y469000D02*
D03*
X102700Y469500D02*
D03*
X90350Y454256D02*
D03*
X72200D02*
D03*
X85700Y459000D02*
D03*
X77200D02*
D03*
X53444Y438000D02*
D03*
X46200Y409500D02*
D03*
X46700Y379000D02*
D03*
X361200Y384500D02*
D03*
X357200Y383000D02*
D03*
X353700Y381500D02*
D03*
X348200Y361000D02*
D03*
X340700Y391750D02*
D03*
Y387530D02*
D03*
Y383500D02*
D03*
X289200Y432500D02*
D03*
X322306Y370000D02*
D03*
X339200Y421213D02*
D03*
X315200Y446500D02*
D03*
X284200Y433839D02*
D03*
X306200Y432850D02*
D03*
X313165Y433032D02*
D03*
X285700Y301500D02*
D03*
X271775Y315000D02*
D03*
X248200Y382000D02*
D03*
X333047Y352000D02*
D03*
X348700Y423575D02*
D03*
X353200Y428500D02*
D03*
X320846Y453000D02*
D03*
X337700Y361500D02*
D03*
X361200Y361000D02*
D03*
X343200Y442500D02*
D03*
X241200Y382000D02*
D03*
X240700Y391750D02*
D03*
X248200D02*
D03*
X300172Y347500D02*
D03*
X297700Y342500D02*
D03*
X308200Y343000D02*
D03*
Y347500D02*
D03*
X262200Y470847D02*
D03*
X252200Y471000D02*
D03*
X280200Y352150D02*
D03*
X296350Y352000D02*
D03*
X327700Y357000D02*
D03*
X315700Y352000D02*
D03*
X322700D02*
D03*
X348956Y409000D02*
D03*
X353200Y413500D02*
D03*
X366200Y453500D02*
D03*
X361200Y449000D02*
D03*
X352200Y448500D02*
D03*
X343200Y449000D02*
D03*
X338200Y453244D02*
D03*
X303322Y465138D02*
D03*
X322700Y464724D02*
D03*
X317495Y469000D02*
D03*
X308700Y469500D02*
D03*
X296350Y454256D02*
D03*
X278200D02*
D03*
X291700Y459000D02*
D03*
X283200D02*
D03*
X259444Y438000D02*
D03*
X252200Y409500D02*
D03*
X252700Y379000D02*
D03*
D28*
X99488Y157567D02*
D03*
Y153237D02*
D03*
X95157Y157567D02*
D03*
X95157Y153237D02*
D03*
X305488Y157567D02*
D03*
Y153237D02*
D03*
X301157Y157567D02*
D03*
X301157Y153237D02*
D03*
X99488Y411567D02*
D03*
Y407236D02*
D03*
X95157Y411567D02*
D03*
X95157Y407236D02*
D03*
X305488Y411567D02*
D03*
Y407236D02*
D03*
X301157Y411567D02*
D03*
X301157Y407236D02*
D03*
M02*
