G04*
G04 #@! TF.GenerationSoftware,Altium Limited,Altium Designer,21.8.1 (53)*
G04*
G04 Layer_Physical_Order=1*
G04 Layer_Color=255*
%FSLAX25Y25*%
%MOIN*%
G70*
G04*
G04 #@! TF.SameCoordinates,8FA63536-6A95-4487-AB72-3BC32280AE34*
G04*
G04*
G04 #@! TF.FilePolarity,Positive*
G04*
G01*
G75*
%ADD10C,0.05000*%
%ADD11O,0.01181X0.05512*%
%ADD12O,0.05512X0.01181*%
%ADD13R,0.12992X0.12992*%
%ADD14R,0.03740X0.02953*%
G04:AMPARAMS|DCode=15|XSize=39.37mil|YSize=35.43mil|CornerRadius=4.43mil|HoleSize=0mil|Usage=FLASHONLY|Rotation=0.000|XOffset=0mil|YOffset=0mil|HoleType=Round|Shape=RoundedRectangle|*
%AMROUNDEDRECTD15*
21,1,0.03937,0.02657,0,0,0.0*
21,1,0.03051,0.03543,0,0,0.0*
1,1,0.00886,0.01526,-0.01329*
1,1,0.00886,-0.01526,-0.01329*
1,1,0.00886,-0.01526,0.01329*
1,1,0.00886,0.01526,0.01329*
%
%ADD15ROUNDEDRECTD15*%
%ADD16R,0.02953X0.03740*%
G04:AMPARAMS|DCode=17|XSize=39.37mil|YSize=35.43mil|CornerRadius=4.43mil|HoleSize=0mil|Usage=FLASHONLY|Rotation=270.000|XOffset=0mil|YOffset=0mil|HoleType=Round|Shape=RoundedRectangle|*
%AMROUNDEDRECTD17*
21,1,0.03937,0.02657,0,0,270.0*
21,1,0.03051,0.03543,0,0,270.0*
1,1,0.00886,-0.01329,-0.01526*
1,1,0.00886,-0.01329,0.01526*
1,1,0.00886,0.01329,0.01526*
1,1,0.00886,0.01329,-0.01526*
%
%ADD17ROUNDEDRECTD17*%
%ADD18C,0.02000*%
%ADD19C,0.00800*%
%ADD20C,0.01200*%
%ADD21C,0.02500*%
%ADD22C,0.25000*%
%ADD23R,0.11000X0.06000*%
%ADD24O,0.11000X0.06000*%
%ADD25R,0.06000X0.11000*%
%ADD26O,0.06000X0.11000*%
%ADD27C,0.02400*%
%ADD28C,0.02362*%
D10*
X-7874Y500000D02*
D03*
X419874D02*
D03*
X-7874Y244094D02*
D03*
X419874D02*
D03*
Y11811D02*
D03*
X-7874D02*
D03*
D11*
X120944Y125087D02*
D03*
X118976D02*
D03*
X117007D02*
D03*
X115039D02*
D03*
X113070D02*
D03*
X111102D02*
D03*
X109133D02*
D03*
X107165D02*
D03*
X105196D02*
D03*
X103228D02*
D03*
X101259D02*
D03*
X99291D02*
D03*
X97322D02*
D03*
X95354D02*
D03*
X93385D02*
D03*
X91417D02*
D03*
X89448D02*
D03*
X87480D02*
D03*
X85511D02*
D03*
X83543D02*
D03*
X81574D02*
D03*
X79606D02*
D03*
X77637D02*
D03*
X75669D02*
D03*
X73700D02*
D03*
Y185716D02*
D03*
X75669D02*
D03*
X77637D02*
D03*
X79606D02*
D03*
X81574D02*
D03*
X83543D02*
D03*
X85511D02*
D03*
X87480D02*
D03*
X89448D02*
D03*
X91417D02*
D03*
X93385D02*
D03*
X95354D02*
D03*
X97322D02*
D03*
X99291D02*
D03*
X101259D02*
D03*
X103228D02*
D03*
X105196D02*
D03*
X107165D02*
D03*
X109133D02*
D03*
X111102D02*
D03*
X113070D02*
D03*
X115039D02*
D03*
X117007D02*
D03*
X118976D02*
D03*
X120944D02*
D03*
X326944Y125087D02*
D03*
X324976D02*
D03*
X323007D02*
D03*
X321039D02*
D03*
X319070D02*
D03*
X317102D02*
D03*
X315133D02*
D03*
X313165D02*
D03*
X311196D02*
D03*
X309228D02*
D03*
X307259D02*
D03*
X305291D02*
D03*
X303322D02*
D03*
X301354D02*
D03*
X299385D02*
D03*
X297416D02*
D03*
X295448D02*
D03*
X293479D02*
D03*
X291511D02*
D03*
X289543D02*
D03*
X287574D02*
D03*
X285606D02*
D03*
X283637D02*
D03*
X281668D02*
D03*
X279700D02*
D03*
Y185716D02*
D03*
X281668D02*
D03*
X283637D02*
D03*
X285606D02*
D03*
X287574D02*
D03*
X289543D02*
D03*
X291511D02*
D03*
X293479D02*
D03*
X295448D02*
D03*
X297416D02*
D03*
X299385D02*
D03*
X301354D02*
D03*
X303322D02*
D03*
X305291D02*
D03*
X307259D02*
D03*
X309228D02*
D03*
X311196D02*
D03*
X313165D02*
D03*
X315133D02*
D03*
X317102D02*
D03*
X319070D02*
D03*
X321039D02*
D03*
X323007D02*
D03*
X324976D02*
D03*
X326944D02*
D03*
X120944Y379087D02*
D03*
X118976D02*
D03*
X117007D02*
D03*
X115039D02*
D03*
X113070D02*
D03*
X111102D02*
D03*
X109133D02*
D03*
X107165D02*
D03*
X105196D02*
D03*
X103228D02*
D03*
X101259D02*
D03*
X99291D02*
D03*
X97322D02*
D03*
X95354D02*
D03*
X93385D02*
D03*
X91417D02*
D03*
X89448D02*
D03*
X87480D02*
D03*
X85511D02*
D03*
X83543D02*
D03*
X81574D02*
D03*
X79606D02*
D03*
X77637D02*
D03*
X75669D02*
D03*
X73700D02*
D03*
Y439716D02*
D03*
X75669D02*
D03*
X77637D02*
D03*
X79606D02*
D03*
X81574D02*
D03*
X83543D02*
D03*
X85511D02*
D03*
X87480D02*
D03*
X89448D02*
D03*
X91417D02*
D03*
X93385D02*
D03*
X95354D02*
D03*
X97322D02*
D03*
X99291D02*
D03*
X101259D02*
D03*
X103228D02*
D03*
X105196D02*
D03*
X107165D02*
D03*
X109133D02*
D03*
X111102D02*
D03*
X113070D02*
D03*
X115039D02*
D03*
X117007D02*
D03*
X118976D02*
D03*
X120944D02*
D03*
X326944Y379087D02*
D03*
X324976D02*
D03*
X323007D02*
D03*
X321039D02*
D03*
X319070D02*
D03*
X317102D02*
D03*
X315133D02*
D03*
X313165D02*
D03*
X311196D02*
D03*
X309228D02*
D03*
X307259D02*
D03*
X305291D02*
D03*
X303322D02*
D03*
X301354D02*
D03*
X299385D02*
D03*
X297416D02*
D03*
X295448D02*
D03*
X293479D02*
D03*
X291511D02*
D03*
X289543D02*
D03*
X287574D02*
D03*
X285606D02*
D03*
X283637D02*
D03*
X281668D02*
D03*
X279700D02*
D03*
Y439716D02*
D03*
X281668D02*
D03*
X283637D02*
D03*
X285606D02*
D03*
X287574D02*
D03*
X289543D02*
D03*
X291511D02*
D03*
X293479D02*
D03*
X295448D02*
D03*
X297416D02*
D03*
X299385D02*
D03*
X301354D02*
D03*
X303322D02*
D03*
X305291D02*
D03*
X307259D02*
D03*
X309228D02*
D03*
X311196D02*
D03*
X313165D02*
D03*
X315133D02*
D03*
X317102D02*
D03*
X319070D02*
D03*
X321039D02*
D03*
X323007D02*
D03*
X324976D02*
D03*
X326944D02*
D03*
D12*
X67007Y131780D02*
D03*
Y133748D02*
D03*
Y135716D02*
D03*
Y137685D02*
D03*
Y139654D02*
D03*
Y141622D02*
D03*
Y143591D02*
D03*
Y145559D02*
D03*
Y147528D02*
D03*
Y149496D02*
D03*
Y151465D02*
D03*
Y153433D02*
D03*
Y155402D02*
D03*
Y157370D02*
D03*
Y159339D02*
D03*
Y161307D02*
D03*
Y163276D02*
D03*
Y165244D02*
D03*
Y167213D02*
D03*
Y169181D02*
D03*
Y171150D02*
D03*
Y173118D02*
D03*
Y175087D02*
D03*
Y177055D02*
D03*
Y179024D02*
D03*
X127637D02*
D03*
Y177055D02*
D03*
Y175087D02*
D03*
Y173118D02*
D03*
Y171150D02*
D03*
Y169181D02*
D03*
Y167213D02*
D03*
Y165244D02*
D03*
Y163276D02*
D03*
Y161307D02*
D03*
Y159339D02*
D03*
Y157370D02*
D03*
Y155402D02*
D03*
Y153433D02*
D03*
Y151465D02*
D03*
Y149496D02*
D03*
Y147528D02*
D03*
Y145559D02*
D03*
Y143591D02*
D03*
Y141622D02*
D03*
Y139654D02*
D03*
Y137685D02*
D03*
Y135716D02*
D03*
Y133748D02*
D03*
Y131780D02*
D03*
X273007D02*
D03*
Y133748D02*
D03*
Y135716D02*
D03*
Y137685D02*
D03*
Y139654D02*
D03*
Y141622D02*
D03*
Y143591D02*
D03*
Y145559D02*
D03*
Y147528D02*
D03*
Y149496D02*
D03*
Y151465D02*
D03*
Y153433D02*
D03*
Y155402D02*
D03*
Y157370D02*
D03*
Y159339D02*
D03*
Y161307D02*
D03*
Y163276D02*
D03*
Y165244D02*
D03*
Y167213D02*
D03*
Y169181D02*
D03*
Y171150D02*
D03*
Y173118D02*
D03*
Y175087D02*
D03*
Y177055D02*
D03*
Y179024D02*
D03*
X333637D02*
D03*
Y177055D02*
D03*
Y175087D02*
D03*
Y173118D02*
D03*
Y171150D02*
D03*
Y169181D02*
D03*
Y167213D02*
D03*
Y165244D02*
D03*
Y163276D02*
D03*
Y161307D02*
D03*
Y159339D02*
D03*
Y157370D02*
D03*
Y155402D02*
D03*
Y153433D02*
D03*
Y151465D02*
D03*
Y149496D02*
D03*
Y147528D02*
D03*
Y145559D02*
D03*
Y143591D02*
D03*
Y141622D02*
D03*
Y139654D02*
D03*
Y137685D02*
D03*
Y135716D02*
D03*
Y133748D02*
D03*
Y131780D02*
D03*
X67007Y385780D02*
D03*
Y387748D02*
D03*
Y389717D02*
D03*
Y391685D02*
D03*
Y393653D02*
D03*
Y395622D02*
D03*
Y397591D02*
D03*
Y399559D02*
D03*
Y401528D02*
D03*
Y403496D02*
D03*
Y405465D02*
D03*
Y407433D02*
D03*
Y409402D02*
D03*
Y411370D02*
D03*
Y413339D02*
D03*
Y415307D02*
D03*
Y417276D02*
D03*
Y419244D02*
D03*
Y421213D02*
D03*
Y423181D02*
D03*
Y425150D02*
D03*
Y427118D02*
D03*
Y429087D02*
D03*
Y431055D02*
D03*
Y433024D02*
D03*
X127637D02*
D03*
Y431055D02*
D03*
Y429087D02*
D03*
Y427118D02*
D03*
Y425150D02*
D03*
Y423181D02*
D03*
Y421213D02*
D03*
Y419244D02*
D03*
Y417276D02*
D03*
Y415307D02*
D03*
Y413339D02*
D03*
Y411370D02*
D03*
Y409402D02*
D03*
Y407433D02*
D03*
Y405465D02*
D03*
Y403496D02*
D03*
Y401528D02*
D03*
Y399559D02*
D03*
Y397591D02*
D03*
Y395622D02*
D03*
Y393653D02*
D03*
Y391685D02*
D03*
Y389717D02*
D03*
Y387748D02*
D03*
Y385780D02*
D03*
X273007D02*
D03*
Y387748D02*
D03*
Y389717D02*
D03*
Y391685D02*
D03*
Y393653D02*
D03*
Y395622D02*
D03*
Y397591D02*
D03*
Y399559D02*
D03*
Y401528D02*
D03*
Y403496D02*
D03*
Y405465D02*
D03*
Y407433D02*
D03*
Y409402D02*
D03*
Y411370D02*
D03*
Y413339D02*
D03*
Y415307D02*
D03*
Y417276D02*
D03*
Y419244D02*
D03*
Y421213D02*
D03*
Y423181D02*
D03*
Y425150D02*
D03*
Y427118D02*
D03*
Y429087D02*
D03*
Y431055D02*
D03*
Y433024D02*
D03*
X333637D02*
D03*
Y431055D02*
D03*
Y429087D02*
D03*
Y427118D02*
D03*
Y425150D02*
D03*
Y423181D02*
D03*
Y421213D02*
D03*
Y419244D02*
D03*
Y417276D02*
D03*
Y415307D02*
D03*
Y413339D02*
D03*
Y411370D02*
D03*
Y409402D02*
D03*
Y407433D02*
D03*
Y405465D02*
D03*
Y403496D02*
D03*
Y401528D02*
D03*
Y399559D02*
D03*
Y397591D02*
D03*
Y395622D02*
D03*
Y393653D02*
D03*
Y391685D02*
D03*
Y389717D02*
D03*
Y387748D02*
D03*
Y385780D02*
D03*
D13*
X97322Y155402D02*
D03*
X303322D02*
D03*
X97322Y409402D02*
D03*
X303322D02*
D03*
D14*
X127200Y102744D02*
D03*
Y108256D02*
D03*
X116700Y102744D02*
D03*
Y108256D02*
D03*
X109700D02*
D03*
Y102744D02*
D03*
X90200Y108256D02*
D03*
Y102744D02*
D03*
X74200Y108256D02*
D03*
Y102744D02*
D03*
X155200Y204756D02*
D03*
Y199244D02*
D03*
X146200Y204756D02*
D03*
Y199244D02*
D03*
X137200Y204756D02*
D03*
Y199244D02*
D03*
X111495Y205213D02*
D03*
Y210724D02*
D03*
X102700Y205500D02*
D03*
Y211012D02*
D03*
X85700Y194744D02*
D03*
Y200256D02*
D03*
X77200Y194744D02*
D03*
Y200256D02*
D03*
X333200Y102744D02*
D03*
Y108256D02*
D03*
X322700Y102744D02*
D03*
Y108256D02*
D03*
X315700D02*
D03*
Y102744D02*
D03*
X296200Y108256D02*
D03*
Y102744D02*
D03*
X280200Y108256D02*
D03*
Y102744D02*
D03*
X361200Y204756D02*
D03*
Y199244D02*
D03*
X352200Y204756D02*
D03*
Y199244D02*
D03*
X343200Y204756D02*
D03*
Y199244D02*
D03*
X317495Y205213D02*
D03*
Y210724D02*
D03*
X308700Y205500D02*
D03*
Y211012D02*
D03*
X291700Y194744D02*
D03*
Y200256D02*
D03*
X283200Y194744D02*
D03*
Y200256D02*
D03*
X127200Y356744D02*
D03*
Y362256D02*
D03*
X116700Y356744D02*
D03*
Y362256D02*
D03*
X109700D02*
D03*
Y356744D02*
D03*
X90200Y362256D02*
D03*
Y356744D02*
D03*
X74200Y362256D02*
D03*
Y356744D02*
D03*
X155200Y458756D02*
D03*
Y453244D02*
D03*
X146200Y458756D02*
D03*
Y453244D02*
D03*
X137200Y458756D02*
D03*
Y453244D02*
D03*
X111495Y459213D02*
D03*
Y464724D02*
D03*
X102700Y459500D02*
D03*
Y465012D02*
D03*
X85700Y448744D02*
D03*
Y454256D02*
D03*
X77200Y448744D02*
D03*
Y454256D02*
D03*
X333200Y356744D02*
D03*
Y362256D02*
D03*
X322700Y356744D02*
D03*
Y362256D02*
D03*
X315700D02*
D03*
Y356744D02*
D03*
X296200Y362256D02*
D03*
Y356744D02*
D03*
X280200Y362256D02*
D03*
Y356744D02*
D03*
X361200Y458756D02*
D03*
Y453244D02*
D03*
X352200Y458756D02*
D03*
Y453244D02*
D03*
X343200Y458756D02*
D03*
Y453244D02*
D03*
X317495Y459213D02*
D03*
Y464724D02*
D03*
X308700Y459500D02*
D03*
Y465012D02*
D03*
X291700Y448744D02*
D03*
Y454256D02*
D03*
X283200Y448744D02*
D03*
Y454256D02*
D03*
D15*
X62700Y101654D02*
D03*
Y108346D02*
D03*
X51200Y210154D02*
D03*
Y216846D02*
D03*
X268700Y101654D02*
D03*
Y108346D02*
D03*
X257200Y210154D02*
D03*
Y216846D02*
D03*
X62700Y355654D02*
D03*
Y362347D02*
D03*
X51200Y464154D02*
D03*
Y470847D02*
D03*
X268700Y355654D02*
D03*
Y362347D02*
D03*
X257200Y464154D02*
D03*
Y470847D02*
D03*
D16*
X137444Y159500D02*
D03*
X142956D02*
D03*
X142456Y174299D02*
D03*
X136944D02*
D03*
X110102Y199000D02*
D03*
X104590D02*
D03*
X53444Y179000D02*
D03*
X58956D02*
D03*
X56456Y155500D02*
D03*
X50944D02*
D03*
X51444Y125000D02*
D03*
X56956D02*
D03*
X343444Y159500D02*
D03*
X348956D02*
D03*
X348456Y174299D02*
D03*
X342944D02*
D03*
X316102Y199000D02*
D03*
X310590D02*
D03*
X259444Y179000D02*
D03*
X264956D02*
D03*
X262456Y155500D02*
D03*
X256944D02*
D03*
X257444Y125000D02*
D03*
X262956D02*
D03*
X137444Y413500D02*
D03*
X142956D02*
D03*
X142456Y428299D02*
D03*
X136944D02*
D03*
X110102Y453000D02*
D03*
X104590D02*
D03*
X53444Y433000D02*
D03*
X58956D02*
D03*
X56456Y409500D02*
D03*
X50944D02*
D03*
X51444Y379000D02*
D03*
X56956D02*
D03*
X343444Y413500D02*
D03*
X348956D02*
D03*
X348456Y428299D02*
D03*
X342944D02*
D03*
X316102Y453000D02*
D03*
X310590D02*
D03*
X259444Y433000D02*
D03*
X264956D02*
D03*
X262456Y409500D02*
D03*
X256944D02*
D03*
X257444Y379000D02*
D03*
X262956D02*
D03*
D17*
X153047Y181000D02*
D03*
X146353D02*
D03*
X120353Y204756D02*
D03*
X127047D02*
D03*
X44546Y178500D02*
D03*
X37854D02*
D03*
X44546Y198000D02*
D03*
X37854D02*
D03*
X359047Y181000D02*
D03*
X352354D02*
D03*
X326354Y204756D02*
D03*
X333047D02*
D03*
X250547Y178500D02*
D03*
X243853D02*
D03*
X250547Y198000D02*
D03*
X243853D02*
D03*
X153047Y435000D02*
D03*
X146353D02*
D03*
X120353Y458756D02*
D03*
X127047D02*
D03*
X44546Y432500D02*
D03*
X37854D02*
D03*
X44546Y452000D02*
D03*
X37854D02*
D03*
X359047Y435000D02*
D03*
X352354D02*
D03*
X326354Y458756D02*
D03*
X333047D02*
D03*
X250547Y432500D02*
D03*
X243853D02*
D03*
X250547Y452000D02*
D03*
X243853D02*
D03*
D18*
X81450Y194744D02*
X85700D01*
X77200D02*
X81450D01*
X137444Y174299D02*
Y179032D01*
Y159894D02*
Y174299D01*
X121200Y108732D02*
X130359D01*
X116200D02*
X121200D01*
X89700Y133000D02*
X118528D01*
X79200D02*
X89700D01*
X77200Y144000D02*
Y173000D01*
Y135000D02*
Y144000D01*
X119700Y133500D02*
Y134172D01*
Y133500D02*
X131700Y121500D01*
X110025Y108256D02*
X113200D01*
X116306D01*
X136328Y183500D02*
X137200D01*
X125700D02*
X136328D01*
X137200D02*
X137444Y183256D01*
X119700Y177500D02*
X125700Y183500D01*
X119700Y134172D02*
Y177500D01*
X118528Y133000D02*
X119700Y134172D01*
X77200Y135000D02*
X79200Y133000D01*
X137444Y181000D02*
Y183256D01*
Y179032D02*
Y181000D01*
X95354Y192000D02*
Y203654D01*
X127047Y98000D02*
X127200Y98154D01*
Y102744D01*
X121700Y103000D02*
X121808D01*
X122064Y102744D01*
X127200D01*
X142700Y169575D02*
Y169683D01*
X142456Y169927D02*
X142700Y169683D01*
X142456Y169927D02*
Y174299D01*
X147092Y174500D02*
X147200D01*
X146891Y174299D02*
X147092Y174500D01*
X142456Y174299D02*
X146891D01*
X110102Y199000D02*
X114846D01*
X136944Y174299D02*
X137444D01*
X131700Y107500D02*
Y121500D01*
X131592Y107500D02*
X131700D01*
X130359Y108732D02*
X131592Y107500D01*
X127791Y205500D02*
X169200D01*
X127700Y205410D02*
X127791Y205500D01*
X127700Y205410D02*
Y209500D01*
X127047Y204756D02*
X127700Y205410D01*
Y209500D02*
X129338Y211138D01*
X174062D01*
X185050Y178850D02*
X185901Y178000D01*
X173200Y190701D02*
X185050Y178850D01*
X184700Y178500D02*
X185050Y178850D01*
X184700Y169172D02*
Y178500D01*
Y169172D02*
X185872Y168000D01*
X198200D01*
X169200Y205500D02*
X173200Y201500D01*
Y190701D02*
Y201500D01*
X185901Y178000D02*
X198200D01*
X174062Y211138D02*
X186200Y199000D01*
X102700Y205500D02*
X119609D01*
X180200Y215000D02*
X187200Y208000D01*
X126700Y215000D02*
X180200D01*
X120700Y209000D02*
X126700Y215000D01*
X187700Y148906D02*
X192528D01*
X192669Y148765D01*
X197435D01*
X198200Y148000D01*
X184200Y145405D02*
X187700Y148906D01*
X184200Y121000D02*
Y145405D01*
Y121000D02*
X187200Y118000D01*
X198200D01*
X116200Y108732D02*
X116432Y108500D01*
X90350Y108256D02*
X90826Y108732D01*
X90200Y108256D02*
X90350D01*
X116676D02*
X116700D01*
X120700Y205102D02*
Y209000D01*
X120353Y204756D02*
X120700Y205102D01*
X187200Y208000D02*
X198200D01*
X186200Y199000D02*
X192528D01*
X192763Y198765D01*
X197435D01*
X198200Y198000D01*
X97200Y205500D02*
X102700D01*
X119609D02*
X120353Y204756D01*
X95354Y203654D02*
X97200Y205500D01*
X287450Y194744D02*
X291700D01*
X283200D02*
X287450D01*
X343444Y174299D02*
Y179032D01*
Y159894D02*
Y174299D01*
X327200Y108732D02*
X336360D01*
X322200D02*
X327200D01*
X295700Y133000D02*
X324528D01*
X285200D02*
X295700D01*
X283200Y144000D02*
Y173000D01*
Y135000D02*
Y144000D01*
X325700Y133500D02*
Y134172D01*
Y133500D02*
X337700Y121500D01*
X316025Y108256D02*
X319200D01*
X322306D01*
X342328Y183500D02*
X343200D01*
X331700D02*
X342328D01*
X343200D02*
X343444Y183256D01*
X325700Y177500D02*
X331700Y183500D01*
X325700Y134172D02*
Y177500D01*
X324528Y133000D02*
X325700Y134172D01*
X283200Y135000D02*
X285200Y133000D01*
X343444Y181000D02*
Y183256D01*
Y179032D02*
Y181000D01*
X301354Y192000D02*
Y203654D01*
X333047Y98000D02*
X333200Y98154D01*
Y102744D01*
X327700Y103000D02*
X327808D01*
X328064Y102744D01*
X333200D01*
X348700Y169575D02*
Y169683D01*
X348456Y169927D02*
X348700Y169683D01*
X348456Y169927D02*
Y174299D01*
X353092Y174500D02*
X353200D01*
X352891Y174299D02*
X353092Y174500D01*
X348456Y174299D02*
X352891D01*
X316102Y199000D02*
X320846D01*
X342944Y174299D02*
X343444D01*
X337700Y107500D02*
Y121500D01*
X337592Y107500D02*
X337700D01*
X336360Y108732D02*
X337592Y107500D01*
X333790Y205500D02*
X375200D01*
X333700Y205410D02*
X333790Y205500D01*
X333700Y205410D02*
Y209500D01*
X333047Y204756D02*
X333700Y205410D01*
Y209500D02*
X335338Y211138D01*
X380062D01*
X391050Y178850D02*
X391901Y178000D01*
X379200Y190701D02*
X391050Y178850D01*
X390700Y178500D02*
X391050Y178850D01*
X390700Y169172D02*
Y178500D01*
Y169172D02*
X391872Y168000D01*
X404200D01*
X375200Y205500D02*
X379200Y201500D01*
Y190701D02*
Y201500D01*
X391901Y178000D02*
X404200D01*
X380062Y211138D02*
X392200Y199000D01*
X308700Y205500D02*
X325609D01*
X386200Y215000D02*
X393200Y208000D01*
X332700Y215000D02*
X386200D01*
X326700Y209000D02*
X332700Y215000D01*
X393700Y148906D02*
X398528D01*
X398669Y148765D01*
X403435D01*
X404200Y148000D01*
X390200Y145405D02*
X393700Y148906D01*
X390200Y121000D02*
Y145405D01*
Y121000D02*
X393200Y118000D01*
X404200D01*
X322200Y108732D02*
X322432Y108500D01*
X296350Y108256D02*
X296826Y108732D01*
X296200Y108256D02*
X296350D01*
X322676D02*
X322700D01*
X326700Y205102D02*
Y209000D01*
X326354Y204756D02*
X326700Y205102D01*
X393200Y208000D02*
X404200D01*
X392200Y199000D02*
X398528D01*
X398763Y198765D01*
X403435D01*
X404200Y198000D01*
X303200Y205500D02*
X308700D01*
X325609D02*
X326354Y204756D01*
X301354Y203654D02*
X303200Y205500D01*
X81450Y448744D02*
X85700D01*
X77200D02*
X81450D01*
X137444Y428299D02*
Y433032D01*
Y413894D02*
Y428299D01*
X121200Y362732D02*
X130359D01*
X116200D02*
X121200D01*
X89700Y387000D02*
X118528D01*
X79200D02*
X89700D01*
X77200Y398000D02*
Y427000D01*
Y389000D02*
Y398000D01*
X119700Y387500D02*
Y388172D01*
Y387500D02*
X131700Y375500D01*
X110025Y362256D02*
X113200D01*
X116306D01*
X136328Y437500D02*
X137200D01*
X125700D02*
X136328D01*
X137200D02*
X137444Y437256D01*
X119700Y431500D02*
X125700Y437500D01*
X119700Y388172D02*
Y431500D01*
X118528Y387000D02*
X119700Y388172D01*
X77200Y389000D02*
X79200Y387000D01*
X137444Y435000D02*
Y437256D01*
Y433032D02*
Y435000D01*
X95354Y446000D02*
Y457654D01*
X127047Y352000D02*
X127200Y352153D01*
Y356744D01*
X121700Y357000D02*
X121808D01*
X122064Y356744D01*
X127200D01*
X142700Y423575D02*
Y423683D01*
X142456Y423927D02*
X142700Y423683D01*
X142456Y423927D02*
Y428299D01*
X147092Y428500D02*
X147200D01*
X146891Y428299D02*
X147092Y428500D01*
X142456Y428299D02*
X146891D01*
X110102Y453000D02*
X114846D01*
X136944Y428299D02*
X137444D01*
X131700Y361500D02*
Y375500D01*
X131592Y361500D02*
X131700D01*
X130359Y362732D02*
X131592Y361500D01*
X127791Y459500D02*
X169200D01*
X127700Y459410D02*
X127791Y459500D01*
X127700Y459410D02*
Y463500D01*
X127047Y458756D02*
X127700Y459410D01*
Y463500D02*
X129338Y465138D01*
X174062D01*
X185050Y432850D02*
X185901Y432000D01*
X173200Y444701D02*
X185050Y432850D01*
X184700Y432500D02*
X185050Y432850D01*
X184700Y423172D02*
Y432500D01*
Y423172D02*
X185872Y422000D01*
X198200D01*
X169200Y459500D02*
X173200Y455500D01*
Y444701D02*
Y455500D01*
X185901Y432000D02*
X198200D01*
X174062Y465138D02*
X186200Y453000D01*
X102700Y459500D02*
X119609D01*
X180200Y469000D02*
X187200Y462000D01*
X126700Y469000D02*
X180200D01*
X120700Y463000D02*
X126700Y469000D01*
X187700Y402906D02*
X192528D01*
X192669Y402765D01*
X197435D01*
X198200Y402000D01*
X184200Y399406D02*
X187700Y402906D01*
X184200Y375000D02*
Y399406D01*
Y375000D02*
X187200Y372000D01*
X198200D01*
X116200Y362732D02*
X116432Y362500D01*
X90350Y362256D02*
X90826Y362732D01*
X90200Y362256D02*
X90350D01*
X116676D02*
X116700D01*
X120700Y459102D02*
Y463000D01*
X120353Y458756D02*
X120700Y459102D01*
X187200Y462000D02*
X198200D01*
X186200Y453000D02*
X192528D01*
X192763Y452765D01*
X197435D01*
X198200Y452000D01*
X97200Y459500D02*
X102700D01*
X119609D02*
X120353Y458756D01*
X95354Y457654D02*
X97200Y459500D01*
X287450Y448744D02*
X291700D01*
X283200D02*
X287450D01*
X343444Y428299D02*
Y433032D01*
Y413894D02*
Y428299D01*
X327200Y362732D02*
X336360D01*
X322200D02*
X327200D01*
X295700Y387000D02*
X324528D01*
X285200D02*
X295700D01*
X283200Y398000D02*
Y427000D01*
Y389000D02*
Y398000D01*
X325700Y387500D02*
Y388172D01*
Y387500D02*
X337700Y375500D01*
X316025Y362256D02*
X319200D01*
X322306D01*
X342328Y437500D02*
X343200D01*
X331700D02*
X342328D01*
X343200D02*
X343444Y437256D01*
X325700Y431500D02*
X331700Y437500D01*
X325700Y388172D02*
Y431500D01*
X324528Y387000D02*
X325700Y388172D01*
X283200Y389000D02*
X285200Y387000D01*
X343444Y435000D02*
Y437256D01*
Y433032D02*
Y435000D01*
X301354Y446000D02*
Y457654D01*
X333047Y352000D02*
X333200Y352153D01*
Y356744D01*
X327700Y357000D02*
X327808D01*
X328064Y356744D01*
X333200D01*
X348700Y423575D02*
Y423683D01*
X348456Y423927D02*
X348700Y423683D01*
X348456Y423927D02*
Y428299D01*
X353092Y428500D02*
X353200D01*
X352891Y428299D02*
X353092Y428500D01*
X348456Y428299D02*
X352891D01*
X316102Y453000D02*
X320846D01*
X342944Y428299D02*
X343444D01*
X337700Y361500D02*
Y375500D01*
X337592Y361500D02*
X337700D01*
X336360Y362732D02*
X337592Y361500D01*
X333790Y459500D02*
X375200D01*
X333700Y459410D02*
X333790Y459500D01*
X333700Y459410D02*
Y463500D01*
X333047Y458756D02*
X333700Y459410D01*
Y463500D02*
X335338Y465138D01*
X380062D01*
X391050Y432850D02*
X391901Y432000D01*
X379200Y444701D02*
X391050Y432850D01*
X390700Y432500D02*
X391050Y432850D01*
X390700Y423172D02*
Y432500D01*
Y423172D02*
X391872Y422000D01*
X404200D01*
X375200Y459500D02*
X379200Y455500D01*
Y444701D02*
Y455500D01*
X391901Y432000D02*
X404200D01*
X380062Y465138D02*
X392200Y453000D01*
X308700Y459500D02*
X325609D01*
X386200Y469000D02*
X393200Y462000D01*
X332700Y469000D02*
X386200D01*
X326700Y463000D02*
X332700Y469000D01*
X393700Y402906D02*
X398528D01*
X398669Y402765D01*
X403435D01*
X404200Y402000D01*
X390200Y399406D02*
X393700Y402906D01*
X390200Y375000D02*
Y399406D01*
Y375000D02*
X393200Y372000D01*
X404200D01*
X322200Y362732D02*
X322432Y362500D01*
X296350Y362256D02*
X296826Y362732D01*
X296200Y362256D02*
X296350D01*
X322676D02*
X322700D01*
X326700Y459102D02*
Y463000D01*
X326354Y458756D02*
X326700Y459102D01*
X393200Y462000D02*
X404200D01*
X392200Y453000D02*
X398528D01*
X398763Y452765D01*
X403435D01*
X404200Y452000D01*
X303200Y459500D02*
X308700D01*
X325609D02*
X326354Y458756D01*
X301354Y457654D02*
X303200Y459500D01*
D19*
X81450Y191303D02*
Y194744D01*
Y191303D02*
X81919Y190834D01*
X83074D01*
X83543Y190366D01*
Y185716D02*
Y190366D01*
X167200Y38500D02*
X197700D01*
X149700Y56000D02*
X167200Y38500D01*
X149700Y56000D02*
Y122000D01*
X155700Y124000D02*
Y129231D01*
X155506Y129425D02*
X155700Y129231D01*
X155506Y129425D02*
Y130194D01*
X155200Y130500D02*
X155506Y130194D01*
X152200Y120500D02*
X155700Y124000D01*
X152200Y63000D02*
Y120500D01*
Y63000D02*
X167200Y48000D01*
X198200D01*
X197700Y38500D02*
X198200Y38000D01*
X149700Y122000D02*
X151200Y123500D01*
Y129000D01*
X147700Y47000D02*
X166700Y28000D01*
X147700Y47000D02*
Y127500D01*
X166700Y28000D02*
X198200D01*
X145200Y66000D02*
Y138000D01*
X153047Y145846D01*
X134700Y55500D02*
X145200Y66000D01*
X136200Y153433D02*
X138200Y151433D01*
Y77500D02*
Y151433D01*
X129100Y68400D02*
X138200Y77500D01*
X136943Y155402D02*
X139700Y152644D01*
Y77020D02*
Y152644D01*
X129680Y67000D02*
X139700Y77020D01*
X89448Y109158D02*
X90350Y108256D01*
X132667Y135716D02*
X134700Y137750D01*
X127637Y135716D02*
X132667D01*
X134482Y133748D02*
X134700Y133530D01*
X127637Y133748D02*
X134482D01*
X132421Y131780D02*
X134700Y129500D01*
X127637Y131780D02*
X132421D01*
X82050Y178500D02*
X83200D01*
X81574Y178976D02*
X82050Y178500D01*
X50822Y141622D02*
X67007D01*
X46200Y137000D02*
X50822Y141622D01*
X97322Y84122D02*
Y97500D01*
X54200Y41000D02*
X97322Y84122D01*
X36700Y41000D02*
X54200D01*
X88100Y68400D02*
X129100D01*
X48200Y28500D02*
X88100Y68400D01*
X48200Y8000D02*
Y28500D01*
X89448Y132748D02*
X89700Y133000D01*
X89448Y125087D02*
Y132748D01*
X116306Y116000D02*
X118976Y118669D01*
Y125087D01*
X76790Y143591D02*
X77200Y144000D01*
X75639Y143591D02*
X76790D01*
X75730Y133530D02*
X77200Y135000D01*
X75730Y133500D02*
Y133530D01*
X67007Y128807D02*
Y131780D01*
X63200Y125000D02*
X67007Y128807D01*
X97322Y97500D02*
Y125087D01*
X109133Y119925D02*
Y125087D01*
X105196Y115988D02*
X109133Y119925D01*
X105196Y91996D02*
Y115988D01*
X105196Y121500D02*
Y125087D01*
X103621Y119925D02*
X105196Y121500D01*
X103621Y94921D02*
Y119925D01*
X89448Y109158D02*
Y125087D01*
X109700Y108256D02*
X110025D01*
X111102Y109332D01*
Y125087D01*
X113070Y108386D02*
X113200Y108256D01*
X113070Y108386D02*
Y125087D01*
X120944Y108988D02*
X121200Y108732D01*
X120944Y108988D02*
Y125087D01*
X127637Y153433D02*
X136200D01*
X127637Y155402D02*
X136943D01*
X127637Y167213D02*
X133200D01*
X137444Y159500D02*
Y159894D01*
X136368Y160970D02*
X137444Y159894D01*
X135974Y160970D02*
X136368D01*
X135637Y161307D02*
X135974Y160970D01*
X127637Y161307D02*
X135637D01*
X137283Y159339D02*
X137444Y159500D01*
X136495Y158551D02*
X137283Y159339D01*
X127637D02*
X137283D01*
X74009Y131780D02*
X75730Y133500D01*
X67007Y131780D02*
X74009D01*
X76102Y155402D02*
X76200Y155500D01*
X67007Y155402D02*
X76102D01*
X71176Y179024D02*
X77200Y173000D01*
X67007Y179024D02*
X71176D01*
X75639Y143591D02*
X75730Y143500D01*
X67007Y143591D02*
X75639D01*
X47700Y168000D02*
X54393Y161307D01*
X67007D01*
X46200Y132000D02*
Y137000D01*
X44200Y144846D02*
X48850Y149496D01*
X67007D01*
X137444Y181000D02*
X146353D01*
X137436Y179024D02*
X137444Y179032D01*
X127637Y179024D02*
X137436D01*
X109200Y185784D02*
Y192500D01*
X109133Y185716D02*
X109200Y185784D01*
X97322Y180961D02*
Y185716D01*
X96200Y179839D02*
X97322Y180961D01*
X87039Y179839D02*
X96200D01*
X87031Y179831D02*
X87039Y179839D01*
X86369Y179831D02*
X87031D01*
X85511Y180689D02*
X86369Y179831D01*
X85511Y180689D02*
Y185716D01*
X78200Y179839D02*
X79606Y181244D01*
Y185716D01*
X81574Y178976D02*
Y185716D01*
X85511Y191764D02*
X85700Y191953D01*
X85511Y185716D02*
Y191764D01*
X74444Y194744D02*
X76806D01*
X73700Y194000D02*
X74444Y194744D01*
X73700Y185716D02*
Y194000D01*
X76806Y194744D02*
X77200D01*
X75730Y193668D02*
X76806Y194744D01*
X75730Y193261D02*
Y193668D01*
X75669Y193199D02*
X75730Y193261D01*
X75669Y185716D02*
Y193199D01*
X110700Y175500D02*
X115039Y179839D01*
Y185716D01*
X77700Y175500D02*
X110700D01*
X66200Y187000D02*
X77700Y175500D01*
X66200Y187000D02*
Y193500D01*
X61700Y198000D02*
X66200Y193500D01*
X95354Y185716D02*
Y192000D01*
X97322Y190834D02*
X99488Y193000D01*
X97322Y185716D02*
Y190834D01*
X100200Y178850D02*
Y180000D01*
X99291Y180910D02*
X100200Y180000D01*
X99291Y180910D02*
Y185716D01*
X107165Y179032D02*
Y185716D01*
X91200Y55500D02*
X134700D01*
X80950Y45250D02*
X91200Y55500D01*
X78200Y42500D02*
X80950Y45250D01*
Y46231D01*
X79700Y47481D02*
X80950Y46231D01*
X79700Y47481D02*
Y47500D01*
X53200Y61000D02*
X65775D01*
X29700Y84500D02*
X53200Y61000D01*
X29700Y84500D02*
Y115500D01*
X27200Y118000D02*
X29700Y115500D01*
X37854Y104500D02*
Y144846D01*
X39700Y106500D02*
Y153827D01*
X42200Y128000D02*
X46200Y132000D01*
X35527Y158000D02*
X39700Y153827D01*
X37854Y104500D02*
X55853Y86500D01*
X39700Y106500D02*
X57700Y88500D01*
X34700Y148000D02*
X37854Y144846D01*
X8200Y118000D02*
X27200D01*
X94200Y97500D02*
X97322D01*
X89700Y93000D02*
X94200Y97500D01*
X67200Y93000D02*
X89700D01*
X62700Y97500D02*
X67200Y93000D01*
X62700Y97500D02*
Y101654D01*
X88873Y85500D02*
X93200D01*
X87873Y86500D02*
X88873Y85500D01*
X55853Y86500D02*
X87873D01*
X153047Y145846D02*
Y181000D01*
X78200Y8000D02*
Y42500D01*
X92200Y67000D02*
X129680D01*
X58200Y33000D02*
X92200Y67000D01*
X58200Y8000D02*
Y33000D01*
X137200Y188500D02*
X150476D01*
X153047Y185929D01*
Y181000D02*
Y185929D01*
X8200Y128000D02*
X35200D01*
X34450Y138000D02*
X34700Y137750D01*
X8200Y138000D02*
X34450D01*
X42200Y137750D02*
X44200Y139750D01*
Y144846D01*
X94172Y93500D02*
X95200D01*
X95700Y93000D01*
Y88000D02*
Y93000D01*
X93200Y85500D02*
X95700Y88000D01*
X8200Y148000D02*
X34700D01*
X57700Y88500D02*
X91700D01*
X8200Y158000D02*
X35527D01*
X102200Y89000D02*
X105196Y91996D01*
X102200Y93500D02*
X103621Y94921D01*
X32200Y178500D02*
X37854D01*
X31700Y178000D02*
X32200Y178500D01*
X8200Y178000D02*
X31700D01*
X44546Y178500D02*
X47200D01*
X47700Y178000D01*
Y168000D02*
Y178000D01*
X51200Y198000D02*
X61700D01*
X44546D02*
X51200D01*
Y210154D01*
X28200Y8000D02*
Y32500D01*
X36700Y41000D01*
X56956Y125000D02*
X63200D01*
X85700Y191953D02*
Y194744D01*
X136818Y160126D02*
X137444Y159500D01*
X109700Y108500D02*
X109921Y108721D01*
X116062Y108500D02*
X116432D01*
X116062D02*
X116306Y108256D01*
X115230Y109332D02*
X116062Y108500D01*
X115230Y109332D02*
Y109386D01*
X116306Y108256D02*
X116676D01*
X116432Y108500D02*
X116676Y108256D01*
X58956Y179000D02*
X59456Y178500D01*
X77200Y194744D02*
X78200Y193744D01*
X76700Y194244D02*
X77200Y194744D01*
X8200Y198000D02*
X37854D01*
X287450Y191303D02*
Y194744D01*
Y191303D02*
X287919Y190834D01*
X289074D01*
X289543Y190366D01*
Y185716D02*
Y190366D01*
X373200Y38500D02*
X403700D01*
X355700Y56000D02*
X373200Y38500D01*
X355700Y56000D02*
Y122000D01*
X361700Y124000D02*
Y129231D01*
X361506Y129425D02*
X361700Y129231D01*
X361506Y129425D02*
Y130194D01*
X361200Y130500D02*
X361506Y130194D01*
X358200Y120500D02*
X361700Y124000D01*
X358200Y63000D02*
Y120500D01*
Y63000D02*
X373200Y48000D01*
X404200D01*
X403700Y38500D02*
X404200Y38000D01*
X355700Y122000D02*
X357200Y123500D01*
Y129000D01*
X353700Y47000D02*
X372700Y28000D01*
X353700Y47000D02*
Y127500D01*
X372700Y28000D02*
X404200D01*
X351200Y66000D02*
Y138000D01*
X359047Y145846D01*
X340700Y55500D02*
X351200Y66000D01*
X342200Y153433D02*
X344200Y151433D01*
Y77500D02*
Y151433D01*
X335100Y68400D02*
X344200Y77500D01*
X342943Y155402D02*
X345700Y152644D01*
Y77020D02*
Y152644D01*
X335680Y67000D02*
X345700Y77020D01*
X295448Y109158D02*
X296350Y108256D01*
X338667Y135716D02*
X340700Y137750D01*
X333637Y135716D02*
X338667D01*
X340482Y133748D02*
X340700Y133530D01*
X333637Y133748D02*
X340482D01*
X338421Y131780D02*
X340700Y129500D01*
X333637Y131780D02*
X338421D01*
X288050Y178500D02*
X289200D01*
X287574Y178976D02*
X288050Y178500D01*
X256822Y141622D02*
X273007D01*
X252200Y137000D02*
X256822Y141622D01*
X303322Y84122D02*
Y97500D01*
X260200Y41000D02*
X303322Y84122D01*
X242700Y41000D02*
X260200D01*
X294100Y68400D02*
X335100D01*
X254200Y28500D02*
X294100Y68400D01*
X254200Y8000D02*
Y28500D01*
X295448Y132748D02*
X295700Y133000D01*
X295448Y125087D02*
Y132748D01*
X322306Y116000D02*
X324976Y118669D01*
Y125087D01*
X282790Y143591D02*
X283200Y144000D01*
X281639Y143591D02*
X282790D01*
X281730Y133530D02*
X283200Y135000D01*
X281730Y133500D02*
Y133530D01*
X273007Y128807D02*
Y131780D01*
X269200Y125000D02*
X273007Y128807D01*
X303322Y97500D02*
Y125087D01*
X315133Y119925D02*
Y125087D01*
X311196Y115988D02*
X315133Y119925D01*
X311196Y91996D02*
Y115988D01*
X311196Y121500D02*
Y125087D01*
X309621Y119925D02*
X311196Y121500D01*
X309621Y94921D02*
Y119925D01*
X295448Y109158D02*
Y125087D01*
X315700Y108256D02*
X316025D01*
X317102Y109332D01*
Y125087D01*
X319070Y108386D02*
X319200Y108256D01*
X319070Y108386D02*
Y125087D01*
X326944Y108988D02*
X327200Y108732D01*
X326944Y108988D02*
Y125087D01*
X333637Y153433D02*
X342200D01*
X333637Y155402D02*
X342943D01*
X333637Y167213D02*
X339200D01*
X343444Y159500D02*
Y159894D01*
X342368Y160970D02*
X343444Y159894D01*
X341974Y160970D02*
X342368D01*
X341637Y161307D02*
X341974Y160970D01*
X333637Y161307D02*
X341637D01*
X343283Y159339D02*
X343444Y159500D01*
X342495Y158551D02*
X343283Y159339D01*
X333637D02*
X343283D01*
X280009Y131780D02*
X281730Y133500D01*
X273007Y131780D02*
X280009D01*
X282102Y155402D02*
X282200Y155500D01*
X273007Y155402D02*
X282102D01*
X277176Y179024D02*
X283200Y173000D01*
X273007Y179024D02*
X277176D01*
X281639Y143591D02*
X281730Y143500D01*
X273007Y143591D02*
X281639D01*
X253700Y168000D02*
X260393Y161307D01*
X273007D01*
X252200Y132000D02*
Y137000D01*
X250200Y144846D02*
X254850Y149496D01*
X273007D01*
X343444Y181000D02*
X352354D01*
X343436Y179024D02*
X343444Y179032D01*
X333637Y179024D02*
X343436D01*
X315200Y185784D02*
Y192500D01*
X315133Y185716D02*
X315200Y185784D01*
X303322Y180961D02*
Y185716D01*
X302200Y179839D02*
X303322Y180961D01*
X293039Y179839D02*
X302200D01*
X293031Y179831D02*
X293039Y179839D01*
X292369Y179831D02*
X293031D01*
X291511Y180689D02*
X292369Y179831D01*
X291511Y180689D02*
Y185716D01*
X284200Y179839D02*
X285606Y181244D01*
Y185716D01*
X287574Y178976D02*
Y185716D01*
X291511Y191764D02*
X291700Y191953D01*
X291511Y185716D02*
Y191764D01*
X280444Y194744D02*
X282806D01*
X279700Y194000D02*
X280444Y194744D01*
X279700Y185716D02*
Y194000D01*
X282806Y194744D02*
X283200D01*
X281730Y193668D02*
X282806Y194744D01*
X281730Y193261D02*
Y193668D01*
X281668Y193199D02*
X281730Y193261D01*
X281668Y185716D02*
Y193199D01*
X316700Y175500D02*
X321039Y179839D01*
Y185716D01*
X283700Y175500D02*
X316700D01*
X272200Y187000D02*
X283700Y175500D01*
X272200Y187000D02*
Y193500D01*
X267700Y198000D02*
X272200Y193500D01*
X301354Y185716D02*
Y192000D01*
X303322Y190834D02*
X305488Y193000D01*
X303322Y185716D02*
Y190834D01*
X306200Y178850D02*
Y180000D01*
X305291Y180910D02*
X306200Y180000D01*
X305291Y180910D02*
Y185716D01*
X313165Y179032D02*
Y185716D01*
X297200Y55500D02*
X340700D01*
X286950Y45250D02*
X297200Y55500D01*
X284200Y42500D02*
X286950Y45250D01*
Y46231D01*
X285700Y47481D02*
X286950Y46231D01*
X285700Y47481D02*
Y47500D01*
X259200Y61000D02*
X271775D01*
X235700Y84500D02*
X259200Y61000D01*
X235700Y84500D02*
Y115500D01*
X233200Y118000D02*
X235700Y115500D01*
X243853Y104500D02*
Y144846D01*
X245700Y106500D02*
Y153827D01*
X248200Y128000D02*
X252200Y132000D01*
X241527Y158000D02*
X245700Y153827D01*
X243853Y104500D02*
X261854Y86500D01*
X245700Y106500D02*
X263700Y88500D01*
X240700Y148000D02*
X243853Y144846D01*
X214200Y118000D02*
X233200D01*
X300200Y97500D02*
X303322D01*
X295700Y93000D02*
X300200Y97500D01*
X273200Y93000D02*
X295700D01*
X268700Y97500D02*
X273200Y93000D01*
X268700Y97500D02*
Y101654D01*
X294873Y85500D02*
X299200D01*
X293873Y86500D02*
X294873Y85500D01*
X261854Y86500D02*
X293873D01*
X359047Y145846D02*
Y181000D01*
X284200Y8000D02*
Y42500D01*
X298200Y67000D02*
X335680D01*
X264200Y33000D02*
X298200Y67000D01*
X264200Y8000D02*
Y33000D01*
X343200Y188500D02*
X356476D01*
X359047Y185929D01*
Y181000D02*
Y185929D01*
X214200Y128000D02*
X241200D01*
X240450Y138000D02*
X240700Y137750D01*
X214200Y138000D02*
X240450D01*
X248200Y137750D02*
X250200Y139750D01*
Y144846D01*
X300172Y93500D02*
X301200D01*
X301700Y93000D01*
Y88000D02*
Y93000D01*
X299200Y85500D02*
X301700Y88000D01*
X214200Y148000D02*
X240700D01*
X263700Y88500D02*
X297700D01*
X214200Y158000D02*
X241527D01*
X308200Y89000D02*
X311196Y91996D01*
X308200Y93500D02*
X309621Y94921D01*
X238200Y178500D02*
X243853D01*
X237700Y178000D02*
X238200Y178500D01*
X214200Y178000D02*
X237700D01*
X250547Y178500D02*
X253200D01*
X253700Y178000D01*
Y168000D02*
Y178000D01*
X257200Y198000D02*
X267700D01*
X250547D02*
X257200D01*
Y210154D01*
X234200Y8000D02*
Y32500D01*
X242700Y41000D01*
X262956Y125000D02*
X269200D01*
X291700Y191953D02*
Y194744D01*
X342818Y160126D02*
X343444Y159500D01*
X315700Y108500D02*
X315920Y108721D01*
X322062Y108500D02*
X322432D01*
X322062D02*
X322306Y108256D01*
X321230Y109332D02*
X322062Y108500D01*
X321230Y109332D02*
Y109386D01*
X322306Y108256D02*
X322676D01*
X322432Y108500D02*
X322676Y108256D01*
X264956Y179000D02*
X265456Y178500D01*
X283200Y194744D02*
X284200Y193744D01*
X282700Y194244D02*
X283200Y194744D01*
X214200Y198000D02*
X243853D01*
X81450Y445303D02*
Y448744D01*
Y445303D02*
X81919Y444834D01*
X83074D01*
X83543Y444366D01*
Y439716D02*
Y444366D01*
X167200Y292500D02*
X197700D01*
X149700Y310000D02*
X167200Y292500D01*
X149700Y310000D02*
Y376000D01*
X155700Y378000D02*
Y383231D01*
X155506Y383425D02*
X155700Y383231D01*
X155506Y383425D02*
Y384194D01*
X155200Y384500D02*
X155506Y384194D01*
X152200Y374500D02*
X155700Y378000D01*
X152200Y317000D02*
Y374500D01*
Y317000D02*
X167200Y302000D01*
X198200D01*
X197700Y292500D02*
X198200Y292000D01*
X149700Y376000D02*
X151200Y377500D01*
Y383000D01*
X147700Y301000D02*
X166700Y282000D01*
X147700Y301000D02*
Y381500D01*
X166700Y282000D02*
X198200D01*
X145200Y320000D02*
Y392000D01*
X153047Y399847D01*
X134700Y309500D02*
X145200Y320000D01*
X136200Y407433D02*
X138200Y405433D01*
Y331500D02*
Y405433D01*
X129100Y322400D02*
X138200Y331500D01*
X136943Y409402D02*
X139700Y406644D01*
Y331020D02*
Y406644D01*
X129680Y321000D02*
X139700Y331020D01*
X89448Y363158D02*
X90350Y362256D01*
X132667Y389717D02*
X134700Y391750D01*
X127637Y389717D02*
X132667D01*
X134482Y387748D02*
X134700Y387530D01*
X127637Y387748D02*
X134482D01*
X132421Y385780D02*
X134700Y383500D01*
X127637Y385780D02*
X132421D01*
X82050Y432500D02*
X83200D01*
X81574Y432976D02*
X82050Y432500D01*
X50822Y395622D02*
X67007D01*
X46200Y391000D02*
X50822Y395622D01*
X97322Y338122D02*
Y351500D01*
X54200Y295000D02*
X97322Y338122D01*
X36700Y295000D02*
X54200D01*
X88100Y322400D02*
X129100D01*
X48200Y282500D02*
X88100Y322400D01*
X48200Y262000D02*
Y282500D01*
X89448Y386748D02*
X89700Y387000D01*
X89448Y379087D02*
Y386748D01*
X116306Y370000D02*
X118976Y372669D01*
Y379087D01*
X76790Y397591D02*
X77200Y398000D01*
X75639Y397591D02*
X76790D01*
X75730Y387530D02*
X77200Y389000D01*
X75730Y387500D02*
Y387530D01*
X67007Y382807D02*
Y385780D01*
X63200Y379000D02*
X67007Y382807D01*
X97322Y351500D02*
Y379087D01*
X109133Y373925D02*
Y379087D01*
X105196Y369988D02*
X109133Y373925D01*
X105196Y345996D02*
Y369988D01*
X105196Y375500D02*
Y379087D01*
X103621Y373925D02*
X105196Y375500D01*
X103621Y348921D02*
Y373925D01*
X89448Y363158D02*
Y379087D01*
X109700Y362256D02*
X110025D01*
X111102Y363332D01*
Y379087D01*
X113070Y362386D02*
X113200Y362256D01*
X113070Y362386D02*
Y379087D01*
X120944Y362988D02*
X121200Y362732D01*
X120944Y362988D02*
Y379087D01*
X127637Y407433D02*
X136200D01*
X127637Y409402D02*
X136943D01*
X127637Y421213D02*
X133200D01*
X137444Y413500D02*
Y413894D01*
X136368Y414970D02*
X137444Y413894D01*
X135974Y414970D02*
X136368D01*
X135637Y415307D02*
X135974Y414970D01*
X127637Y415307D02*
X135637D01*
X137283Y413339D02*
X137444Y413500D01*
X136495Y412551D02*
X137283Y413339D01*
X127637D02*
X137283D01*
X74009Y385780D02*
X75730Y387500D01*
X67007Y385780D02*
X74009D01*
X76102Y409402D02*
X76200Y409500D01*
X67007Y409402D02*
X76102D01*
X71176Y433024D02*
X77200Y427000D01*
X67007Y433024D02*
X71176D01*
X75639Y397591D02*
X75730Y397500D01*
X67007Y397591D02*
X75639D01*
X47700Y422000D02*
X54393Y415307D01*
X67007D01*
X46200Y386000D02*
Y391000D01*
X44200Y398847D02*
X48850Y403496D01*
X67007D01*
X137444Y435000D02*
X146353D01*
X137436Y433024D02*
X137444Y433032D01*
X127637Y433024D02*
X137436D01*
X109200Y439783D02*
Y446500D01*
X109133Y439716D02*
X109200Y439783D01*
X97322Y434961D02*
Y439716D01*
X96200Y433839D02*
X97322Y434961D01*
X87039Y433839D02*
X96200D01*
X87031Y433831D02*
X87039Y433839D01*
X86369Y433831D02*
X87031D01*
X85511Y434689D02*
X86369Y433831D01*
X85511Y434689D02*
Y439716D01*
X78200Y433839D02*
X79606Y435244D01*
Y439716D01*
X81574Y432976D02*
Y439716D01*
X85511Y445764D02*
X85700Y445953D01*
X85511Y439716D02*
Y445764D01*
X74444Y448744D02*
X76806D01*
X73700Y448000D02*
X74444Y448744D01*
X73700Y439716D02*
Y448000D01*
X76806Y448744D02*
X77200D01*
X75730Y447668D02*
X76806Y448744D01*
X75730Y447261D02*
Y447668D01*
X75669Y447199D02*
X75730Y447261D01*
X75669Y439716D02*
Y447199D01*
X110700Y429500D02*
X115039Y433839D01*
Y439716D01*
X77700Y429500D02*
X110700D01*
X66200Y441000D02*
X77700Y429500D01*
X66200Y441000D02*
Y447500D01*
X61700Y452000D02*
X66200Y447500D01*
X95354Y439716D02*
Y446000D01*
X97322Y444834D02*
X99488Y447000D01*
X97322Y439716D02*
Y444834D01*
X100200Y432850D02*
Y434000D01*
X99291Y434909D02*
X100200Y434000D01*
X99291Y434909D02*
Y439716D01*
X107165Y433032D02*
Y439716D01*
X91200Y309500D02*
X134700D01*
X80950Y299250D02*
X91200Y309500D01*
X78200Y296500D02*
X80950Y299250D01*
Y300231D01*
X79700Y301481D02*
X80950Y300231D01*
X79700Y301481D02*
Y301500D01*
X53200Y315000D02*
X65775D01*
X29700Y338500D02*
X53200Y315000D01*
X29700Y338500D02*
Y369500D01*
X27200Y372000D02*
X29700Y369500D01*
X37854Y358500D02*
Y398847D01*
X39700Y360500D02*
Y407827D01*
X42200Y382000D02*
X46200Y386000D01*
X35527Y412000D02*
X39700Y407827D01*
X37854Y358500D02*
X55853Y340500D01*
X39700Y360500D02*
X57700Y342500D01*
X34700Y402000D02*
X37854Y398847D01*
X8200Y372000D02*
X27200D01*
X94200Y351500D02*
X97322D01*
X89700Y347000D02*
X94200Y351500D01*
X67200Y347000D02*
X89700D01*
X62700Y351500D02*
X67200Y347000D01*
X62700Y351500D02*
Y355654D01*
X88873Y339500D02*
X93200D01*
X87873Y340500D02*
X88873Y339500D01*
X55853Y340500D02*
X87873D01*
X153047Y399847D02*
Y435000D01*
X78200Y262000D02*
Y296500D01*
X92200Y321000D02*
X129680D01*
X58200Y287000D02*
X92200Y321000D01*
X58200Y262000D02*
Y287000D01*
X137200Y442500D02*
X150476D01*
X153047Y439929D01*
Y435000D02*
Y439929D01*
X8200Y382000D02*
X35200D01*
X34450Y392000D02*
X34700Y391750D01*
X8200Y392000D02*
X34450D01*
X42200Y391750D02*
X44200Y393750D01*
Y398847D01*
X94172Y347500D02*
X95200D01*
X95700Y347000D01*
Y342000D02*
Y347000D01*
X93200Y339500D02*
X95700Y342000D01*
X8200Y402000D02*
X34700D01*
X57700Y342500D02*
X91700D01*
X8200Y412000D02*
X35527D01*
X102200Y343000D02*
X105196Y345996D01*
X102200Y347500D02*
X103621Y348921D01*
X32200Y432500D02*
X37854D01*
X31700Y432000D02*
X32200Y432500D01*
X8200Y432000D02*
X31700D01*
X44546Y432500D02*
X47200D01*
X47700Y432000D01*
Y422000D02*
Y432000D01*
X51200Y452000D02*
X61700D01*
X44546D02*
X51200D01*
Y464154D01*
X28200Y262000D02*
Y286500D01*
X36700Y295000D01*
X56956Y379000D02*
X63200D01*
X85700Y445953D02*
Y448744D01*
X136818Y414126D02*
X137444Y413500D01*
X109700Y362500D02*
X109921Y362720D01*
X116062Y362500D02*
X116432D01*
X116062D02*
X116306Y362256D01*
X115230Y363332D02*
X116062Y362500D01*
X115230Y363332D02*
Y363386D01*
X116306Y362256D02*
X116676D01*
X116432Y362500D02*
X116676Y362256D01*
X58956Y433000D02*
X59456Y432500D01*
X77200Y448744D02*
X78200Y447744D01*
X76700Y448244D02*
X77200Y448744D01*
X8200Y452000D02*
X37854D01*
X287450Y445303D02*
Y448744D01*
Y445303D02*
X287919Y444834D01*
X289074D01*
X289543Y444366D01*
Y439716D02*
Y444366D01*
X373200Y292500D02*
X403700D01*
X355700Y310000D02*
X373200Y292500D01*
X355700Y310000D02*
Y376000D01*
X361700Y378000D02*
Y383231D01*
X361506Y383425D02*
X361700Y383231D01*
X361506Y383425D02*
Y384194D01*
X361200Y384500D02*
X361506Y384194D01*
X358200Y374500D02*
X361700Y378000D01*
X358200Y317000D02*
Y374500D01*
Y317000D02*
X373200Y302000D01*
X404200D01*
X403700Y292500D02*
X404200Y292000D01*
X355700Y376000D02*
X357200Y377500D01*
Y383000D01*
X353700Y301000D02*
X372700Y282000D01*
X353700Y301000D02*
Y381500D01*
X372700Y282000D02*
X404200D01*
X351200Y320000D02*
Y392000D01*
X359047Y399847D01*
X340700Y309500D02*
X351200Y320000D01*
X342200Y407433D02*
X344200Y405433D01*
Y331500D02*
Y405433D01*
X335100Y322400D02*
X344200Y331500D01*
X342943Y409402D02*
X345700Y406644D01*
Y331020D02*
Y406644D01*
X335680Y321000D02*
X345700Y331020D01*
X295448Y363158D02*
X296350Y362256D01*
X338667Y389717D02*
X340700Y391750D01*
X333637Y389717D02*
X338667D01*
X340482Y387748D02*
X340700Y387530D01*
X333637Y387748D02*
X340482D01*
X338421Y385780D02*
X340700Y383500D01*
X333637Y385780D02*
X338421D01*
X288050Y432500D02*
X289200D01*
X287574Y432976D02*
X288050Y432500D01*
X256822Y395622D02*
X273007D01*
X252200Y391000D02*
X256822Y395622D01*
X303322Y338122D02*
Y351500D01*
X260200Y295000D02*
X303322Y338122D01*
X242700Y295000D02*
X260200D01*
X294100Y322400D02*
X335100D01*
X254200Y282500D02*
X294100Y322400D01*
X254200Y262000D02*
Y282500D01*
X295448Y386748D02*
X295700Y387000D01*
X295448Y379087D02*
Y386748D01*
X322306Y370000D02*
X324976Y372669D01*
Y379087D01*
X282790Y397591D02*
X283200Y398000D01*
X281639Y397591D02*
X282790D01*
X281730Y387530D02*
X283200Y389000D01*
X281730Y387500D02*
Y387530D01*
X273007Y382807D02*
Y385780D01*
X269200Y379000D02*
X273007Y382807D01*
X303322Y351500D02*
Y379087D01*
X315133Y373925D02*
Y379087D01*
X311196Y369988D02*
X315133Y373925D01*
X311196Y345996D02*
Y369988D01*
X311196Y375500D02*
Y379087D01*
X309621Y373925D02*
X311196Y375500D01*
X309621Y348921D02*
Y373925D01*
X295448Y363158D02*
Y379087D01*
X315700Y362256D02*
X316025D01*
X317102Y363332D01*
Y379087D01*
X319070Y362386D02*
X319200Y362256D01*
X319070Y362386D02*
Y379087D01*
X326944Y362988D02*
X327200Y362732D01*
X326944Y362988D02*
Y379087D01*
X333637Y407433D02*
X342200D01*
X333637Y409402D02*
X342943D01*
X333637Y421213D02*
X339200D01*
X343444Y413500D02*
Y413894D01*
X342368Y414970D02*
X343444Y413894D01*
X341974Y414970D02*
X342368D01*
X341637Y415307D02*
X341974Y414970D01*
X333637Y415307D02*
X341637D01*
X343283Y413339D02*
X343444Y413500D01*
X342495Y412551D02*
X343283Y413339D01*
X333637D02*
X343283D01*
X280009Y385780D02*
X281730Y387500D01*
X273007Y385780D02*
X280009D01*
X282102Y409402D02*
X282200Y409500D01*
X273007Y409402D02*
X282102D01*
X277176Y433024D02*
X283200Y427000D01*
X273007Y433024D02*
X277176D01*
X281639Y397591D02*
X281730Y397500D01*
X273007Y397591D02*
X281639D01*
X253700Y422000D02*
X260393Y415307D01*
X273007D01*
X252200Y386000D02*
Y391000D01*
X250200Y398847D02*
X254850Y403496D01*
X273007D01*
X343444Y435000D02*
X352354D01*
X343436Y433024D02*
X343444Y433032D01*
X333637Y433024D02*
X343436D01*
X315200Y439783D02*
Y446500D01*
X315133Y439716D02*
X315200Y439783D01*
X303322Y434961D02*
Y439716D01*
X302200Y433839D02*
X303322Y434961D01*
X293039Y433839D02*
X302200D01*
X293031Y433831D02*
X293039Y433839D01*
X292369Y433831D02*
X293031D01*
X291511Y434689D02*
X292369Y433831D01*
X291511Y434689D02*
Y439716D01*
X284200Y433839D02*
X285606Y435244D01*
Y439716D01*
X287574Y432976D02*
Y439716D01*
X291511Y445764D02*
X291700Y445953D01*
X291511Y439716D02*
Y445764D01*
X280444Y448744D02*
X282806D01*
X279700Y448000D02*
X280444Y448744D01*
X279700Y439716D02*
Y448000D01*
X282806Y448744D02*
X283200D01*
X281730Y447668D02*
X282806Y448744D01*
X281730Y447261D02*
Y447668D01*
X281668Y447199D02*
X281730Y447261D01*
X281668Y439716D02*
Y447199D01*
X316700Y429500D02*
X321039Y433839D01*
Y439716D01*
X283700Y429500D02*
X316700D01*
X272200Y441000D02*
X283700Y429500D01*
X272200Y441000D02*
Y447500D01*
X267700Y452000D02*
X272200Y447500D01*
X301354Y439716D02*
Y446000D01*
X303322Y444834D02*
X305488Y447000D01*
X303322Y439716D02*
Y444834D01*
X306200Y432850D02*
Y434000D01*
X305291Y434909D02*
X306200Y434000D01*
X305291Y434909D02*
Y439716D01*
X313165Y433032D02*
Y439716D01*
X297200Y309500D02*
X340700D01*
X286950Y299250D02*
X297200Y309500D01*
X284200Y296500D02*
X286950Y299250D01*
Y300231D01*
X285700Y301481D02*
X286950Y300231D01*
X285700Y301481D02*
Y301500D01*
X259200Y315000D02*
X271775D01*
X235700Y338500D02*
X259200Y315000D01*
X235700Y338500D02*
Y369500D01*
X233200Y372000D02*
X235700Y369500D01*
X243853Y358500D02*
Y398847D01*
X245700Y360500D02*
Y407827D01*
X248200Y382000D02*
X252200Y386000D01*
X241527Y412000D02*
X245700Y407827D01*
X243853Y358500D02*
X261854Y340500D01*
X245700Y360500D02*
X263700Y342500D01*
X240700Y402000D02*
X243853Y398847D01*
X214200Y372000D02*
X233200D01*
X300200Y351500D02*
X303322D01*
X295700Y347000D02*
X300200Y351500D01*
X273200Y347000D02*
X295700D01*
X268700Y351500D02*
X273200Y347000D01*
X268700Y351500D02*
Y355654D01*
X294873Y339500D02*
X299200D01*
X293873Y340500D02*
X294873Y339500D01*
X261854Y340500D02*
X293873D01*
X359047Y399847D02*
Y435000D01*
X284200Y262000D02*
Y296500D01*
X298200Y321000D02*
X335680D01*
X264200Y287000D02*
X298200Y321000D01*
X264200Y262000D02*
Y287000D01*
X343200Y442500D02*
X356476D01*
X359047Y439929D01*
Y435000D02*
Y439929D01*
X214200Y382000D02*
X241200D01*
X240450Y392000D02*
X240700Y391750D01*
X214200Y392000D02*
X240450D01*
X248200Y391750D02*
X250200Y393750D01*
Y398847D01*
X300172Y347500D02*
X301200D01*
X301700Y347000D01*
Y342000D02*
Y347000D01*
X299200Y339500D02*
X301700Y342000D01*
X214200Y402000D02*
X240700D01*
X263700Y342500D02*
X297700D01*
X214200Y412000D02*
X241527D01*
X308200Y343000D02*
X311196Y345996D01*
X308200Y347500D02*
X309621Y348921D01*
X238200Y432500D02*
X243853D01*
X237700Y432000D02*
X238200Y432500D01*
X214200Y432000D02*
X237700D01*
X250547Y432500D02*
X253200D01*
X253700Y432000D01*
Y422000D02*
Y432000D01*
X257200Y452000D02*
X267700D01*
X250547D02*
X257200D01*
Y464154D01*
X234200Y262000D02*
Y286500D01*
X242700Y295000D01*
X262956Y379000D02*
X269200D01*
X291700Y445953D02*
Y448744D01*
X342818Y414126D02*
X343444Y413500D01*
X315700Y362500D02*
X315920Y362720D01*
X322062Y362500D02*
X322432D01*
X322062D02*
X322306Y362256D01*
X321230Y363332D02*
X322062Y362500D01*
X321230Y363332D02*
Y363386D01*
X322306Y362256D02*
X322676D01*
X322432Y362500D02*
X322676Y362256D01*
X264956Y433000D02*
X265456Y432500D01*
X283200Y448744D02*
X284200Y447744D01*
X282700Y448244D02*
X283200Y448744D01*
X214200Y452000D02*
X243853D01*
D20*
X132200Y62000D02*
X142200Y72000D01*
Y107000D01*
X136328Y183500D02*
X136572Y183256D01*
X133200Y186628D02*
X136328Y183500D01*
X56456Y155500D02*
X56554Y155402D01*
X67007D01*
X58956Y179000D02*
X58979Y179024D01*
X67007D01*
X136572Y183256D02*
X137444D01*
X133200Y186628D02*
Y190000D01*
X128200Y195000D02*
X133200Y190000D01*
X101700Y195000D02*
X128200D01*
X100700Y196000D02*
X101700Y195000D01*
X90200Y62000D02*
X132200D01*
X68200Y40000D02*
X90200Y62000D01*
X68200Y8000D02*
Y40000D01*
X62700Y108346D02*
X62791Y108256D01*
X74200D01*
X90200D01*
X51200Y216846D02*
X56200D01*
X51047Y217000D02*
X51200Y216846D01*
X46200Y217000D02*
X51047D01*
X74200Y98150D02*
Y102744D01*
X90200Y98150D02*
X90350Y98000D01*
X90200Y98150D02*
Y102744D01*
X121700D02*
Y103000D01*
X121375D02*
X121700D01*
X121119Y102744D02*
X121375Y103000D01*
X116700Y102744D02*
X121119D01*
X109700Y98000D02*
Y102744D01*
X116700Y98000D02*
Y102744D01*
X142956Y155000D02*
Y159500D01*
X147200D01*
X159875Y199500D02*
X160200D01*
X159619Y199244D02*
X159875Y199500D01*
X155200Y199244D02*
X159619D01*
X155200Y195000D02*
Y199244D01*
X146200Y194500D02*
Y199244D01*
X137200Y195000D02*
Y199244D01*
X132200D02*
X137200D01*
X97322Y211138D02*
X97448Y211012D01*
X102700D01*
X111495Y210724D02*
X116700D01*
X111495D02*
Y215000D01*
X102700Y211012D02*
Y215500D01*
X85700Y200256D02*
X90350D01*
X72200D02*
X77200D01*
X85700D02*
Y205000D01*
X77200Y200256D02*
Y205000D01*
X53444Y179000D02*
Y184000D01*
X46200Y155500D02*
X50944D01*
X46700Y125000D02*
X51444D01*
X338200Y62000D02*
X348200Y72000D01*
Y107000D01*
X342328Y183500D02*
X342572Y183256D01*
X339200Y186628D02*
X342328Y183500D01*
X262456Y155500D02*
X262554Y155402D01*
X273007D01*
X264956Y179000D02*
X264980Y179024D01*
X273007D01*
X342572Y183256D02*
X343444D01*
X339200Y186628D02*
Y190000D01*
X334200Y195000D02*
X339200Y190000D01*
X307700Y195000D02*
X334200D01*
X306700Y196000D02*
X307700Y195000D01*
X296200Y62000D02*
X338200D01*
X274200Y40000D02*
X296200Y62000D01*
X274200Y8000D02*
Y40000D01*
X268700Y108346D02*
X268791Y108256D01*
X280200D01*
X296200D01*
X257200Y216846D02*
X262200D01*
X257047Y217000D02*
X257200Y216846D01*
X252200Y217000D02*
X257047D01*
X280200Y98150D02*
Y102744D01*
X296200Y98150D02*
X296350Y98000D01*
X296200Y98150D02*
Y102744D01*
X327700D02*
Y103000D01*
X327375D02*
X327700D01*
X327119Y102744D02*
X327375Y103000D01*
X322700Y102744D02*
X327119D01*
X315700Y98000D02*
Y102744D01*
X322700Y98000D02*
Y102744D01*
X348956Y155000D02*
Y159500D01*
X353200D01*
X365875Y199500D02*
X366200D01*
X365619Y199244D02*
X365875Y199500D01*
X361200Y199244D02*
X365619D01*
X361200Y195000D02*
Y199244D01*
X352200Y194500D02*
Y199244D01*
X343200Y195000D02*
Y199244D01*
X338200D02*
X343200D01*
X303322Y211138D02*
X303448Y211012D01*
X308700D01*
X317495Y210724D02*
X322700D01*
X317495D02*
Y215000D01*
X308700Y211012D02*
Y215500D01*
X291700Y200256D02*
X296350D01*
X278200D02*
X283200D01*
X291700D02*
Y205000D01*
X283200Y200256D02*
Y205000D01*
X259444Y179000D02*
Y184000D01*
X252200Y155500D02*
X256944D01*
X252700Y125000D02*
X257444D01*
X132200Y316000D02*
X142200Y326000D01*
Y361000D01*
X136328Y437500D02*
X136572Y437256D01*
X133200Y440628D02*
X136328Y437500D01*
X56456Y409500D02*
X56554Y409402D01*
X67007D01*
X58956Y433000D02*
X58979Y433024D01*
X67007D01*
X136572Y437256D02*
X137444D01*
X133200Y440628D02*
Y444000D01*
X128200Y449000D02*
X133200Y444000D01*
X101700Y449000D02*
X128200D01*
X100700Y450000D02*
X101700Y449000D01*
X90200Y316000D02*
X132200D01*
X68200Y294000D02*
X90200Y316000D01*
X68200Y262000D02*
Y294000D01*
X62700Y362347D02*
X62791Y362256D01*
X74200D01*
X90200D01*
X51200Y470847D02*
X56200D01*
X51047Y471000D02*
X51200Y470847D01*
X46200Y471000D02*
X51047D01*
X74200Y352150D02*
Y356744D01*
X90200Y352150D02*
X90350Y352000D01*
X90200Y352150D02*
Y356744D01*
X121700D02*
Y357000D01*
X121375D02*
X121700D01*
X121119Y356744D02*
X121375Y357000D01*
X116700Y356744D02*
X121119D01*
X109700Y352000D02*
Y356744D01*
X116700Y352000D02*
Y356744D01*
X142956Y409000D02*
Y413500D01*
X147200D01*
X159875Y453500D02*
X160200D01*
X159619Y453244D02*
X159875Y453500D01*
X155200Y453244D02*
X159619D01*
X155200Y449000D02*
Y453244D01*
X146200Y448500D02*
Y453244D01*
X137200Y449000D02*
Y453244D01*
X132200D02*
X137200D01*
X97322Y465138D02*
X97448Y465012D01*
X102700D01*
X111495Y464724D02*
X116700D01*
X111495D02*
Y469000D01*
X102700Y465012D02*
Y469500D01*
X85700Y454256D02*
X90350D01*
X72200D02*
X77200D01*
X85700D02*
Y459000D01*
X77200Y454256D02*
Y459000D01*
X53444Y433000D02*
Y438000D01*
X46200Y409500D02*
X50944D01*
X46700Y379000D02*
X51444D01*
X338200Y316000D02*
X348200Y326000D01*
Y361000D01*
X342328Y437500D02*
X342572Y437256D01*
X339200Y440628D02*
X342328Y437500D01*
X262456Y409500D02*
X262554Y409402D01*
X273007D01*
X264956Y433000D02*
X264980Y433024D01*
X273007D01*
X342572Y437256D02*
X343444D01*
X339200Y440628D02*
Y444000D01*
X334200Y449000D02*
X339200Y444000D01*
X307700Y449000D02*
X334200D01*
X306700Y450000D02*
X307700Y449000D01*
X296200Y316000D02*
X338200D01*
X274200Y294000D02*
X296200Y316000D01*
X274200Y262000D02*
Y294000D01*
X268700Y362347D02*
X268791Y362256D01*
X280200D01*
X296200D01*
X257200Y470847D02*
X262200D01*
X257047Y471000D02*
X257200Y470847D01*
X252200Y471000D02*
X257047D01*
X280200Y352150D02*
Y356744D01*
X296200Y352150D02*
X296350Y352000D01*
X296200Y352150D02*
Y356744D01*
X327700D02*
Y357000D01*
X327375D02*
X327700D01*
X327119Y356744D02*
X327375Y357000D01*
X322700Y356744D02*
X327119D01*
X315700Y352000D02*
Y356744D01*
X322700Y352000D02*
Y356744D01*
X348956Y409000D02*
Y413500D01*
X353200D01*
X365875Y453500D02*
X366200D01*
X365619Y453244D02*
X365875Y453500D01*
X361200Y453244D02*
X365619D01*
X361200Y449000D02*
Y453244D01*
X352200Y448500D02*
Y453244D01*
X343200Y449000D02*
Y453244D01*
X338200D02*
X343200D01*
X303322Y465138D02*
X303448Y465012D01*
X308700D01*
X317495Y464724D02*
X322700D01*
X317495D02*
Y469000D01*
X308700Y465012D02*
Y469500D01*
X291700Y454256D02*
X296350D01*
X278200D02*
X283200D01*
X291700D02*
Y459000D01*
X283200Y454256D02*
Y459000D01*
X259444Y433000D02*
Y438000D01*
X252200Y409500D02*
X256944D01*
X252700Y379000D02*
X257444D01*
D21*
X100700Y196000D02*
Y197536D01*
Y194212D02*
Y196000D01*
Y197536D02*
X101552Y198388D01*
X104363D01*
X104590Y198614D01*
Y199000D01*
X99488Y193000D02*
X100700Y194212D01*
X17235Y68000D02*
X18700Y66536D01*
X8200Y68000D02*
X17235D01*
X18700Y21000D02*
Y66536D01*
X16700Y19000D02*
X18700Y21000D01*
X12700Y19000D02*
X16700D01*
X9352Y15652D02*
X12700Y19000D01*
X9352Y9152D02*
Y15652D01*
X8200Y8000D02*
X9352Y9152D01*
X155200Y99500D02*
Y107000D01*
Y99500D02*
X166700Y88000D01*
X198200D01*
X306700Y196000D02*
Y197536D01*
Y194212D02*
Y196000D01*
Y197536D02*
X307552Y198388D01*
X310363D01*
X310590Y198614D01*
Y199000D01*
X305488Y193000D02*
X306700Y194212D01*
X223236Y68000D02*
X224700Y66536D01*
X214200Y68000D02*
X223236D01*
X224700Y21000D02*
Y66536D01*
X222700Y19000D02*
X224700Y21000D01*
X218700Y19000D02*
X222700D01*
X215352Y15652D02*
X218700Y19000D01*
X215352Y9152D02*
Y15652D01*
X214200Y8000D02*
X215352Y9152D01*
X361200Y99500D02*
Y107000D01*
Y99500D02*
X372700Y88000D01*
X404200D01*
X100700Y450000D02*
Y451536D01*
Y448212D02*
Y450000D01*
Y451536D02*
X101552Y452388D01*
X104363D01*
X104590Y452614D01*
Y453000D01*
X99488Y447000D02*
X100700Y448212D01*
X17235Y322000D02*
X18700Y320535D01*
X8200Y322000D02*
X17235D01*
X18700Y275000D02*
Y320535D01*
X16700Y273000D02*
X18700Y275000D01*
X12700Y273000D02*
X16700D01*
X9352Y269652D02*
X12700Y273000D01*
X9352Y263152D02*
Y269652D01*
X8200Y262000D02*
X9352Y263152D01*
X155200Y353500D02*
Y361000D01*
Y353500D02*
X166700Y342000D01*
X198200D01*
X306700Y450000D02*
Y451536D01*
Y448212D02*
Y450000D01*
Y451536D02*
X307552Y452388D01*
X310363D01*
X310590Y452614D01*
Y453000D01*
X305488Y447000D02*
X306700Y448212D01*
X223236Y322000D02*
X224700Y320535D01*
X214200Y322000D02*
X223236D01*
X224700Y275000D02*
Y320535D01*
X222700Y273000D02*
X224700Y275000D01*
X218700Y273000D02*
X222700D01*
X215352Y269652D02*
X218700Y273000D01*
X215352Y263152D02*
Y269652D01*
X214200Y262000D02*
X215352Y263152D01*
X361200Y353500D02*
Y361000D01*
Y353500D02*
X372700Y342000D01*
X404200D01*
D22*
X98200Y38000D02*
D03*
X28200Y238000D02*
D03*
X178200D02*
D03*
X304200Y38000D02*
D03*
X234200Y238000D02*
D03*
X384200D02*
D03*
X98200Y292000D02*
D03*
X28200Y492000D02*
D03*
X178200D02*
D03*
X304200Y292000D02*
D03*
X234200Y492000D02*
D03*
X384200D02*
D03*
D23*
X8200Y218000D02*
D03*
X198200D02*
D03*
X214200D02*
D03*
X404200D02*
D03*
X8200Y472000D02*
D03*
X198200D02*
D03*
X214200D02*
D03*
X404200D02*
D03*
D24*
X8200Y208000D02*
D03*
Y198000D02*
D03*
Y188000D02*
D03*
Y178000D02*
D03*
Y168000D02*
D03*
Y158000D02*
D03*
Y148000D02*
D03*
Y138000D02*
D03*
Y128000D02*
D03*
Y118000D02*
D03*
Y108000D02*
D03*
Y98000D02*
D03*
Y88000D02*
D03*
Y78000D02*
D03*
Y68000D02*
D03*
Y58000D02*
D03*
Y48000D02*
D03*
Y38000D02*
D03*
Y28000D02*
D03*
X198200Y208000D02*
D03*
Y198000D02*
D03*
Y188000D02*
D03*
Y178000D02*
D03*
Y168000D02*
D03*
Y158000D02*
D03*
Y148000D02*
D03*
Y138000D02*
D03*
Y128000D02*
D03*
Y118000D02*
D03*
Y108000D02*
D03*
Y98000D02*
D03*
Y88000D02*
D03*
Y78000D02*
D03*
Y68000D02*
D03*
Y58000D02*
D03*
Y48000D02*
D03*
Y38000D02*
D03*
Y28000D02*
D03*
X214200Y208000D02*
D03*
Y198000D02*
D03*
Y188000D02*
D03*
Y178000D02*
D03*
Y168000D02*
D03*
Y158000D02*
D03*
Y148000D02*
D03*
Y138000D02*
D03*
Y128000D02*
D03*
Y118000D02*
D03*
Y108000D02*
D03*
Y98000D02*
D03*
Y88000D02*
D03*
Y78000D02*
D03*
Y68000D02*
D03*
Y58000D02*
D03*
Y48000D02*
D03*
Y38000D02*
D03*
Y28000D02*
D03*
X404200Y208000D02*
D03*
Y198000D02*
D03*
Y188000D02*
D03*
Y178000D02*
D03*
Y168000D02*
D03*
Y158000D02*
D03*
Y148000D02*
D03*
Y138000D02*
D03*
Y128000D02*
D03*
Y118000D02*
D03*
Y108000D02*
D03*
Y98000D02*
D03*
Y88000D02*
D03*
Y78000D02*
D03*
Y68000D02*
D03*
Y58000D02*
D03*
Y48000D02*
D03*
Y38000D02*
D03*
Y28000D02*
D03*
X8200Y462000D02*
D03*
Y452000D02*
D03*
Y442000D02*
D03*
Y432000D02*
D03*
Y422000D02*
D03*
Y412000D02*
D03*
Y402000D02*
D03*
Y392000D02*
D03*
Y382000D02*
D03*
Y372000D02*
D03*
Y362000D02*
D03*
Y352000D02*
D03*
Y342000D02*
D03*
Y332000D02*
D03*
Y322000D02*
D03*
Y312000D02*
D03*
Y302000D02*
D03*
Y292000D02*
D03*
Y282000D02*
D03*
X198200Y462000D02*
D03*
Y452000D02*
D03*
Y442000D02*
D03*
Y432000D02*
D03*
Y422000D02*
D03*
Y412000D02*
D03*
Y402000D02*
D03*
Y392000D02*
D03*
Y382000D02*
D03*
Y372000D02*
D03*
Y362000D02*
D03*
Y352000D02*
D03*
Y342000D02*
D03*
Y332000D02*
D03*
Y322000D02*
D03*
Y312000D02*
D03*
Y302000D02*
D03*
Y292000D02*
D03*
Y282000D02*
D03*
X214200Y462000D02*
D03*
Y452000D02*
D03*
Y442000D02*
D03*
Y432000D02*
D03*
Y422000D02*
D03*
Y412000D02*
D03*
Y402000D02*
D03*
Y392000D02*
D03*
Y382000D02*
D03*
Y372000D02*
D03*
Y362000D02*
D03*
Y352000D02*
D03*
Y342000D02*
D03*
Y332000D02*
D03*
Y322000D02*
D03*
Y312000D02*
D03*
Y302000D02*
D03*
Y292000D02*
D03*
Y282000D02*
D03*
X404200Y462000D02*
D03*
Y452000D02*
D03*
Y442000D02*
D03*
Y432000D02*
D03*
Y422000D02*
D03*
Y412000D02*
D03*
Y402000D02*
D03*
Y392000D02*
D03*
Y382000D02*
D03*
Y372000D02*
D03*
Y362000D02*
D03*
Y352000D02*
D03*
Y342000D02*
D03*
Y332000D02*
D03*
Y322000D02*
D03*
Y312000D02*
D03*
Y302000D02*
D03*
Y292000D02*
D03*
Y282000D02*
D03*
D25*
X8200Y8000D02*
D03*
X214200D02*
D03*
X8200Y262000D02*
D03*
X214200D02*
D03*
D26*
X18200Y8000D02*
D03*
X28200D02*
D03*
X38200D02*
D03*
X48200D02*
D03*
X58200D02*
D03*
X68200D02*
D03*
X78200D02*
D03*
X88200D02*
D03*
X98200D02*
D03*
X108200D02*
D03*
X118200D02*
D03*
X128200D02*
D03*
X138200D02*
D03*
X148200D02*
D03*
X158200D02*
D03*
X168200D02*
D03*
X178200D02*
D03*
X188200D02*
D03*
X198200D02*
D03*
X224200D02*
D03*
X234200D02*
D03*
X244200D02*
D03*
X254200D02*
D03*
X264200D02*
D03*
X274200D02*
D03*
X284200D02*
D03*
X294200D02*
D03*
X304200D02*
D03*
X314200D02*
D03*
X324200D02*
D03*
X334200D02*
D03*
X344200D02*
D03*
X354200D02*
D03*
X364200D02*
D03*
X374200D02*
D03*
X384200D02*
D03*
X394200D02*
D03*
X404200D02*
D03*
X18200Y262000D02*
D03*
X28200D02*
D03*
X38200D02*
D03*
X48200D02*
D03*
X58200D02*
D03*
X68200D02*
D03*
X78200D02*
D03*
X88200D02*
D03*
X98200D02*
D03*
X108200D02*
D03*
X118200D02*
D03*
X128200D02*
D03*
X138200D02*
D03*
X148200D02*
D03*
X158200D02*
D03*
X168200D02*
D03*
X178200D02*
D03*
X188200D02*
D03*
X198200D02*
D03*
X224200D02*
D03*
X234200D02*
D03*
X244200D02*
D03*
X254200D02*
D03*
X264200D02*
D03*
X274200D02*
D03*
X284200D02*
D03*
X294200D02*
D03*
X304200D02*
D03*
X314200D02*
D03*
X324200D02*
D03*
X334200D02*
D03*
X344200D02*
D03*
X354200D02*
D03*
X364200D02*
D03*
X374200D02*
D03*
X384200D02*
D03*
X394200D02*
D03*
X404200D02*
D03*
D27*
X155200Y130500D02*
D03*
X151200Y129000D02*
D03*
X147700Y127500D02*
D03*
X142200Y107000D02*
D03*
X134700Y137750D02*
D03*
Y133530D02*
D03*
Y129500D02*
D03*
X83200Y178500D02*
D03*
X116306Y116000D02*
D03*
X133200Y167213D02*
D03*
X109200Y192500D02*
D03*
X78200Y179839D02*
D03*
X100200Y178850D02*
D03*
X107165Y179032D02*
D03*
X79700Y47500D02*
D03*
X65775Y61000D02*
D03*
X42200Y128000D02*
D03*
X127047Y98000D02*
D03*
X142700Y169575D02*
D03*
X147200Y174500D02*
D03*
X114846Y199000D02*
D03*
X131700Y107500D02*
D03*
X155200Y107000D02*
D03*
X137200Y188500D02*
D03*
X35200Y128000D02*
D03*
X34700Y137750D02*
D03*
X42200D02*
D03*
X94172Y93500D02*
D03*
X91700Y88500D02*
D03*
X102200Y89000D02*
D03*
Y93500D02*
D03*
X56200Y216846D02*
D03*
X46200Y217000D02*
D03*
X74200Y98150D02*
D03*
X90350Y98000D02*
D03*
X121700Y103000D02*
D03*
X109700Y98000D02*
D03*
X116700D02*
D03*
X142956Y155000D02*
D03*
X147200Y159500D02*
D03*
X160200Y199500D02*
D03*
X155200Y195000D02*
D03*
X146200Y194500D02*
D03*
X137200Y195000D02*
D03*
X132200Y199244D02*
D03*
X97322Y211138D02*
D03*
X116700Y210724D02*
D03*
X111495Y215000D02*
D03*
X102700Y215500D02*
D03*
X90350Y200256D02*
D03*
X72200D02*
D03*
X85700Y205000D02*
D03*
X77200D02*
D03*
X53444Y184000D02*
D03*
X46200Y155500D02*
D03*
X46700Y125000D02*
D03*
X361200Y130500D02*
D03*
X357200Y129000D02*
D03*
X353700Y127500D02*
D03*
X348200Y107000D02*
D03*
X340700Y137750D02*
D03*
Y133530D02*
D03*
Y129500D02*
D03*
X289200Y178500D02*
D03*
X322306Y116000D02*
D03*
X339200Y167213D02*
D03*
X315200Y192500D02*
D03*
X284200Y179839D02*
D03*
X306200Y178850D02*
D03*
X313165Y179032D02*
D03*
X285700Y47500D02*
D03*
X271775Y61000D02*
D03*
X248200Y128000D02*
D03*
X333047Y98000D02*
D03*
X348700Y169575D02*
D03*
X353200Y174500D02*
D03*
X320846Y199000D02*
D03*
X337700Y107500D02*
D03*
X361200Y107000D02*
D03*
X343200Y188500D02*
D03*
X241200Y128000D02*
D03*
X240700Y137750D02*
D03*
X248200D02*
D03*
X300172Y93500D02*
D03*
X297700Y88500D02*
D03*
X308200Y89000D02*
D03*
Y93500D02*
D03*
X262200Y216846D02*
D03*
X252200Y217000D02*
D03*
X280200Y98150D02*
D03*
X296350Y98000D02*
D03*
X327700Y103000D02*
D03*
X315700Y98000D02*
D03*
X322700D02*
D03*
X348956Y155000D02*
D03*
X353200Y159500D02*
D03*
X366200Y199500D02*
D03*
X361200Y195000D02*
D03*
X352200Y194500D02*
D03*
X343200Y195000D02*
D03*
X338200Y199244D02*
D03*
X303322Y211138D02*
D03*
X322700Y210724D02*
D03*
X317495Y215000D02*
D03*
X308700Y215500D02*
D03*
X296350Y200256D02*
D03*
X278200D02*
D03*
X291700Y205000D02*
D03*
X283200D02*
D03*
X259444Y184000D02*
D03*
X252200Y155500D02*
D03*
X252700Y125000D02*
D03*
X155200Y384500D02*
D03*
X151200Y383000D02*
D03*
X147700Y381500D02*
D03*
X142200Y361000D02*
D03*
X134700Y391750D02*
D03*
Y387530D02*
D03*
Y383500D02*
D03*
X83200Y432500D02*
D03*
X116306Y370000D02*
D03*
X133200Y421213D02*
D03*
X109200Y446500D02*
D03*
X78200Y433839D02*
D03*
X100200Y432850D02*
D03*
X107165Y433032D02*
D03*
X79700Y301500D02*
D03*
X65775Y315000D02*
D03*
X42200Y382000D02*
D03*
X127047Y352000D02*
D03*
X142700Y423575D02*
D03*
X147200Y428500D02*
D03*
X114846Y453000D02*
D03*
X131700Y361500D02*
D03*
X155200Y361000D02*
D03*
X137200Y442500D02*
D03*
X35200Y382000D02*
D03*
X34700Y391750D02*
D03*
X42200D02*
D03*
X94172Y347500D02*
D03*
X91700Y342500D02*
D03*
X102200Y343000D02*
D03*
Y347500D02*
D03*
X56200Y470847D02*
D03*
X46200Y471000D02*
D03*
X74200Y352150D02*
D03*
X90350Y352000D02*
D03*
X121700Y357000D02*
D03*
X109700Y352000D02*
D03*
X116700D02*
D03*
X142956Y409000D02*
D03*
X147200Y413500D02*
D03*
X160200Y453500D02*
D03*
X155200Y449000D02*
D03*
X146200Y448500D02*
D03*
X137200Y449000D02*
D03*
X132200Y453244D02*
D03*
X97322Y465138D02*
D03*
X116700Y464724D02*
D03*
X111495Y469000D02*
D03*
X102700Y469500D02*
D03*
X90350Y454256D02*
D03*
X72200D02*
D03*
X85700Y459000D02*
D03*
X77200D02*
D03*
X53444Y438000D02*
D03*
X46200Y409500D02*
D03*
X46700Y379000D02*
D03*
X361200Y384500D02*
D03*
X357200Y383000D02*
D03*
X353700Y381500D02*
D03*
X348200Y361000D02*
D03*
X340700Y391750D02*
D03*
Y387530D02*
D03*
Y383500D02*
D03*
X289200Y432500D02*
D03*
X322306Y370000D02*
D03*
X339200Y421213D02*
D03*
X315200Y446500D02*
D03*
X284200Y433839D02*
D03*
X306200Y432850D02*
D03*
X313165Y433032D02*
D03*
X285700Y301500D02*
D03*
X271775Y315000D02*
D03*
X248200Y382000D02*
D03*
X333047Y352000D02*
D03*
X348700Y423575D02*
D03*
X353200Y428500D02*
D03*
X320846Y453000D02*
D03*
X337700Y361500D02*
D03*
X361200Y361000D02*
D03*
X343200Y442500D02*
D03*
X241200Y382000D02*
D03*
X240700Y391750D02*
D03*
X248200D02*
D03*
X300172Y347500D02*
D03*
X297700Y342500D02*
D03*
X308200Y343000D02*
D03*
Y347500D02*
D03*
X262200Y470847D02*
D03*
X252200Y471000D02*
D03*
X280200Y352150D02*
D03*
X296350Y352000D02*
D03*
X327700Y357000D02*
D03*
X315700Y352000D02*
D03*
X322700D02*
D03*
X348956Y409000D02*
D03*
X353200Y413500D02*
D03*
X366200Y453500D02*
D03*
X361200Y449000D02*
D03*
X352200Y448500D02*
D03*
X343200Y449000D02*
D03*
X338200Y453244D02*
D03*
X303322Y465138D02*
D03*
X322700Y464724D02*
D03*
X317495Y469000D02*
D03*
X308700Y469500D02*
D03*
X296350Y454256D02*
D03*
X278200D02*
D03*
X291700Y459000D02*
D03*
X283200D02*
D03*
X259444Y438000D02*
D03*
X252200Y409500D02*
D03*
X252700Y379000D02*
D03*
D28*
X99488Y157567D02*
D03*
Y153237D02*
D03*
X95157Y157567D02*
D03*
X95157Y153237D02*
D03*
X305488Y157567D02*
D03*
Y153237D02*
D03*
X301157Y157567D02*
D03*
X301157Y153237D02*
D03*
X99488Y411567D02*
D03*
Y407236D02*
D03*
X95157Y411567D02*
D03*
X95157Y407236D02*
D03*
X305488Y411567D02*
D03*
Y407236D02*
D03*
X301157Y411567D02*
D03*
X301157Y407236D02*
D03*
M02*
