G04*
G04 #@! TF.GenerationSoftware,Altium Limited,Altium Designer,21.8.1 (53)*
G04*
G04 Layer_Color=8421504*
%FSLAX25Y25*%
%MOIN*%
G70*
G04*
G04 #@! TF.SameCoordinates,8FA63536-6A95-4487-AB72-3BC32280AE34*
G04*
G04*
G04 #@! TF.FilePolarity,Positive*
G04*
G01*
G75*
%ADD11O,0.01181X0.05512*%
%ADD12O,0.05512X0.01181*%
%ADD14R,0.03740X0.02953*%
G04:AMPARAMS|DCode=15|XSize=39.37mil|YSize=35.43mil|CornerRadius=4.43mil|HoleSize=0mil|Usage=FLASHONLY|Rotation=0.000|XOffset=0mil|YOffset=0mil|HoleType=Round|Shape=RoundedRectangle|*
%AMROUNDEDRECTD15*
21,1,0.03937,0.02657,0,0,0.0*
21,1,0.03051,0.03543,0,0,0.0*
1,1,0.00886,0.01526,-0.01329*
1,1,0.00886,-0.01526,-0.01329*
1,1,0.00886,-0.01526,0.01329*
1,1,0.00886,0.01526,0.01329*
%
%ADD15ROUNDEDRECTD15*%
%ADD16R,0.02953X0.03740*%
G04:AMPARAMS|DCode=17|XSize=39.37mil|YSize=35.43mil|CornerRadius=4.43mil|HoleSize=0mil|Usage=FLASHONLY|Rotation=270.000|XOffset=0mil|YOffset=0mil|HoleType=Round|Shape=RoundedRectangle|*
%AMROUNDEDRECTD17*
21,1,0.03937,0.02657,0,0,270.0*
21,1,0.03051,0.03543,0,0,270.0*
1,1,0.00886,-0.01329,-0.01526*
1,1,0.00886,-0.01329,0.01526*
1,1,0.00886,0.01329,0.01526*
1,1,0.00886,0.01329,-0.01526*
%
%ADD17ROUNDEDRECTD17*%
%ADD34R,0.05531X0.05531*%
D11*
X120944Y125087D02*
D03*
X118976D02*
D03*
X117007D02*
D03*
X115039D02*
D03*
X113070D02*
D03*
X111102D02*
D03*
X109133D02*
D03*
X107165D02*
D03*
X105196D02*
D03*
X103228D02*
D03*
X101259D02*
D03*
X99291D02*
D03*
X97322D02*
D03*
X95354D02*
D03*
X93385D02*
D03*
X91417D02*
D03*
X89448D02*
D03*
X87480D02*
D03*
X85511D02*
D03*
X83543D02*
D03*
X81574D02*
D03*
X79606D02*
D03*
X77637D02*
D03*
X75669D02*
D03*
X73700D02*
D03*
Y185716D02*
D03*
X75669D02*
D03*
X77637D02*
D03*
X79606D02*
D03*
X81574D02*
D03*
X83543D02*
D03*
X85511D02*
D03*
X87480D02*
D03*
X89448D02*
D03*
X91417D02*
D03*
X93385D02*
D03*
X95354D02*
D03*
X97322D02*
D03*
X99291D02*
D03*
X101259D02*
D03*
X103228D02*
D03*
X105196D02*
D03*
X107165D02*
D03*
X109133D02*
D03*
X111102D02*
D03*
X113070D02*
D03*
X115039D02*
D03*
X117007D02*
D03*
X118976D02*
D03*
X120944D02*
D03*
X326944Y125087D02*
D03*
X324976D02*
D03*
X323007D02*
D03*
X321039D02*
D03*
X319070D02*
D03*
X317102D02*
D03*
X315133D02*
D03*
X313165D02*
D03*
X311196D02*
D03*
X309228D02*
D03*
X307259D02*
D03*
X305291D02*
D03*
X303322D02*
D03*
X301354D02*
D03*
X299385D02*
D03*
X297416D02*
D03*
X295448D02*
D03*
X293479D02*
D03*
X291511D02*
D03*
X289543D02*
D03*
X287574D02*
D03*
X285606D02*
D03*
X283637D02*
D03*
X281668D02*
D03*
X279700D02*
D03*
Y185716D02*
D03*
X281668D02*
D03*
X283637D02*
D03*
X285606D02*
D03*
X287574D02*
D03*
X289543D02*
D03*
X291511D02*
D03*
X293479D02*
D03*
X295448D02*
D03*
X297416D02*
D03*
X299385D02*
D03*
X301354D02*
D03*
X303322D02*
D03*
X305291D02*
D03*
X307259D02*
D03*
X309228D02*
D03*
X311196D02*
D03*
X313165D02*
D03*
X315133D02*
D03*
X317102D02*
D03*
X319070D02*
D03*
X321039D02*
D03*
X323007D02*
D03*
X324976D02*
D03*
X326944D02*
D03*
X120944Y379087D02*
D03*
X118976D02*
D03*
X117007D02*
D03*
X115039D02*
D03*
X113070D02*
D03*
X111102D02*
D03*
X109133D02*
D03*
X107165D02*
D03*
X105196D02*
D03*
X103228D02*
D03*
X101259D02*
D03*
X99291D02*
D03*
X97322D02*
D03*
X95354D02*
D03*
X93385D02*
D03*
X91417D02*
D03*
X89448D02*
D03*
X87480D02*
D03*
X85511D02*
D03*
X83543D02*
D03*
X81574D02*
D03*
X79606D02*
D03*
X77637D02*
D03*
X75669D02*
D03*
X73700D02*
D03*
Y439716D02*
D03*
X75669D02*
D03*
X77637D02*
D03*
X79606D02*
D03*
X81574D02*
D03*
X83543D02*
D03*
X85511D02*
D03*
X87480D02*
D03*
X89448D02*
D03*
X91417D02*
D03*
X93385D02*
D03*
X95354D02*
D03*
X97322D02*
D03*
X99291D02*
D03*
X101259D02*
D03*
X103228D02*
D03*
X105196D02*
D03*
X107165D02*
D03*
X109133D02*
D03*
X111102D02*
D03*
X113070D02*
D03*
X115039D02*
D03*
X117007D02*
D03*
X118976D02*
D03*
X120944D02*
D03*
X326944Y379087D02*
D03*
X324976D02*
D03*
X323007D02*
D03*
X321039D02*
D03*
X319070D02*
D03*
X317102D02*
D03*
X315133D02*
D03*
X313165D02*
D03*
X311196D02*
D03*
X309228D02*
D03*
X307259D02*
D03*
X305291D02*
D03*
X303322D02*
D03*
X301354D02*
D03*
X299385D02*
D03*
X297416D02*
D03*
X295448D02*
D03*
X293479D02*
D03*
X291511D02*
D03*
X289543D02*
D03*
X287574D02*
D03*
X285606D02*
D03*
X283637D02*
D03*
X281668D02*
D03*
X279700D02*
D03*
Y439716D02*
D03*
X281668D02*
D03*
X283637D02*
D03*
X285606D02*
D03*
X287574D02*
D03*
X289543D02*
D03*
X291511D02*
D03*
X293479D02*
D03*
X295448D02*
D03*
X297416D02*
D03*
X299385D02*
D03*
X301354D02*
D03*
X303322D02*
D03*
X305291D02*
D03*
X307259D02*
D03*
X309228D02*
D03*
X311196D02*
D03*
X313165D02*
D03*
X315133D02*
D03*
X317102D02*
D03*
X319070D02*
D03*
X321039D02*
D03*
X323007D02*
D03*
X324976D02*
D03*
X326944D02*
D03*
D12*
X67007Y131780D02*
D03*
Y133748D02*
D03*
Y135716D02*
D03*
Y137685D02*
D03*
Y139654D02*
D03*
Y141622D02*
D03*
Y143591D02*
D03*
Y145559D02*
D03*
Y147528D02*
D03*
Y149496D02*
D03*
Y151465D02*
D03*
Y153433D02*
D03*
Y155402D02*
D03*
Y157370D02*
D03*
Y159339D02*
D03*
Y161307D02*
D03*
Y163276D02*
D03*
Y165244D02*
D03*
Y167213D02*
D03*
Y169181D02*
D03*
Y171150D02*
D03*
Y173118D02*
D03*
Y175087D02*
D03*
Y177055D02*
D03*
Y179024D02*
D03*
X127637D02*
D03*
Y177055D02*
D03*
Y175087D02*
D03*
Y173118D02*
D03*
Y171150D02*
D03*
Y169181D02*
D03*
Y167213D02*
D03*
Y165244D02*
D03*
Y163276D02*
D03*
Y161307D02*
D03*
Y159339D02*
D03*
Y157370D02*
D03*
Y155402D02*
D03*
Y153433D02*
D03*
Y151465D02*
D03*
Y149496D02*
D03*
Y147528D02*
D03*
Y145559D02*
D03*
Y143591D02*
D03*
Y141622D02*
D03*
Y139654D02*
D03*
Y137685D02*
D03*
Y135716D02*
D03*
Y133748D02*
D03*
Y131780D02*
D03*
X273007D02*
D03*
Y133748D02*
D03*
Y135716D02*
D03*
Y137685D02*
D03*
Y139654D02*
D03*
Y141622D02*
D03*
Y143591D02*
D03*
Y145559D02*
D03*
Y147528D02*
D03*
Y149496D02*
D03*
Y151465D02*
D03*
Y153433D02*
D03*
Y155402D02*
D03*
Y157370D02*
D03*
Y159339D02*
D03*
Y161307D02*
D03*
Y163276D02*
D03*
Y165244D02*
D03*
Y167213D02*
D03*
Y169181D02*
D03*
Y171150D02*
D03*
Y173118D02*
D03*
Y175087D02*
D03*
Y177055D02*
D03*
Y179024D02*
D03*
X333637D02*
D03*
Y177055D02*
D03*
Y175087D02*
D03*
Y173118D02*
D03*
Y171150D02*
D03*
Y169181D02*
D03*
Y167213D02*
D03*
Y165244D02*
D03*
Y163276D02*
D03*
Y161307D02*
D03*
Y159339D02*
D03*
Y157370D02*
D03*
Y155402D02*
D03*
Y153433D02*
D03*
Y151465D02*
D03*
Y149496D02*
D03*
Y147528D02*
D03*
Y145559D02*
D03*
Y143591D02*
D03*
Y141622D02*
D03*
Y139654D02*
D03*
Y137685D02*
D03*
Y135716D02*
D03*
Y133748D02*
D03*
Y131780D02*
D03*
X67007Y385780D02*
D03*
Y387748D02*
D03*
Y389717D02*
D03*
Y391685D02*
D03*
Y393653D02*
D03*
Y395622D02*
D03*
Y397591D02*
D03*
Y399559D02*
D03*
Y401528D02*
D03*
Y403496D02*
D03*
Y405465D02*
D03*
Y407433D02*
D03*
Y409402D02*
D03*
Y411370D02*
D03*
Y413339D02*
D03*
Y415307D02*
D03*
Y417276D02*
D03*
Y419244D02*
D03*
Y421213D02*
D03*
Y423181D02*
D03*
Y425150D02*
D03*
Y427118D02*
D03*
Y429087D02*
D03*
Y431055D02*
D03*
Y433024D02*
D03*
X127637D02*
D03*
Y431055D02*
D03*
Y429087D02*
D03*
Y427118D02*
D03*
Y425150D02*
D03*
Y423181D02*
D03*
Y421213D02*
D03*
Y419244D02*
D03*
Y417276D02*
D03*
Y415307D02*
D03*
Y413339D02*
D03*
Y411370D02*
D03*
Y409402D02*
D03*
Y407433D02*
D03*
Y405465D02*
D03*
Y403496D02*
D03*
Y401528D02*
D03*
Y399559D02*
D03*
Y397591D02*
D03*
Y395622D02*
D03*
Y393653D02*
D03*
Y391685D02*
D03*
Y389717D02*
D03*
Y387748D02*
D03*
Y385780D02*
D03*
X273007D02*
D03*
Y387748D02*
D03*
Y389717D02*
D03*
Y391685D02*
D03*
Y393653D02*
D03*
Y395622D02*
D03*
Y397591D02*
D03*
Y399559D02*
D03*
Y401528D02*
D03*
Y403496D02*
D03*
Y405465D02*
D03*
Y407433D02*
D03*
Y409402D02*
D03*
Y411370D02*
D03*
Y413339D02*
D03*
Y415307D02*
D03*
Y417276D02*
D03*
Y419244D02*
D03*
Y421213D02*
D03*
Y423181D02*
D03*
Y425150D02*
D03*
Y427118D02*
D03*
Y429087D02*
D03*
Y431055D02*
D03*
Y433024D02*
D03*
X333637D02*
D03*
Y431055D02*
D03*
Y429087D02*
D03*
Y427118D02*
D03*
Y425150D02*
D03*
Y423181D02*
D03*
Y421213D02*
D03*
Y419244D02*
D03*
Y417276D02*
D03*
Y415307D02*
D03*
Y413339D02*
D03*
Y411370D02*
D03*
Y409402D02*
D03*
Y407433D02*
D03*
Y405465D02*
D03*
Y403496D02*
D03*
Y401528D02*
D03*
Y399559D02*
D03*
Y397591D02*
D03*
Y395622D02*
D03*
Y393653D02*
D03*
Y391685D02*
D03*
Y389717D02*
D03*
Y387748D02*
D03*
Y385780D02*
D03*
D14*
X127200Y102744D02*
D03*
Y108256D02*
D03*
X116700Y102744D02*
D03*
Y108256D02*
D03*
X109700D02*
D03*
Y102744D02*
D03*
X90200Y108256D02*
D03*
Y102744D02*
D03*
X74200Y108256D02*
D03*
Y102744D02*
D03*
X155200Y204756D02*
D03*
Y199244D02*
D03*
X146200Y204756D02*
D03*
Y199244D02*
D03*
X137200Y204756D02*
D03*
Y199244D02*
D03*
X111495Y205213D02*
D03*
Y210724D02*
D03*
X102700Y205500D02*
D03*
Y211012D02*
D03*
X85700Y194744D02*
D03*
Y200256D02*
D03*
X77200Y194744D02*
D03*
Y200256D02*
D03*
X333200Y102744D02*
D03*
Y108256D02*
D03*
X322700Y102744D02*
D03*
Y108256D02*
D03*
X315700D02*
D03*
Y102744D02*
D03*
X296200Y108256D02*
D03*
Y102744D02*
D03*
X280200Y108256D02*
D03*
Y102744D02*
D03*
X361200Y204756D02*
D03*
Y199244D02*
D03*
X352200Y204756D02*
D03*
Y199244D02*
D03*
X343200Y204756D02*
D03*
Y199244D02*
D03*
X317495Y205213D02*
D03*
Y210724D02*
D03*
X308700Y205500D02*
D03*
Y211012D02*
D03*
X291700Y194744D02*
D03*
Y200256D02*
D03*
X283200Y194744D02*
D03*
Y200256D02*
D03*
X127200Y356744D02*
D03*
Y362256D02*
D03*
X116700Y356744D02*
D03*
Y362256D02*
D03*
X109700D02*
D03*
Y356744D02*
D03*
X90200Y362256D02*
D03*
Y356744D02*
D03*
X74200Y362256D02*
D03*
Y356744D02*
D03*
X155200Y458756D02*
D03*
Y453244D02*
D03*
X146200Y458756D02*
D03*
Y453244D02*
D03*
X137200Y458756D02*
D03*
Y453244D02*
D03*
X111495Y459213D02*
D03*
Y464724D02*
D03*
X102700Y459500D02*
D03*
Y465012D02*
D03*
X85700Y448744D02*
D03*
Y454256D02*
D03*
X77200Y448744D02*
D03*
Y454256D02*
D03*
X333200Y356744D02*
D03*
Y362256D02*
D03*
X322700Y356744D02*
D03*
Y362256D02*
D03*
X315700D02*
D03*
Y356744D02*
D03*
X296200Y362256D02*
D03*
Y356744D02*
D03*
X280200Y362256D02*
D03*
Y356744D02*
D03*
X361200Y458756D02*
D03*
Y453244D02*
D03*
X352200Y458756D02*
D03*
Y453244D02*
D03*
X343200Y458756D02*
D03*
Y453244D02*
D03*
X317495Y459213D02*
D03*
Y464724D02*
D03*
X308700Y459500D02*
D03*
Y465012D02*
D03*
X291700Y448744D02*
D03*
Y454256D02*
D03*
X283200Y448744D02*
D03*
Y454256D02*
D03*
D15*
X62700Y101654D02*
D03*
Y108346D02*
D03*
X51200Y210154D02*
D03*
Y216846D02*
D03*
X268700Y101654D02*
D03*
Y108346D02*
D03*
X257200Y210154D02*
D03*
Y216846D02*
D03*
X62700Y355654D02*
D03*
Y362347D02*
D03*
X51200Y464154D02*
D03*
Y470847D02*
D03*
X268700Y355654D02*
D03*
Y362347D02*
D03*
X257200Y464154D02*
D03*
Y470847D02*
D03*
D16*
X137444Y159500D02*
D03*
X142956D02*
D03*
X142456Y174299D02*
D03*
X136944D02*
D03*
X110102Y199000D02*
D03*
X104590D02*
D03*
X53444Y179000D02*
D03*
X58956D02*
D03*
X56456Y155500D02*
D03*
X50944D02*
D03*
X51444Y125000D02*
D03*
X56956D02*
D03*
X343444Y159500D02*
D03*
X348956D02*
D03*
X348456Y174299D02*
D03*
X342944D02*
D03*
X316102Y199000D02*
D03*
X310590D02*
D03*
X259444Y179000D02*
D03*
X264956D02*
D03*
X262456Y155500D02*
D03*
X256944D02*
D03*
X257444Y125000D02*
D03*
X262956D02*
D03*
X137444Y413500D02*
D03*
X142956D02*
D03*
X142456Y428299D02*
D03*
X136944D02*
D03*
X110102Y453000D02*
D03*
X104590D02*
D03*
X53444Y433000D02*
D03*
X58956D02*
D03*
X56456Y409500D02*
D03*
X50944D02*
D03*
X51444Y379000D02*
D03*
X56956D02*
D03*
X343444Y413500D02*
D03*
X348956D02*
D03*
X348456Y428299D02*
D03*
X342944D02*
D03*
X316102Y453000D02*
D03*
X310590D02*
D03*
X259444Y433000D02*
D03*
X264956D02*
D03*
X262456Y409500D02*
D03*
X256944D02*
D03*
X257444Y379000D02*
D03*
X262956D02*
D03*
D17*
X153047Y181000D02*
D03*
X146353D02*
D03*
X120353Y204756D02*
D03*
X127047D02*
D03*
X44546Y178500D02*
D03*
X37854D02*
D03*
X44546Y198000D02*
D03*
X37854D02*
D03*
X359047Y181000D02*
D03*
X352354D02*
D03*
X326354Y204756D02*
D03*
X333047D02*
D03*
X250547Y178500D02*
D03*
X243853D02*
D03*
X250547Y198000D02*
D03*
X243853D02*
D03*
X153047Y435000D02*
D03*
X146353D02*
D03*
X120353Y458756D02*
D03*
X127047D02*
D03*
X44546Y432500D02*
D03*
X37854D02*
D03*
X44546Y452000D02*
D03*
X37854D02*
D03*
X359047Y435000D02*
D03*
X352354D02*
D03*
X326354Y458756D02*
D03*
X333047D02*
D03*
X250547Y432500D02*
D03*
X243853D02*
D03*
X250547Y452000D02*
D03*
X243853D02*
D03*
D34*
X100681Y152044D02*
D03*
Y158760D02*
D03*
X93964D02*
D03*
Y152044D02*
D03*
X306681D02*
D03*
Y158760D02*
D03*
X299964D02*
D03*
Y152044D02*
D03*
X100681Y406044D02*
D03*
Y412760D02*
D03*
X93964D02*
D03*
Y406044D02*
D03*
X306681D02*
D03*
Y412760D02*
D03*
X299964D02*
D03*
Y406044D02*
D03*
M02*
