G04*
G04 #@! TF.GenerationSoftware,Altium Limited,Altium Designer,23.10.1 (27)*
G04*
G04 Layer_Color=8421504*
%FSLAX44Y44*%
%MOMM*%
G71*
G04*
G04 #@! TF.SameCoordinates,E9324DD7-ED2E-445C-8A49-CA31A5FF0C81*
G04*
G04*
G04 #@! TF.FilePolarity,Positive*
G04*
G01*
G75*
%ADD19R,1.6208X2.9267*%
G04:AMPARAMS|DCode=20|XSize=1mm|YSize=0.9mm|CornerRadius=0.1125mm|HoleSize=0mm|Usage=FLASHONLY|Rotation=180.000|XOffset=0mm|YOffset=0mm|HoleType=Round|Shape=RoundedRectangle|*
%AMROUNDEDRECTD20*
21,1,1.0000,0.6750,0,0,180.0*
21,1,0.7750,0.9000,0,0,180.0*
1,1,0.2250,-0.3875,0.3375*
1,1,0.2250,0.3875,0.3375*
1,1,0.2250,0.3875,-0.3375*
1,1,0.2250,-0.3875,-0.3375*
%
%ADD20ROUNDEDRECTD20*%
%ADD21R,0.6400X0.6400*%
%ADD22R,0.6400X0.6400*%
%ADD23R,1.1500X0.6000*%
%ADD24R,1.1500X0.3000*%
G04:AMPARAMS|DCode=25|XSize=1mm|YSize=0.9mm|CornerRadius=0.1125mm|HoleSize=0mm|Usage=FLASHONLY|Rotation=270.000|XOffset=0mm|YOffset=0mm|HoleType=Round|Shape=RoundedRectangle|*
%AMROUNDEDRECTD25*
21,1,1.0000,0.6750,0,0,270.0*
21,1,0.7750,0.9000,0,0,270.0*
1,1,0.2250,-0.3375,-0.3875*
1,1,0.2250,-0.3375,0.3875*
1,1,0.2250,0.3375,0.3875*
1,1,0.2250,0.3375,-0.3875*
%
%ADD25ROUNDEDRECTD25*%
%ADD26R,0.7500X0.9500*%
%ADD27R,0.9500X0.7500*%
%ADD28R,0.6800X1.2000*%
%ADD29R,1.2500X0.7600*%
%ADD30O,0.9000X0.2000*%
%ADD31O,0.2000X0.9000*%
%ADD32R,3.4000X3.4000*%
G04:AMPARAMS|DCode=33|XSize=2.4741mm|YSize=0.6234mm|CornerRadius=0.3117mm|HoleSize=0mm|Usage=FLASHONLY|Rotation=90.000|XOffset=0mm|YOffset=0mm|HoleType=Round|Shape=RoundedRectangle|*
%AMROUNDEDRECTD33*
21,1,2.4741,0.0000,0,0,90.0*
21,1,1.8507,0.6234,0,0,90.0*
1,1,0.6234,0.0000,0.9253*
1,1,0.6234,0.0000,-0.9253*
1,1,0.6234,0.0000,-0.9253*
1,1,0.6234,0.0000,0.9253*
%
%ADD33ROUNDEDRECTD33*%
%ADD34R,0.6234X2.4741*%
%ADD35R,0.9200X0.6400*%
G36*
X1518510Y663290D02*
X1511710D01*
Y705790D01*
X1518510D01*
Y663290D01*
D02*
G37*
D19*
X1515214Y691173D02*
D03*
D20*
X1026160Y978780D02*
D03*
Y961780D02*
D03*
X1057910Y978780D02*
D03*
Y961780D02*
D03*
X941070Y680720D02*
D03*
Y697720D02*
D03*
X1344930Y764930D02*
D03*
Y781930D02*
D03*
X1329690Y781930D02*
D03*
Y764930D02*
D03*
X1172210Y939410D02*
D03*
Y922410D02*
D03*
X1134110Y939410D02*
D03*
Y922410D02*
D03*
X1117600Y939410D02*
D03*
Y922410D02*
D03*
D21*
X1533680Y951230D02*
D03*
X1524480D02*
D03*
X1054410Y622300D02*
D03*
X1045210D02*
D03*
X1358900D02*
D03*
X1349700D02*
D03*
X1252220Y877570D02*
D03*
X1243020D02*
D03*
X1509790Y762000D02*
D03*
X1500590D02*
D03*
X1369850Y744220D02*
D03*
X1360650D02*
D03*
X1251430Y775970D02*
D03*
X1260630D02*
D03*
X1367250Y678180D02*
D03*
X1358050D02*
D03*
X1198090Y679450D02*
D03*
X1207290D02*
D03*
X1208250Y732790D02*
D03*
X1217450D02*
D03*
D22*
X1200150Y790730D02*
D03*
Y781530D02*
D03*
X1402080Y916460D02*
D03*
Y907260D02*
D03*
X1083310Y907570D02*
D03*
Y898370D02*
D03*
X1197610Y612140D02*
D03*
Y602940D02*
D03*
X1539480Y753420D02*
D03*
Y744220D02*
D03*
X1316930Y611350D02*
D03*
Y620550D02*
D03*
X1266190Y610870D02*
D03*
Y620070D02*
D03*
X1184910Y852170D02*
D03*
Y842970D02*
D03*
X1504950Y822170D02*
D03*
Y831370D02*
D03*
D23*
X985860Y885440D02*
D03*
Y821440D02*
D03*
Y877440D02*
D03*
Y829440D02*
D03*
D24*
Y870940D02*
D03*
Y865940D02*
D03*
Y860940D02*
D03*
Y855940D02*
D03*
Y850940D02*
D03*
Y845940D02*
D03*
Y840940D02*
D03*
Y835940D02*
D03*
D25*
X1027820Y927100D02*
D03*
X1044820D02*
D03*
X990990D02*
D03*
X1007990D02*
D03*
X1553210Y638810D02*
D03*
X1536210D02*
D03*
X1513840D02*
D03*
X1496840D02*
D03*
X1293870Y816677D02*
D03*
X1276870D02*
D03*
X1065040Y844550D02*
D03*
X1082040D02*
D03*
X1065040Y869950D02*
D03*
X1082040D02*
D03*
X1397880Y815340D02*
D03*
X1380880D02*
D03*
X1380880Y773430D02*
D03*
X1397880D02*
D03*
X1380880Y756920D02*
D03*
X1397880D02*
D03*
X1411360Y711200D02*
D03*
X1428360D02*
D03*
X1358020Y652780D02*
D03*
X1375020D02*
D03*
D26*
X1012190Y786130D02*
D03*
X1026190D02*
D03*
X1512190Y740410D02*
D03*
X1498190D02*
D03*
X1512190Y721360D02*
D03*
X1498190D02*
D03*
X1247140Y792480D02*
D03*
X1261140D02*
D03*
X1377330D02*
D03*
X1363330D02*
D03*
X1372250Y728980D02*
D03*
X1358250D02*
D03*
X1205200Y703580D02*
D03*
X1219200D02*
D03*
X1372190Y695960D02*
D03*
X1358190D02*
D03*
X1311940Y777240D02*
D03*
X1297940D02*
D03*
D27*
X1456690Y673720D02*
D03*
Y687720D02*
D03*
X1559800Y755030D02*
D03*
Y741030D02*
D03*
X941070Y733440D02*
D03*
Y719440D02*
D03*
X1488440Y820420D02*
D03*
Y834420D02*
D03*
X1168400Y855980D02*
D03*
Y841980D02*
D03*
X1283910Y609570D02*
D03*
Y623570D02*
D03*
X1438910Y673720D02*
D03*
Y687720D02*
D03*
X1422400Y673720D02*
D03*
Y687720D02*
D03*
D28*
X1500110Y702290D02*
D03*
X1530110D02*
D03*
Y669290D02*
D03*
X1500110D02*
D03*
D29*
X1061120D02*
D03*
Y681990D02*
D03*
Y694690D02*
D03*
Y707390D02*
D03*
Y720090D02*
D03*
Y732790D02*
D03*
Y745490D02*
D03*
Y758190D02*
D03*
X1122620D02*
D03*
Y745490D02*
D03*
Y732790D02*
D03*
Y720090D02*
D03*
Y707390D02*
D03*
Y694690D02*
D03*
Y681990D02*
D03*
Y669290D02*
D03*
D30*
X1250620Y723150D02*
D03*
Y719150D02*
D03*
Y715150D02*
D03*
Y711150D02*
D03*
Y707150D02*
D03*
Y703150D02*
D03*
Y699150D02*
D03*
Y695150D02*
D03*
Y691150D02*
D03*
Y687150D02*
D03*
Y683150D02*
D03*
Y679150D02*
D03*
Y675150D02*
D03*
Y671150D02*
D03*
Y667150D02*
D03*
X1320120D02*
D03*
Y671150D02*
D03*
Y675150D02*
D03*
Y679150D02*
D03*
Y683150D02*
D03*
Y687150D02*
D03*
Y691150D02*
D03*
Y695150D02*
D03*
Y699150D02*
D03*
Y703150D02*
D03*
Y707150D02*
D03*
Y711150D02*
D03*
Y715150D02*
D03*
Y719150D02*
D03*
Y723150D02*
D03*
D31*
X1257370Y660400D02*
D03*
X1261370D02*
D03*
X1265370D02*
D03*
X1269370D02*
D03*
X1273370D02*
D03*
X1277370D02*
D03*
X1281370D02*
D03*
X1285370D02*
D03*
X1289370D02*
D03*
X1293370D02*
D03*
X1297370D02*
D03*
X1301370D02*
D03*
X1305370D02*
D03*
X1309370D02*
D03*
X1313370D02*
D03*
Y729900D02*
D03*
X1309370D02*
D03*
X1305370D02*
D03*
X1301370D02*
D03*
X1297370D02*
D03*
X1293370D02*
D03*
X1289370D02*
D03*
X1285370D02*
D03*
X1281370D02*
D03*
X1277370D02*
D03*
X1273370D02*
D03*
X1269370D02*
D03*
X1265370D02*
D03*
X1261370D02*
D03*
X1257370D02*
D03*
D32*
X1285370Y695150D02*
D03*
D33*
X968950Y723900D02*
D03*
X981650D02*
D03*
X994350D02*
D03*
X1007050D02*
D03*
Y675579D02*
D03*
X994350D02*
D03*
X981650D02*
D03*
D34*
X968950D02*
D03*
D35*
X1504950Y870900D02*
D03*
Y856300D02*
D03*
X1153160Y841690D02*
D03*
Y827090D02*
D03*
M02*
