G04*
G04 #@! TF.GenerationSoftware,Altium Limited,Altium Designer,23.10.1 (27)*
G04*
G04 Layer_Physical_Order=3*
G04 Layer_Color=16440176*
%FSLAX44Y44*%
%MOMM*%
G71*
G04*
G04 #@! TF.SameCoordinates,E9324DD7-ED2E-445C-8A49-CA31A5FF0C81*
G04*
G04*
G04 #@! TF.FilePolarity,Positive*
G04*
G01*
G75*
%ADD14C,0.2540*%
G04:AMPARAMS|DCode=57|XSize=1mm|YSize=1.8mm|CornerRadius=0.5mm|HoleSize=0mm|Usage=FLASHONLY|Rotation=270.000|XOffset=0mm|YOffset=0mm|HoleType=Round|Shape=RoundedRectangle|*
%AMROUNDEDRECTD57*
21,1,1.0000,0.8000,0,0,270.0*
21,1,0.0000,1.8000,0,0,270.0*
1,1,1.0000,-0.4000,0.0000*
1,1,1.0000,-0.4000,0.0000*
1,1,1.0000,0.4000,0.0000*
1,1,1.0000,0.4000,0.0000*
%
%ADD57ROUNDEDRECTD57*%
G04:AMPARAMS|DCode=58|XSize=1mm|YSize=2.1mm|CornerRadius=0.5mm|HoleSize=0mm|Usage=FLASHONLY|Rotation=270.000|XOffset=0mm|YOffset=0mm|HoleType=Round|Shape=RoundedRectangle|*
%AMROUNDEDRECTD58*
21,1,1.0000,1.1000,0,0,270.0*
21,1,0.0000,2.1000,0,0,270.0*
1,1,1.0000,-0.5500,0.0000*
1,1,1.0000,-0.5500,0.0000*
1,1,1.0000,0.5500,0.0000*
1,1,1.0000,0.5500,0.0000*
%
%ADD58ROUNDEDRECTD58*%
%ADD59C,0.6500*%
%ADD66C,0.1524*%
%ADD71C,5.3000*%
%ADD72C,0.3556*%
%ADD73C,1.5000*%
%ADD74R,1.5000X1.5000*%
%ADD75R,1.5000X1.5000*%
%ADD76C,0.6096*%
G36*
X1573051Y1092425D02*
X1573051Y502920D01*
Y502179D01*
X1572762Y500726D01*
X1572196Y499358D01*
X1571373Y498126D01*
X1570325Y497078D01*
X1569093Y496255D01*
X1567725Y495688D01*
X1566272Y495399D01*
X1565531Y495399D01*
X924560Y495399D01*
X923819D01*
X922366Y495688D01*
X920998Y496255D01*
X919766Y497078D01*
X918718Y498126D01*
X917895Y499358D01*
X917328Y500726D01*
X917039Y502179D01*
X917039Y502920D01*
X917039Y952500D01*
Y953241D01*
X917328Y954694D01*
X917895Y956062D01*
X918718Y957294D01*
X919766Y958342D01*
X920998Y959165D01*
X922366Y959732D01*
X923819Y960021D01*
X924560Y960021D01*
X981710Y960021D01*
X981836Y960046D01*
X981964Y960027D01*
X982922Y960074D01*
X983294Y960167D01*
X983678D01*
X985557Y960541D01*
X986028Y960736D01*
X986528Y960836D01*
X988298Y961569D01*
X988722Y961852D01*
X989193Y962047D01*
X990786Y963111D01*
X991147Y963472D01*
X991571Y963755D01*
X992925Y965110D01*
X993209Y965534D01*
X993569Y965895D01*
X994634Y967487D01*
X994829Y967959D01*
X995112Y968383D01*
X995845Y970153D01*
X995945Y970653D01*
X996140Y971124D01*
X996514Y973003D01*
Y973387D01*
X996607Y973759D01*
X996654Y974717D01*
X996635Y974844D01*
X996660Y974971D01*
X996660Y1091391D01*
X997641Y1092372D01*
X997741Y1092425D01*
X1082551Y1092424D01*
X1083179Y1092300D01*
X1083771Y1092055D01*
X1084303Y1091699D01*
X1084756Y1091246D01*
X1085111Y1090714D01*
X1085357Y1090122D01*
X1085481Y1089494D01*
Y1089174D01*
X1085482Y972953D01*
X1085507Y972826D01*
X1085488Y972699D01*
X1085523Y971975D01*
X1085617Y971602D01*
Y971218D01*
X1085899Y969798D01*
X1086094Y969327D01*
X1086194Y968826D01*
X1086748Y967489D01*
X1087031Y967064D01*
X1087227Y966593D01*
X1088031Y965389D01*
X1088392Y965028D01*
X1088675Y964604D01*
X1089699Y963580D01*
X1090123Y963297D01*
X1090484Y962936D01*
X1091688Y962132D01*
X1092159Y961936D01*
X1092584Y961653D01*
X1093922Y961099D01*
X1094422Y960999D01*
X1094893Y960804D01*
X1096313Y960522D01*
X1096697D01*
X1097070Y960428D01*
X1097794Y960393D01*
X1097921Y960412D01*
X1098048Y960387D01*
X1108193D01*
X1108319Y960412D01*
X1108447Y960393D01*
X1109179Y960429D01*
X1109551Y960522D01*
X1109935D01*
X1111371Y960808D01*
X1111842Y961003D01*
X1112343Y961102D01*
X1113695Y961663D01*
X1114120Y961946D01*
X1114591Y962141D01*
X1115808Y962955D01*
X1116169Y963315D01*
X1116593Y963599D01*
X1117628Y964634D01*
X1117912Y965058D01*
X1118272Y965419D01*
X1119086Y966636D01*
X1119281Y967107D01*
X1119564Y967532D01*
X1120125Y968884D01*
X1120224Y969384D01*
X1120419Y969856D01*
X1120705Y971292D01*
Y971676D01*
X1120798Y972048D01*
X1120834Y972780D01*
X1120815Y972907D01*
X1120840Y973034D01*
Y1040549D01*
X1122806Y1042515D01*
X1320515D01*
X1322482Y1040548D01*
Y973194D01*
X1322507Y973067D01*
X1322488Y972940D01*
X1322529Y972093D01*
X1322623Y971720D01*
Y971336D01*
X1322953Y969674D01*
X1323149Y969203D01*
X1323248Y968703D01*
X1323897Y967137D01*
X1324180Y966713D01*
X1324375Y966242D01*
X1325317Y964833D01*
X1325677Y964472D01*
X1325961Y964048D01*
X1327159Y962850D01*
X1327583Y962566D01*
X1327944Y962206D01*
X1329353Y961264D01*
X1329824Y961069D01*
X1330248Y960786D01*
X1331814Y960137D01*
X1332314Y960038D01*
X1332785Y959842D01*
X1334447Y959512D01*
X1334831D01*
X1335204Y959418D01*
X1336051Y959377D01*
X1336179Y959396D01*
X1336305Y959371D01*
X1338017D01*
X1338143Y959396D01*
X1338271Y959377D01*
X1339118Y959418D01*
X1339491Y959512D01*
X1339875D01*
X1341537Y959842D01*
X1342008Y960038D01*
X1342508Y960137D01*
X1344074Y960786D01*
X1344498Y961069D01*
X1344969Y961264D01*
X1346378Y962206D01*
X1346739Y962566D01*
X1347163Y962850D01*
X1348361Y964048D01*
X1348645Y964472D01*
X1349005Y964833D01*
X1349947Y966242D01*
X1350142Y966713D01*
X1350425Y967137D01*
X1351074Y968703D01*
X1351173Y969203D01*
X1351369Y969674D01*
X1351699Y971336D01*
Y971720D01*
X1351792Y972093D01*
X1351834Y972940D01*
X1351815Y973067D01*
X1351840Y973194D01*
Y1040548D01*
X1353806Y1042515D01*
X1451516D01*
X1453482Y1040548D01*
Y972174D01*
X1453507Y972047D01*
X1453488Y971920D01*
X1453531Y971048D01*
X1453624Y970676D01*
Y970292D01*
X1453964Y968582D01*
X1454159Y968110D01*
X1454259Y967610D01*
X1454926Y965999D01*
X1455210Y965575D01*
X1455405Y965104D01*
X1456373Y963654D01*
X1456734Y963293D01*
X1457018Y962869D01*
X1458250Y961636D01*
X1458674Y961353D01*
X1459035Y960992D01*
X1459345Y960785D01*
X1459259Y960427D01*
X1458815Y959612D01*
X1457244D01*
X1455563Y958916D01*
X1454277Y957630D01*
X1453581Y955949D01*
Y954131D01*
X1454277Y952450D01*
X1455563Y951164D01*
X1457244Y950468D01*
X1459063D01*
X1460743Y951164D01*
X1462029Y952450D01*
X1462725Y954131D01*
Y955949D01*
X1462029Y957630D01*
X1461565Y958094D01*
X1462285Y959170D01*
X1462991Y958878D01*
X1463492Y958778D01*
X1463963Y958583D01*
X1465673Y958243D01*
X1466057D01*
X1466429Y958150D01*
X1467301Y958107D01*
X1467428Y958126D01*
X1467555Y958101D01*
X1475907D01*
X1476033Y958126D01*
X1476161Y958107D01*
X1476921Y958144D01*
X1477293Y958238D01*
X1477677D01*
X1479168Y958534D01*
X1479640Y958729D01*
X1480140Y958829D01*
X1481544Y959410D01*
X1481968Y959694D01*
X1482440Y959889D01*
X1483704Y960734D01*
X1484064Y961094D01*
X1484489Y961378D01*
X1485563Y962453D01*
X1485847Y962877D01*
X1486207Y963237D01*
X1487052Y964501D01*
X1487247Y964973D01*
X1487531Y965397D01*
X1488112Y966801D01*
X1488212Y967301D01*
X1488407Y967773D01*
X1488704Y969264D01*
Y969648D01*
X1488797Y970020D01*
X1488834Y970780D01*
X1488815Y970908D01*
X1488840Y971034D01*
X1488840Y1091316D01*
X1489932Y1092408D01*
X1489981Y1092425D01*
X1573051Y1092425D01*
D02*
G37*
%LPC*%
G36*
X1539366Y1070718D02*
X1534955D01*
X1530599Y1070028D01*
X1526403Y1068665D01*
X1522473Y1066662D01*
X1518905Y1064070D01*
X1515785Y1060950D01*
X1513193Y1057382D01*
X1511190Y1053452D01*
X1509827Y1049256D01*
X1509137Y1044900D01*
Y1040488D01*
X1509827Y1036132D01*
X1511190Y1031936D01*
X1513193Y1028006D01*
X1515785Y1024438D01*
X1518905Y1021319D01*
X1522473Y1018726D01*
X1526403Y1016723D01*
X1530599Y1015360D01*
X1534955Y1014670D01*
X1539366D01*
X1543723Y1015360D01*
X1547918Y1016723D01*
X1551849Y1018726D01*
X1555417Y1021319D01*
X1558536Y1024438D01*
X1561129Y1028006D01*
X1563132Y1031936D01*
X1564495Y1036132D01*
X1565185Y1040488D01*
Y1044900D01*
X1564495Y1049256D01*
X1563132Y1053452D01*
X1561129Y1057382D01*
X1558536Y1060950D01*
X1555417Y1064070D01*
X1551849Y1066662D01*
X1547918Y1068665D01*
X1543723Y1070028D01*
X1539366Y1070718D01*
D02*
G37*
G36*
X1039367D02*
X1034955D01*
X1030599Y1070028D01*
X1026403Y1068665D01*
X1022473Y1066662D01*
X1018904Y1064070D01*
X1015785Y1060950D01*
X1013193Y1057382D01*
X1011190Y1053452D01*
X1009827Y1049256D01*
X1009137Y1044900D01*
Y1040488D01*
X1009827Y1036132D01*
X1011190Y1031936D01*
X1013193Y1028006D01*
X1015785Y1024438D01*
X1018904Y1021319D01*
X1022473Y1018726D01*
X1026403Y1016723D01*
X1030599Y1015360D01*
X1034955Y1014670D01*
X1039367D01*
X1043723Y1015360D01*
X1047918Y1016723D01*
X1051849Y1018726D01*
X1055417Y1021319D01*
X1058536Y1024438D01*
X1061129Y1028006D01*
X1063132Y1031936D01*
X1064495Y1036132D01*
X1065185Y1040488D01*
Y1044900D01*
X1064495Y1049256D01*
X1063132Y1053452D01*
X1061129Y1057382D01*
X1058536Y1060950D01*
X1055417Y1064070D01*
X1051849Y1066662D01*
X1047918Y1068665D01*
X1043723Y1070028D01*
X1039367Y1070718D01*
D02*
G37*
G36*
X1057549Y995172D02*
X1055731D01*
X1054050Y994476D01*
X1052764Y993190D01*
X1052068Y991509D01*
Y989691D01*
X1052764Y988010D01*
X1054050Y986724D01*
X1055731Y986028D01*
X1057549D01*
X1059230Y986724D01*
X1060516Y988010D01*
X1061212Y989691D01*
Y991509D01*
X1060516Y993190D01*
X1059230Y994476D01*
X1057549Y995172D01*
D02*
G37*
G36*
X1027069D02*
X1025251D01*
X1023570Y994476D01*
X1022284Y993190D01*
X1021588Y991509D01*
Y989691D01*
X1022284Y988010D01*
X1023570Y986724D01*
X1025251Y986028D01*
X1027069D01*
X1028750Y986724D01*
X1030036Y988010D01*
X1030732Y989691D01*
Y991509D01*
X1030036Y993190D01*
X1028750Y994476D01*
X1027069Y995172D01*
D02*
G37*
G36*
X1423309Y987552D02*
X1421491D01*
X1419810Y986856D01*
X1418524Y985570D01*
X1417828Y983889D01*
Y982071D01*
X1418524Y980390D01*
X1419810Y979104D01*
X1421491Y978408D01*
X1423309D01*
X1424990Y979104D01*
X1426276Y980390D01*
X1426972Y982071D01*
Y983889D01*
X1426276Y985570D01*
X1424990Y986856D01*
X1423309Y987552D01*
D02*
G37*
G36*
X1287419Y986282D02*
X1285601D01*
X1283920Y985586D01*
X1282634Y984300D01*
X1281938Y982619D01*
Y980801D01*
X1282634Y979120D01*
X1283920Y977834D01*
X1285601Y977138D01*
X1287419D01*
X1289100Y977834D01*
X1290386Y979120D01*
X1291082Y980801D01*
Y982619D01*
X1290386Y984300D01*
X1289100Y985586D01*
X1287419Y986282D01*
D02*
G37*
G36*
X1228999D02*
X1227181D01*
X1225500Y985586D01*
X1224214Y984300D01*
X1223518Y982619D01*
Y980801D01*
X1224214Y979120D01*
X1225500Y977834D01*
X1227181Y977138D01*
X1228999D01*
X1230680Y977834D01*
X1231966Y979120D01*
X1232662Y980801D01*
Y982619D01*
X1231966Y984300D01*
X1230680Y985586D01*
X1228999Y986282D01*
D02*
G37*
G36*
X1154069D02*
X1152251D01*
X1150570Y985586D01*
X1149284Y984300D01*
X1148588Y982619D01*
Y980801D01*
X1149284Y979120D01*
X1150570Y977834D01*
X1152251Y977138D01*
X1154069D01*
X1155750Y977834D01*
X1157036Y979120D01*
X1157732Y980801D01*
Y982619D01*
X1157036Y984300D01*
X1155750Y985586D01*
X1154069Y986282D01*
D02*
G37*
G36*
X1389019Y985012D02*
X1387201D01*
X1385520Y984316D01*
X1384234Y983030D01*
X1383538Y981349D01*
Y979531D01*
X1384234Y977850D01*
X1385520Y976564D01*
X1387201Y975868D01*
X1389019D01*
X1390700Y976564D01*
X1391986Y977850D01*
X1392682Y979531D01*
Y981349D01*
X1391986Y983030D01*
X1390700Y984316D01*
X1389019Y985012D01*
D02*
G37*
G36*
X1217569D02*
X1215751D01*
X1214070Y984316D01*
X1212784Y983030D01*
X1212088Y981349D01*
Y979531D01*
X1212784Y977850D01*
X1214070Y976564D01*
X1215751Y975868D01*
X1217569D01*
X1219250Y976564D01*
X1220536Y977850D01*
X1221232Y979531D01*
Y981349D01*
X1220536Y983030D01*
X1219250Y984316D01*
X1217569Y985012D01*
D02*
G37*
G36*
X1433469Y983742D02*
X1431651D01*
X1429970Y983046D01*
X1428684Y981760D01*
X1427988Y980079D01*
Y978261D01*
X1428684Y976580D01*
X1429970Y975294D01*
X1431651Y974598D01*
X1433469D01*
X1435150Y975294D01*
X1436436Y976580D01*
X1437132Y978261D01*
Y980079D01*
X1436436Y981760D01*
X1435150Y983046D01*
X1433469Y983742D01*
D02*
G37*
G36*
X1373631Y982472D02*
X1371812D01*
X1370132Y981776D01*
X1368846Y980490D01*
X1368150Y978809D01*
Y976991D01*
X1368846Y975310D01*
X1370132Y974024D01*
X1371812Y973328D01*
X1373631D01*
X1375312Y974024D01*
X1376598Y975310D01*
X1377294Y976991D01*
Y978809D01*
X1376598Y980490D01*
X1375312Y981776D01*
X1373631Y982472D01*
D02*
G37*
G36*
X1169309Y972312D02*
X1167491D01*
X1165810Y971616D01*
X1164691Y970497D01*
X1163955Y970403D01*
X1163219Y970497D01*
X1162100Y971616D01*
X1160419Y972312D01*
X1158601D01*
X1156920Y971616D01*
X1155634Y970330D01*
X1154938Y968649D01*
Y966831D01*
X1155634Y965150D01*
X1156920Y963864D01*
X1158601Y963168D01*
X1160419D01*
X1162100Y963864D01*
X1163219Y964983D01*
X1163955Y965077D01*
X1164691Y964983D01*
X1165810Y963864D01*
X1167491Y963168D01*
X1169309D01*
X1170990Y963864D01*
X1172276Y965150D01*
X1172972Y966831D01*
Y968649D01*
X1172276Y970330D01*
X1170990Y971616D01*
X1169309Y972312D01*
D02*
G37*
G36*
X1241699Y973582D02*
X1239881D01*
X1238200Y972886D01*
X1236914Y971600D01*
X1236218Y969919D01*
Y968101D01*
X1236914Y966420D01*
X1238200Y965134D01*
X1239881Y964438D01*
X1241699D01*
X1243380Y965134D01*
X1244666Y966420D01*
X1245362Y968101D01*
Y969919D01*
X1244666Y971600D01*
X1243380Y972886D01*
X1241699Y973582D01*
D02*
G37*
G36*
X1434739Y969772D02*
X1432921D01*
X1431240Y969076D01*
X1429954Y967790D01*
X1429258Y966109D01*
Y964291D01*
X1429954Y962610D01*
X1431240Y961324D01*
X1432921Y960628D01*
X1434739D01*
X1436420Y961324D01*
X1437706Y962610D01*
X1438402Y964291D01*
Y966109D01*
X1437706Y967790D01*
X1436420Y969076D01*
X1434739Y969772D01*
D02*
G37*
G36*
X1372509Y960882D02*
X1370691D01*
X1369010Y960186D01*
X1367724Y958900D01*
X1367185Y957599D01*
X1365855D01*
X1365316Y958900D01*
X1364030Y960186D01*
X1362349Y960882D01*
X1360531D01*
X1358850Y960186D01*
X1357564Y958900D01*
X1356952Y957421D01*
X1356841Y957209D01*
X1355598Y956712D01*
X1354729Y957072D01*
X1352911D01*
X1351230Y956376D01*
X1349944Y955090D01*
X1349248Y953409D01*
Y951591D01*
X1349944Y949910D01*
X1351230Y948624D01*
X1352911Y947928D01*
X1354729D01*
X1356410Y948624D01*
X1357696Y949910D01*
X1358308Y951388D01*
X1358418Y951601D01*
X1359662Y952098D01*
X1360531Y951738D01*
X1362349D01*
X1364030Y952434D01*
X1365316Y953720D01*
X1365855Y955021D01*
X1367185D01*
X1367724Y953720D01*
X1369010Y952434D01*
X1370691Y951738D01*
X1372509D01*
X1374190Y952434D01*
X1375476Y953720D01*
X1376172Y955401D01*
Y957219D01*
X1375476Y958900D01*
X1374190Y960186D01*
X1372509Y960882D01*
D02*
G37*
G36*
X1443070Y960171D02*
X1441251D01*
X1439571Y959475D01*
X1438285Y958189D01*
X1437589Y956509D01*
Y954690D01*
X1438285Y953009D01*
X1439571Y951723D01*
X1441251Y951027D01*
X1443070D01*
X1444751Y951723D01*
X1446037Y953009D01*
X1446733Y954690D01*
Y956509D01*
X1446037Y958189D01*
X1444751Y959475D01*
X1443070Y960171D01*
D02*
G37*
G36*
X1058819Y957072D02*
X1057001D01*
X1055320Y956376D01*
X1054034Y955090D01*
X1053338Y953409D01*
Y951591D01*
X1054034Y949910D01*
X1055320Y948624D01*
X1057001Y947928D01*
X1058819D01*
X1060500Y948624D01*
X1061786Y949910D01*
X1062482Y951591D01*
Y953409D01*
X1061786Y955090D01*
X1060500Y956376D01*
X1058819Y957072D01*
D02*
G37*
G36*
X1025799D02*
X1023981D01*
X1022300Y956376D01*
X1021014Y955090D01*
X1020318Y953409D01*
Y951591D01*
X1021014Y949910D01*
X1022300Y948624D01*
X1023981Y947928D01*
X1025799D01*
X1027480Y948624D01*
X1028766Y949910D01*
X1029462Y951591D01*
Y953409D01*
X1028766Y955090D01*
X1027480Y956376D01*
X1025799Y957072D01*
D02*
G37*
G36*
X1545229Y955802D02*
X1543411D01*
X1541730Y955106D01*
X1540444Y953820D01*
X1539748Y952139D01*
Y950321D01*
X1540444Y948640D01*
X1541730Y947354D01*
X1543411Y946658D01*
X1545229D01*
X1546910Y947354D01*
X1548196Y948640D01*
X1548892Y950321D01*
Y952139D01*
X1548196Y953820D01*
X1546910Y955106D01*
X1545229Y955802D01*
D02*
G37*
G36*
X1413149Y943102D02*
X1411331D01*
X1409650Y942406D01*
X1408364Y941120D01*
X1407668Y939439D01*
Y937621D01*
X1408364Y935940D01*
X1409650Y934654D01*
X1411331Y933958D01*
X1413149D01*
X1414830Y934654D01*
X1416116Y935940D01*
X1416812Y937621D01*
Y939439D01*
X1416116Y941120D01*
X1414830Y942406D01*
X1413149Y943102D01*
D02*
G37*
G36*
X1019449Y940562D02*
X1017631D01*
X1015950Y939866D01*
X1014664Y938580D01*
X1013968Y936899D01*
Y935081D01*
X1014664Y933400D01*
X1015950Y932114D01*
X1017631Y931418D01*
X1019449D01*
X1021130Y932114D01*
X1022416Y933400D01*
X1023112Y935081D01*
Y936899D01*
X1022416Y938580D01*
X1021130Y939866D01*
X1019449Y940562D01*
D02*
G37*
G36*
X1427119Y938022D02*
X1425301D01*
X1423620Y937326D01*
X1422334Y936040D01*
X1421638Y934359D01*
Y932541D01*
X1422334Y930860D01*
X1423620Y929574D01*
X1425301Y928878D01*
X1427119D01*
X1428800Y929574D01*
X1430086Y930860D01*
X1430782Y932541D01*
Y934359D01*
X1430086Y936040D01*
X1428800Y937326D01*
X1427119Y938022D01*
D02*
G37*
G36*
X1457599Y935482D02*
X1455781D01*
X1454100Y934786D01*
X1452814Y933500D01*
X1452118Y931819D01*
Y930001D01*
X1452814Y928320D01*
X1454100Y927034D01*
X1455781Y926338D01*
X1457599D01*
X1459280Y927034D01*
X1460566Y928320D01*
X1461262Y930001D01*
Y931819D01*
X1460566Y933500D01*
X1459280Y934786D01*
X1457599Y935482D01*
D02*
G37*
G36*
X1402989Y931672D02*
X1401171D01*
X1399490Y930976D01*
X1398204Y929690D01*
X1397508Y928009D01*
Y926191D01*
X1398204Y924510D01*
X1399490Y923224D01*
X1401171Y922528D01*
X1402989D01*
X1404670Y923224D01*
X1405956Y924510D01*
X1406652Y926191D01*
Y928009D01*
X1405956Y929690D01*
X1404670Y930976D01*
X1402989Y931672D01*
D02*
G37*
G36*
X981349D02*
X979531D01*
X977850Y930976D01*
X976564Y929690D01*
X975868Y928009D01*
Y926191D01*
X976564Y924510D01*
X977850Y923224D01*
X979531Y922528D01*
X981349D01*
X983030Y923224D01*
X984316Y924510D01*
X985012Y926191D01*
Y928009D01*
X984316Y929690D01*
X983030Y930976D01*
X981349Y931672D01*
D02*
G37*
G36*
X1084219Y922782D02*
X1082401D01*
X1080720Y922086D01*
X1079434Y920800D01*
X1078738Y919119D01*
Y917301D01*
X1079434Y915620D01*
X1080720Y914334D01*
X1082401Y913638D01*
X1084219D01*
X1085900Y914334D01*
X1087186Y915620D01*
X1087882Y917301D01*
Y919119D01*
X1087186Y920800D01*
X1085900Y922086D01*
X1084219Y922782D01*
D02*
G37*
G36*
X1442359Y920242D02*
X1440541D01*
X1438860Y919546D01*
X1437574Y918260D01*
X1436878Y916579D01*
Y914761D01*
X1437574Y913080D01*
X1438860Y911794D01*
X1440541Y911098D01*
X1442359D01*
X1444040Y911794D01*
X1445326Y913080D01*
X1446022Y914761D01*
Y916579D01*
X1445326Y918260D01*
X1444040Y919546D01*
X1442359Y920242D01*
D02*
G37*
G36*
X1165499Y915162D02*
X1163681D01*
X1162000Y914466D01*
X1160714Y913180D01*
X1160018Y911499D01*
Y909681D01*
X1160714Y908000D01*
X1162000Y906714D01*
X1162476Y906517D01*
X1162731Y905037D01*
X1161984Y904290D01*
X1161288Y902609D01*
Y900791D01*
X1161984Y899110D01*
X1163270Y897824D01*
X1164951Y897128D01*
X1166769D01*
X1168450Y897824D01*
X1168725Y898099D01*
X1193627D01*
X1193734Y897840D01*
X1195020Y896554D01*
X1196701Y895858D01*
X1198519D01*
X1200200Y896554D01*
X1201486Y897840D01*
X1202182Y899521D01*
Y901339D01*
X1201997Y901785D01*
X1202703Y902841D01*
X1202966D01*
X1204647Y903537D01*
X1205933Y904824D01*
X1206629Y906504D01*
Y908323D01*
X1205933Y910003D01*
X1204647Y911289D01*
X1202966Y911985D01*
X1201147D01*
X1200047Y911529D01*
X1199338Y912238D01*
X1198582Y912743D01*
X1197690Y912921D01*
X1168573D01*
X1168466Y913180D01*
X1167180Y914466D01*
X1165499Y915162D01*
D02*
G37*
G36*
X985610Y903220D02*
X974610D01*
X972907Y902996D01*
X971320Y902339D01*
X969957Y901293D01*
X968911Y899930D01*
X968254Y898343D01*
X968030Y896640D01*
X968254Y894937D01*
X968911Y893350D01*
X969957Y891987D01*
X971320Y890941D01*
X972907Y890284D01*
X974610Y890060D01*
X985610D01*
X987313Y890284D01*
X988900Y890941D01*
X990263Y891987D01*
X991309Y893350D01*
X991966Y894937D01*
X992190Y896640D01*
X991966Y898343D01*
X991309Y899930D01*
X990263Y901293D01*
X988900Y902339D01*
X987313Y902996D01*
X985610Y903220D01*
D02*
G37*
G36*
X942310D02*
X934310D01*
X932607Y902996D01*
X931020Y902339D01*
X929657Y901293D01*
X928611Y899930D01*
X927954Y898343D01*
X927730Y896640D01*
X927954Y894937D01*
X928611Y893350D01*
X929657Y891987D01*
X931020Y890941D01*
X932607Y890284D01*
X934310Y890060D01*
X942310D01*
X944013Y890284D01*
X945600Y890941D01*
X946963Y891987D01*
X948009Y893350D01*
X948666Y894937D01*
X948890Y896640D01*
X948666Y898343D01*
X948009Y899930D01*
X946963Y901293D01*
X945600Y902339D01*
X944013Y902996D01*
X942310Y903220D01*
D02*
G37*
G36*
X1282700Y973881D02*
X1255606D01*
X1254714Y973703D01*
X1253958Y973198D01*
X1230626Y949866D01*
X1230121Y949110D01*
X1229943Y948218D01*
Y925586D01*
X1230121Y924695D01*
X1230626Y923938D01*
X1246721Y907843D01*
Y889294D01*
X1245548Y888808D01*
X1227849Y906507D01*
X1227956Y906767D01*
Y908585D01*
X1227260Y910266D01*
X1225974Y911552D01*
X1224293Y912248D01*
X1222475D01*
X1220794Y911552D01*
X1219508Y910266D01*
X1218812Y908585D01*
Y906767D01*
X1219098Y906076D01*
X1218218Y904883D01*
X1217093D01*
X1215412Y904187D01*
X1214126Y902901D01*
X1213430Y901220D01*
Y900272D01*
X1213247Y900089D01*
X1212803Y899792D01*
X1209678Y896667D01*
X1209173Y895911D01*
X1208995Y895019D01*
Y890524D01*
X1209173Y889632D01*
X1209678Y888876D01*
X1215225Y883329D01*
Y851034D01*
X1198746D01*
Y832986D01*
X1215225D01*
Y787991D01*
X1209932Y782698D01*
X1209427Y781942D01*
X1209249Y781050D01*
Y694863D01*
X1208990Y694756D01*
X1207704Y693470D01*
X1207008Y691789D01*
Y689971D01*
X1207704Y688290D01*
X1208990Y687004D01*
X1210671Y686308D01*
X1212489D01*
X1214170Y687004D01*
X1215285Y688119D01*
X1216610Y688274D01*
X1218291Y687578D01*
X1220109D01*
X1221790Y688274D01*
X1223076Y689560D01*
X1223627Y690891D01*
X1224652Y691263D01*
X1225042Y691272D01*
X1225500Y690814D01*
X1227181Y690118D01*
X1228999D01*
X1230680Y690814D01*
X1231799Y691933D01*
X1232535Y692027D01*
X1233271Y691933D01*
X1234390Y690814D01*
X1236071Y690118D01*
X1237889D01*
X1239570Y690814D01*
X1240089Y691333D01*
X1241358Y690807D01*
Y676965D01*
X1236678Y672285D01*
X1236173Y671529D01*
X1235996Y670637D01*
Y653136D01*
X1234726Y652610D01*
X1234490Y652846D01*
X1232809Y653542D01*
X1230991D01*
X1229830Y653061D01*
X1228616Y653697D01*
X1228537Y653795D01*
X1228491Y654335D01*
X1229426Y655270D01*
X1230122Y656951D01*
Y658769D01*
X1229426Y660450D01*
X1228140Y661736D01*
X1227316Y662077D01*
X1227018Y663575D01*
X1228291Y664848D01*
X1228796Y665604D01*
X1228973Y666496D01*
Y667773D01*
X1229410Y667954D01*
X1230696Y669240D01*
X1231392Y670921D01*
Y672739D01*
X1230696Y674420D01*
X1229410Y675706D01*
X1227729Y676402D01*
X1225911D01*
X1224230Y675706D01*
X1222944Y674420D01*
X1222248Y672739D01*
Y670921D01*
X1222944Y669240D01*
X1224230Y667954D01*
X1223688Y666837D01*
X1218568Y661718D01*
X1218063Y660961D01*
X1217885Y660069D01*
Y631456D01*
X1216712Y630970D01*
X1213911Y633771D01*
Y653877D01*
X1214170Y653984D01*
X1215456Y655270D01*
X1216152Y656951D01*
Y658769D01*
X1215456Y660450D01*
X1214170Y661736D01*
X1212489Y662432D01*
X1210671D01*
X1208990Y661736D01*
X1207704Y660450D01*
X1207008Y658769D01*
Y656951D01*
X1207704Y655270D01*
X1208990Y653984D01*
X1209249Y653877D01*
Y632806D01*
X1209427Y631914D01*
X1209932Y631157D01*
X1216149Y624940D01*
Y621250D01*
X1216327Y620358D01*
X1216832Y619601D01*
X1230259Y606174D01*
X1231015Y605669D01*
X1231908Y605491D01*
X1236564D01*
X1236564Y605491D01*
X1261111D01*
X1261959Y604221D01*
X1261618Y603397D01*
Y601579D01*
X1262314Y599898D01*
X1263600Y598612D01*
X1265281Y597916D01*
X1267099D01*
X1268780Y598612D01*
X1270066Y599898D01*
X1270762Y601579D01*
Y603397D01*
X1270421Y604221D01*
X1271269Y605491D01*
X1277613D01*
X1278504Y605669D01*
X1279261Y606174D01*
X1302355Y629268D01*
X1303635Y628752D01*
X1304224Y627330D01*
X1305510Y626044D01*
X1307191Y625348D01*
X1308596D01*
X1309201Y624157D01*
X1306729Y621685D01*
X1306469Y621792D01*
X1304651D01*
X1302970Y621096D01*
X1301684Y619810D01*
X1300988Y618129D01*
Y616311D01*
X1301684Y614630D01*
X1302970Y613344D01*
X1304651Y612648D01*
X1306469D01*
X1308150Y613344D01*
X1309436Y614630D01*
X1310132Y616311D01*
Y618129D01*
X1310025Y618388D01*
X1316177Y624541D01*
X1316906D01*
X1317798Y624719D01*
X1318554Y625224D01*
X1356992Y663662D01*
X1357497Y664418D01*
X1357537Y664618D01*
X1358492Y665573D01*
X1358692Y665613D01*
X1359448Y666118D01*
X1370838Y677508D01*
X1371497Y677385D01*
X1372157Y677127D01*
X1372173Y677114D01*
X1372804Y675590D01*
X1374090Y674304D01*
X1375771Y673608D01*
X1377589D01*
X1379270Y674304D01*
X1380556Y675590D01*
X1381252Y677271D01*
Y679089D01*
X1380556Y680770D01*
X1379270Y682056D01*
X1377589Y682752D01*
X1375771D01*
X1374090Y682056D01*
X1373169Y681135D01*
X1371899Y681650D01*
Y755073D01*
X1371721Y755965D01*
X1371216Y756721D01*
X1370121Y757816D01*
Y775005D01*
X1371216Y776100D01*
X1371721Y776856D01*
X1371899Y777748D01*
Y828623D01*
X1385127D01*
X1386019Y828801D01*
X1386775Y829306D01*
X1388114Y830645D01*
X1388619Y831401D01*
X1388797Y832293D01*
Y849187D01*
X1388619Y850079D01*
X1388114Y850835D01*
X1367461Y871488D01*
Y895535D01*
X1375788Y903862D01*
X1376293Y904618D01*
X1376471Y905510D01*
Y907973D01*
X1376293Y908865D01*
X1375788Y909622D01*
X1325927Y959482D01*
X1325171Y959987D01*
X1324279Y960165D01*
X1313125D01*
X1312233Y959987D01*
X1311477Y959482D01*
X1308096Y956101D01*
X1305733D01*
X1305626Y956360D01*
X1304340Y957646D01*
X1302659Y958342D01*
X1300841D01*
X1299160Y957646D01*
X1297874Y956360D01*
X1297178Y954679D01*
Y952861D01*
X1297874Y951180D01*
X1299160Y949894D01*
X1300841Y949198D01*
X1302659D01*
X1304340Y949894D01*
X1305626Y951180D01*
X1305733Y951439D01*
X1309061D01*
X1309953Y951617D01*
X1310709Y952122D01*
X1311148Y952561D01*
X1312418Y952034D01*
Y951591D01*
X1313114Y949910D01*
X1314400Y948624D01*
X1316081Y947928D01*
X1317899D01*
X1319002Y948385D01*
X1323142Y944245D01*
X1322844Y942747D01*
X1322020Y942406D01*
X1320734Y941120D01*
X1320038Y939439D01*
Y937621D01*
X1320734Y935940D01*
X1321517Y935157D01*
Y922782D01*
X1321695Y921890D01*
X1322200Y921134D01*
X1324532Y918802D01*
Y893533D01*
X1323359Y893047D01*
X1316904Y899502D01*
Y925708D01*
X1317040Y925764D01*
X1318326Y927050D01*
X1319022Y928731D01*
Y930549D01*
X1318326Y932230D01*
X1317040Y933516D01*
X1315359Y934212D01*
X1313541D01*
X1311860Y933516D01*
X1311048Y932704D01*
X1309972Y933423D01*
X1310132Y933811D01*
Y935629D01*
X1309436Y937310D01*
X1308150Y938596D01*
X1306469Y939292D01*
X1304651D01*
X1302970Y938596D01*
X1301684Y937310D01*
X1301145Y936009D01*
X1300154Y936298D01*
X1299972Y936980D01*
X1299972Y937169D01*
Y938169D01*
X1299276Y939850D01*
X1297990Y941136D01*
X1296309Y941832D01*
X1294873D01*
X1294043Y942658D01*
X1293883Y942955D01*
X1293921Y943145D01*
Y958065D01*
X1294180Y958173D01*
X1295466Y959459D01*
X1296162Y961139D01*
Y962958D01*
X1295466Y964638D01*
X1294180Y965924D01*
X1292499Y966620D01*
X1290681D01*
X1289122Y965975D01*
X1287852Y966436D01*
Y968728D01*
X1287675Y969620D01*
X1287170Y970376D01*
X1284348Y973198D01*
X1283592Y973703D01*
X1282700Y973881D01*
D02*
G37*
G36*
X1047884Y905644D02*
X1029836D01*
Y887596D01*
X1047884D01*
Y905644D01*
D02*
G37*
G36*
X1009289Y894842D02*
X1007471D01*
X1005790Y894146D01*
X1004504Y892860D01*
X1003808Y891179D01*
Y889361D01*
X1004504Y887680D01*
X1005790Y886394D01*
X1007471Y885698D01*
X1009289D01*
X1010970Y886394D01*
X1012256Y887680D01*
X1012952Y889361D01*
Y891179D01*
X1012256Y892860D01*
X1010970Y894146D01*
X1009289Y894842D01*
D02*
G37*
G36*
X976060Y887114D02*
X974160D01*
X972406Y886387D01*
X971063Y885044D01*
X970336Y883290D01*
Y881390D01*
X971063Y879636D01*
X972406Y878293D01*
X974160Y877566D01*
X976060D01*
X977814Y878293D01*
X979157Y879636D01*
X979884Y881390D01*
Y883290D01*
X979157Y885044D01*
X977814Y886387D01*
X976060Y887114D01*
D02*
G37*
G36*
X1002939Y873252D02*
X1001121D01*
X999440Y872556D01*
X998154Y871270D01*
X997458Y869589D01*
Y867771D01*
X998154Y866090D01*
X999440Y864804D01*
X1001121Y864108D01*
X1002939D01*
X1004620Y864804D01*
X1005906Y866090D01*
X1006602Y867771D01*
Y869589D01*
X1005906Y871270D01*
X1004620Y872556D01*
X1002939Y873252D01*
D02*
G37*
G36*
X1040048Y880244D02*
X1037672D01*
X1035377Y879629D01*
X1033319Y878441D01*
X1031639Y876761D01*
X1030451Y874703D01*
X1029836Y872408D01*
Y870032D01*
X1030451Y867737D01*
X1031639Y865679D01*
X1033319Y863999D01*
X1035377Y862811D01*
X1037672Y862196D01*
X1040048D01*
X1042343Y862811D01*
X1044401Y863999D01*
X1046081Y865679D01*
X1047269Y867737D01*
X1047884Y870032D01*
Y872408D01*
X1047269Y874703D01*
X1046081Y876761D01*
X1044401Y878441D01*
X1042343Y879629D01*
X1040048Y880244D01*
D02*
G37*
G36*
X1194963Y868172D02*
X1193145D01*
X1191464Y867476D01*
X1190178Y866190D01*
X1189482Y864509D01*
Y862691D01*
X1190178Y861010D01*
X1191464Y859724D01*
X1193145Y859028D01*
X1194963D01*
X1196644Y859724D01*
X1197930Y861010D01*
X1198626Y862691D01*
Y864509D01*
X1197930Y866190D01*
X1196644Y867476D01*
X1194963Y868172D01*
D02*
G37*
G36*
X1016909Y866902D02*
X1015091D01*
X1013410Y866206D01*
X1012124Y864920D01*
X1011428Y863239D01*
Y861421D01*
X1012124Y859740D01*
X1013410Y858454D01*
X1015091Y857758D01*
X1016909D01*
X1018590Y858454D01*
X1019876Y859740D01*
X1020572Y861421D01*
Y863239D01*
X1019876Y864920D01*
X1018590Y866206D01*
X1016909Y866902D01*
D02*
G37*
G36*
X1082949Y885952D02*
X1081131D01*
X1079450Y885256D01*
X1078164Y883970D01*
X1077468Y882289D01*
Y880471D01*
X1078164Y878790D01*
X1079450Y877504D01*
X1081131Y876808D01*
X1082583D01*
X1104308Y855083D01*
X1103682Y853913D01*
X1103412Y853967D01*
X1103412Y853967D01*
X1101308D01*
X1101308Y853967D01*
X1100218Y853750D01*
X1099294Y853132D01*
X1083853Y837692D01*
X1082401D01*
X1080720Y836996D01*
X1079434Y835710D01*
X1078738Y834029D01*
Y832211D01*
X1079434Y830530D01*
X1080720Y829244D01*
X1082401Y828548D01*
X1084219D01*
X1085900Y829244D01*
X1087186Y830530D01*
X1087882Y832211D01*
Y833663D01*
X1102360Y848141D01*
X1130826Y819676D01*
X1130826Y819676D01*
X1131750Y819058D01*
X1132840Y818841D01*
X1132840Y818841D01*
X1164783D01*
X1165810Y817814D01*
X1167491Y817118D01*
X1169309D01*
X1170990Y817814D01*
X1172276Y819100D01*
X1172972Y820781D01*
Y822599D01*
X1172276Y824280D01*
X1171157Y825399D01*
X1171063Y826135D01*
X1171157Y826871D01*
X1172276Y827990D01*
X1172972Y829671D01*
Y831489D01*
X1172276Y833170D01*
X1170990Y834456D01*
X1169309Y835152D01*
X1167491D01*
X1165810Y834456D01*
X1164783Y833429D01*
X1134020D01*
X1086612Y880837D01*
Y882289D01*
X1085916Y883970D01*
X1084630Y885256D01*
X1082949Y885952D01*
D02*
G37*
G36*
X1157879Y860552D02*
X1156061D01*
X1154380Y859856D01*
X1153094Y858570D01*
X1152398Y856889D01*
Y855071D01*
X1153094Y853390D01*
X1154380Y852104D01*
X1156061Y851408D01*
X1157879D01*
X1159560Y852104D01*
X1160846Y853390D01*
X1161542Y855071D01*
Y856889D01*
X1160846Y858570D01*
X1159560Y859856D01*
X1157879Y860552D01*
D02*
G37*
G36*
X1019449Y846582D02*
X1017631D01*
X1015950Y845886D01*
X1014664Y844600D01*
X1013968Y842919D01*
Y841101D01*
X1014664Y839420D01*
X1015950Y838134D01*
X1017631Y837438D01*
X1019449D01*
X1021130Y838134D01*
X1022416Y839420D01*
X1023112Y841101D01*
Y842919D01*
X1022416Y844600D01*
X1021130Y845886D01*
X1019449Y846582D01*
D02*
G37*
G36*
X1040048Y854844D02*
X1037672D01*
X1035377Y854229D01*
X1033319Y853041D01*
X1031639Y851361D01*
X1030451Y849303D01*
X1029836Y847008D01*
Y844632D01*
X1030451Y842337D01*
X1031639Y840279D01*
X1033319Y838599D01*
X1035377Y837411D01*
X1037672Y836796D01*
X1040048D01*
X1042343Y837411D01*
X1044401Y838599D01*
X1046081Y840279D01*
X1047269Y842337D01*
X1047884Y844632D01*
Y847008D01*
X1047269Y849303D01*
X1046081Y851361D01*
X1044401Y853041D01*
X1042343Y854229D01*
X1040048Y854844D01*
D02*
G37*
G36*
X1464228Y849764D02*
X1461852D01*
X1459557Y849149D01*
X1457499Y847961D01*
X1455819Y846281D01*
X1454631Y844223D01*
X1454016Y841928D01*
Y839552D01*
X1454631Y837257D01*
X1455819Y835199D01*
X1457499Y833519D01*
X1459557Y832331D01*
X1461852Y831716D01*
X1464228D01*
X1466523Y832331D01*
X1468581Y833519D01*
X1470261Y835199D01*
X1471449Y837257D01*
X1472064Y839552D01*
Y841928D01*
X1471449Y844223D01*
X1470261Y846281D01*
X1468581Y847961D01*
X1466523Y849149D01*
X1464228Y849764D01*
D02*
G37*
G36*
X1446664D02*
X1428616D01*
Y831716D01*
X1446664D01*
Y849764D01*
D02*
G37*
G36*
X1403268D02*
X1400892D01*
X1398597Y849149D01*
X1396539Y847961D01*
X1394859Y846281D01*
X1393671Y844223D01*
X1393056Y841928D01*
Y839552D01*
X1393671Y837257D01*
X1394859Y835199D01*
X1396539Y833519D01*
X1398597Y832331D01*
X1400892Y831716D01*
X1403268D01*
X1405563Y832331D01*
X1407621Y833519D01*
X1409301Y835199D01*
X1410489Y837257D01*
X1411104Y839552D01*
Y841928D01*
X1410489Y844223D01*
X1409301Y846281D01*
X1407621Y847961D01*
X1405563Y849149D01*
X1403268Y849764D01*
D02*
G37*
G36*
X999129Y840232D02*
X997311D01*
X995630Y839536D01*
X994344Y838250D01*
X993648Y836569D01*
Y834751D01*
X994344Y833070D01*
X995630Y831784D01*
X997311Y831088D01*
X999129D01*
X1000810Y831784D01*
X1002096Y833070D01*
X1002792Y834751D01*
Y836569D01*
X1002096Y838250D01*
X1000810Y839536D01*
X999129Y840232D01*
D02*
G37*
G36*
X1016844Y831407D02*
X1015026D01*
X1013345Y830711D01*
X1012059Y829425D01*
X1011363Y827744D01*
Y825926D01*
X1012059Y824245D01*
X1013345Y822959D01*
X1015026Y822263D01*
X1016844D01*
X1018525Y822959D01*
X1019811Y824245D01*
X1020507Y825926D01*
Y827744D01*
X1019811Y829425D01*
X1018525Y830711D01*
X1016844Y831407D01*
D02*
G37*
G36*
X976060Y829314D02*
X974160D01*
X972406Y828587D01*
X971063Y827244D01*
X970336Y825490D01*
Y823590D01*
X971063Y821836D01*
X972406Y820493D01*
X974160Y819766D01*
X976060D01*
X977814Y820493D01*
X979157Y821836D01*
X979884Y823590D01*
Y825490D01*
X979157Y827244D01*
X977814Y828587D01*
X976060Y829314D01*
D02*
G37*
G36*
X1005479Y821182D02*
X1003661D01*
X1001980Y820486D01*
X1000694Y819200D01*
X999998Y817519D01*
Y815701D01*
X1000694Y814020D01*
X1001980Y812734D01*
X1003661Y812038D01*
X1005479D01*
X1007160Y812734D01*
X1008446Y814020D01*
X1009142Y815701D01*
Y817519D01*
X1008446Y819200D01*
X1007160Y820486D01*
X1005479Y821182D01*
D02*
G37*
G36*
X1040048Y829444D02*
X1037672D01*
X1035377Y828829D01*
X1033319Y827641D01*
X1031639Y825961D01*
X1030451Y823903D01*
X1029836Y821608D01*
Y819232D01*
X1030451Y816937D01*
X1031639Y814879D01*
X1033319Y813199D01*
X1035377Y812011D01*
X1037672Y811396D01*
X1040048D01*
X1042343Y812011D01*
X1044401Y813199D01*
X1046081Y814879D01*
X1047269Y816937D01*
X1047884Y819232D01*
Y821608D01*
X1047269Y823903D01*
X1046081Y825961D01*
X1044401Y827641D01*
X1042343Y828829D01*
X1040048Y829444D01*
D02*
G37*
G36*
X1489349Y814832D02*
X1487531D01*
X1485850Y814136D01*
X1484564Y812850D01*
X1483868Y811169D01*
Y809351D01*
X1484564Y807670D01*
X1485850Y806384D01*
X1487531Y805688D01*
X1489349D01*
X1491030Y806384D01*
X1492316Y807670D01*
X1493012Y809351D01*
Y811169D01*
X1492316Y812850D01*
X1491030Y814136D01*
X1489349Y814832D01*
D02*
G37*
G36*
X1504589Y813562D02*
X1502771D01*
X1501090Y812866D01*
X1499804Y811580D01*
X1499108Y809899D01*
Y808081D01*
X1499804Y806400D01*
X1501090Y805114D01*
X1502771Y804418D01*
X1504589D01*
X1506270Y805114D01*
X1507556Y806400D01*
X1508252Y808081D01*
Y809899D01*
X1507556Y811580D01*
X1506270Y812866D01*
X1504589Y813562D01*
D02*
G37*
G36*
X985610Y816820D02*
X974610D01*
X972907Y816596D01*
X971320Y815939D01*
X969957Y814893D01*
X968911Y813530D01*
X968254Y811943D01*
X968030Y810240D01*
X968254Y808537D01*
X968911Y806950D01*
X969957Y805587D01*
X971320Y804541D01*
X972907Y803884D01*
X974610Y803660D01*
X985610D01*
X987313Y803884D01*
X988900Y804541D01*
X990263Y805587D01*
X991309Y806950D01*
X991966Y808537D01*
X992190Y810240D01*
X991966Y811943D01*
X991309Y813530D01*
X990263Y814893D01*
X988900Y815939D01*
X987313Y816596D01*
X985610Y816820D01*
D02*
G37*
G36*
X942310D02*
X934310D01*
X932607Y816596D01*
X931020Y815939D01*
X929657Y814893D01*
X928611Y813530D01*
X927954Y811943D01*
X927730Y810240D01*
X927954Y808537D01*
X928611Y806950D01*
X929657Y805587D01*
X931020Y804541D01*
X932607Y803884D01*
X934310Y803660D01*
X942310D01*
X944013Y803884D01*
X945600Y804541D01*
X946963Y805587D01*
X948009Y806950D01*
X948666Y808537D01*
X948890Y810240D01*
X948666Y811943D01*
X948009Y813530D01*
X946963Y814893D01*
X945600Y815939D01*
X944013Y816596D01*
X942310Y816820D01*
D02*
G37*
G36*
X1169490Y808870D02*
X1160720D01*
Y800100D01*
X1169490D01*
Y808870D01*
D02*
G37*
G36*
X1158180D02*
X1149410D01*
Y800100D01*
X1158180D01*
Y808870D01*
D02*
G37*
G36*
X1201059Y805942D02*
X1199241D01*
X1197560Y805246D01*
X1196274Y803960D01*
X1195578Y802279D01*
Y800461D01*
X1196274Y798780D01*
X1197560Y797494D01*
X1199241Y796798D01*
X1201059D01*
X1202740Y797494D01*
X1204026Y798780D01*
X1204722Y800461D01*
Y802279D01*
X1204026Y803960D01*
X1202740Y805246D01*
X1201059Y805942D01*
D02*
G37*
G36*
X1169490Y797560D02*
X1160720D01*
Y788790D01*
X1169490D01*
Y797560D01*
D02*
G37*
G36*
X1158180D02*
X1149410D01*
Y788790D01*
X1158180D01*
Y797560D01*
D02*
G37*
G36*
X1386479Y797052D02*
X1384661D01*
X1382980Y796356D01*
X1381694Y795070D01*
X1380998Y793389D01*
Y791571D01*
X1381694Y789890D01*
X1382980Y788604D01*
X1384661Y787908D01*
X1386479D01*
X1388160Y788604D01*
X1389446Y789890D01*
X1390142Y791571D01*
Y793389D01*
X1389446Y795070D01*
X1388160Y796356D01*
X1386479Y797052D01*
D02*
G37*
G36*
X1128669Y783082D02*
X1126851D01*
X1125170Y782386D01*
X1123884Y781100D01*
X1123188Y779419D01*
Y777601D01*
X1123884Y775920D01*
X1125170Y774634D01*
X1126851Y773938D01*
X1128669D01*
X1130350Y774634D01*
X1131636Y775920D01*
X1132332Y777601D01*
Y779419D01*
X1131636Y781100D01*
X1130350Y782386D01*
X1128669Y783082D01*
D02*
G37*
G36*
X1013099Y778002D02*
X1011281D01*
X1009600Y777306D01*
X1008314Y776020D01*
X1007618Y774339D01*
Y772521D01*
X1008314Y770840D01*
X1009600Y769554D01*
X1011281Y768858D01*
X1013099D01*
X1014780Y769554D01*
X1016066Y770840D01*
X1016762Y772521D01*
Y774339D01*
X1016066Y776020D01*
X1014780Y777306D01*
X1013099Y778002D01*
D02*
G37*
G36*
X1160638Y782454D02*
X1158262D01*
X1155967Y781839D01*
X1153909Y780651D01*
X1152229Y778971D01*
X1151041Y776913D01*
X1150426Y774618D01*
Y772242D01*
X1151041Y769947D01*
X1152229Y767889D01*
X1153909Y766209D01*
X1155967Y765021D01*
X1158262Y764406D01*
X1160638D01*
X1162933Y765021D01*
X1164991Y766209D01*
X1166671Y767889D01*
X1167859Y769947D01*
X1168474Y772242D01*
Y774618D01*
X1167859Y776913D01*
X1166671Y778971D01*
X1164991Y780651D01*
X1162933Y781839D01*
X1160638Y782454D01*
D02*
G37*
G36*
X1560469Y770382D02*
X1558651D01*
X1556970Y769686D01*
X1555684Y768400D01*
X1554988Y766719D01*
Y764901D01*
X1555684Y763220D01*
X1556970Y761934D01*
X1558651Y761238D01*
X1560469D01*
X1562150Y761934D01*
X1563436Y763220D01*
X1564132Y764901D01*
Y766719D01*
X1563436Y768400D01*
X1562150Y769686D01*
X1560469Y770382D01*
D02*
G37*
G36*
X1540149Y767842D02*
X1538331D01*
X1536650Y767146D01*
X1535364Y765860D01*
X1534668Y764179D01*
Y762361D01*
X1535364Y760680D01*
X1536650Y759394D01*
X1538331Y758698D01*
X1540149D01*
X1541830Y759394D01*
X1543116Y760680D01*
X1543812Y762361D01*
Y764179D01*
X1543116Y765860D01*
X1541830Y767146D01*
X1540149Y767842D01*
D02*
G37*
G36*
X1522369Y766572D02*
X1520551D01*
X1518870Y765876D01*
X1517584Y764590D01*
X1516888Y762909D01*
Y761091D01*
X1517584Y759410D01*
X1518870Y758124D01*
X1520551Y757428D01*
X1522369D01*
X1524050Y758124D01*
X1525336Y759410D01*
X1526032Y761091D01*
Y762909D01*
X1525336Y764590D01*
X1524050Y765876D01*
X1522369Y766572D01*
D02*
G37*
G36*
X941979Y751332D02*
X940161D01*
X938480Y750636D01*
X937194Y749350D01*
X936498Y747669D01*
Y745851D01*
X937194Y744170D01*
X938480Y742884D01*
X940161Y742188D01*
X941979D01*
X943660Y742884D01*
X944946Y744170D01*
X945642Y745851D01*
Y747669D01*
X944946Y749350D01*
X943660Y750636D01*
X941979Y751332D01*
D02*
G37*
G36*
X1383939Y748792D02*
X1382121D01*
X1380440Y748096D01*
X1379154Y746810D01*
X1378458Y745129D01*
Y743311D01*
X1379154Y741630D01*
X1380440Y740344D01*
X1382121Y739648D01*
X1383939D01*
X1385620Y740344D01*
X1386906Y741630D01*
X1387602Y743311D01*
Y745129D01*
X1386906Y746810D01*
X1385620Y748096D01*
X1383939Y748792D01*
D02*
G37*
G36*
X1160638Y757054D02*
X1158262D01*
X1155967Y756439D01*
X1153909Y755251D01*
X1152229Y753571D01*
X1151041Y751513D01*
X1150426Y749218D01*
Y746842D01*
X1151041Y744547D01*
X1152229Y742489D01*
X1153909Y740809D01*
X1155967Y739621D01*
X1158262Y739006D01*
X1160638D01*
X1162933Y739621D01*
X1164991Y740809D01*
X1166671Y742489D01*
X1167859Y744547D01*
X1168474Y746842D01*
Y749218D01*
X1167859Y751513D01*
X1166671Y753571D01*
X1164991Y755251D01*
X1162933Y756439D01*
X1160638Y757054D01*
D02*
G37*
G36*
X1522369Y744982D02*
X1520551D01*
X1518870Y744286D01*
X1517584Y743000D01*
X1516888Y741319D01*
Y739501D01*
X1517584Y737820D01*
X1518870Y736534D01*
X1520551Y735838D01*
X1522369D01*
X1524050Y736534D01*
X1525336Y737820D01*
X1526032Y739501D01*
Y741319D01*
X1525336Y743000D01*
X1524050Y744286D01*
X1522369Y744982D01*
D02*
G37*
G36*
X1199655Y738044D02*
X1197837D01*
X1196156Y737348D01*
X1194870Y736062D01*
X1194174Y734382D01*
Y732563D01*
X1194870Y730882D01*
X1196156Y729596D01*
X1197837Y728900D01*
X1199655D01*
X1201336Y729596D01*
X1202622Y730882D01*
X1203318Y732563D01*
Y734382D01*
X1202622Y736062D01*
X1201336Y737348D01*
X1199655Y738044D01*
D02*
G37*
G36*
X1383939Y733552D02*
X1382121D01*
X1380440Y732856D01*
X1379154Y731570D01*
X1378458Y729889D01*
Y728071D01*
X1379154Y726390D01*
X1380440Y725104D01*
X1382121Y724408D01*
X1383939D01*
X1385620Y725104D01*
X1386906Y726390D01*
X1387602Y728071D01*
Y729889D01*
X1386906Y731570D01*
X1385620Y732856D01*
X1383939Y733552D01*
D02*
G37*
G36*
X1104539Y727202D02*
X1102721D01*
X1101040Y726506D01*
X1099754Y725220D01*
X1099058Y723539D01*
Y721721D01*
X1099754Y720040D01*
X1101040Y718754D01*
X1102721Y718058D01*
X1104539D01*
X1106220Y718754D01*
X1107506Y720040D01*
X1108202Y721721D01*
Y723539D01*
X1107506Y725220D01*
X1106220Y726506D01*
X1104539Y727202D01*
D02*
G37*
G36*
X1522369Y725932D02*
X1520551D01*
X1518870Y725236D01*
X1517584Y723950D01*
X1516888Y722269D01*
Y720451D01*
X1517584Y718770D01*
X1518870Y717484D01*
X1520551Y716788D01*
X1522369D01*
X1524050Y717484D01*
X1525336Y718770D01*
X1526032Y720451D01*
Y722269D01*
X1525336Y723950D01*
X1524050Y725236D01*
X1522369Y725932D01*
D02*
G37*
G36*
X1160638Y731654D02*
X1158262D01*
X1155967Y731039D01*
X1153909Y729851D01*
X1152229Y728171D01*
X1151041Y726113D01*
X1150426Y723818D01*
Y721442D01*
X1151041Y719147D01*
X1152229Y717089D01*
X1153909Y715409D01*
X1155967Y714221D01*
X1158262Y713606D01*
X1160638D01*
X1162933Y714221D01*
X1164991Y715409D01*
X1166671Y717089D01*
X1167859Y719147D01*
X1168474Y721442D01*
Y723818D01*
X1167859Y726113D01*
X1166671Y728171D01*
X1164991Y729851D01*
X1162933Y731039D01*
X1160638Y731654D01*
D02*
G37*
G36*
X1194709Y708152D02*
X1192891D01*
X1191210Y707456D01*
X1189924Y706170D01*
X1189228Y704489D01*
Y702671D01*
X1189924Y700990D01*
X1191210Y699704D01*
X1192891Y699008D01*
X1194709D01*
X1196390Y699704D01*
X1197676Y700990D01*
X1198372Y702671D01*
Y704489D01*
X1197676Y706170D01*
X1196390Y707456D01*
X1194709Y708152D01*
D02*
G37*
G36*
X1382669Y700532D02*
X1380851D01*
X1379170Y699836D01*
X1377884Y698550D01*
X1377188Y696869D01*
Y695051D01*
X1377884Y693370D01*
X1379170Y692084D01*
X1380851Y691388D01*
X1382669D01*
X1384350Y692084D01*
X1385636Y693370D01*
X1386332Y695051D01*
Y696869D01*
X1385636Y698550D01*
X1384350Y699836D01*
X1382669Y700532D01*
D02*
G37*
G36*
X1160638Y706254D02*
X1158262D01*
X1155967Y705639D01*
X1153909Y704451D01*
X1152229Y702771D01*
X1151041Y700713D01*
X1150426Y698418D01*
Y696042D01*
X1151041Y693747D01*
X1152229Y691689D01*
X1153909Y690009D01*
X1155967Y688821D01*
X1158262Y688206D01*
X1160638D01*
X1162933Y688821D01*
X1164991Y690009D01*
X1166671Y691689D01*
X1167859Y693747D01*
X1168474Y696042D01*
Y698418D01*
X1167859Y700713D01*
X1166671Y702771D01*
X1164991Y704451D01*
X1162933Y705639D01*
X1160638Y706254D01*
D02*
G37*
G36*
X1185819Y682752D02*
X1184001D01*
X1182320Y682056D01*
X1181034Y680770D01*
X1180338Y679089D01*
Y677271D01*
X1181034Y675590D01*
X1182320Y674304D01*
X1184001Y673608D01*
X1185819D01*
X1187500Y674304D01*
X1188786Y675590D01*
X1189482Y677271D01*
Y679089D01*
X1188786Y680770D01*
X1187500Y682056D01*
X1185819Y682752D01*
D02*
G37*
G36*
X1016909Y680212D02*
X1015091D01*
X1013410Y679516D01*
X1012124Y678230D01*
X1011428Y676549D01*
Y674731D01*
X1012124Y673050D01*
X1013410Y671764D01*
X1015091Y671068D01*
X1016909D01*
X1018590Y671764D01*
X1019876Y673050D01*
X1020572Y674731D01*
Y676549D01*
X1019876Y678230D01*
X1018590Y679516D01*
X1016909Y680212D01*
D02*
G37*
G36*
X1110949Y675132D02*
X1109131D01*
X1107450Y674436D01*
X1106164Y673150D01*
X1105468Y671469D01*
Y669651D01*
X1106164Y667970D01*
X1107450Y666684D01*
X1109131Y665988D01*
X1110949D01*
X1112630Y666684D01*
X1113916Y667970D01*
X1114612Y669651D01*
Y671469D01*
X1113916Y673150D01*
X1112630Y674436D01*
X1110949Y675132D01*
D02*
G37*
G36*
X1160638Y680854D02*
X1158262D01*
X1155967Y680239D01*
X1153909Y679051D01*
X1152229Y677371D01*
X1151041Y675313D01*
X1150426Y673018D01*
Y670642D01*
X1151041Y668347D01*
X1152229Y666289D01*
X1153909Y664609D01*
X1155967Y663421D01*
X1158262Y662806D01*
X1160638D01*
X1162933Y663421D01*
X1164991Y664609D01*
X1166671Y666289D01*
X1167859Y668347D01*
X1168474Y670642D01*
Y673018D01*
X1167859Y675313D01*
X1166671Y677371D01*
X1164991Y679051D01*
X1162933Y680239D01*
X1160638Y680854D01*
D02*
G37*
G36*
X1457599Y667512D02*
X1455781D01*
X1454100Y666816D01*
X1452814Y665530D01*
X1452118Y663849D01*
Y662031D01*
X1452814Y660350D01*
X1454100Y659064D01*
X1455781Y658368D01*
X1457599D01*
X1459280Y659064D01*
X1460566Y660350D01*
X1461262Y662031D01*
Y663849D01*
X1460566Y665530D01*
X1459280Y666816D01*
X1457599Y667512D01*
D02*
G37*
G36*
X1424579D02*
X1422761D01*
X1421080Y666816D01*
X1419794Y665530D01*
X1419098Y663849D01*
Y662031D01*
X1419794Y660350D01*
X1421080Y659064D01*
X1422761Y658368D01*
X1424579D01*
X1426260Y659064D01*
X1427546Y660350D01*
X1428242Y662031D01*
Y663849D01*
X1427546Y665530D01*
X1426260Y666816D01*
X1424579Y667512D01*
D02*
G37*
G36*
X1441089Y666242D02*
X1439271D01*
X1437590Y665546D01*
X1436304Y664260D01*
X1435608Y662579D01*
Y660761D01*
X1436304Y659080D01*
X1437590Y657794D01*
X1439271Y657098D01*
X1441089D01*
X1442770Y657794D01*
X1444056Y659080D01*
X1444752Y660761D01*
Y662579D01*
X1444056Y664260D01*
X1442770Y665546D01*
X1441089Y666242D01*
D02*
G37*
G36*
X1516019Y661162D02*
X1514201D01*
X1512520Y660466D01*
X1511234Y659180D01*
X1510538Y657499D01*
Y655681D01*
X1511234Y654000D01*
X1512520Y652714D01*
X1514201Y652018D01*
X1516019D01*
X1517700Y652714D01*
X1518986Y654000D01*
X1519682Y655681D01*
Y657499D01*
X1518986Y659180D01*
X1517700Y660466D01*
X1516019Y661162D01*
D02*
G37*
G36*
X1108921Y651437D02*
X1107102D01*
X1105422Y650741D01*
X1104136Y649455D01*
X1103439Y647774D01*
Y645955D01*
X1104136Y644275D01*
X1105422Y642989D01*
X1107102Y642293D01*
X1108921D01*
X1110601Y642989D01*
X1111887Y644275D01*
X1112583Y645955D01*
Y647774D01*
X1111887Y649455D01*
X1110601Y650741D01*
X1108921Y651437D01*
D02*
G37*
G36*
X1160638Y655454D02*
X1158262D01*
X1155967Y654839D01*
X1153909Y653651D01*
X1152229Y651971D01*
X1151041Y649913D01*
X1150426Y647618D01*
Y645242D01*
X1151041Y642947D01*
X1152229Y640889D01*
X1153909Y639209D01*
X1155967Y638021D01*
X1158262Y637406D01*
X1160638D01*
X1162933Y638021D01*
X1164991Y639209D01*
X1166671Y640889D01*
X1167859Y642947D01*
X1168474Y645242D01*
Y647618D01*
X1167859Y649913D01*
X1166671Y651971D01*
X1164991Y653651D01*
X1162933Y654839D01*
X1160638Y655454D01*
D02*
G37*
G36*
X1563009Y643382D02*
X1561191D01*
X1559510Y642686D01*
X1558224Y641400D01*
X1557528Y639719D01*
Y637901D01*
X1558224Y636220D01*
X1559510Y634934D01*
X1561191Y634238D01*
X1563009D01*
X1564690Y634934D01*
X1565976Y636220D01*
X1566672Y637901D01*
Y639719D01*
X1565976Y641400D01*
X1564690Y642686D01*
X1563009Y643382D01*
D02*
G37*
G36*
X1368699Y626872D02*
X1366881D01*
X1365200Y626176D01*
X1363914Y624890D01*
X1363218Y623209D01*
Y621391D01*
X1363914Y619710D01*
X1365200Y618424D01*
X1366881Y617728D01*
X1368699D01*
X1370380Y618424D01*
X1371666Y619710D01*
X1372362Y621391D01*
Y623209D01*
X1371666Y624890D01*
X1370380Y626176D01*
X1368699Y626872D01*
D02*
G37*
G36*
X1198519D02*
X1196701D01*
X1195020Y626176D01*
X1193734Y624890D01*
X1193038Y623209D01*
Y621391D01*
X1193734Y619710D01*
X1195020Y618424D01*
X1196701Y617728D01*
X1198519D01*
X1200200Y618424D01*
X1201486Y619710D01*
X1202182Y621391D01*
Y623209D01*
X1201486Y624890D01*
X1200200Y626176D01*
X1198519Y626872D01*
D02*
G37*
G36*
X1066439D02*
X1064621D01*
X1062940Y626176D01*
X1061654Y624890D01*
X1060958Y623209D01*
Y621391D01*
X1061654Y619710D01*
X1062940Y618424D01*
X1064621Y617728D01*
X1066439D01*
X1068120Y618424D01*
X1069406Y619710D01*
X1070102Y621391D01*
Y623209D01*
X1069406Y624890D01*
X1068120Y626176D01*
X1066439Y626872D01*
D02*
G37*
G36*
X1160638Y630054D02*
X1158262D01*
X1155967Y629439D01*
X1153909Y628251D01*
X1152229Y626571D01*
X1151041Y624513D01*
X1150426Y622218D01*
Y619842D01*
X1151041Y617547D01*
X1152229Y615489D01*
X1153909Y613809D01*
X1155967Y612621D01*
X1158262Y612006D01*
X1160638D01*
X1162933Y612621D01*
X1164991Y613809D01*
X1166671Y615489D01*
X1167859Y617547D01*
X1168474Y619842D01*
Y622218D01*
X1167859Y624513D01*
X1166671Y626571D01*
X1164991Y628251D01*
X1162933Y629439D01*
X1160638Y630054D01*
D02*
G37*
G36*
X1317899Y606552D02*
X1316081D01*
X1314400Y605856D01*
X1313114Y604570D01*
X1312418Y602889D01*
Y601071D01*
X1313114Y599390D01*
X1314400Y598104D01*
X1316081Y597408D01*
X1317899D01*
X1319580Y598104D01*
X1320866Y599390D01*
X1321562Y601071D01*
Y602889D01*
X1320866Y604570D01*
X1319580Y605856D01*
X1317899Y606552D01*
D02*
G37*
G36*
X1284879D02*
X1283061D01*
X1281380Y605856D01*
X1280094Y604570D01*
X1279398Y602889D01*
Y601071D01*
X1280094Y599390D01*
X1281380Y598104D01*
X1283061Y597408D01*
X1284879D01*
X1286560Y598104D01*
X1287846Y599390D01*
X1288542Y601071D01*
Y602889D01*
X1287846Y604570D01*
X1286560Y605856D01*
X1284879Y606552D01*
D02*
G37*
G36*
X1286149Y582422D02*
X1284331D01*
X1282650Y581726D01*
X1281364Y580440D01*
X1280668Y578759D01*
Y576941D01*
X1281364Y575260D01*
X1282650Y573974D01*
X1284331Y573278D01*
X1286149D01*
X1287830Y573974D01*
X1289116Y575260D01*
X1289207Y575480D01*
X1295101D01*
X1295225Y575181D01*
X1296511Y573895D01*
X1298191Y573199D01*
X1300010D01*
X1301691Y573895D01*
X1302977Y575181D01*
X1303673Y576862D01*
Y578680D01*
X1302977Y580361D01*
X1301691Y581647D01*
X1300010Y582343D01*
X1298191D01*
X1296511Y581647D01*
X1295225Y580361D01*
X1295134Y580141D01*
X1289240D01*
X1289116Y580440D01*
X1287830Y581726D01*
X1286149Y582422D01*
D02*
G37*
G36*
X1539366Y562694D02*
X1534955D01*
X1530599Y562004D01*
X1526404Y560641D01*
X1522473Y558638D01*
X1518905Y556045D01*
X1515786Y552926D01*
X1513193Y549358D01*
X1511190Y545428D01*
X1509827Y541232D01*
X1509137Y536875D01*
Y532464D01*
X1509827Y528108D01*
X1511190Y523913D01*
X1513193Y519982D01*
X1515786Y516414D01*
X1518905Y513294D01*
X1522473Y510702D01*
X1526404Y508699D01*
X1530599Y507336D01*
X1534955Y506646D01*
X1539366D01*
X1543723Y507336D01*
X1547919Y508699D01*
X1551849Y510702D01*
X1555417Y513294D01*
X1558537Y516414D01*
X1561129Y519982D01*
X1563132Y523913D01*
X1564495Y528108D01*
X1565185Y532464D01*
Y536875D01*
X1564495Y541232D01*
X1563132Y545428D01*
X1561129Y549358D01*
X1558537Y552926D01*
X1555417Y556045D01*
X1551849Y558638D01*
X1547919Y560641D01*
X1543723Y562004D01*
X1539366Y562694D01*
D02*
G37*
G36*
X950895D02*
X946485D01*
X942128Y562004D01*
X937933Y560641D01*
X934002Y558638D01*
X930434Y556045D01*
X927315Y552926D01*
X924722Y549358D01*
X922719Y545428D01*
X921356Y541232D01*
X920666Y536875D01*
Y532464D01*
X921356Y528108D01*
X922719Y523913D01*
X924722Y519982D01*
X927315Y516414D01*
X930434Y513294D01*
X934002Y510702D01*
X937933Y508699D01*
X942128Y507336D01*
X946485Y506646D01*
X950895D01*
X955252Y507336D01*
X959447Y508699D01*
X963378Y510702D01*
X966946Y513294D01*
X970066Y516414D01*
X972658Y519982D01*
X974661Y523913D01*
X976024Y528108D01*
X976714Y532464D01*
Y536875D01*
X976024Y541232D01*
X974661Y545428D01*
X972658Y549358D01*
X970066Y552926D01*
X966946Y556045D01*
X963378Y558638D01*
X959447Y560641D01*
X955252Y562004D01*
X950895Y562694D01*
D02*
G37*
%LPD*%
G36*
X1290828Y937291D02*
Y936351D01*
X1291524Y934670D01*
X1292810Y933384D01*
X1293069Y933277D01*
Y922020D01*
X1293247Y921128D01*
X1293752Y920372D01*
X1305753Y908371D01*
Y814087D01*
X1305930Y813195D01*
X1306435Y812439D01*
X1321438Y797436D01*
X1322194Y796931D01*
X1323086Y796753D01*
X1332966D01*
X1334725Y794994D01*
Y717992D01*
X1318581Y701848D01*
X1317413Y702347D01*
X1317891Y723837D01*
X1317885Y723868D01*
X1317891Y723900D01*
X1317789Y724415D01*
X1317698Y724931D01*
X1317681Y724959D01*
X1317675Y724990D01*
X1317383Y725427D01*
X1317101Y725869D01*
X1317075Y725888D01*
X1317057Y725914D01*
X1316620Y726206D01*
X1316191Y726507D01*
X1316160Y726514D01*
X1316133Y726532D01*
X1315618Y726634D01*
X1315106Y726748D01*
X1315074Y726742D01*
X1315043Y726749D01*
X1257300D01*
X1257091Y726707D01*
X1255821Y727683D01*
Y730555D01*
X1260146Y734880D01*
X1260651Y735636D01*
X1260828Y736528D01*
Y831777D01*
X1260976Y832986D01*
X1279024D01*
Y851034D01*
X1265479D01*
X1264647Y852304D01*
X1264711Y852623D01*
Y853745D01*
X1281942Y870976D01*
X1282447Y871732D01*
X1282625Y872624D01*
Y913376D01*
X1283895Y913761D01*
X1283980Y913634D01*
X1285855Y911758D01*
X1285748Y911499D01*
Y909681D01*
X1286444Y908000D01*
X1287730Y906714D01*
X1289411Y906018D01*
X1291229D01*
X1292910Y906714D01*
X1294196Y908000D01*
X1294892Y909681D01*
Y911499D01*
X1294196Y913180D01*
X1292910Y914466D01*
X1291229Y915162D01*
X1289411D01*
X1289151Y915055D01*
X1287959Y916247D01*
Y925657D01*
X1288218Y925764D01*
X1289504Y927050D01*
X1290200Y928731D01*
Y930549D01*
X1289504Y932230D01*
X1288218Y933516D01*
X1287394Y933857D01*
X1287096Y935355D01*
X1289558Y937817D01*
X1290828Y937291D01*
D02*
G37*
G36*
X1243673Y884091D02*
Y794653D01*
X1242403Y794400D01*
X1242126Y795070D01*
X1240840Y796356D01*
X1239159Y797052D01*
X1237341D01*
X1235660Y796356D01*
X1234374Y795070D01*
X1233678Y793389D01*
Y791571D01*
X1234374Y789890D01*
X1235660Y788604D01*
X1237341Y787908D01*
X1239159D01*
X1240840Y788604D01*
X1242126Y789890D01*
X1242403Y790560D01*
X1243673Y790307D01*
Y781049D01*
X1242403Y780201D01*
X1241579Y780542D01*
X1239761D01*
X1238080Y779846D01*
X1236794Y778560D01*
X1236098Y776879D01*
Y775061D01*
X1236794Y773380D01*
X1238080Y772094D01*
X1239761Y771398D01*
X1241579D01*
X1242403Y771739D01*
X1243673Y770891D01*
Y743915D01*
X1235332Y735574D01*
X1234827Y734818D01*
X1234649Y733926D01*
Y729153D01*
X1234390Y729046D01*
X1233104Y727760D01*
X1232408Y726079D01*
Y724261D01*
X1233015Y722796D01*
X1232602Y721781D01*
X1231758Y721617D01*
X1230680Y722696D01*
X1228999Y723392D01*
X1227181D01*
X1225500Y722696D01*
X1224280Y721476D01*
X1223060Y722696D01*
X1221379Y723392D01*
X1219561D01*
X1218229Y722840D01*
X1216959Y723434D01*
Y776783D01*
X1224658Y784482D01*
X1225163Y785238D01*
X1225341Y786130D01*
Y835281D01*
X1226611Y835807D01*
X1227629Y834789D01*
X1229687Y833601D01*
X1231982Y832986D01*
X1234358D01*
X1236653Y833601D01*
X1238711Y834789D01*
X1240391Y836469D01*
X1241579Y838527D01*
X1242194Y840822D01*
Y843198D01*
X1241579Y845493D01*
X1240391Y847551D01*
X1238711Y849231D01*
X1236653Y850419D01*
X1234358Y851034D01*
X1231982D01*
X1229687Y850419D01*
X1227629Y849231D01*
X1226611Y848213D01*
X1225341Y848739D01*
Y889000D01*
X1225163Y889892D01*
X1224658Y890648D01*
X1221723Y893583D01*
X1221122Y893985D01*
X1220536Y895400D01*
X1220411Y895525D01*
X1220592Y896435D01*
X1221878Y897721D01*
X1222574Y899401D01*
Y901220D01*
X1222288Y901911D01*
X1223168Y903104D01*
X1224293D01*
X1224553Y903211D01*
X1243673Y884091D01*
D02*
G37*
G36*
X1315656Y663313D02*
X1315710Y662147D01*
X1272860Y619297D01*
X1238005D01*
X1237933Y619450D01*
X1238300Y620964D01*
X1239586Y622250D01*
X1240282Y623931D01*
Y625749D01*
X1240006Y626417D01*
X1240480Y627127D01*
X1240657Y628019D01*
Y628141D01*
X1241927Y628667D01*
X1242010Y628584D01*
X1243691Y627888D01*
X1245509D01*
X1247190Y628584D01*
X1248476Y629870D01*
X1249172Y631551D01*
Y633369D01*
X1248476Y635050D01*
X1247190Y636336D01*
X1246274Y636715D01*
X1246527Y637985D01*
X1247836D01*
X1248095Y638092D01*
X1250520Y635667D01*
X1251277Y635162D01*
X1251408Y635136D01*
X1251718Y634929D01*
X1252610Y634752D01*
X1257029D01*
X1257921Y634929D01*
X1258677Y635434D01*
X1261801Y638559D01*
X1262307Y639315D01*
X1262484Y640207D01*
Y644770D01*
X1262307Y645662D01*
X1261801Y646418D01*
X1255821Y652399D01*
Y662967D01*
X1257091Y663943D01*
X1257300Y663901D01*
X1313773D01*
X1314288Y664004D01*
X1314593Y664057D01*
X1315656Y663313D01*
D02*
G37*
%LPC*%
G36*
X1296588Y851034D02*
X1294212D01*
X1291917Y850419D01*
X1289859Y849231D01*
X1288179Y847551D01*
X1286991Y845493D01*
X1286376Y843198D01*
Y840822D01*
X1286991Y838527D01*
X1288179Y836469D01*
X1289859Y834789D01*
X1291917Y833601D01*
X1294212Y832986D01*
X1296588D01*
X1298883Y833601D01*
X1300941Y834789D01*
X1302621Y836469D01*
X1303809Y838527D01*
X1304424Y840822D01*
Y843198D01*
X1303809Y845493D01*
X1302621Y847551D01*
X1300941Y849231D01*
X1298883Y850419D01*
X1296588Y851034D01*
D02*
G37*
G36*
X1328139Y792167D02*
X1326321D01*
X1324640Y791471D01*
X1323354Y790185D01*
X1322658Y788504D01*
Y786685D01*
X1323354Y785005D01*
X1324640Y783719D01*
X1326321Y783023D01*
X1328139D01*
X1329820Y783719D01*
X1331106Y785005D01*
X1331802Y786685D01*
Y788504D01*
X1331106Y790185D01*
X1329820Y791471D01*
X1328139Y792167D01*
D02*
G37*
G36*
X1311549Y791972D02*
X1309731D01*
X1308050Y791276D01*
X1306764Y789990D01*
X1306068Y788309D01*
Y786491D01*
X1306764Y784810D01*
X1308050Y783524D01*
X1309731Y782828D01*
X1311549D01*
X1313230Y783524D01*
X1314516Y784810D01*
X1315212Y786491D01*
Y788309D01*
X1314516Y789990D01*
X1313230Y791276D01*
X1311549Y791972D01*
D02*
G37*
G36*
X1290268Y783390D02*
X1288449D01*
X1286768Y782694D01*
X1285482Y781408D01*
X1284786Y779728D01*
Y778002D01*
X1283061D01*
X1281380Y777306D01*
X1280094Y776020D01*
X1279398Y774339D01*
Y772521D01*
X1280094Y770840D01*
X1281380Y769554D01*
X1283061Y768858D01*
X1284879D01*
X1286560Y769554D01*
X1287846Y770840D01*
X1288542Y772521D01*
Y774246D01*
X1290268D01*
X1291948Y774942D01*
X1293234Y776228D01*
X1293930Y777909D01*
Y779728D01*
X1293234Y781408D01*
X1291948Y782694D01*
X1290268Y783390D01*
D02*
G37*
G36*
X1311549Y750062D02*
X1309731D01*
X1308050Y749366D01*
X1306764Y748080D01*
X1306068Y746399D01*
Y744581D01*
X1306764Y742900D01*
X1308050Y741614D01*
X1309731Y740918D01*
X1311549D01*
X1313230Y741614D01*
X1314516Y742900D01*
X1315212Y744581D01*
Y746399D01*
X1314516Y748080D01*
X1313230Y749366D01*
X1311549Y750062D01*
D02*
G37*
G36*
X1236619Y818642D02*
X1234801D01*
X1233120Y817946D01*
X1231834Y816660D01*
X1231138Y814979D01*
Y813161D01*
X1231834Y811480D01*
X1232953Y810361D01*
X1233047Y809625D01*
X1232953Y808889D01*
X1231834Y807770D01*
X1231138Y806089D01*
Y804271D01*
X1231834Y802590D01*
X1233120Y801304D01*
X1234801Y800608D01*
X1236619D01*
X1238300Y801304D01*
X1239586Y802590D01*
X1240282Y804271D01*
Y806089D01*
X1239586Y807770D01*
X1238467Y808889D01*
X1238373Y809625D01*
X1238467Y810361D01*
X1239586Y811480D01*
X1240282Y813161D01*
Y814979D01*
X1239586Y816660D01*
X1238300Y817946D01*
X1236619Y818642D01*
D02*
G37*
%LPD*%
D14*
X1132840Y821690D02*
X1168400D01*
X1132840Y830580D02*
X1168400D01*
X1082040Y881380D02*
X1132840Y830580D01*
X1103412Y851118D02*
X1132840Y821690D01*
X1101308Y851118D02*
X1103412D01*
X1083310Y833120D02*
X1101308Y851118D01*
D57*
X938310Y896640D02*
D03*
Y810240D02*
D03*
D58*
X980110Y896640D02*
D03*
Y810240D02*
D03*
D59*
X975110Y882340D02*
D03*
Y824540D02*
D03*
D66*
X1285280Y577811D02*
X1299061D01*
X1285240Y577850D02*
X1285280Y577811D01*
X1299061D02*
X1299101Y577771D01*
X1164590Y910590D02*
X1197690D01*
X1200867Y907413D01*
X1202057D01*
X1295400Y922020D02*
Y937260D01*
X1340746Y804937D02*
Y820794D01*
X1338580Y822960D02*
X1340746Y820794D01*
X1369568Y829619D02*
X1370903Y830954D01*
X1385127D02*
X1386466Y832293D01*
X1370903Y830954D02*
X1385127D01*
X1365130Y870523D02*
Y896500D01*
X1359034Y832680D02*
X1362082Y829632D01*
Y833942D02*
X1366520Y829504D01*
X1346842Y827629D02*
X1349890Y824582D01*
X1352938Y799886D02*
Y825844D01*
Y830154D02*
Y859973D01*
X1355986Y798624D02*
Y827106D01*
Y831417D02*
X1359034Y828369D01*
X1366520Y779010D02*
Y829504D01*
X1386466Y832293D02*
Y849187D01*
X1355986Y831417D02*
Y878676D01*
X1346842Y802411D02*
Y823319D01*
X1365130Y870523D02*
X1386466Y849187D01*
X1352938Y830154D02*
X1355986Y827106D01*
X1346842Y827629D02*
Y874889D01*
X1324356Y695706D02*
X1343152Y714502D01*
X1349890Y828892D02*
Y876151D01*
X1340746Y825105D02*
X1343794Y822057D01*
X1362082Y833942D02*
Y903612D01*
X1338128Y703905D02*
X1346200Y711977D01*
X1343794Y803674D02*
Y822057D01*
X1359034Y832680D02*
Y903598D01*
X1346200Y711977D02*
Y801769D01*
X1359034Y797362D02*
Y828369D01*
X1324157Y822960D02*
X1338580D01*
X1349890Y822156D02*
Y824582D01*
Y828892D02*
X1352938Y825844D01*
X1343152Y714502D02*
Y803032D01*
X1362082Y796099D02*
Y829632D01*
X1343794Y826367D02*
X1346842Y823319D01*
X1340746Y825105D02*
Y872364D01*
X1343794Y826367D02*
Y873626D01*
X1346200Y801769D02*
X1346842Y802411D01*
X1349890Y801149D02*
Y822156D01*
X1352296Y719806D02*
Y799245D01*
X1352938Y799886D01*
X1374140Y905510D02*
Y907973D01*
X1365130Y896500D02*
X1374140Y905510D01*
X1362082Y903612D02*
X1366520Y908050D01*
X1332230Y930402D02*
X1359034Y903598D01*
X1354328Y880334D02*
X1355986Y878676D01*
X1352938Y860721D02*
Y877413D01*
X1351280Y879072D02*
X1352938Y877413D01*
X1348232Y877809D02*
X1349890Y876151D01*
X1341120Y880611D02*
X1346842Y874889D01*
X1326863Y890557D02*
X1343794Y873626D01*
X1314573Y898536D02*
X1340746Y872364D01*
X1354328Y880334D02*
Y903401D01*
X1341120Y880611D02*
Y899160D01*
X1348232Y877809D02*
Y899591D01*
X1351280Y879072D02*
Y900854D01*
X1252131Y850995D02*
Y910501D01*
X1258498Y736528D02*
Y848740D01*
X1255148Y737496D02*
Y849702D01*
X1258498Y848740D02*
X1262380Y852623D01*
X1246737Y733396D02*
X1252100Y738758D01*
X1252131Y910501D02*
X1255268Y913638D01*
X1252100Y738758D02*
Y850964D01*
X1255268Y913638D02*
Y919289D01*
X1258570Y899160D02*
Y920297D01*
X1250442Y732790D02*
X1255148Y737496D01*
X1255705Y923162D02*
X1258570Y920297D01*
X1253490Y731520D02*
X1258498Y736528D01*
X1252100Y850964D02*
X1252131Y850995D01*
X1255148Y849702D02*
X1258503Y853056D01*
X1285628Y915282D02*
X1290320Y910590D01*
X1285628Y915282D02*
Y929640D01*
X1245108Y951223D02*
X1252220Y944110D01*
Y922337D02*
Y944110D01*
Y922337D02*
X1255268Y919289D01*
X1252220Y955737D02*
Y956310D01*
Y955737D02*
X1255705Y952252D01*
Y923162D02*
Y952252D01*
X1232274Y925586D02*
X1249052Y908809D01*
Y740021D02*
Y908809D01*
X1232274Y925586D02*
Y948218D01*
X1243689Y734658D02*
X1249052Y740021D01*
X1238327Y628019D02*
Y670637D01*
X1235710Y624840D02*
Y625402D01*
X1238327Y628019D01*
X1243689Y675999D02*
Y734658D01*
X1238327Y670637D02*
X1243689Y675999D01*
X1342065Y908121D02*
X1344013D01*
X1334763Y913638D02*
X1340280Y908121D01*
X1342065D01*
X1344013Y908121D02*
X1351280Y900854D01*
X1332734Y906293D02*
X1333320Y905708D01*
X1338068D01*
X1338830Y904946D01*
X1342878D02*
X1348232Y899591D01*
X1330021Y922020D02*
X1335709D01*
X1338830Y904946D02*
X1342878D01*
X1335709Y922020D02*
X1354328Y903401D01*
X1326863Y890557D02*
Y919767D01*
X1313125Y957834D02*
X1324279D01*
X1374140Y907973D01*
X1309061Y953770D02*
X1313125Y957834D01*
X1301750Y953770D02*
X1309061D01*
X1369568Y777748D02*
Y829619D01*
X1367790Y775970D02*
X1369568Y777748D01*
X1367790Y756851D02*
Y775970D01*
X1355344Y721068D02*
Y797982D01*
X1361440Y723594D02*
Y795457D01*
X1362082Y796099D01*
X1358392Y722331D02*
Y796720D01*
X1355344Y797982D02*
X1355986Y798624D01*
X1358392Y722331D02*
X1359781Y720941D01*
X1361440Y723594D02*
X1362829Y722204D01*
X1355344Y721068D02*
X1356734Y719679D01*
X1358392Y796720D02*
X1359034Y797362D01*
X1349248Y800507D02*
X1349890Y801149D01*
X1349248Y718543D02*
X1350638Y717154D01*
X1352296Y709452D02*
X1353685Y710842D01*
X1352296Y702818D02*
Y709452D01*
X1349248Y708744D02*
Y710714D01*
X1352296Y719806D02*
X1353685Y718417D01*
X1349248Y710714D02*
X1350638Y712104D01*
X1335940Y686462D02*
X1352296Y702818D01*
X1333585Y693081D02*
X1349248Y708744D01*
Y718543D02*
Y800507D01*
X1364742Y777233D02*
X1366520Y779010D01*
X1364742Y755588D02*
Y777233D01*
X1367790Y756851D02*
X1369568Y755073D01*
X1364742Y755588D02*
X1364996Y755334D01*
Y753441D02*
Y755334D01*
X1337056Y717027D02*
Y795959D01*
X1340104Y715764D02*
Y804295D01*
X1369568Y679534D02*
Y755073D01*
X1366520Y680797D02*
Y751917D01*
X1364996Y753441D02*
X1366520Y751917D01*
X1357389Y667766D02*
X1357800D01*
X1369568Y679534D01*
X1355344Y665721D02*
X1357389Y667766D01*
X1355344Y665310D02*
Y665721D01*
X1316906Y626872D02*
X1355344Y665310D01*
X1315212Y626872D02*
X1316906D01*
X1305560Y617220D02*
X1315212Y626872D01*
X1356537Y670814D02*
X1366520Y680797D01*
X1355421Y670814D02*
X1356537D01*
X1352296Y667689D02*
X1355421Y670814D01*
X1352296Y666573D02*
Y667689D01*
X1315643Y629920D02*
X1352296Y666573D01*
X1308100Y629920D02*
X1315643D01*
X1346200Y668020D02*
X1361440Y683260D01*
X1323848Y937768D02*
X1324610Y938530D01*
X1323848Y922782D02*
Y937768D01*
Y922782D02*
X1326863Y919767D01*
X1326896Y925145D02*
X1330021Y922020D01*
X1326896Y925145D02*
Y932942D01*
X1329944Y935990D01*
Y940739D01*
X1318183Y952500D02*
X1329944Y940739D01*
X1316990Y952500D02*
X1318183D01*
X1314573Y898536D02*
Y929517D01*
X1314450Y929640D02*
X1314573Y929517D01*
X1308083Y814087D02*
X1323086Y799084D01*
X1340104Y804295D02*
X1340746Y804937D01*
X1323086Y799084D02*
X1333931D01*
X1321308Y696969D02*
X1340104Y715764D01*
X1343152Y803032D02*
X1343794Y803674D01*
X1333931Y799084D02*
X1337056Y795959D01*
X1318260Y698231D02*
X1337056Y717027D01*
X1305560Y916171D02*
X1311525Y910205D01*
Y835592D02*
X1324157Y822960D01*
X1311525Y835592D02*
Y910205D01*
X1308083Y814087D02*
Y909337D01*
X1295400Y922020D02*
X1308083Y909337D01*
X1359781Y708316D02*
Y720941D01*
X1355344Y696137D02*
Y708189D01*
X1356734Y709579D02*
Y719679D01*
X1361440Y705665D02*
X1362829Y707054D01*
X1358392Y706927D02*
X1359781Y708316D01*
X1327404Y677253D02*
Y694444D01*
X1353685Y710842D02*
Y718417D01*
X1362829Y707054D02*
Y722204D01*
X1355344Y708189D02*
X1356734Y709579D01*
X1361440Y683260D02*
Y705665D01*
X1336866Y703905D02*
X1338128D01*
X1358392Y691642D02*
Y706927D01*
X1327404Y694444D02*
X1336866Y703905D01*
X1350638Y712104D02*
Y717154D01*
X1335940Y685834D02*
Y686462D01*
X1327404Y677253D02*
X1327658Y676999D01*
X1324356Y658876D02*
Y695706D01*
X1277613Y607822D02*
X1327404Y657614D01*
X1327658Y661593D02*
Y676999D01*
X1276350Y610870D02*
X1324356Y658876D01*
X1236564Y607822D02*
X1277613D01*
X1332230Y659638D02*
X1332738Y659130D01*
X1332230Y659638D02*
Y673023D01*
X1327404Y657614D02*
Y661339D01*
X1327658Y661593D01*
X1332230Y673023D02*
X1355344Y696137D01*
X1233170Y610870D02*
X1276350D01*
X1273825Y616966D02*
X1318260Y661401D01*
X1234778Y613918D02*
X1275088D01*
X1321308Y660138D01*
X1236041Y616966D02*
X1273825D01*
X1225550Y623146D02*
X1234778Y613918D01*
X1230376Y622631D02*
X1236041Y616966D01*
X1222502Y621538D02*
X1233170Y610870D01*
X1220216Y628480D02*
Y660069D01*
Y628480D02*
X1222502Y626194D01*
Y621538D02*
Y626194D01*
X1220216Y660069D02*
X1226643Y666496D01*
Y671653D01*
X1226820Y671830D01*
X1211580Y632806D02*
X1218480Y625906D01*
Y621250D02*
Y625906D01*
X1231908Y607822D02*
X1236564D01*
X1218480Y621250D02*
X1231908Y607822D01*
X1225550Y623146D02*
Y657860D01*
X1217556Y787026D02*
Y884294D01*
X1223010Y786130D02*
Y889000D01*
X1165860Y901700D02*
X1167130Y900430D01*
X1197610D01*
X1214628Y777748D02*
X1223010Y786130D01*
X1211580Y781050D02*
X1217556Y787026D01*
X1236980Y733926D02*
X1246004Y742950D01*
X1223384Y907676D02*
X1246004Y885056D01*
Y742950D02*
Y885056D01*
X1236980Y725170D02*
Y733926D01*
X1250442Y650171D02*
Y732790D01*
X1246737Y667033D02*
Y733396D01*
X1253490Y651433D02*
Y731520D01*
X1241375Y636778D02*
Y661670D01*
X1246737Y667033D01*
X1250442Y650171D02*
X1254819Y642416D01*
X1262380Y852623D02*
Y854710D01*
X1253490Y651433D02*
X1260153Y644770D01*
X1318260Y661401D02*
Y698231D01*
X1321308Y660138D02*
Y696969D01*
X1211580Y632806D02*
Y657860D01*
X1305560Y916171D02*
Y934720D01*
X1343660Y676910D02*
X1358392Y691642D01*
X1230376Y622631D02*
Y634420D01*
X1231900Y635944D01*
Y648970D01*
X1214628Y717119D02*
Y777748D01*
X1211580Y690880D02*
Y781050D01*
X1211326Y890524D02*
X1217556Y884294D01*
X1211326Y890524D02*
Y895019D01*
X1220075Y891935D02*
X1223010Y889000D01*
X1217535Y891935D02*
X1220075D01*
X1216660Y892810D02*
X1217535Y891935D01*
X1214628Y717119D02*
X1219200Y712547D01*
Y692150D02*
Y712547D01*
X1246927Y642557D02*
X1252169Y637315D01*
X1257029Y637082D02*
X1260153Y640207D01*
X1252377Y637315D02*
X1252610Y637082D01*
X1252169Y637315D02*
X1252377D01*
X1252610Y637082D02*
X1257029D01*
X1260153Y640207D02*
Y644770D01*
X1244600Y632460D02*
Y633553D01*
X1241375Y636778D02*
X1244600Y633553D01*
X1280294Y872624D02*
Y931849D01*
X1291590Y943145D02*
Y962048D01*
X1280294Y931849D02*
X1291590Y943145D01*
X1277246Y873886D02*
Y941444D01*
X1262380Y854710D02*
X1280294Y872624D01*
X1258503Y855144D02*
X1277246Y873886D01*
X1262380Y956310D02*
X1277246Y941444D01*
X1258503Y853056D02*
Y855144D01*
X1245108Y951223D02*
Y956741D01*
X1282700Y971550D02*
X1285522Y968728D01*
Y960573D02*
Y968728D01*
Y960573D02*
X1287808Y958287D01*
Y952711D02*
Y958287D01*
X1284683Y949586D02*
X1287808Y952711D01*
X1276958Y952893D02*
X1280264Y949586D01*
X1276958Y952893D02*
Y956017D01*
X1272777Y960199D02*
X1276958Y956017D01*
X1280264Y949586D02*
X1284683D01*
X1255606Y971550D02*
X1282700D01*
X1232274Y948218D02*
X1255606Y971550D01*
X1245108Y956741D02*
X1256107Y967740D01*
X1277620D01*
X1282474Y954920D02*
Y962886D01*
X1277620Y967740D02*
X1282474Y962886D01*
X1216765Y900311D02*
X1218002D01*
X1214598Y898144D02*
X1216765Y900311D01*
X1214451Y898144D02*
X1214598D01*
X1211326Y895019D02*
X1214451Y898144D01*
D71*
X1537161Y534670D02*
D03*
X948690D02*
D03*
X1537161Y1042694D02*
D03*
X1037161D02*
D03*
D72*
X1551926Y519905D02*
D03*
X1558042Y534670D02*
D03*
X1551926Y549435D02*
D03*
X1537161Y555551D02*
D03*
X1522396Y549435D02*
D03*
X1516280Y534670D02*
D03*
X1522396Y519905D02*
D03*
X1537161Y513789D02*
D03*
X963455Y519905D02*
D03*
X969571Y534670D02*
D03*
X963455Y549435D02*
D03*
X948690Y555551D02*
D03*
X933925Y549435D02*
D03*
X927809Y534670D02*
D03*
X933925Y519905D02*
D03*
X948690Y513789D02*
D03*
X1551926Y1027929D02*
D03*
X1558042Y1042694D02*
D03*
X1551926Y1057459D02*
D03*
X1537161Y1063575D02*
D03*
X1522396Y1057459D02*
D03*
X1516280Y1042694D02*
D03*
X1522396Y1027929D02*
D03*
X1537161Y1021813D02*
D03*
X1051926Y1027929D02*
D03*
X1058042Y1042694D02*
D03*
X1051926Y1057459D02*
D03*
X1037161Y1063575D02*
D03*
X1022396Y1057459D02*
D03*
X1016280Y1042694D02*
D03*
X1022396Y1027929D02*
D03*
X1037161Y1021813D02*
D03*
D73*
X1038860Y820420D02*
D03*
Y845820D02*
D03*
Y871220D02*
D03*
X1233170Y842010D02*
D03*
X1159450Y773430D02*
D03*
Y748030D02*
D03*
Y722630D02*
D03*
Y697230D02*
D03*
Y671830D02*
D03*
Y646430D02*
D03*
Y621030D02*
D03*
X1295400Y842010D02*
D03*
X1463040Y840740D02*
D03*
X1402080D02*
D03*
X1330960Y808990D02*
D03*
X1242060Y929640D02*
D03*
D74*
X1038860Y896620D02*
D03*
X1159450Y798830D02*
D03*
X1330960Y834390D02*
D03*
D75*
X1207770Y842010D02*
D03*
X1270000D02*
D03*
X1437640Y840740D02*
D03*
X1376680D02*
D03*
X1267460Y929640D02*
D03*
D76*
X1026160Y990600D02*
D03*
X1056640D02*
D03*
X1057910Y952500D02*
D03*
X1024890D02*
D03*
X998220Y835660D02*
D03*
X1002030Y868680D02*
D03*
X1433830Y965200D02*
D03*
X1164590Y910590D02*
D03*
X1202057Y907413D02*
D03*
X1295400Y937260D02*
D03*
X1233170Y877570D02*
D03*
X1262380D02*
D03*
X1200150Y801370D02*
D03*
Y772160D02*
D03*
X1388110Y980440D02*
D03*
X1412240Y938530D02*
D03*
X1363980Y977900D02*
D03*
X1083310Y918210D02*
D03*
Y889000D02*
D03*
X1065530Y622300D02*
D03*
X1036320D02*
D03*
X1197610Y593090D02*
D03*
Y622300D02*
D03*
X1338580D02*
D03*
X1367790D02*
D03*
X1402080Y927100D02*
D03*
Y897890D02*
D03*
X1515110Y951230D02*
D03*
X1544320D02*
D03*
X1258570Y899160D02*
D03*
X1012190Y773430D02*
D03*
X1290320Y910590D02*
D03*
X1341120Y899160D02*
D03*
X1373124Y764437D02*
D03*
X1360138Y662972D02*
D03*
X1346200Y668020D02*
D03*
X1235710Y805180D02*
D03*
Y814070D02*
D03*
X1168400Y821690D02*
D03*
Y830580D02*
D03*
X1327230Y787595D02*
D03*
X1331722Y793750D02*
D03*
X1335940Y685834D02*
D03*
X1333585Y693081D02*
D03*
X1332738Y659130D02*
D03*
X1258570Y622300D02*
D03*
X1225550Y657860D02*
D03*
X1018540Y935990D02*
D03*
X1165860Y901700D02*
D03*
X1197610Y900430D02*
D03*
X1194054Y863600D02*
D03*
X1156970Y855980D02*
D03*
X1228090Y735330D02*
D03*
X1283970Y773430D02*
D03*
X1289358Y778818D02*
D03*
X1303020Y744220D02*
D03*
X1403350Y786130D02*
D03*
X1383030Y744220D02*
D03*
X1488440Y810260D02*
D03*
X1503680Y808990D02*
D03*
X1504950Y883920D02*
D03*
X1456690Y930910D02*
D03*
X1558290Y728980D02*
D03*
X1489710Y666750D02*
D03*
X1562100Y638810D02*
D03*
X1515110Y656590D02*
D03*
X1521460Y721360D02*
D03*
Y740410D02*
D03*
Y762000D02*
D03*
X1539240Y763270D02*
D03*
X1559560Y765810D02*
D03*
X1186180Y977900D02*
D03*
X1159510Y967740D02*
D03*
X1168400D02*
D03*
X1240790Y969010D02*
D03*
X1286510Y981710D02*
D03*
X1216660Y980440D02*
D03*
X1228090Y981710D02*
D03*
X1127760Y778510D02*
D03*
X1240670Y775970D02*
D03*
X1103630Y722630D02*
D03*
X1108011Y646865D02*
D03*
X1110040Y670560D02*
D03*
X1082040Y881380D02*
D03*
X1083310Y833120D02*
D03*
X980440Y927100D02*
D03*
X1008380Y890270D02*
D03*
X1016000Y862330D02*
D03*
X1018540Y842010D02*
D03*
X1015935Y826835D02*
D03*
X1004570Y816610D02*
D03*
X928370Y717550D02*
D03*
X941070Y746760D02*
D03*
X1016000Y675640D02*
D03*
X1238250Y792480D02*
D03*
X1266190Y602488D02*
D03*
X1366520Y908050D02*
D03*
X1211580Y657860D02*
D03*
X1223384Y907676D02*
D03*
X1207641Y670396D02*
D03*
X1219200Y692150D02*
D03*
X1254819Y642416D02*
D03*
X1246927Y642557D02*
D03*
X1244600Y632460D02*
D03*
X1235710Y624840D02*
D03*
X1285628Y929640D02*
D03*
X1267714Y775970D02*
D03*
X1334763Y913638D02*
D03*
X1332734Y906293D02*
D03*
X1332230Y930402D02*
D03*
X1218002Y900311D02*
D03*
X1324610Y938530D02*
D03*
X1228090Y694690D02*
D03*
X1216660Y892810D02*
D03*
X1235710Y717550D02*
D03*
X1228090Y718820D02*
D03*
X1220470D02*
D03*
X1305560Y934720D02*
D03*
X1198746Y733472D02*
D03*
X1371600Y956310D02*
D03*
X1361440D02*
D03*
X1353820Y952500D02*
D03*
X1314450Y929640D02*
D03*
X1291590Y962048D02*
D03*
X1282474Y954920D02*
D03*
X1272777Y960199D02*
D03*
X1316990Y952500D02*
D03*
X1301750Y953770D02*
D03*
X1262380Y956310D02*
D03*
X1252220D02*
D03*
X1299101Y577771D02*
D03*
X1153160Y981710D02*
D03*
X1423670Y662940D02*
D03*
X1440180Y661670D02*
D03*
X1456690Y662940D02*
D03*
X1310640Y745490D02*
D03*
X1343660Y676910D02*
D03*
X1305560Y617220D02*
D03*
X1308100Y629920D02*
D03*
X1285240Y577850D02*
D03*
X1297940Y786130D02*
D03*
X1310640Y787400D02*
D03*
X1236980Y725170D02*
D03*
X1211580Y690880D02*
D03*
X1236980Y694690D02*
D03*
X1226820Y671830D02*
D03*
X1231900Y648970D02*
D03*
X1426210Y933450D02*
D03*
X1422400Y982980D02*
D03*
X1372722Y977900D02*
D03*
X1432560Y979170D02*
D03*
X1442161Y955599D02*
D03*
X1441450Y915670D02*
D03*
X1458153Y955040D02*
D03*
X1324610Y619760D02*
D03*
X1385570Y792480D02*
D03*
X1383030Y728980D02*
D03*
X1376680Y678180D02*
D03*
X1381760Y695960D02*
D03*
X1316990Y601980D02*
D03*
X1283970D02*
D03*
X1184910Y678180D02*
D03*
X1193800Y703580D02*
D03*
X1274370Y706150D02*
D03*
X1285370D02*
D03*
X1296370D02*
D03*
X1274370Y695150D02*
D03*
X1285370D02*
D03*
X1296370D02*
D03*
X1274370Y684150D02*
D03*
X1285370D02*
D03*
X1296370D02*
D03*
M02*
