G04*
G04 #@! TF.GenerationSoftware,Altium Limited,Altium Designer,23.10.1 (27)*
G04*
G04 Layer_Physical_Order=1*
G04 Layer_Color=255*
%FSLAX44Y44*%
%MOMM*%
G71*
G04*
G04 #@! TF.SameCoordinates,E9324DD7-ED2E-445C-8A49-CA31A5FF0C81*
G04*
G04*
G04 #@! TF.FilePolarity,Positive*
G04*
G01*
G75*
%ADD14C,0.2540*%
%ADD16C,0.2032*%
%ADD17C,0.3048*%
G04:AMPARAMS|DCode=20|XSize=1mm|YSize=0.9mm|CornerRadius=0.1125mm|HoleSize=0mm|Usage=FLASHONLY|Rotation=180.000|XOffset=0mm|YOffset=0mm|HoleType=Round|Shape=RoundedRectangle|*
%AMROUNDEDRECTD20*
21,1,1.0000,0.6750,0,0,180.0*
21,1,0.7750,0.9000,0,0,180.0*
1,1,0.2250,-0.3875,0.3375*
1,1,0.2250,0.3875,0.3375*
1,1,0.2250,0.3875,-0.3375*
1,1,0.2250,-0.3875,-0.3375*
%
%ADD20ROUNDEDRECTD20*%
%ADD21R,0.6400X0.6400*%
%ADD22R,0.6400X0.6400*%
%ADD23R,1.1500X0.6000*%
%ADD24R,1.1500X0.3000*%
G04:AMPARAMS|DCode=25|XSize=1mm|YSize=0.9mm|CornerRadius=0.1125mm|HoleSize=0mm|Usage=FLASHONLY|Rotation=270.000|XOffset=0mm|YOffset=0mm|HoleType=Round|Shape=RoundedRectangle|*
%AMROUNDEDRECTD25*
21,1,1.0000,0.6750,0,0,270.0*
21,1,0.7750,0.9000,0,0,270.0*
1,1,0.2250,-0.3375,-0.3875*
1,1,0.2250,-0.3375,0.3875*
1,1,0.2250,0.3375,0.3875*
1,1,0.2250,0.3375,-0.3875*
%
%ADD25ROUNDEDRECTD25*%
%ADD26R,0.7500X0.9500*%
%ADD27R,0.9500X0.7500*%
%ADD28R,0.6800X1.2000*%
%ADD29R,1.2500X0.7600*%
%ADD30O,0.9000X0.2000*%
%ADD31O,0.2000X0.9000*%
%ADD32R,3.4000X3.4000*%
G04:AMPARAMS|DCode=33|XSize=2.4741mm|YSize=0.6234mm|CornerRadius=0.3117mm|HoleSize=0mm|Usage=FLASHONLY|Rotation=90.000|XOffset=0mm|YOffset=0mm|HoleType=Round|Shape=RoundedRectangle|*
%AMROUNDEDRECTD33*
21,1,2.4741,0.0000,0,0,90.0*
21,1,1.8507,0.6234,0,0,90.0*
1,1,0.6234,0.0000,0.9253*
1,1,0.6234,0.0000,-0.9253*
1,1,0.6234,0.0000,-0.9253*
1,1,0.6234,0.0000,0.9253*
%
%ADD33ROUNDEDRECTD33*%
%ADD34R,0.6234X2.4741*%
%ADD35R,0.9200X0.6400*%
G04:AMPARAMS|DCode=57|XSize=1mm|YSize=1.8mm|CornerRadius=0.5mm|HoleSize=0mm|Usage=FLASHONLY|Rotation=270.000|XOffset=0mm|YOffset=0mm|HoleType=Round|Shape=RoundedRectangle|*
%AMROUNDEDRECTD57*
21,1,1.0000,0.8000,0,0,270.0*
21,1,0.0000,1.8000,0,0,270.0*
1,1,1.0000,-0.4000,0.0000*
1,1,1.0000,-0.4000,0.0000*
1,1,1.0000,0.4000,0.0000*
1,1,1.0000,0.4000,0.0000*
%
%ADD57ROUNDEDRECTD57*%
G04:AMPARAMS|DCode=58|XSize=1mm|YSize=2.1mm|CornerRadius=0.5mm|HoleSize=0mm|Usage=FLASHONLY|Rotation=270.000|XOffset=0mm|YOffset=0mm|HoleType=Round|Shape=RoundedRectangle|*
%AMROUNDEDRECTD58*
21,1,1.0000,1.1000,0,0,270.0*
21,1,0.0000,2.1000,0,0,270.0*
1,1,1.0000,-0.5500,0.0000*
1,1,1.0000,-0.5500,0.0000*
1,1,1.0000,0.5500,0.0000*
1,1,1.0000,0.5500,0.0000*
%
%ADD58ROUNDEDRECTD58*%
%ADD59C,0.6500*%
%ADD62R,1.2700X0.6350*%
%AMCUSTOMSHAPE63*
4,1,4,-0.3400,-0.6000,-0.3400,3.6500,0.3400,3.6500,0.3400,-0.6000,-0.3400,-0.6000,0.0*%
%ADD63CUSTOMSHAPE63*%

%ADD64R,0.7000X4.2000*%
%ADD65R,0.7000X4.2000*%
%ADD66C,0.1524*%
%ADD67C,0.5080*%
%ADD68C,0.6350*%
%ADD69C,0.3810*%
%ADD70R,1.9000X2.9500*%
%ADD71C,5.3000*%
%ADD72C,0.3556*%
%ADD73C,1.5000*%
%ADD74R,1.5000X1.5000*%
%ADD75R,1.5000X1.5000*%
%ADD76C,0.6096*%
D14*
X1234440Y805180D02*
X1235710D01*
X1231900Y807720D02*
X1234440Y805180D01*
X1198880Y807720D02*
X1231900D01*
X1184910Y821690D02*
X1198880Y807720D01*
X1168400Y821690D02*
X1184910D01*
X1201420Y814070D02*
X1235710D01*
X1184910Y830580D02*
X1201420Y814070D01*
X1168400Y830580D02*
X1184910D01*
X1369850Y744220D02*
X1383030D01*
X1488440Y721360D02*
X1498190D01*
X1477010Y709930D02*
X1488440Y721360D01*
X1477010Y645160D02*
Y709930D01*
Y645160D02*
X1483360Y638810D01*
X1496840D01*
X1082040Y869950D02*
Y881380D01*
Y834390D02*
X1083310Y833120D01*
X1082040Y834390D02*
Y844550D01*
X1038860Y845820D02*
X1063770D01*
X1065040Y844550D01*
X1063770Y871220D02*
X1065040Y869950D01*
X1038860Y871220D02*
X1063770D01*
X1014610Y860940D02*
X1016000Y862330D01*
X985860Y860940D02*
X1014610D01*
X1018540Y842010D02*
Y843280D01*
X1015880Y845940D02*
X1018540Y843280D01*
X985860Y845940D02*
X1015880D01*
X1037710Y846970D02*
X1038860Y845820D01*
X1027550Y846970D02*
X1037710D01*
X1023580Y850940D02*
X1027550Y846970D01*
X985860Y850940D02*
X1023580D01*
X985860Y855940D02*
X1023580D01*
X1038860Y871220D01*
X1266190Y602488D02*
Y610870D01*
X1199087Y733131D02*
X1207909D01*
X1198746Y733472D02*
X1199087Y733131D01*
X1207909D02*
X1208250Y732790D01*
X1208560Y678180D02*
X1220470D01*
X1207290Y679450D02*
X1208560Y678180D01*
X1372250Y728980D02*
X1383030D01*
X1367250Y678180D02*
X1376680D01*
X1372190Y695960D02*
X1381760D01*
X1316930Y602040D02*
X1316990Y601980D01*
X1316930Y602040D02*
Y611350D01*
X1283910Y602040D02*
X1283970Y601980D01*
X1283910Y602040D02*
Y609570D01*
X1184910Y678180D02*
X1186180Y679450D01*
X1198090D01*
X1193800Y703580D02*
X1205200D01*
D16*
X991362Y754380D02*
X1014730D01*
X991362D02*
Y761917D01*
X987806D02*
X991362D01*
X987806Y754380D02*
Y761917D01*
X986790Y754380D02*
X987806D01*
X1014730D02*
X1020960D01*
X1032199Y734371D02*
X1038860Y727710D01*
X1032199Y734371D02*
X1033753Y735925D01*
X1031239Y738439D02*
X1033753Y735925D01*
X1020705Y727905D02*
X1031239Y738439D01*
X1018190Y730419D02*
X1020705Y727905D01*
X1018190Y730419D02*
X1029041Y741270D01*
X1026526Y743785D02*
X1029041Y741270D01*
X1024656Y741914D02*
X1026526Y743785D01*
X1023938Y742633D02*
X1024656Y741914D01*
X1038860Y727710D02*
X1040130Y726440D01*
X1021080Y745490D02*
X1023938Y742633D01*
X1046798Y707390D02*
X1049020D01*
X1046798D02*
Y716534D01*
X1043242D02*
X1046798D01*
X1043242Y698246D02*
Y716534D01*
X1039686Y698246D02*
X1043242D01*
X1039686D02*
Y720090D01*
X1036130D02*
X1039686D01*
X1036130Y707390D02*
Y720090D01*
X1035114Y707390D02*
X1036130D01*
X1034034Y694690D02*
X1046480D01*
X1034034D02*
Y697906D01*
X1030478D02*
X1034034D01*
X1030478Y683797D02*
Y697906D01*
X1026922Y683797D02*
X1030478D01*
X1026922D02*
Y705409D01*
X1023366D02*
X1026922D01*
X1023366Y694690D02*
Y705409D01*
X1022350Y694690D02*
X1023366D01*
X1046480D02*
X1061120D01*
X1033939Y681990D02*
X1044702D01*
Y682503D01*
X1048258D01*
Y672698D02*
Y682503D01*
Y672698D02*
X1051814D01*
Y681990D01*
X1052830D01*
X1033780D02*
X1033939D01*
X1052830D02*
X1061120D01*
X1031240Y647700D02*
X1052830Y669290D01*
X971550Y647700D02*
X1031240D01*
X1033700Y681990D02*
X1033780D01*
X1032510Y680800D02*
X1033700Y681990D01*
X1049020Y707390D02*
X1061120D01*
X1029970D02*
X1035114D01*
X1040130Y726440D02*
X1046480Y720090D01*
X1061120D01*
X1020960Y754380D02*
X1042550Y732790D01*
X1061120D01*
X1057910Y952500D02*
Y961780D01*
X1024890Y952500D02*
Y960510D01*
X1026160Y961780D01*
X997940Y835940D02*
X998220Y835660D01*
X985860Y835940D02*
X997940D01*
X999290Y865940D02*
X1002030Y868680D01*
X985860Y865940D02*
X999290D01*
X1026160Y659130D02*
X1032510Y665480D01*
X982980Y659130D02*
X1026160D01*
X982840Y754380D02*
X986790D01*
X998220Y694690D02*
X1022350D01*
X1032510Y665480D02*
Y680800D01*
X995540Y745490D02*
X1021080D01*
X994350Y723900D02*
Y744300D01*
X995540Y745490D01*
X981650Y723900D02*
Y753190D01*
X982840Y754380D01*
X968950Y650300D02*
X971550Y647700D01*
X1052830Y669290D02*
X1061120D01*
X968950Y650300D02*
Y675579D01*
X1536210Y638810D02*
Y639369D01*
X1530110Y645469D02*
Y669290D01*
Y645469D02*
X1536210Y639369D01*
X1513840Y638810D02*
X1536210D01*
X1024890Y712470D02*
X1029970Y707390D01*
X1024890Y712470D02*
Y721360D01*
X1022350Y723900D02*
X1024890Y721360D01*
X1007050Y723900D02*
X1022350D01*
X981650Y660460D02*
X982980Y659130D01*
X981650Y660460D02*
Y675579D01*
X994350Y690820D02*
X998220Y694690D01*
X994350Y675579D02*
Y690820D01*
D17*
X941070Y680720D02*
X967357D01*
X968950Y675579D02*
Y679127D01*
X967357Y680720D02*
X968950Y679127D01*
X1153160Y841690D02*
X1207450D01*
X1368283Y757947D02*
Y758771D01*
X1373124Y763612D01*
Y764437D01*
X1366290Y755954D02*
X1368283Y757947D01*
X1366290Y754150D02*
Y755954D01*
X1361440Y749300D02*
X1366290Y754150D01*
X1360138Y662972D02*
Y663797D01*
X1358050Y665885D02*
X1360138Y663797D01*
X1358050Y665885D02*
Y678180D01*
X1331722Y793750D02*
X1343145D01*
X1264543Y621717D02*
X1266190Y620070D01*
X1259153Y621717D02*
X1264543D01*
X1258570Y622300D02*
X1259153Y621717D01*
X1233170Y842010D02*
X1270000D01*
X1153160Y805120D02*
X1159450Y798830D01*
X1153160Y805120D02*
Y827090D01*
X1207450Y841690D02*
X1207770Y842010D01*
X1344930Y781930D02*
Y791964D01*
X1343145Y793750D02*
X1344930Y791964D01*
X1361440Y745010D02*
Y749300D01*
X1360650Y744220D02*
X1361440Y745010D01*
X1228090Y732790D02*
X1237480D01*
X1225550D02*
X1228090Y735330D01*
X1217450Y732790D02*
X1225550D01*
X1276350Y770890D02*
X1285370Y761870D01*
X1276350Y770890D02*
Y792480D01*
X1260630Y775970D02*
X1281370Y755230D01*
Y751900D02*
Y755230D01*
X1305950Y764930D02*
X1344930D01*
X1296670Y746760D02*
Y755650D01*
X1305950Y764930D01*
X1380880Y756920D02*
Y773430D01*
X1358250Y728980D02*
X1358900Y729630D01*
Y734993D01*
X1360685Y736778D01*
X1394638D01*
X1397880Y740020D01*
Y756920D01*
X1489710Y666750D02*
X1492250Y669290D01*
X1500110D01*
X928370Y717550D02*
X930260Y719440D01*
X941070D01*
X968950Y720912D02*
Y723900D01*
X941070Y719440D02*
X967478D01*
X968950Y720912D01*
X941070Y697720D02*
Y719440D01*
X1207311Y670725D02*
Y679429D01*
Y670725D02*
X1207641Y670396D01*
X1207290Y679450D02*
X1207311Y679429D01*
X1260630Y775970D02*
X1267714D01*
X1337310Y740410D02*
X1341120Y744220D01*
X1337310Y731520D02*
Y740410D01*
X1341120Y744220D02*
X1360650D01*
X1297940Y777240D02*
Y786130D01*
X1237480Y732790D02*
X1239520Y730750D01*
X1358190Y705410D02*
X1363980Y711200D01*
X1411360D01*
X1358190Y695960D02*
Y705410D01*
X1323820Y620550D02*
X1324610Y619760D01*
X1316930Y620550D02*
X1323820D01*
D20*
X1026160Y978780D02*
D03*
Y961780D02*
D03*
X1057910Y978780D02*
D03*
Y961780D02*
D03*
X941070Y680720D02*
D03*
Y697720D02*
D03*
X1344930Y764930D02*
D03*
Y781930D02*
D03*
X1329690Y781930D02*
D03*
Y764930D02*
D03*
X1172210Y939410D02*
D03*
Y922410D02*
D03*
X1134110Y939410D02*
D03*
Y922410D02*
D03*
X1117600Y939410D02*
D03*
Y922410D02*
D03*
D21*
X1533680Y951230D02*
D03*
X1524480D02*
D03*
X1054410Y622300D02*
D03*
X1045210D02*
D03*
X1358900D02*
D03*
X1349700D02*
D03*
X1252220Y877570D02*
D03*
X1243020D02*
D03*
X1509790Y762000D02*
D03*
X1500590D02*
D03*
X1369850Y744220D02*
D03*
X1360650D02*
D03*
X1251430Y775970D02*
D03*
X1260630D02*
D03*
X1367250Y678180D02*
D03*
X1358050D02*
D03*
X1198090Y679450D02*
D03*
X1207290D02*
D03*
X1208250Y732790D02*
D03*
X1217450D02*
D03*
D22*
X1200150Y790730D02*
D03*
Y781530D02*
D03*
X1402080Y916460D02*
D03*
Y907260D02*
D03*
X1083310Y907570D02*
D03*
Y898370D02*
D03*
X1197610Y612140D02*
D03*
Y602940D02*
D03*
X1539480Y753420D02*
D03*
Y744220D02*
D03*
X1316930Y611350D02*
D03*
Y620550D02*
D03*
X1266190Y610870D02*
D03*
Y620070D02*
D03*
X1184910Y852170D02*
D03*
Y842970D02*
D03*
X1504950Y822170D02*
D03*
Y831370D02*
D03*
D23*
X985860Y885440D02*
D03*
Y821440D02*
D03*
Y877440D02*
D03*
Y829440D02*
D03*
D24*
Y870940D02*
D03*
Y865940D02*
D03*
Y860940D02*
D03*
Y855940D02*
D03*
Y850940D02*
D03*
Y845940D02*
D03*
Y840940D02*
D03*
Y835940D02*
D03*
D25*
X1027820Y927100D02*
D03*
X1044820D02*
D03*
X990990D02*
D03*
X1007990D02*
D03*
X1553210Y638810D02*
D03*
X1536210D02*
D03*
X1513840D02*
D03*
X1496840D02*
D03*
X1293870Y816677D02*
D03*
X1276870D02*
D03*
X1065040Y844550D02*
D03*
X1082040D02*
D03*
X1065040Y869950D02*
D03*
X1082040D02*
D03*
X1397880Y815340D02*
D03*
X1380880D02*
D03*
X1380880Y773430D02*
D03*
X1397880D02*
D03*
X1380880Y756920D02*
D03*
X1397880D02*
D03*
X1411360Y711200D02*
D03*
X1428360D02*
D03*
X1358020Y652780D02*
D03*
X1375020D02*
D03*
D26*
X1012190Y786130D02*
D03*
X1026190D02*
D03*
X1512190Y740410D02*
D03*
X1498190D02*
D03*
X1512190Y721360D02*
D03*
X1498190D02*
D03*
X1247140Y792480D02*
D03*
X1261140D02*
D03*
X1377330D02*
D03*
X1363330D02*
D03*
X1372250Y728980D02*
D03*
X1358250D02*
D03*
X1205200Y703580D02*
D03*
X1219200D02*
D03*
X1372190Y695960D02*
D03*
X1358190D02*
D03*
X1311940Y777240D02*
D03*
X1297940D02*
D03*
D27*
X1456690Y673720D02*
D03*
Y687720D02*
D03*
X1559800Y755030D02*
D03*
Y741030D02*
D03*
X941070Y733440D02*
D03*
Y719440D02*
D03*
X1488440Y820420D02*
D03*
Y834420D02*
D03*
X1168400Y855980D02*
D03*
Y841980D02*
D03*
X1283910Y609570D02*
D03*
Y623570D02*
D03*
X1438910Y673720D02*
D03*
Y687720D02*
D03*
X1422400Y673720D02*
D03*
Y687720D02*
D03*
D28*
X1500110Y702290D02*
D03*
X1530110D02*
D03*
Y669290D02*
D03*
X1500110D02*
D03*
D29*
X1061120D02*
D03*
Y681990D02*
D03*
Y694690D02*
D03*
Y707390D02*
D03*
Y720090D02*
D03*
Y732790D02*
D03*
Y745490D02*
D03*
Y758190D02*
D03*
X1122620D02*
D03*
Y745490D02*
D03*
Y732790D02*
D03*
Y720090D02*
D03*
Y707390D02*
D03*
Y694690D02*
D03*
Y681990D02*
D03*
Y669290D02*
D03*
D30*
X1250620Y723150D02*
D03*
Y719150D02*
D03*
Y715150D02*
D03*
Y711150D02*
D03*
Y707150D02*
D03*
Y703150D02*
D03*
Y699150D02*
D03*
Y695150D02*
D03*
Y691150D02*
D03*
Y687150D02*
D03*
Y683150D02*
D03*
Y679150D02*
D03*
Y675150D02*
D03*
Y671150D02*
D03*
Y667150D02*
D03*
X1320120D02*
D03*
Y671150D02*
D03*
Y675150D02*
D03*
Y679150D02*
D03*
Y683150D02*
D03*
Y687150D02*
D03*
Y691150D02*
D03*
Y695150D02*
D03*
Y699150D02*
D03*
Y703150D02*
D03*
Y707150D02*
D03*
Y711150D02*
D03*
Y715150D02*
D03*
Y719150D02*
D03*
Y723150D02*
D03*
D31*
X1257370Y660400D02*
D03*
X1261370D02*
D03*
X1265370D02*
D03*
X1269370D02*
D03*
X1273370D02*
D03*
X1277370D02*
D03*
X1281370D02*
D03*
X1285370D02*
D03*
X1289370D02*
D03*
X1293370D02*
D03*
X1297370D02*
D03*
X1301370D02*
D03*
X1305370D02*
D03*
X1309370D02*
D03*
X1313370D02*
D03*
Y729900D02*
D03*
X1309370D02*
D03*
X1305370D02*
D03*
X1301370D02*
D03*
X1297370D02*
D03*
X1293370D02*
D03*
X1289370D02*
D03*
X1285370D02*
D03*
X1281370D02*
D03*
X1277370D02*
D03*
X1273370D02*
D03*
X1269370D02*
D03*
X1265370D02*
D03*
X1261370D02*
D03*
X1257370D02*
D03*
D32*
X1285370Y695150D02*
D03*
D33*
X968950Y723900D02*
D03*
X981650D02*
D03*
X994350D02*
D03*
X1007050D02*
D03*
Y675579D02*
D03*
X994350D02*
D03*
X981650D02*
D03*
D34*
X968950D02*
D03*
D35*
X1504950Y870900D02*
D03*
Y856300D02*
D03*
X1153160Y841690D02*
D03*
Y827090D02*
D03*
D57*
X938310Y896640D02*
D03*
Y810240D02*
D03*
D58*
X980110Y896640D02*
D03*
Y810240D02*
D03*
D59*
X975110Y882340D02*
D03*
Y824540D02*
D03*
D62*
X1456690Y718168D02*
D03*
Y709930D02*
D03*
D63*
X1515110Y669290D02*
D03*
D64*
X1322161Y1012694D02*
D03*
X1292161D02*
D03*
X1282161D02*
D03*
X1302161D02*
D03*
X1262161D02*
D03*
X1312161D02*
D03*
X1352161D02*
D03*
X1362161D02*
D03*
X1392161D02*
D03*
X1412161D02*
D03*
X1422161D02*
D03*
X1382161D02*
D03*
X1432161D02*
D03*
X1402161D02*
D03*
X1372161D02*
D03*
X1442161D02*
D03*
X1452161D02*
D03*
X1122161D02*
D03*
X1232161D02*
D03*
X1242161D02*
D03*
X1252161D02*
D03*
X1212161D02*
D03*
X1142161D02*
D03*
X1182161D02*
D03*
X1202161D02*
D03*
X1152161D02*
D03*
X1222161D02*
D03*
X1192161D02*
D03*
X1172161D02*
D03*
X1162161D02*
D03*
D65*
X1272161D02*
D03*
X1132161D02*
D03*
D66*
X1178560Y652780D02*
Y675139D01*
X1248156Y763270D02*
X1256107D01*
X1248156Y763266D02*
Y763270D01*
X1245108Y763266D02*
X1248156D01*
X1245108D02*
Y764279D01*
X1242060D02*
X1245108D01*
X1242060Y759968D02*
Y764279D01*
X1239012Y759968D02*
X1242060D01*
X1239012D02*
Y764279D01*
X1235964D02*
X1239012D01*
X1235964Y759968D02*
Y764279D01*
X1232916Y759968D02*
X1235964D01*
X1232916D02*
Y764279D01*
X1229868D02*
X1232916D01*
X1229868Y759968D02*
Y764279D01*
X1226820Y759968D02*
X1229868D01*
X1226820D02*
Y764279D01*
X1223772D02*
X1226820D01*
X1223772Y759968D02*
Y764279D01*
X1220724Y759968D02*
X1223772D01*
X1220724D02*
Y764279D01*
X1217676D02*
X1220724D01*
X1217676Y763270D02*
Y764279D01*
X1214628Y763270D02*
X1217676D01*
X1214628D02*
Y764279D01*
X1211580D02*
X1214628D01*
X1211580Y763270D02*
Y764279D01*
X1208532Y763270D02*
X1211580D01*
X1208532D02*
Y764279D01*
X1205484D02*
X1208532D01*
X1205484Y763270D02*
Y764279D01*
X1202436Y763270D02*
X1205484D01*
X1202436D02*
Y764279D01*
X1199388D02*
X1202436D01*
X1199388Y763270D02*
Y764279D01*
X1196340Y763270D02*
X1199388D01*
X1196340D02*
Y764279D01*
X1193292D02*
X1196340D01*
X1193292Y763270D02*
Y764279D01*
X1190244Y763270D02*
X1193292D01*
X1190244D02*
Y764279D01*
X1187196D02*
X1190244D01*
X1187196Y762238D02*
Y764279D01*
X1184148Y762238D02*
X1187196D01*
X1184148D02*
Y764279D01*
X1181100D02*
X1184148D01*
X1181100Y759968D02*
Y764279D01*
X1178052Y759968D02*
X1181100D01*
X1178052D02*
Y764279D01*
X1175004D02*
X1178052D01*
X1175004Y763270D02*
Y764279D01*
X1174242Y763270D02*
X1175004D01*
X1256107D02*
X1259840D01*
X1172210Y724896D02*
Y726440D01*
Y724896D02*
X1172972D01*
Y721848D02*
Y724896D01*
X1170654Y721848D02*
X1172972D01*
X1170654Y718800D02*
Y721848D01*
Y718800D02*
X1172972D01*
Y715752D02*
Y718800D01*
X1169431Y715752D02*
X1172972D01*
X1169431Y712704D02*
Y715752D01*
Y712704D02*
X1172972D01*
Y709656D02*
Y712704D01*
X1169431Y709656D02*
X1172972D01*
X1169431Y706608D02*
Y709656D01*
Y706608D02*
X1172972D01*
Y703560D02*
Y706608D01*
X1169431Y703560D02*
X1172972D01*
X1169431Y700512D02*
Y703560D01*
Y700512D02*
X1172210D01*
Y699770D02*
Y700512D01*
X1172190Y699750D02*
X1172210Y699770D01*
X1169670Y697230D02*
X1172190Y699750D01*
X1176020Y686118D02*
Y697230D01*
X1165000Y686118D02*
X1176020D01*
X1165000Y683070D02*
Y686118D01*
Y683070D02*
X1176020D01*
Y682308D02*
Y683070D01*
Y697230D02*
Y728980D01*
X1215390Y747268D02*
X1216660D01*
X1215390D02*
Y748792D01*
X1212342D02*
X1215390D01*
X1212342Y747268D02*
Y748792D01*
X1211580Y747268D02*
X1212342D01*
X1216660D02*
X1260602D01*
X1205484D02*
X1211580D01*
X1205484D02*
Y748792D01*
X1202436D02*
X1205484D01*
X1202436Y747268D02*
Y748792D01*
X1199388Y747268D02*
X1202436D01*
X1199388D02*
Y748792D01*
X1196340D02*
X1199388D01*
X1196340Y747268D02*
Y748792D01*
X1193292Y747268D02*
X1196340D01*
X1193292D02*
Y748792D01*
X1190244D02*
X1193292D01*
X1190244Y747094D02*
Y748792D01*
X1187196Y747094D02*
X1190244D01*
X1187196D02*
Y748792D01*
X1184148D02*
X1187196D01*
X1184148Y741419D02*
Y748792D01*
X1181100Y741419D02*
X1184148D01*
X1181100D02*
Y745752D01*
X1178052D02*
X1181100D01*
X1178052Y736092D02*
Y745752D01*
X1177290Y735330D02*
X1178052Y736092D01*
X1172210Y730250D02*
X1177290Y735330D01*
X1246124Y751840D02*
X1247140D01*
X1246124D02*
Y753872D01*
X1243076D02*
X1246124D01*
X1243076Y750316D02*
Y753872D01*
X1240028Y750316D02*
X1243076D01*
X1240028D02*
Y753872D01*
X1236980D02*
X1240028D01*
X1236980Y750316D02*
Y753872D01*
X1233932Y750316D02*
X1236980D01*
X1233932D02*
Y753872D01*
X1230884D02*
X1233932D01*
X1230884Y750316D02*
Y753872D01*
X1227836Y750316D02*
X1230884D01*
X1227836D02*
Y753872D01*
X1224788D02*
X1227836D01*
X1224788Y750316D02*
Y753872D01*
X1221740Y750316D02*
X1224788D01*
X1221740D02*
Y753141D01*
X1218692D02*
X1221740D01*
X1218692Y751840D02*
Y753141D01*
X1217930Y751840D02*
X1218692D01*
X1247140D02*
X1260610D01*
X1179830D02*
X1217930D01*
X1219962Y756920D02*
X1228090D01*
X1219962Y756189D02*
Y756920D01*
X1216914Y756189D02*
X1219962D01*
X1216914D02*
Y760222D01*
X1213866D02*
X1216914D01*
X1213866Y754888D02*
Y760222D01*
X1210818Y754888D02*
X1213866D01*
X1210818D02*
Y760222D01*
X1207770D02*
X1210818D01*
X1207770Y754888D02*
Y760222D01*
X1204722Y754888D02*
X1207770D01*
X1204722D02*
Y760222D01*
X1201674D02*
X1204722D01*
X1201674Y754888D02*
Y760222D01*
X1198626Y754888D02*
X1201674D01*
X1198626D02*
Y760222D01*
X1195578D02*
X1198626D01*
X1195578Y754888D02*
Y760222D01*
X1192530Y754888D02*
X1195578D01*
X1192530D02*
Y760222D01*
X1189482D02*
X1192530D01*
X1189482Y756920D02*
Y760222D01*
X1188720Y756920D02*
X1189482D01*
X1228090D02*
X1259840D01*
X1168340D02*
X1188720D01*
X1169610Y763270D02*
X1174242D01*
X1260610Y751840D02*
X1269370Y743080D01*
X1168400Y740410D02*
X1179830Y751840D01*
X1168400Y723900D02*
Y740410D01*
X1159450Y748030D02*
X1168340Y756920D01*
X1259840D02*
X1273370Y743390D01*
X1259840Y763270D02*
X1277370Y745740D01*
X1159450Y773430D02*
X1169610Y763270D01*
X1176020Y676910D02*
Y682308D01*
X1172210Y726440D02*
Y730250D01*
X1191260Y744220D02*
X1258570D01*
X1193292Y741172D02*
X1256477D01*
X1017270Y927100D02*
X1027820D01*
X1007990D02*
X1017270D01*
X1018540Y928370D01*
Y935990D01*
X1201420Y908050D02*
X1202057Y907413D01*
X1201420Y908050D02*
Y909320D01*
X1234694Y942594D01*
X1296924D01*
X1301750Y947420D01*
X1191768Y935228D02*
X1242161Y985621D01*
X1188720Y884689D02*
Y960120D01*
X1171948Y867918D02*
X1188720Y884689D01*
X1191768Y883158D02*
Y935228D01*
X1185209Y885489D02*
Y961689D01*
X1182161Y888791D02*
Y974376D01*
X1301750Y947420D02*
Y953770D01*
X1352161Y978289D02*
X1361884Y968566D01*
X1372545D01*
X1382268Y958842D01*
X1258570Y899160D02*
X1263904Y893826D01*
X1290574Y910336D02*
X1328228D01*
X1290320Y910590D02*
X1290574Y910336D01*
X1328228D02*
X1330655Y912763D01*
X1333888D01*
X1334763Y913638D01*
X1293792Y918972D02*
X1296332Y916432D01*
X1297594Y919480D02*
X1319530D01*
X1296332Y916432D02*
X1325703D01*
X1232140D02*
X1284308D01*
X1286848Y918972D01*
X1285571Y913384D02*
X1288111Y915924D01*
X1295069Y913384D02*
X1326965D01*
X1293566Y906293D02*
X1332734D01*
X1227645Y919480D02*
X1283046D01*
X1285586Y922020D02*
X1295054D01*
X1283046Y919480D02*
X1285586Y922020D01*
X1288111Y905256D02*
X1292529D01*
X1240303Y906293D02*
X1287074D01*
X1286848Y918972D02*
X1293792D01*
X1292529Y905256D02*
X1293566Y906293D01*
X1252551Y913384D02*
X1285571D01*
X1288111Y915924D02*
X1292529D01*
X1287074Y906293D02*
X1288111Y905256D01*
X1295054Y922020D02*
X1297594Y919480D01*
X1292529Y915924D02*
X1295069Y913384D01*
X1263904Y893826D02*
X1352296D01*
X1366520Y908050D01*
X1357884Y915924D02*
X1363465D01*
X1341120Y899160D02*
X1357884Y915924D01*
X1363465D02*
X1382268Y934727D01*
Y958842D01*
X1322161Y958759D02*
X1332230Y948690D01*
Y930402D02*
Y948690D01*
X1322161Y958759D02*
Y1012694D01*
X1331291Y922020D02*
X1360170D01*
X1362202Y918972D02*
X1379220Y935990D01*
X1360170Y922020D02*
X1371600Y933450D01*
X1332553Y918972D02*
X1362202D01*
X1379220Y935990D02*
Y957580D01*
X1375156Y961644D02*
X1379220Y957580D01*
X1352161Y978289D02*
Y1012694D01*
X1362587Y961644D02*
X1375156D01*
X1361440Y956310D02*
X1362315Y957185D01*
Y961372D02*
X1362587Y961644D01*
X1362315Y957185D02*
Y961372D01*
X1341120Y660400D02*
Y665557D01*
X1340188Y668528D02*
X1340612D01*
X1340866Y668274D01*
X1342644Y671576D02*
X1346200Y668020D01*
X1340866Y665811D02*
X1341120Y665557D01*
X1340866Y665811D02*
Y668274D01*
X1346200Y668020D02*
X1346200D01*
X1335278Y673438D02*
X1340188Y668528D01*
X1320120Y675150D02*
X1330460D01*
X1336768Y677452D02*
X1338326Y675894D01*
X1320120Y679150D02*
X1330770D01*
X1328723Y691150D02*
X1329779Y692206D01*
X1333731Y680500D02*
X1338149D01*
X1335652Y685546D02*
X1335940Y685834D01*
X1329779Y692206D02*
X1332710D01*
X1332172Y673438D02*
X1335278D01*
X1327481Y685546D02*
X1335652D01*
X1326518Y682198D02*
X1332033D01*
X1338623Y680974D02*
X1339596D01*
X1332468Y677452D02*
X1336768D01*
X1330460Y675150D02*
X1332172Y673438D01*
X1330770Y679150D02*
X1332468Y677452D01*
X1338149Y680500D02*
X1338623Y680974D01*
X1332033Y682198D02*
X1333731Y680500D01*
X1332710Y692206D02*
X1333585Y693081D01*
X1334947Y699262D02*
X1343756Y690454D01*
X1326417Y695150D02*
X1330529Y699262D01*
X1339370Y699150D02*
X1348090D01*
X1330529Y699262D02*
X1334947D01*
X1326218D02*
X1329266Y702310D01*
X1343756Y686988D02*
X1352564Y678180D01*
X1320120Y699150D02*
X1326106D01*
X1320120Y691150D02*
X1328723D01*
X1329266Y702310D02*
X1336210D01*
X1339370Y699150D01*
X1343756Y686988D02*
Y690454D01*
X1309643Y699150D02*
X1320120D01*
X1352564Y678180D02*
X1358050D01*
X1332230Y659638D02*
X1332738Y659130D01*
X1332230Y659638D02*
Y668020D01*
X1253567Y624840D02*
X1256361Y627634D01*
X1256708D01*
X1235710Y624840D02*
X1253567D01*
X1256708Y627634D02*
X1268418Y639344D01*
X1225550Y657860D02*
Y664210D01*
X1231900Y648970D02*
Y661670D01*
X1158240Y883920D02*
X1172210Y897890D01*
X1148334Y874014D02*
X1167384D01*
X1173480Y864870D02*
X1191768Y883158D01*
X1180846Y975691D02*
Y980109D01*
X1167384Y874014D02*
X1182161Y888791D01*
X1152122Y864870D02*
X1173480D01*
X1150859Y867918D02*
X1171948D01*
X1172210Y897890D02*
Y922410D01*
X1140460Y883920D02*
X1158240D01*
X1170686Y870966D02*
X1185209Y885489D01*
X1149596Y870966D02*
X1170686D01*
X1180846Y975691D02*
X1182161Y974376D01*
X1197610Y900430D02*
X1211580Y886460D01*
X1220470D01*
X1240303Y906293D01*
X1248508Y909341D02*
X1252551Y913384D01*
X1239040Y909341D02*
X1248508D01*
X1238905Y909205D02*
X1239040Y909341D01*
X1234440Y909205D02*
X1238905D01*
X1130808Y852178D02*
X1149596Y870966D01*
X1127760Y853440D02*
X1148334Y874014D01*
X1136904Y849652D02*
X1152122Y864870D01*
X1133856Y850915D02*
X1150859Y867918D01*
X1136904Y787654D02*
Y849652D01*
X1130808Y793989D02*
Y852178D01*
X1133856Y792727D02*
Y850915D01*
X1127760Y795251D02*
Y853440D01*
X1103376Y766557D02*
X1130808Y793989D01*
X1107440Y766311D02*
X1133856Y792727D01*
X1100328Y767820D02*
X1127760Y795251D01*
Y778510D02*
X1136904Y787654D01*
X1289358Y778202D02*
Y778818D01*
X1283970Y768658D02*
Y773430D01*
X1289358Y778202D02*
X1291210Y776350D01*
X1289180Y758060D02*
Y763448D01*
X1289370Y729900D02*
Y757870D01*
X1292228Y759323D02*
X1292418Y759133D01*
Y745624D02*
X1293370Y744672D01*
X1292418Y745624D02*
Y759133D01*
X1291210Y765729D02*
Y776350D01*
X1292228Y759323D02*
Y764711D01*
X1291210Y765729D02*
X1292228Y764711D01*
X1289180Y758060D02*
X1289370Y757870D01*
X1283970Y768658D02*
X1289180Y763448D01*
X1293370Y729900D02*
Y744672D01*
X1285370Y729900D02*
Y761870D01*
X1301370Y742570D02*
X1303020Y744220D01*
X1301370Y729900D02*
Y742570D01*
X1296670Y746760D02*
X1297370Y746060D01*
Y729900D02*
Y746060D01*
X1117904Y939410D02*
X1122161Y943667D01*
Y1012694D01*
X1117600Y939410D02*
X1117904D01*
X1134110D02*
Y1010745D01*
X1132161Y1012694D02*
X1134110Y1010745D01*
X1182161Y981424D02*
Y1012694D01*
X1180846Y980109D02*
X1182161Y981424D01*
X1172210Y971473D02*
Y1012645D01*
X1173734Y965531D02*
Y969949D01*
X1172210Y964007D02*
X1173734Y965531D01*
X1172210Y939410D02*
Y964007D01*
Y971473D02*
X1173734Y969949D01*
X1281176Y979501D02*
Y983919D01*
X1282161Y955233D02*
Y978515D01*
Y984904D02*
Y1012694D01*
X1281176Y983919D02*
X1282161Y984904D01*
X1281176Y979501D02*
X1282161Y978515D01*
X1242161Y985621D02*
Y1012694D01*
X1188720Y960120D02*
X1212161Y983561D01*
Y1012694D01*
X1185209Y961689D02*
X1202161Y978641D01*
Y1012694D01*
X1112520Y814070D02*
Y855980D01*
X1104900Y822960D02*
Y868680D01*
X1098550Y824230D02*
Y872490D01*
X1093470Y826770D02*
Y927191D01*
X1141578Y749298D02*
Y755558D01*
X1159450Y773430D01*
X1122620Y732790D02*
X1125070D01*
X1141578Y749298D01*
X1159450Y745430D02*
Y748030D01*
X1134110Y720090D02*
X1159450Y745430D01*
X1122620Y720090D02*
X1134110D01*
Y707390D02*
X1149350Y722630D01*
X1159450D01*
X1122620Y707390D02*
X1134110D01*
X1125160Y697230D02*
X1159450D01*
X1122620Y694690D02*
X1125160Y697230D01*
X1148080Y671830D02*
X1159450D01*
X1137920Y681990D02*
X1148080Y671830D01*
X1122620Y681990D02*
X1137920D01*
X1147930Y646430D02*
X1159450D01*
X1122620Y669290D02*
X1125070D01*
X1147930Y646430D01*
X1107440Y726363D02*
X1108964Y724839D01*
X1098296Y720421D02*
X1100328Y718389D01*
Y726871D02*
Y767820D01*
X1107440Y674397D02*
Y718897D01*
X1100328Y671399D02*
Y718389D01*
X1107440Y726363D02*
Y766311D01*
Y718897D02*
X1108964Y720421D01*
Y724839D01*
X1098296D02*
X1100328Y726871D01*
X1098296Y720421D02*
Y724839D01*
X1103376Y722884D02*
X1103630Y722630D01*
X1103376Y722884D02*
Y766557D01*
X1107440Y674397D02*
X1110040Y671797D01*
Y670560D02*
Y671797D01*
X1103630Y651104D02*
Y668097D01*
X1107870Y646865D02*
X1108011D01*
X1103630Y651104D02*
X1107870Y646865D01*
X1100328Y671399D02*
X1103630Y668097D01*
X1112520Y855980D02*
X1140460Y883920D01*
X1094740Y796290D02*
X1112520Y814070D01*
X1211580Y657860D02*
X1216014Y662294D01*
Y668568D01*
X1224611Y677164D01*
X1218002Y909837D02*
X1227645Y919480D01*
X1223384Y907676D02*
X1232140Y916432D01*
X1220211Y894977D02*
X1234440Y909205D01*
X1218002Y900311D02*
Y909837D01*
X1219200Y692150D02*
X1225042Y686308D01*
X1260153Y642933D02*
X1261370Y644150D01*
X1255336Y642933D02*
X1260153D01*
X1246927Y642557D02*
X1247077D01*
X1252057Y647537D01*
X1254819Y642416D02*
X1255336Y642933D01*
X1253327Y647537D02*
X1257370Y651580D01*
X1252057Y647537D02*
X1253327D01*
X1257370Y651580D02*
Y660400D01*
X1250260Y632460D02*
X1251530Y631190D01*
X1244600Y632460D02*
X1250260D01*
X1251530Y631190D02*
X1255953D01*
X1265370Y640607D01*
X1326965Y913384D02*
X1332553Y918972D01*
X1325703Y916432D02*
X1331291Y922020D01*
X1325118Y925068D02*
X1342898D01*
X1217897Y892810D02*
X1220064Y894977D01*
X1220211D01*
X1216660Y892810D02*
X1217897D01*
X1342898Y925068D02*
X1353820Y935990D01*
Y952500D01*
X1319530Y919480D02*
X1325118Y925068D01*
X1371600Y933450D02*
Y956310D01*
X1339596Y680974D02*
X1343660Y676910D01*
X1228090Y694690D02*
X1233424Y689356D01*
X1236980Y725170D02*
X1243000Y719150D01*
X1235710Y717550D02*
X1238110Y715150D01*
X1243000Y719150D02*
X1250620D01*
X1238110Y715150D02*
X1250620D01*
X1228090Y716280D02*
Y718820D01*
X1220470Y716280D02*
Y718820D01*
X1282161Y955233D02*
X1282474Y954920D01*
X1272161Y960814D02*
Y1012694D01*
Y960814D02*
X1272777Y960199D01*
X1312161Y957329D02*
X1316990Y952500D01*
X1312161Y957329D02*
Y1012694D01*
X1301750Y953770D02*
X1302161Y954181D01*
Y1012694D01*
X1262161Y956529D02*
X1262380Y956310D01*
X1262161Y956529D02*
Y1012694D01*
X1252161Y956369D02*
X1252220Y956310D01*
X1252161Y956369D02*
Y1012694D01*
X1172161D02*
X1172210Y1012645D01*
X1290946Y572126D02*
Y639454D01*
X1091975Y563880D02*
X1282700D01*
X1290946Y572126D01*
X1295400Y582691D02*
Y623069D01*
Y582691D02*
X1299101Y578991D01*
Y577771D02*
Y578991D01*
X1082040Y573815D02*
X1091975Y563880D01*
X1082040Y573815D02*
Y807720D01*
X1094740Y592222D02*
Y796290D01*
X1102762Y584200D02*
X1267460D01*
X1094740Y592222D02*
X1102762Y584200D01*
X1088339Y579703D02*
X1096543Y571500D01*
X1281430D01*
X1088339Y579703D02*
Y806400D01*
X1104900Y822960D01*
X1075690Y808990D02*
X1093470Y826770D01*
X1075690Y557530D02*
Y808990D01*
X1096966Y930686D02*
X1149540D01*
X1093470Y927191D02*
X1096966Y930686D01*
X1149540D02*
X1153160Y934306D01*
Y981710D01*
X1075690Y557530D02*
X1085850Y547370D01*
X1338580D01*
X1375020Y583810D01*
Y652780D01*
X1309370Y729900D02*
Y744220D01*
X1310640Y745490D01*
X1313370Y729900D02*
Y732418D01*
X1313590Y732638D01*
X1323188D01*
X1328940Y723150D02*
X1337310Y731520D01*
X1320120Y723150D02*
X1328940D01*
X1338910Y719150D02*
X1348740Y728980D01*
X1358250D01*
X1320120Y719150D02*
X1338910D01*
X1325657Y683059D02*
X1326518Y682198D01*
X1320211Y683059D02*
X1325657D01*
X1320120Y683150D02*
X1320211Y683059D01*
X1326106Y699150D02*
X1326218Y699262D01*
X1325877Y687150D02*
X1327481Y685546D01*
X1320120Y687150D02*
X1325877D01*
X1320120Y695150D02*
X1326417D01*
X1341451Y671576D02*
X1342644D01*
X1338326Y674701D02*
X1341451Y671576D01*
X1338326Y674701D02*
Y675894D01*
X1329100Y671150D02*
X1332230Y668020D01*
X1320120Y671150D02*
X1329100D01*
X1297370Y625410D02*
X1305560Y617220D01*
X1294322Y624147D02*
Y640388D01*
Y624147D02*
X1295400Y623069D01*
X1293370Y641340D02*
X1294322Y640388D01*
X1297370Y625410D02*
Y660400D01*
X1301370Y636650D02*
Y660400D01*
Y636650D02*
X1308100Y629920D01*
X1285240Y575310D02*
Y577850D01*
X1293370Y641340D02*
Y660400D01*
X1289370Y641030D02*
X1290946Y639454D01*
X1281430Y571500D02*
X1285240Y575310D01*
X1274320Y591060D02*
Y634240D01*
X1104900Y868680D02*
X1130997Y894777D01*
Y919297D02*
X1134110Y922410D01*
X1130997Y894777D02*
Y919297D01*
X1289370Y641030D02*
Y660400D01*
X1286510Y670560D02*
X1305560D01*
X1308750Y673750D02*
Y698257D01*
X1305560Y670560D02*
X1308750Y673750D01*
X1285370Y669420D02*
X1286510Y670560D01*
X1308750Y698257D02*
X1309643Y699150D01*
X1082040Y807720D02*
X1098550Y824230D01*
Y872490D02*
X1117600Y891540D01*
Y922410D01*
X1267460Y584200D02*
X1274320Y591060D01*
Y634240D02*
X1277370Y637290D01*
Y660400D01*
X1268418Y639344D02*
Y642809D01*
X1269370Y643761D01*
Y660400D01*
X1266190Y632806D02*
X1271466Y638082D01*
Y641546D01*
X1266190Y620070D02*
Y632806D01*
X1271466Y641546D02*
X1273370Y643450D01*
X1265370Y640607D02*
Y660400D01*
X1261370Y644150D02*
Y660400D01*
X1281370Y729900D02*
Y751900D01*
X1277370Y729900D02*
Y745740D01*
X1273370Y729900D02*
Y743390D01*
X1269370Y729900D02*
Y743080D01*
X1160720Y723900D02*
X1168400D01*
X1159450Y722630D02*
X1160720Y723900D01*
X1179068Y675648D02*
Y726948D01*
X1176020Y728980D02*
X1191260Y744220D01*
X1179068Y726948D02*
X1193292Y741172D01*
X1159450Y697230D02*
X1169670D01*
X1260602Y747268D02*
X1265370Y742500D01*
Y729900D02*
Y742500D01*
X1159450Y671830D02*
X1170940D01*
X1176020Y676910D01*
X1178560Y675139D02*
X1179068Y675648D01*
X1172210Y646430D02*
X1178560Y652780D01*
X1256477Y741172D02*
X1257370Y740279D01*
Y729900D02*
Y740279D01*
X1258570Y744220D02*
X1261370Y741420D01*
Y729900D02*
Y741420D01*
X1159450Y646430D02*
X1172210D01*
X1239520Y730750D02*
X1247120Y723150D01*
X1250620D01*
X1220470Y678180D02*
X1222502Y680212D01*
X1250529Y683059D02*
X1250620Y683150D01*
X1246277Y678436D02*
X1246991Y679150D01*
X1228057Y671830D02*
X1230343Y674116D01*
X1245502D01*
X1229029Y666496D02*
X1233601Y671068D01*
X1245502Y674116D02*
X1245822Y674436D01*
X1244239Y677164D02*
X1245511Y678436D01*
X1233601Y671068D02*
X1250538D01*
X1246991Y679150D02*
X1250620D01*
X1245822Y674436D02*
X1246277D01*
X1224611Y677164D02*
X1244239D01*
X1246277Y674436D02*
X1246991Y675150D01*
X1245511Y678436D02*
X1246277D01*
X1242977Y680212D02*
X1245824Y683059D01*
X1250538Y671068D02*
X1250620Y671150D01*
X1246991Y675150D02*
X1250620D01*
X1226820Y671830D02*
X1228057D01*
X1222502Y680212D02*
X1242977D01*
X1245824Y683059D02*
X1250529D01*
X1225550Y664210D02*
X1227836Y666496D01*
X1229029D01*
X1211580Y690880D02*
X1219200Y683260D01*
X1250529Y687059D02*
X1250620Y687150D01*
X1245513Y687059D02*
X1250529D01*
X1241714Y683260D02*
X1245513Y687059D01*
X1219200Y683260D02*
X1241714D01*
X1240452Y686308D02*
X1245203Y691059D01*
X1250529D02*
X1250620Y691150D01*
X1245203Y691059D02*
X1250529D01*
X1225042Y686308D02*
X1240452D01*
X1236980Y694690D02*
X1241440Y699150D01*
X1242314Y693630D02*
X1243834Y695150D01*
X1233424Y689356D02*
X1239189D01*
X1243834Y695150D02*
X1250620D01*
X1242314Y692481D02*
Y693630D01*
X1239189Y689356D02*
X1242314Y692481D01*
X1241440Y699150D02*
X1250620D01*
X1220470Y716280D02*
X1229600Y707150D01*
X1250620D01*
X1228090Y716280D02*
X1233220Y711150D01*
X1250620D01*
X1231900Y661670D02*
X1237380Y667150D01*
X1250620D01*
X1219200Y703580D02*
X1219630Y703150D01*
X1250620D01*
X1264920Y670560D02*
X1284230D01*
X1285370Y669420D01*
X1260270Y675210D02*
X1264920Y670560D01*
X1259377Y703150D02*
X1260270Y702257D01*
X1250620Y703150D02*
X1259377D01*
X1260270Y675210D02*
Y702257D01*
X1285370Y660400D02*
Y669420D01*
X1348090Y699150D02*
X1351280Y695960D01*
X1358190D01*
X1341120Y660400D02*
X1348740Y652780D01*
X1358020D01*
X1313370Y638620D02*
X1316930Y635060D01*
Y620550D02*
Y635060D01*
X1313370Y638620D02*
Y660400D01*
X1283910Y623570D02*
X1285370Y625030D01*
Y660400D01*
X1273370Y643450D02*
Y660400D01*
D67*
X1026160Y978780D02*
Y990600D01*
X1056640D02*
X1057910Y989330D01*
Y978780D02*
Y989330D01*
X994842Y828980D02*
X995274Y828548D01*
X985860Y829440D02*
X986320Y828980D01*
X1002058Y829440D02*
X1013330D01*
X995274Y828548D02*
X1001166D01*
X986320Y828980D02*
X994842D01*
X1001166Y828548D02*
X1002058Y829440D01*
X1295400Y806450D02*
Y842010D01*
X1233170Y877570D02*
X1243810D01*
X1253010D02*
X1262380D01*
X1200150Y790730D02*
Y801370D01*
Y772160D02*
Y781530D01*
X1412161Y938609D02*
X1412240Y938530D01*
X1412161Y938609D02*
Y1012694D01*
X1362161Y979719D02*
X1363980Y977900D01*
X1362161Y979719D02*
Y1012694D01*
X1083310Y907570D02*
Y918210D01*
Y889000D02*
Y898370D01*
X1054890Y622300D02*
X1065530D01*
X1036320D02*
X1045690D01*
X1197610Y593090D02*
Y603730D01*
Y612930D02*
Y622300D01*
X1338580D02*
X1349220D01*
X1358420D02*
X1367790D01*
X1402080Y916460D02*
Y927100D01*
Y897890D02*
Y907260D01*
X1515110Y951230D02*
X1524480D01*
X1533680D02*
X1544320D01*
X1012190Y773430D02*
Y786130D01*
X1327230Y783890D02*
Y787595D01*
X1270000Y824047D02*
Y842010D01*
X1276870Y816677D02*
Y817177D01*
X1270000Y824047D02*
X1276870Y817177D01*
X1193800Y863346D02*
X1194054Y863600D01*
X1193800Y861060D02*
Y863346D01*
X1184910Y852170D02*
X1193800Y861060D01*
X1156970Y855980D02*
X1168400D01*
X1276350Y792480D02*
X1281430D01*
X1261140D02*
X1276350D01*
X1281430D02*
X1295400Y806450D01*
X1329190Y781930D02*
X1329690D01*
X1327230Y783890D02*
X1329190Y781930D01*
X1488440Y810260D02*
Y820420D01*
X1503680Y808990D02*
X1504950Y810260D01*
Y822170D01*
X1500350Y702530D02*
Y761760D01*
X1456690Y930910D02*
X1517650D01*
X1529080Y919480D01*
Y807720D02*
Y919480D01*
X1500590Y779230D02*
X1529080Y807720D01*
X1500590Y762000D02*
Y779230D01*
X1456690Y727710D02*
X1469390Y740410D01*
X1456690Y718168D02*
Y727710D01*
X1469390Y740410D02*
X1498190D01*
X1500350Y761760D02*
X1500590Y762000D01*
X1500110Y702290D02*
X1500350Y702530D01*
X1553210Y638810D02*
X1562100D01*
X1515110Y656590D02*
Y669290D01*
X1512190Y721360D02*
X1521460D01*
X1512190Y740410D02*
X1521460D01*
X1509790Y762000D02*
X1521460D01*
X1539240Y763270D02*
X1539480Y763030D01*
Y753420D02*
Y763030D01*
X1559560Y765810D02*
X1559800Y765570D01*
Y755030D02*
Y765570D01*
X1286510Y981710D02*
X1291201Y986401D01*
Y1011734D02*
X1292161Y1012694D01*
X1291201Y986401D02*
Y1011734D01*
X1216660Y980440D02*
X1222161Y985941D01*
Y1012694D01*
X1228090Y981710D02*
X1232161Y985781D01*
Y1012694D01*
X1044820Y902580D02*
Y927100D01*
X1038860Y896620D02*
X1044820Y902580D01*
X980440Y927100D02*
X990990D01*
X1003550Y885440D02*
X1008380Y890270D01*
X985860Y885440D02*
X1003550D01*
X985860Y877440D02*
X1019680D01*
X1038860Y896620D01*
X1015935Y826835D02*
X1018540Y824230D01*
X1013330Y829440D02*
X1015935Y826835D01*
X1018540Y815340D02*
Y824230D01*
Y815340D02*
X1026190Y807690D01*
Y786130D02*
Y807690D01*
X999740Y821440D02*
X1004570Y816610D01*
X985860Y821440D02*
X999740D01*
X1397880Y833856D02*
X1402080Y838056D01*
Y840740D01*
X1397880Y815340D02*
Y833856D01*
X1298084Y842010D02*
X1305704Y834390D01*
X1295400Y842010D02*
X1298084D01*
X1305704Y834390D02*
X1330960D01*
D68*
X1463040Y840740D02*
X1489140D01*
X1399205Y781985D02*
X1403350Y786130D01*
X1397880Y773430D02*
X1399205Y774755D01*
Y781985D01*
X1489140Y840740D02*
X1498510Y831370D01*
X1504950D01*
Y856300D01*
Y870900D02*
Y883920D01*
X1558290Y728980D02*
X1559800Y730490D01*
Y741030D01*
X1539480Y714260D02*
Y740410D01*
X1540100Y741030D01*
X1559800D01*
X1530110Y702290D02*
Y704890D01*
X1539480Y714260D01*
X941070Y733440D02*
Y746760D01*
X1007050Y675579D02*
Y675582D01*
X1007108Y675640D01*
X1016000D01*
X1423670Y662940D02*
Y673145D01*
X1422400Y673720D02*
X1423095D01*
X1423670Y673145D01*
X1438910Y662940D02*
X1440180Y661670D01*
X1438910Y662940D02*
Y673720D01*
X1456690Y662940D02*
Y673720D01*
D69*
X1450340Y821690D02*
Y906780D01*
X1240670Y775970D02*
X1251430D01*
X1238250Y792480D02*
X1247140D01*
X1376680Y820040D02*
X1380880Y815840D01*
X1376680Y820040D02*
Y840740D01*
X1380880Y815340D02*
Y815840D01*
X1361365Y795325D02*
X1361485D01*
X1360485D02*
X1361365D01*
X1380880Y814840D02*
Y815340D01*
X1361365Y795325D02*
X1380880Y814840D01*
X1330960Y808990D02*
X1346820D01*
X1363330Y792480D02*
Y793480D01*
X1361485Y795325D02*
X1363330Y793480D01*
X1346820Y808990D02*
X1360485Y795325D01*
X1363330Y760080D02*
Y792480D01*
X1356360Y753110D02*
X1363330Y760080D01*
X1337310Y753110D02*
X1356360D01*
X1328420Y744220D02*
X1337310Y753110D01*
X1328420Y737870D02*
Y744220D01*
X1323188Y732638D02*
X1328420Y737870D01*
X1310640Y787400D02*
X1311940Y786100D01*
Y777240D02*
Y786100D01*
X1422161Y937499D02*
Y1012694D01*
Y937499D02*
X1426210Y933450D01*
X1372161Y978461D02*
X1372722Y977900D01*
X1372161Y978461D02*
Y1012694D01*
X1432161Y979569D02*
X1432560Y979170D01*
X1432161Y979569D02*
Y1012694D01*
X1442161Y955599D02*
Y1012694D01*
X1441450Y915670D02*
X1450340Y906780D01*
X1440180Y811530D02*
X1450340Y821690D01*
X1440180Y713740D02*
Y811530D01*
Y713740D02*
X1443990Y709930D01*
X1456690D01*
Y687720D02*
Y709930D01*
X1423400Y687720D02*
X1438910D01*
X1425245Y696265D02*
X1428360Y699380D01*
X1422400Y687720D02*
X1423400D01*
X1425245Y689565D01*
Y696265D01*
X1428360Y699380D02*
Y711200D01*
X1438910Y687720D02*
X1456690D01*
X1457960Y954847D02*
X1458153Y955040D01*
X1457960Y942340D02*
Y954847D01*
X1422654Y907034D02*
X1457960Y942340D01*
X1451676Y948756D02*
Y996950D01*
X1417320Y914400D02*
X1451676Y948756D01*
X1422654Y749046D02*
Y907034D01*
Y749046D02*
X1428360Y743340D01*
Y711200D02*
Y743340D01*
X1417320Y746760D02*
Y914400D01*
X1411360Y740800D02*
X1417320Y746760D01*
X1411360Y711200D02*
Y740800D01*
X1377330Y792480D02*
X1385570D01*
D70*
X1515110Y691290D02*
D03*
D71*
X1537161Y534670D02*
D03*
X948690D02*
D03*
X1537161Y1042694D02*
D03*
X1037161D02*
D03*
D72*
X1551926Y519905D02*
D03*
X1558042Y534670D02*
D03*
X1551926Y549435D02*
D03*
X1537161Y555551D02*
D03*
X1522396Y549435D02*
D03*
X1516280Y534670D02*
D03*
X1522396Y519905D02*
D03*
X1537161Y513789D02*
D03*
X963455Y519905D02*
D03*
X969571Y534670D02*
D03*
X963455Y549435D02*
D03*
X948690Y555551D02*
D03*
X933925Y549435D02*
D03*
X927809Y534670D02*
D03*
X933925Y519905D02*
D03*
X948690Y513789D02*
D03*
X1551926Y1027929D02*
D03*
X1558042Y1042694D02*
D03*
X1551926Y1057459D02*
D03*
X1537161Y1063575D02*
D03*
X1522396Y1057459D02*
D03*
X1516280Y1042694D02*
D03*
X1522396Y1027929D02*
D03*
X1537161Y1021813D02*
D03*
X1051926Y1027929D02*
D03*
X1058042Y1042694D02*
D03*
X1051926Y1057459D02*
D03*
X1037161Y1063575D02*
D03*
X1022396Y1057459D02*
D03*
X1016280Y1042694D02*
D03*
X1022396Y1027929D02*
D03*
X1037161Y1021813D02*
D03*
D73*
X1038860Y820420D02*
D03*
Y845820D02*
D03*
Y871220D02*
D03*
X1233170Y842010D02*
D03*
X1159450Y773430D02*
D03*
Y748030D02*
D03*
Y722630D02*
D03*
Y697230D02*
D03*
Y671830D02*
D03*
Y646430D02*
D03*
Y621030D02*
D03*
X1295400Y842010D02*
D03*
X1463040Y840740D02*
D03*
X1402080D02*
D03*
X1330960Y808990D02*
D03*
X1242060Y929640D02*
D03*
D74*
X1038860Y896620D02*
D03*
X1159450Y798830D02*
D03*
X1330960Y834390D02*
D03*
D75*
X1207770Y842010D02*
D03*
X1270000D02*
D03*
X1437640Y840740D02*
D03*
X1376680D02*
D03*
X1267460Y929640D02*
D03*
D76*
X1026160Y990600D02*
D03*
X1056640D02*
D03*
X1057910Y952500D02*
D03*
X1024890D02*
D03*
X998220Y835660D02*
D03*
X1002030Y868680D02*
D03*
X1433830Y965200D02*
D03*
X1164590Y910590D02*
D03*
X1202057Y907413D02*
D03*
X1295400Y937260D02*
D03*
X1233170Y877570D02*
D03*
X1262380D02*
D03*
X1200150Y801370D02*
D03*
Y772160D02*
D03*
X1388110Y980440D02*
D03*
X1412240Y938530D02*
D03*
X1363980Y977900D02*
D03*
X1083310Y918210D02*
D03*
Y889000D02*
D03*
X1065530Y622300D02*
D03*
X1036320D02*
D03*
X1197610Y593090D02*
D03*
Y622300D02*
D03*
X1338580D02*
D03*
X1367790D02*
D03*
X1402080Y927100D02*
D03*
Y897890D02*
D03*
X1515110Y951230D02*
D03*
X1544320D02*
D03*
X1258570Y899160D02*
D03*
X1012190Y773430D02*
D03*
X1290320Y910590D02*
D03*
X1341120Y899160D02*
D03*
X1373124Y764437D02*
D03*
X1360138Y662972D02*
D03*
X1346200Y668020D02*
D03*
X1235710Y805180D02*
D03*
Y814070D02*
D03*
X1168400Y821690D02*
D03*
Y830580D02*
D03*
X1327230Y787595D02*
D03*
X1331722Y793750D02*
D03*
X1335940Y685834D02*
D03*
X1333585Y693081D02*
D03*
X1332738Y659130D02*
D03*
X1258570Y622300D02*
D03*
X1225550Y657860D02*
D03*
X1018540Y935990D02*
D03*
X1165860Y901700D02*
D03*
X1197610Y900430D02*
D03*
X1194054Y863600D02*
D03*
X1156970Y855980D02*
D03*
X1228090Y735330D02*
D03*
X1283970Y773430D02*
D03*
X1289358Y778818D02*
D03*
X1303020Y744220D02*
D03*
X1403350Y786130D02*
D03*
X1383030Y744220D02*
D03*
X1488440Y810260D02*
D03*
X1503680Y808990D02*
D03*
X1504950Y883920D02*
D03*
X1456690Y930910D02*
D03*
X1558290Y728980D02*
D03*
X1489710Y666750D02*
D03*
X1562100Y638810D02*
D03*
X1515110Y656590D02*
D03*
X1521460Y721360D02*
D03*
Y740410D02*
D03*
Y762000D02*
D03*
X1539240Y763270D02*
D03*
X1559560Y765810D02*
D03*
X1186180Y977900D02*
D03*
X1159510Y967740D02*
D03*
X1168400D02*
D03*
X1240790Y969010D02*
D03*
X1286510Y981710D02*
D03*
X1216660Y980440D02*
D03*
X1228090Y981710D02*
D03*
X1127760Y778510D02*
D03*
X1240670Y775970D02*
D03*
X1103630Y722630D02*
D03*
X1108011Y646865D02*
D03*
X1110040Y670560D02*
D03*
X1082040Y881380D02*
D03*
X1083310Y833120D02*
D03*
X980440Y927100D02*
D03*
X1008380Y890270D02*
D03*
X1016000Y862330D02*
D03*
X1018540Y842010D02*
D03*
X1015935Y826835D02*
D03*
X1004570Y816610D02*
D03*
X928370Y717550D02*
D03*
X941070Y746760D02*
D03*
X1016000Y675640D02*
D03*
X1238250Y792480D02*
D03*
X1266190Y602488D02*
D03*
X1366520Y908050D02*
D03*
X1211580Y657860D02*
D03*
X1223384Y907676D02*
D03*
X1207641Y670396D02*
D03*
X1219200Y692150D02*
D03*
X1254819Y642416D02*
D03*
X1246927Y642557D02*
D03*
X1244600Y632460D02*
D03*
X1235710Y624840D02*
D03*
X1285628Y929640D02*
D03*
X1267714Y775970D02*
D03*
X1334763Y913638D02*
D03*
X1332734Y906293D02*
D03*
X1332230Y930402D02*
D03*
X1218002Y900311D02*
D03*
X1324610Y938530D02*
D03*
X1228090Y694690D02*
D03*
X1216660Y892810D02*
D03*
X1235710Y717550D02*
D03*
X1228090Y718820D02*
D03*
X1220470D02*
D03*
X1305560Y934720D02*
D03*
X1198746Y733472D02*
D03*
X1371600Y956310D02*
D03*
X1361440D02*
D03*
X1353820Y952500D02*
D03*
X1314450Y929640D02*
D03*
X1291590Y962048D02*
D03*
X1282474Y954920D02*
D03*
X1272777Y960199D02*
D03*
X1316990Y952500D02*
D03*
X1301750Y953770D02*
D03*
X1262380Y956310D02*
D03*
X1252220D02*
D03*
X1299101Y577771D02*
D03*
X1153160Y981710D02*
D03*
X1423670Y662940D02*
D03*
X1440180Y661670D02*
D03*
X1456690Y662940D02*
D03*
X1310640Y745490D02*
D03*
X1343660Y676910D02*
D03*
X1305560Y617220D02*
D03*
X1308100Y629920D02*
D03*
X1285240Y577850D02*
D03*
X1297940Y786130D02*
D03*
X1310640Y787400D02*
D03*
X1236980Y725170D02*
D03*
X1211580Y690880D02*
D03*
X1236980Y694690D02*
D03*
X1226820Y671830D02*
D03*
X1231900Y648970D02*
D03*
X1426210Y933450D02*
D03*
X1422400Y982980D02*
D03*
X1372722Y977900D02*
D03*
X1432560Y979170D02*
D03*
X1442161Y955599D02*
D03*
X1441450Y915670D02*
D03*
X1458153Y955040D02*
D03*
X1324610Y619760D02*
D03*
X1385570Y792480D02*
D03*
X1383030Y728980D02*
D03*
X1376680Y678180D02*
D03*
X1381760Y695960D02*
D03*
X1316990Y601980D02*
D03*
X1283970D02*
D03*
X1184910Y678180D02*
D03*
X1193800Y703580D02*
D03*
X1274370Y706150D02*
D03*
X1285370D02*
D03*
X1296370D02*
D03*
X1274370Y695150D02*
D03*
X1285370D02*
D03*
X1296370D02*
D03*
X1274370Y684150D02*
D03*
X1285370D02*
D03*
X1296370D02*
D03*
M02*
