G04*
G04 #@! TF.GenerationSoftware,Altium Limited,Altium Designer,23.10.1 (27)*
G04*
G04 Layer_Color=16711935*
%FSLAX44Y44*%
%MOMM*%
G71*
G04*
G04 #@! TF.SameCoordinates,E9324DD7-ED2E-445C-8A49-CA31A5FF0C81*
G04*
G04*
G04 #@! TF.FilePolarity,Negative*
G04*
G01*
G75*
%ADD37R,34.8000X5.9750*%
G04:AMPARAMS|DCode=41|XSize=1.2032mm|YSize=1.1032mm|CornerRadius=0.2141mm|HoleSize=0mm|Usage=FLASHONLY|Rotation=270.000|XOffset=0mm|YOffset=0mm|HoleType=Round|Shape=RoundedRectangle|*
%AMROUNDEDRECTD41*
21,1,1.2032,0.6750,0,0,270.0*
21,1,0.7750,1.1032,0,0,270.0*
1,1,0.4282,-0.3375,-0.3875*
1,1,0.4282,-0.3375,0.3875*
1,1,0.4282,0.3375,0.3875*
1,1,0.4282,0.3375,-0.3875*
%
%ADD41ROUNDEDRECTD41*%
%ADD50R,0.9032X4.4032*%
%ADD51R,0.9032X4.4032*%
%ADD53C,5.5032*%
%ADD54C,0.5588*%
%ADD55C,1.7032*%
%ADD56R,1.7032X1.7032*%
G04:AMPARAMS|DCode=57|XSize=1mm|YSize=1.8mm|CornerRadius=0.5mm|HoleSize=0mm|Usage=FLASHONLY|Rotation=270.000|XOffset=0mm|YOffset=0mm|HoleType=Round|Shape=RoundedRectangle|*
%AMROUNDEDRECTD57*
21,1,1.0000,0.8000,0,0,270.0*
21,1,0.0000,1.8000,0,0,270.0*
1,1,1.0000,-0.4000,0.0000*
1,1,1.0000,-0.4000,0.0000*
1,1,1.0000,0.4000,0.0000*
1,1,1.0000,0.4000,0.0000*
%
%ADD57ROUNDEDRECTD57*%
G04:AMPARAMS|DCode=58|XSize=1mm|YSize=2.1mm|CornerRadius=0.5mm|HoleSize=0mm|Usage=FLASHONLY|Rotation=270.000|XOffset=0mm|YOffset=0mm|HoleType=Round|Shape=RoundedRectangle|*
%AMROUNDEDRECTD58*
21,1,1.0000,1.1000,0,0,270.0*
21,1,0.0000,2.1000,0,0,270.0*
1,1,1.0000,-0.5500,0.0000*
1,1,1.0000,-0.5500,0.0000*
1,1,1.0000,0.5500,0.0000*
1,1,1.0000,0.5500,0.0000*
%
%ADD58ROUNDEDRECTD58*%
%ADD59C,0.6500*%
%ADD60R,1.7032X1.7032*%
%ADD61C,0.8128*%
%ADD78R,1.8000X1.6000*%
%ADD79R,0.8382X1.4732*%
D37*
X1287161Y1020319D02*
D03*
D41*
X1134930Y748030D02*
D03*
X1117930D02*
D03*
X1119260Y670560D02*
D03*
X1136260D02*
D03*
X1115450Y722630D02*
D03*
X1132450D02*
D03*
X1134930Y646430D02*
D03*
X1117930D02*
D03*
D50*
X1262161Y1012694D02*
D03*
X1302161D02*
D03*
X1412161D02*
D03*
X1432161D02*
D03*
X1362161D02*
D03*
X1392161D02*
D03*
X1402161D02*
D03*
X1292161D02*
D03*
X1322161D02*
D03*
X1382161D02*
D03*
X1352161D02*
D03*
X1422161D02*
D03*
X1442161D02*
D03*
X1312161D02*
D03*
X1282161D02*
D03*
X1372161D02*
D03*
X1272161D02*
D03*
X1192161D02*
D03*
X1242161D02*
D03*
X1142161D02*
D03*
X1212161D02*
D03*
X1232161D02*
D03*
X1162161D02*
D03*
X1132161D02*
D03*
X1172161D02*
D03*
X1152161D02*
D03*
X1122161D02*
D03*
X1252161D02*
D03*
X1222161D02*
D03*
X1202161D02*
D03*
X1182161D02*
D03*
D51*
X1452161D02*
D03*
D53*
X1537161Y534670D02*
D03*
X948690D02*
D03*
X1537161Y1042694D02*
D03*
X1037161D02*
D03*
D54*
X1551926Y519905D02*
D03*
X1558042Y534670D02*
D03*
X1551926Y549435D02*
D03*
X1537161Y555551D02*
D03*
X1522396Y549435D02*
D03*
X1516280Y534670D02*
D03*
X1522396Y519905D02*
D03*
X1537161Y513789D02*
D03*
X963455Y519905D02*
D03*
X969571Y534670D02*
D03*
X963455Y549435D02*
D03*
X948690Y555551D02*
D03*
X933925Y549435D02*
D03*
X927809Y534670D02*
D03*
X933925Y519905D02*
D03*
X948690Y513789D02*
D03*
X1551926Y1027929D02*
D03*
X1558042Y1042694D02*
D03*
X1551926Y1057459D02*
D03*
X1537161Y1063575D02*
D03*
X1522396Y1057459D02*
D03*
X1516280Y1042694D02*
D03*
X1522396Y1027929D02*
D03*
X1537161Y1021813D02*
D03*
X1051926Y1027929D02*
D03*
X1058042Y1042694D02*
D03*
X1051926Y1057459D02*
D03*
X1037161Y1063575D02*
D03*
X1022396Y1057459D02*
D03*
X1016280Y1042694D02*
D03*
X1022396Y1027929D02*
D03*
X1037161Y1021813D02*
D03*
D55*
X1038860Y820420D02*
D03*
Y845820D02*
D03*
Y871220D02*
D03*
X1233170Y842010D02*
D03*
X1159450Y773430D02*
D03*
Y748030D02*
D03*
Y722630D02*
D03*
Y697230D02*
D03*
Y671830D02*
D03*
Y646430D02*
D03*
Y621030D02*
D03*
X1295400Y842010D02*
D03*
X1463040Y840740D02*
D03*
X1402080D02*
D03*
X1330960Y808990D02*
D03*
X1242060Y929640D02*
D03*
D56*
X1038860Y896620D02*
D03*
X1159450Y798830D02*
D03*
X1330960Y834390D02*
D03*
D57*
X938310Y896640D02*
D03*
Y810240D02*
D03*
D58*
X980110Y896640D02*
D03*
Y810240D02*
D03*
D59*
X975110Y882340D02*
D03*
Y824540D02*
D03*
D60*
X1207770Y842010D02*
D03*
X1270000D02*
D03*
X1437640Y840740D02*
D03*
X1376680D02*
D03*
X1267460Y929640D02*
D03*
D61*
X1026160Y990600D02*
D03*
X1056640D02*
D03*
X1057910Y952500D02*
D03*
X1024890D02*
D03*
X998220Y835660D02*
D03*
X1002030Y868680D02*
D03*
D78*
X1220470Y867410D02*
D03*
X1282700D02*
D03*
X1451610D02*
D03*
X1390341Y866140D02*
D03*
D79*
X1216351Y867410D02*
D03*
X1224589D02*
D03*
X1278581D02*
D03*
X1286819D02*
D03*
X1447491D02*
D03*
X1455729D02*
D03*
X1386222Y866140D02*
D03*
X1394460D02*
D03*
M02*
